G04 EAGLE Gerber RS-274X export*
G75*
%MOMM*%
%FSLAX34Y34*%
%LPD*%
%INSilkscreen Bottom*%
%IPPOS*%
%AMOC8*
5,1,8,0,0,1.08239X$1,22.5*%
G01*
%ADD10C,0.152400*%
%ADD11C,0.101600*%
%ADD12C,0.076200*%
%ADD13C,0.127000*%
%ADD14C,0.254000*%


D10*
X273106Y444380D02*
X268167Y444380D01*
X268027Y444378D01*
X267888Y444372D01*
X267748Y444362D01*
X267609Y444348D01*
X267470Y444331D01*
X267332Y444309D01*
X267195Y444283D01*
X267058Y444254D01*
X266922Y444221D01*
X266788Y444184D01*
X266654Y444143D01*
X266522Y444098D01*
X266390Y444049D01*
X266261Y443997D01*
X266133Y443942D01*
X266006Y443882D01*
X265881Y443819D01*
X265758Y443753D01*
X265637Y443683D01*
X265518Y443610D01*
X265401Y443533D01*
X265287Y443453D01*
X265174Y443370D01*
X265064Y443284D01*
X264957Y443194D01*
X264852Y443102D01*
X264750Y443007D01*
X264650Y442909D01*
X264553Y442808D01*
X264459Y442704D01*
X264369Y442598D01*
X264281Y442489D01*
X264196Y442378D01*
X264115Y442264D01*
X264036Y442149D01*
X263961Y442031D01*
X263890Y441911D01*
X263822Y441788D01*
X263757Y441665D01*
X263696Y441539D01*
X263638Y441411D01*
X263584Y441283D01*
X263534Y441152D01*
X263487Y441020D01*
X263444Y440887D01*
X263405Y440753D01*
X263370Y440618D01*
X263339Y440482D01*
X263311Y440344D01*
X263288Y440207D01*
X263268Y440068D01*
X263252Y439929D01*
X263240Y439790D01*
X263232Y439651D01*
X263228Y439511D01*
X263228Y439371D01*
X263232Y439231D01*
X263240Y439092D01*
X263252Y438953D01*
X263268Y438814D01*
X263288Y438675D01*
X263311Y438538D01*
X263339Y438400D01*
X263370Y438264D01*
X263405Y438129D01*
X263444Y437995D01*
X263487Y437862D01*
X263534Y437730D01*
X263584Y437599D01*
X263638Y437471D01*
X263696Y437343D01*
X263757Y437217D01*
X263822Y437094D01*
X263890Y436972D01*
X263961Y436851D01*
X264036Y436733D01*
X264115Y436618D01*
X264196Y436504D01*
X264281Y436393D01*
X264369Y436284D01*
X264459Y436178D01*
X264553Y436074D01*
X264650Y435973D01*
X264750Y435875D01*
X264852Y435780D01*
X264957Y435688D01*
X265064Y435598D01*
X265174Y435512D01*
X265287Y435429D01*
X265401Y435349D01*
X265518Y435272D01*
X265637Y435199D01*
X265758Y435129D01*
X265881Y435063D01*
X266006Y435000D01*
X266133Y434940D01*
X266261Y434885D01*
X266390Y434833D01*
X266522Y434784D01*
X266654Y434739D01*
X266788Y434698D01*
X266922Y434661D01*
X267058Y434628D01*
X267195Y434599D01*
X267332Y434573D01*
X267470Y434551D01*
X267609Y434534D01*
X267748Y434520D01*
X267888Y434510D01*
X268027Y434504D01*
X268167Y434502D01*
X268167Y434503D02*
X273106Y434503D01*
X273106Y452283D01*
X268167Y452283D01*
X268167Y452282D02*
X268043Y452280D01*
X267919Y452274D01*
X267795Y452264D01*
X267672Y452251D01*
X267549Y452233D01*
X267427Y452212D01*
X267305Y452187D01*
X267184Y452158D01*
X267065Y452125D01*
X266946Y452089D01*
X266829Y452048D01*
X266713Y452005D01*
X266598Y451957D01*
X266485Y451906D01*
X266373Y451851D01*
X266264Y451793D01*
X266156Y451732D01*
X266050Y451667D01*
X265946Y451599D01*
X265845Y451527D01*
X265745Y451453D01*
X265649Y451375D01*
X265554Y451295D01*
X265462Y451211D01*
X265373Y451125D01*
X265287Y451036D01*
X265203Y450944D01*
X265123Y450849D01*
X265045Y450753D01*
X264971Y450653D01*
X264899Y450552D01*
X264831Y450448D01*
X264766Y450342D01*
X264705Y450234D01*
X264647Y450125D01*
X264592Y450013D01*
X264541Y449900D01*
X264493Y449785D01*
X264450Y449669D01*
X264409Y449552D01*
X264373Y449433D01*
X264340Y449314D01*
X264311Y449193D01*
X264286Y449071D01*
X264265Y448949D01*
X264247Y448826D01*
X264234Y448703D01*
X264224Y448579D01*
X264218Y448455D01*
X264216Y448331D01*
X264218Y448207D01*
X264224Y448083D01*
X264234Y447959D01*
X264247Y447836D01*
X264265Y447713D01*
X264286Y447591D01*
X264311Y447469D01*
X264340Y447348D01*
X264373Y447229D01*
X264409Y447110D01*
X264450Y446993D01*
X264493Y446877D01*
X264541Y446762D01*
X264592Y446649D01*
X264647Y446537D01*
X264705Y446428D01*
X264766Y446320D01*
X264831Y446214D01*
X264899Y446110D01*
X264971Y446009D01*
X265045Y445909D01*
X265123Y445813D01*
X265203Y445718D01*
X265287Y445626D01*
X265373Y445537D01*
X265462Y445451D01*
X265554Y445367D01*
X265649Y445287D01*
X265745Y445209D01*
X265845Y445135D01*
X265946Y445063D01*
X266050Y444995D01*
X266156Y444930D01*
X266264Y444869D01*
X266373Y444811D01*
X266485Y444756D01*
X266598Y444705D01*
X266713Y444657D01*
X266829Y444614D01*
X266946Y444573D01*
X267065Y444537D01*
X267184Y444504D01*
X267305Y444475D01*
X267427Y444450D01*
X267549Y444429D01*
X267672Y444411D01*
X267795Y444398D01*
X267919Y444388D01*
X268043Y444382D01*
X268167Y444380D01*
X469872Y329631D02*
X469872Y311851D01*
X469872Y329631D02*
X464933Y329631D01*
X464793Y329629D01*
X464654Y329623D01*
X464514Y329613D01*
X464375Y329599D01*
X464236Y329582D01*
X464098Y329560D01*
X463961Y329534D01*
X463824Y329505D01*
X463688Y329472D01*
X463554Y329435D01*
X463420Y329394D01*
X463288Y329349D01*
X463156Y329300D01*
X463027Y329248D01*
X462899Y329193D01*
X462772Y329133D01*
X462647Y329070D01*
X462524Y329004D01*
X462403Y328934D01*
X462284Y328861D01*
X462167Y328784D01*
X462053Y328704D01*
X461940Y328621D01*
X461830Y328535D01*
X461723Y328445D01*
X461618Y328353D01*
X461516Y328258D01*
X461416Y328160D01*
X461319Y328059D01*
X461225Y327955D01*
X461135Y327849D01*
X461047Y327740D01*
X460962Y327629D01*
X460881Y327515D01*
X460802Y327400D01*
X460727Y327282D01*
X460656Y327162D01*
X460588Y327039D01*
X460523Y326916D01*
X460462Y326790D01*
X460404Y326662D01*
X460350Y326534D01*
X460300Y326403D01*
X460253Y326271D01*
X460210Y326138D01*
X460171Y326004D01*
X460136Y325869D01*
X460105Y325733D01*
X460077Y325595D01*
X460054Y325458D01*
X460034Y325319D01*
X460018Y325180D01*
X460006Y325041D01*
X459998Y324902D01*
X459994Y324762D01*
X459994Y324622D01*
X459998Y324482D01*
X460006Y324343D01*
X460018Y324204D01*
X460034Y324065D01*
X460054Y323926D01*
X460077Y323789D01*
X460105Y323651D01*
X460136Y323515D01*
X460171Y323380D01*
X460210Y323246D01*
X460253Y323113D01*
X460300Y322981D01*
X460350Y322850D01*
X460404Y322722D01*
X460462Y322594D01*
X460523Y322468D01*
X460588Y322345D01*
X460656Y322223D01*
X460727Y322102D01*
X460802Y321984D01*
X460881Y321869D01*
X460962Y321755D01*
X461047Y321644D01*
X461135Y321535D01*
X461225Y321429D01*
X461319Y321325D01*
X461416Y321224D01*
X461516Y321126D01*
X461618Y321031D01*
X461723Y320939D01*
X461830Y320849D01*
X461940Y320763D01*
X462053Y320680D01*
X462167Y320600D01*
X462284Y320523D01*
X462403Y320450D01*
X462524Y320380D01*
X462647Y320314D01*
X462772Y320251D01*
X462899Y320191D01*
X463027Y320136D01*
X463156Y320084D01*
X463288Y320035D01*
X463420Y319990D01*
X463554Y319949D01*
X463688Y319912D01*
X463824Y319879D01*
X463961Y319850D01*
X464098Y319824D01*
X464236Y319802D01*
X464375Y319785D01*
X464514Y319771D01*
X464654Y319761D01*
X464793Y319755D01*
X464933Y319753D01*
X469872Y319753D01*
X463945Y319753D02*
X459994Y311851D01*
X249900Y311645D02*
X249900Y329425D01*
X244962Y329425D01*
X244823Y329423D01*
X244685Y329417D01*
X244547Y329408D01*
X244409Y329394D01*
X244272Y329377D01*
X244135Y329355D01*
X243998Y329330D01*
X243863Y329301D01*
X243728Y329268D01*
X243595Y329232D01*
X243462Y329192D01*
X243331Y329148D01*
X243201Y329100D01*
X243072Y329049D01*
X242945Y328994D01*
X242819Y328936D01*
X242695Y328874D01*
X242573Y328809D01*
X242453Y328740D01*
X242334Y328668D01*
X242218Y328593D01*
X242104Y328514D01*
X241992Y328432D01*
X241883Y328347D01*
X241775Y328260D01*
X241671Y328169D01*
X241569Y328075D01*
X241470Y327978D01*
X241373Y327879D01*
X241279Y327777D01*
X241188Y327673D01*
X241101Y327565D01*
X241016Y327456D01*
X240934Y327344D01*
X240855Y327230D01*
X240780Y327114D01*
X240708Y326995D01*
X240639Y326875D01*
X240574Y326753D01*
X240512Y326629D01*
X240454Y326503D01*
X240399Y326376D01*
X240348Y326247D01*
X240300Y326117D01*
X240256Y325986D01*
X240216Y325853D01*
X240180Y325720D01*
X240147Y325585D01*
X240118Y325450D01*
X240093Y325313D01*
X240071Y325176D01*
X240054Y325039D01*
X240040Y324901D01*
X240031Y324763D01*
X240025Y324625D01*
X240023Y324486D01*
X240023Y316584D01*
X240025Y316445D01*
X240031Y316307D01*
X240040Y316169D01*
X240054Y316031D01*
X240071Y315894D01*
X240093Y315757D01*
X240118Y315620D01*
X240147Y315485D01*
X240180Y315350D01*
X240216Y315217D01*
X240256Y315084D01*
X240300Y314953D01*
X240348Y314823D01*
X240399Y314694D01*
X240454Y314567D01*
X240512Y314441D01*
X240574Y314317D01*
X240639Y314195D01*
X240708Y314075D01*
X240780Y313956D01*
X240855Y313840D01*
X240934Y313726D01*
X241016Y313614D01*
X241101Y313505D01*
X241188Y313397D01*
X241279Y313293D01*
X241373Y313191D01*
X241470Y313092D01*
X241569Y312995D01*
X241671Y312901D01*
X241775Y312810D01*
X241883Y312723D01*
X241992Y312638D01*
X242104Y312556D01*
X242218Y312477D01*
X242334Y312402D01*
X242453Y312330D01*
X242573Y312261D01*
X242695Y312196D01*
X242819Y312134D01*
X242945Y312076D01*
X243072Y312021D01*
X243201Y311970D01*
X243331Y311922D01*
X243462Y311878D01*
X243595Y311838D01*
X243728Y311802D01*
X243863Y311769D01*
X243998Y311740D01*
X244135Y311715D01*
X244272Y311693D01*
X244409Y311676D01*
X244547Y311662D01*
X244685Y311653D01*
X244823Y311647D01*
X244962Y311645D01*
X249900Y311645D01*
X246231Y337523D02*
X242280Y337523D01*
X246231Y337523D02*
X246355Y337525D01*
X246479Y337531D01*
X246603Y337541D01*
X246726Y337554D01*
X246849Y337572D01*
X246971Y337593D01*
X247093Y337618D01*
X247214Y337647D01*
X247333Y337680D01*
X247452Y337716D01*
X247569Y337757D01*
X247685Y337800D01*
X247800Y337848D01*
X247913Y337899D01*
X248025Y337954D01*
X248134Y338012D01*
X248242Y338073D01*
X248348Y338138D01*
X248452Y338206D01*
X248553Y338278D01*
X248653Y338352D01*
X248749Y338430D01*
X248844Y338510D01*
X248936Y338594D01*
X249025Y338680D01*
X249111Y338769D01*
X249195Y338861D01*
X249275Y338956D01*
X249353Y339052D01*
X249427Y339152D01*
X249499Y339253D01*
X249567Y339357D01*
X249632Y339463D01*
X249693Y339571D01*
X249751Y339680D01*
X249806Y339792D01*
X249857Y339905D01*
X249905Y340020D01*
X249948Y340136D01*
X249989Y340253D01*
X250025Y340372D01*
X250058Y340491D01*
X250087Y340612D01*
X250112Y340734D01*
X250133Y340856D01*
X250151Y340979D01*
X250164Y341102D01*
X250174Y341226D01*
X250180Y341350D01*
X250182Y341474D01*
X250182Y351352D01*
X250180Y351476D01*
X250174Y351600D01*
X250164Y351724D01*
X250151Y351847D01*
X250133Y351970D01*
X250112Y352092D01*
X250087Y352214D01*
X250058Y352335D01*
X250025Y352454D01*
X249989Y352573D01*
X249948Y352690D01*
X249905Y352806D01*
X249857Y352921D01*
X249806Y353034D01*
X249751Y353146D01*
X249693Y353255D01*
X249632Y353363D01*
X249567Y353469D01*
X249499Y353573D01*
X249427Y353674D01*
X249353Y353774D01*
X249275Y353870D01*
X249195Y353965D01*
X249111Y354057D01*
X249025Y354146D01*
X248936Y354232D01*
X248844Y354316D01*
X248749Y354396D01*
X248653Y354474D01*
X248553Y354548D01*
X248452Y354620D01*
X248348Y354688D01*
X248242Y354753D01*
X248134Y354814D01*
X248025Y354872D01*
X247913Y354927D01*
X247800Y354978D01*
X247686Y355026D01*
X247569Y355069D01*
X247452Y355110D01*
X247333Y355146D01*
X247214Y355179D01*
X247093Y355208D01*
X246971Y355233D01*
X246849Y355254D01*
X246726Y355272D01*
X246603Y355285D01*
X246479Y355295D01*
X246355Y355301D01*
X246231Y355303D01*
X242280Y355303D01*
D11*
X426501Y467300D02*
X428096Y466183D01*
X426501Y467300D02*
X422778Y461983D01*
X425968Y459749D01*
X426051Y459694D01*
X426135Y459642D01*
X426222Y459593D01*
X426310Y459547D01*
X426400Y459505D01*
X426492Y459466D01*
X426585Y459431D01*
X426679Y459399D01*
X426774Y459371D01*
X426871Y459347D01*
X426968Y459326D01*
X427066Y459310D01*
X427165Y459296D01*
X427264Y459287D01*
X427363Y459282D01*
X427463Y459280D01*
X427562Y459282D01*
X427661Y459288D01*
X427760Y459298D01*
X427859Y459311D01*
X427957Y459329D01*
X428054Y459350D01*
X428150Y459374D01*
X428246Y459403D01*
X428340Y459435D01*
X428433Y459470D01*
X428524Y459509D01*
X428614Y459552D01*
X428702Y459598D01*
X428788Y459647D01*
X428873Y459700D01*
X428955Y459756D01*
X429035Y459815D01*
X429113Y459877D01*
X429188Y459942D01*
X429261Y460009D01*
X429331Y460080D01*
X429399Y460153D01*
X429463Y460229D01*
X429525Y460307D01*
X429584Y460387D01*
X433307Y465704D01*
X433362Y465787D01*
X433414Y465871D01*
X433463Y465958D01*
X433509Y466046D01*
X433551Y466136D01*
X433590Y466228D01*
X433625Y466321D01*
X433657Y466415D01*
X433685Y466510D01*
X433709Y466607D01*
X433730Y466704D01*
X433746Y466802D01*
X433760Y466901D01*
X433769Y467000D01*
X433774Y467099D01*
X433776Y467199D01*
X433774Y467298D01*
X433768Y467397D01*
X433758Y467496D01*
X433745Y467595D01*
X433727Y467693D01*
X433706Y467790D01*
X433682Y467886D01*
X433653Y467982D01*
X433621Y468076D01*
X433586Y468169D01*
X433547Y468260D01*
X433504Y468350D01*
X433458Y468438D01*
X433409Y468524D01*
X433356Y468609D01*
X433300Y468691D01*
X433241Y468771D01*
X433179Y468849D01*
X433114Y468924D01*
X433047Y468997D01*
X432976Y469067D01*
X432903Y469135D01*
X432827Y469199D01*
X432749Y469261D01*
X432669Y469320D01*
X432670Y469320D02*
X429479Y471554D01*
X424810Y474824D02*
X418108Y465253D01*
X412791Y468976D02*
X424810Y474824D01*
X419492Y478547D02*
X412791Y468976D01*
X408121Y472246D02*
X414822Y481817D01*
X412164Y483678D01*
X412164Y483679D02*
X412070Y483742D01*
X411974Y483802D01*
X411876Y483859D01*
X411776Y483912D01*
X411674Y483962D01*
X411570Y484008D01*
X411465Y484050D01*
X411359Y484089D01*
X411251Y484124D01*
X411142Y484155D01*
X411032Y484183D01*
X410921Y484206D01*
X410810Y484226D01*
X410698Y484242D01*
X410585Y484254D01*
X410472Y484262D01*
X410359Y484266D01*
X410245Y484266D01*
X410132Y484262D01*
X410019Y484254D01*
X409906Y484242D01*
X409794Y484226D01*
X409683Y484206D01*
X409572Y484183D01*
X409462Y484155D01*
X409353Y484124D01*
X409245Y484089D01*
X409139Y484050D01*
X409034Y484008D01*
X408930Y483962D01*
X408828Y483912D01*
X408728Y483859D01*
X408630Y483802D01*
X408534Y483742D01*
X408440Y483679D01*
X408349Y483612D01*
X408259Y483543D01*
X408172Y483470D01*
X408088Y483394D01*
X408007Y483315D01*
X407928Y483234D01*
X407852Y483150D01*
X407779Y483063D01*
X407710Y482974D01*
X407643Y482882D01*
X407644Y482881D02*
X404665Y478628D01*
X404602Y478534D01*
X404542Y478438D01*
X404485Y478340D01*
X404432Y478240D01*
X404382Y478138D01*
X404336Y478034D01*
X404294Y477929D01*
X404255Y477823D01*
X404220Y477715D01*
X404189Y477606D01*
X404161Y477496D01*
X404138Y477385D01*
X404118Y477274D01*
X404102Y477162D01*
X404090Y477049D01*
X404082Y476936D01*
X404078Y476823D01*
X404078Y476709D01*
X404082Y476596D01*
X404090Y476483D01*
X404102Y476370D01*
X404118Y476258D01*
X404138Y476147D01*
X404161Y476036D01*
X404189Y475926D01*
X404220Y475817D01*
X404255Y475709D01*
X404294Y475603D01*
X404336Y475498D01*
X404382Y475394D01*
X404432Y475292D01*
X404485Y475192D01*
X404542Y475094D01*
X404602Y474998D01*
X404665Y474904D01*
X404732Y474812D01*
X404801Y474723D01*
X404874Y474636D01*
X404950Y474552D01*
X405029Y474471D01*
X405110Y474392D01*
X405194Y474316D01*
X405281Y474243D01*
X405371Y474174D01*
X405462Y474107D01*
X408121Y472246D01*
X492049Y337254D02*
X492049Y335306D01*
X492049Y337254D02*
X485558Y337254D01*
X485558Y333359D01*
X485560Y333260D01*
X485566Y333160D01*
X485575Y333061D01*
X485588Y332963D01*
X485605Y332865D01*
X485626Y332767D01*
X485651Y332671D01*
X485679Y332576D01*
X485711Y332482D01*
X485746Y332389D01*
X485785Y332297D01*
X485828Y332207D01*
X485873Y332119D01*
X485923Y332032D01*
X485975Y331948D01*
X486031Y331865D01*
X486089Y331785D01*
X486151Y331707D01*
X486216Y331632D01*
X486284Y331559D01*
X486354Y331489D01*
X486427Y331421D01*
X486502Y331356D01*
X486580Y331294D01*
X486660Y331236D01*
X486743Y331180D01*
X486827Y331128D01*
X486914Y331078D01*
X487002Y331033D01*
X487092Y330990D01*
X487184Y330951D01*
X487277Y330916D01*
X487371Y330884D01*
X487466Y330856D01*
X487562Y330831D01*
X487660Y330810D01*
X487758Y330793D01*
X487856Y330780D01*
X487955Y330771D01*
X488055Y330765D01*
X488154Y330763D01*
X494646Y330763D01*
X494745Y330765D01*
X494845Y330771D01*
X494944Y330780D01*
X495042Y330793D01*
X495140Y330810D01*
X495238Y330831D01*
X495334Y330856D01*
X495429Y330884D01*
X495523Y330916D01*
X495616Y330951D01*
X495708Y330990D01*
X495798Y331033D01*
X495886Y331078D01*
X495973Y331128D01*
X496057Y331180D01*
X496140Y331236D01*
X496220Y331294D01*
X496298Y331356D01*
X496373Y331421D01*
X496446Y331489D01*
X496516Y331559D01*
X496584Y331632D01*
X496649Y331707D01*
X496711Y331785D01*
X496769Y331865D01*
X496825Y331948D01*
X496877Y332032D01*
X496927Y332119D01*
X496972Y332207D01*
X497015Y332297D01*
X497054Y332389D01*
X497089Y332481D01*
X497121Y332576D01*
X497149Y332671D01*
X497174Y332767D01*
X497195Y332865D01*
X497212Y332963D01*
X497225Y333061D01*
X497234Y333160D01*
X497240Y333260D01*
X497242Y333359D01*
X497242Y337254D01*
X497242Y342954D02*
X485558Y342954D01*
X485558Y349446D02*
X497242Y342954D01*
X497242Y349446D02*
X485558Y349446D01*
X485558Y355146D02*
X497242Y355146D01*
X497242Y358392D01*
X497240Y358505D01*
X497234Y358618D01*
X497224Y358731D01*
X497210Y358844D01*
X497193Y358956D01*
X497171Y359067D01*
X497146Y359177D01*
X497116Y359287D01*
X497083Y359395D01*
X497046Y359502D01*
X497006Y359608D01*
X496961Y359712D01*
X496913Y359815D01*
X496862Y359916D01*
X496807Y360015D01*
X496749Y360112D01*
X496687Y360207D01*
X496622Y360300D01*
X496554Y360390D01*
X496483Y360478D01*
X496408Y360564D01*
X496331Y360647D01*
X496251Y360727D01*
X496168Y360804D01*
X496082Y360879D01*
X495994Y360950D01*
X495904Y361018D01*
X495811Y361083D01*
X495716Y361145D01*
X495619Y361203D01*
X495520Y361258D01*
X495419Y361309D01*
X495316Y361357D01*
X495212Y361402D01*
X495106Y361442D01*
X494999Y361479D01*
X494891Y361512D01*
X494781Y361542D01*
X494671Y361567D01*
X494560Y361589D01*
X494448Y361606D01*
X494335Y361620D01*
X494222Y361630D01*
X494109Y361636D01*
X493996Y361638D01*
X488804Y361638D01*
X488691Y361636D01*
X488578Y361630D01*
X488465Y361620D01*
X488352Y361606D01*
X488240Y361589D01*
X488129Y361567D01*
X488019Y361542D01*
X487909Y361512D01*
X487801Y361479D01*
X487694Y361442D01*
X487588Y361402D01*
X487484Y361357D01*
X487381Y361309D01*
X487280Y361258D01*
X487181Y361203D01*
X487084Y361145D01*
X486989Y361083D01*
X486896Y361018D01*
X486806Y360950D01*
X486718Y360879D01*
X486632Y360804D01*
X486549Y360727D01*
X486469Y360647D01*
X486392Y360564D01*
X486317Y360478D01*
X486246Y360390D01*
X486178Y360300D01*
X486113Y360207D01*
X486051Y360112D01*
X485993Y360015D01*
X485938Y359916D01*
X485887Y359815D01*
X485839Y359712D01*
X485794Y359608D01*
X485754Y359502D01*
X485717Y359395D01*
X485684Y359287D01*
X485654Y359177D01*
X485629Y359067D01*
X485607Y358956D01*
X485590Y358844D01*
X485576Y358731D01*
X485566Y358618D01*
X485560Y358505D01*
X485558Y358392D01*
X485558Y355146D01*
X427351Y227280D02*
X425756Y226163D01*
X429479Y220846D01*
X432670Y223080D01*
X432669Y223080D02*
X432749Y223139D01*
X432827Y223201D01*
X432903Y223265D01*
X432976Y223333D01*
X433047Y223403D01*
X433114Y223476D01*
X433179Y223551D01*
X433241Y223629D01*
X433300Y223709D01*
X433356Y223791D01*
X433409Y223876D01*
X433458Y223962D01*
X433504Y224050D01*
X433547Y224140D01*
X433586Y224231D01*
X433621Y224324D01*
X433653Y224418D01*
X433682Y224514D01*
X433706Y224610D01*
X433727Y224707D01*
X433745Y224805D01*
X433758Y224904D01*
X433768Y225003D01*
X433774Y225102D01*
X433776Y225201D01*
X433774Y225301D01*
X433769Y225400D01*
X433759Y225499D01*
X433746Y225598D01*
X433730Y225696D01*
X433709Y225793D01*
X433685Y225890D01*
X433657Y225985D01*
X433625Y226079D01*
X433590Y226172D01*
X433551Y226264D01*
X433509Y226354D01*
X433463Y226442D01*
X433414Y226529D01*
X433362Y226613D01*
X433307Y226696D01*
X429584Y232013D01*
X429525Y232093D01*
X429463Y232171D01*
X429399Y232247D01*
X429331Y232320D01*
X429261Y232391D01*
X429188Y232458D01*
X429113Y232523D01*
X429035Y232585D01*
X428955Y232644D01*
X428873Y232700D01*
X428788Y232753D01*
X428702Y232802D01*
X428614Y232848D01*
X428524Y232891D01*
X428433Y232930D01*
X428340Y232965D01*
X428246Y232997D01*
X428150Y233026D01*
X428054Y233050D01*
X427957Y233071D01*
X427859Y233089D01*
X427760Y233102D01*
X427661Y233112D01*
X427562Y233118D01*
X427463Y233120D01*
X427363Y233118D01*
X427264Y233113D01*
X427165Y233104D01*
X427066Y233090D01*
X426968Y233074D01*
X426871Y233053D01*
X426774Y233029D01*
X426679Y233001D01*
X426585Y232969D01*
X426492Y232934D01*
X426400Y232895D01*
X426310Y232853D01*
X426222Y232807D01*
X426135Y232758D01*
X426051Y232706D01*
X425968Y232651D01*
X422778Y230417D01*
X418108Y227147D02*
X424809Y217576D01*
X419492Y213853D02*
X418108Y227147D01*
X412791Y223424D02*
X419492Y213853D01*
X414822Y210583D02*
X408121Y220154D01*
X405462Y218292D01*
X405462Y218293D02*
X405371Y218226D01*
X405281Y218157D01*
X405194Y218084D01*
X405110Y218008D01*
X405029Y217929D01*
X404950Y217848D01*
X404874Y217764D01*
X404801Y217677D01*
X404732Y217588D01*
X404665Y217496D01*
X404602Y217402D01*
X404542Y217306D01*
X404485Y217208D01*
X404432Y217108D01*
X404382Y217006D01*
X404336Y216902D01*
X404294Y216797D01*
X404255Y216691D01*
X404220Y216583D01*
X404189Y216474D01*
X404161Y216364D01*
X404138Y216253D01*
X404118Y216142D01*
X404102Y216030D01*
X404090Y215917D01*
X404082Y215804D01*
X404078Y215691D01*
X404078Y215577D01*
X404082Y215464D01*
X404090Y215351D01*
X404102Y215238D01*
X404118Y215126D01*
X404138Y215015D01*
X404161Y214904D01*
X404189Y214794D01*
X404220Y214685D01*
X404255Y214577D01*
X404294Y214471D01*
X404336Y214366D01*
X404382Y214262D01*
X404432Y214160D01*
X404485Y214060D01*
X404542Y213962D01*
X404602Y213866D01*
X404665Y213772D01*
X407644Y209518D01*
X407643Y209518D02*
X407710Y209427D01*
X407779Y209337D01*
X407852Y209250D01*
X407928Y209166D01*
X408007Y209085D01*
X408088Y209006D01*
X408172Y208930D01*
X408259Y208857D01*
X408349Y208788D01*
X408440Y208721D01*
X408534Y208658D01*
X408630Y208598D01*
X408728Y208541D01*
X408828Y208488D01*
X408930Y208438D01*
X409034Y208392D01*
X409139Y208350D01*
X409245Y208311D01*
X409353Y208276D01*
X409462Y208245D01*
X409572Y208217D01*
X409683Y208194D01*
X409794Y208174D01*
X409906Y208158D01*
X410019Y208146D01*
X410132Y208138D01*
X410245Y208134D01*
X410359Y208134D01*
X410472Y208138D01*
X410585Y208146D01*
X410698Y208158D01*
X410810Y208174D01*
X410921Y208194D01*
X411032Y208217D01*
X411142Y208245D01*
X411251Y208276D01*
X411359Y208311D01*
X411465Y208350D01*
X411570Y208392D01*
X411674Y208438D01*
X411776Y208488D01*
X411876Y208541D01*
X411974Y208598D01*
X412070Y208658D01*
X412164Y208721D01*
X414822Y210583D01*
X282896Y214783D02*
X281301Y215900D01*
X277578Y210583D01*
X280768Y208349D01*
X280851Y208294D01*
X280935Y208242D01*
X281022Y208193D01*
X281110Y208147D01*
X281200Y208105D01*
X281292Y208066D01*
X281385Y208031D01*
X281479Y207999D01*
X281574Y207971D01*
X281671Y207947D01*
X281768Y207926D01*
X281866Y207910D01*
X281965Y207896D01*
X282064Y207887D01*
X282163Y207882D01*
X282263Y207880D01*
X282362Y207882D01*
X282461Y207888D01*
X282560Y207898D01*
X282659Y207911D01*
X282757Y207929D01*
X282854Y207950D01*
X282950Y207974D01*
X283046Y208003D01*
X283140Y208035D01*
X283233Y208070D01*
X283324Y208109D01*
X283414Y208152D01*
X283502Y208198D01*
X283588Y208247D01*
X283673Y208300D01*
X283755Y208356D01*
X283835Y208415D01*
X283913Y208477D01*
X283988Y208542D01*
X284061Y208609D01*
X284131Y208680D01*
X284199Y208753D01*
X284263Y208829D01*
X284325Y208907D01*
X284384Y208987D01*
X288107Y214304D01*
X288162Y214387D01*
X288214Y214471D01*
X288263Y214558D01*
X288309Y214646D01*
X288351Y214736D01*
X288390Y214828D01*
X288425Y214921D01*
X288457Y215015D01*
X288485Y215110D01*
X288509Y215207D01*
X288530Y215304D01*
X288546Y215402D01*
X288560Y215501D01*
X288569Y215600D01*
X288574Y215699D01*
X288576Y215799D01*
X288574Y215898D01*
X288568Y215997D01*
X288558Y216096D01*
X288545Y216195D01*
X288527Y216293D01*
X288506Y216390D01*
X288482Y216486D01*
X288453Y216582D01*
X288421Y216676D01*
X288386Y216769D01*
X288347Y216860D01*
X288304Y216950D01*
X288258Y217038D01*
X288209Y217124D01*
X288156Y217209D01*
X288100Y217291D01*
X288041Y217371D01*
X287979Y217449D01*
X287914Y217524D01*
X287847Y217597D01*
X287776Y217667D01*
X287703Y217735D01*
X287627Y217799D01*
X287549Y217861D01*
X287469Y217920D01*
X287470Y217920D02*
X284279Y220154D01*
X279610Y223424D02*
X272908Y213853D01*
X267591Y217576D02*
X279610Y223424D01*
X274292Y227147D02*
X267591Y217576D01*
X262921Y220846D02*
X269622Y230417D01*
X266964Y232278D01*
X266964Y232279D02*
X266870Y232342D01*
X266774Y232402D01*
X266676Y232459D01*
X266576Y232512D01*
X266474Y232562D01*
X266370Y232608D01*
X266265Y232650D01*
X266159Y232689D01*
X266051Y232724D01*
X265942Y232755D01*
X265832Y232783D01*
X265721Y232806D01*
X265610Y232826D01*
X265498Y232842D01*
X265385Y232854D01*
X265272Y232862D01*
X265159Y232866D01*
X265045Y232866D01*
X264932Y232862D01*
X264819Y232854D01*
X264706Y232842D01*
X264594Y232826D01*
X264483Y232806D01*
X264372Y232783D01*
X264262Y232755D01*
X264153Y232724D01*
X264045Y232689D01*
X263939Y232650D01*
X263834Y232608D01*
X263730Y232562D01*
X263628Y232512D01*
X263528Y232459D01*
X263430Y232402D01*
X263334Y232342D01*
X263240Y232279D01*
X263149Y232212D01*
X263059Y232143D01*
X262972Y232070D01*
X262888Y231994D01*
X262807Y231915D01*
X262728Y231834D01*
X262652Y231750D01*
X262579Y231663D01*
X262510Y231574D01*
X262443Y231482D01*
X262444Y231481D02*
X259465Y227228D01*
X259402Y227134D01*
X259342Y227038D01*
X259285Y226940D01*
X259232Y226840D01*
X259182Y226738D01*
X259136Y226634D01*
X259094Y226529D01*
X259055Y226423D01*
X259020Y226315D01*
X258989Y226206D01*
X258961Y226096D01*
X258938Y225985D01*
X258918Y225874D01*
X258902Y225762D01*
X258890Y225649D01*
X258882Y225536D01*
X258878Y225423D01*
X258878Y225309D01*
X258882Y225196D01*
X258890Y225083D01*
X258902Y224970D01*
X258918Y224858D01*
X258938Y224747D01*
X258961Y224636D01*
X258989Y224526D01*
X259020Y224417D01*
X259055Y224309D01*
X259094Y224203D01*
X259136Y224098D01*
X259182Y223994D01*
X259232Y223892D01*
X259285Y223792D01*
X259342Y223694D01*
X259402Y223598D01*
X259465Y223504D01*
X259532Y223412D01*
X259601Y223323D01*
X259674Y223236D01*
X259750Y223152D01*
X259829Y223071D01*
X259910Y222992D01*
X259994Y222916D01*
X260081Y222843D01*
X260171Y222774D01*
X260262Y222707D01*
X262921Y220846D01*
X201649Y335306D02*
X201649Y337254D01*
X195158Y337254D01*
X195158Y333359D01*
X195160Y333260D01*
X195166Y333160D01*
X195175Y333061D01*
X195188Y332963D01*
X195205Y332865D01*
X195226Y332767D01*
X195251Y332671D01*
X195279Y332576D01*
X195311Y332482D01*
X195346Y332389D01*
X195385Y332297D01*
X195428Y332207D01*
X195473Y332119D01*
X195523Y332032D01*
X195575Y331948D01*
X195631Y331865D01*
X195689Y331785D01*
X195751Y331707D01*
X195816Y331632D01*
X195884Y331559D01*
X195954Y331489D01*
X196027Y331421D01*
X196102Y331356D01*
X196180Y331294D01*
X196260Y331236D01*
X196343Y331180D01*
X196427Y331128D01*
X196514Y331078D01*
X196602Y331033D01*
X196692Y330990D01*
X196784Y330951D01*
X196877Y330916D01*
X196971Y330884D01*
X197066Y330856D01*
X197162Y330831D01*
X197260Y330810D01*
X197358Y330793D01*
X197456Y330780D01*
X197555Y330771D01*
X197655Y330765D01*
X197754Y330763D01*
X204246Y330763D01*
X204345Y330765D01*
X204445Y330771D01*
X204544Y330780D01*
X204642Y330793D01*
X204740Y330810D01*
X204838Y330831D01*
X204934Y330856D01*
X205029Y330884D01*
X205123Y330916D01*
X205216Y330951D01*
X205308Y330990D01*
X205398Y331033D01*
X205486Y331078D01*
X205573Y331128D01*
X205657Y331180D01*
X205740Y331236D01*
X205820Y331294D01*
X205898Y331356D01*
X205973Y331421D01*
X206046Y331489D01*
X206116Y331559D01*
X206184Y331632D01*
X206249Y331707D01*
X206311Y331785D01*
X206369Y331865D01*
X206425Y331948D01*
X206477Y332032D01*
X206527Y332119D01*
X206572Y332207D01*
X206615Y332297D01*
X206654Y332389D01*
X206689Y332481D01*
X206721Y332576D01*
X206749Y332671D01*
X206774Y332767D01*
X206795Y332865D01*
X206812Y332963D01*
X206825Y333061D01*
X206834Y333160D01*
X206840Y333260D01*
X206842Y333359D01*
X206842Y337254D01*
X206842Y342954D02*
X195158Y342954D01*
X195158Y349446D02*
X206842Y342954D01*
X206842Y349446D02*
X195158Y349446D01*
X195158Y355146D02*
X206842Y355146D01*
X206842Y358392D01*
X206840Y358505D01*
X206834Y358618D01*
X206824Y358731D01*
X206810Y358844D01*
X206793Y358956D01*
X206771Y359067D01*
X206746Y359177D01*
X206716Y359287D01*
X206683Y359395D01*
X206646Y359502D01*
X206606Y359608D01*
X206561Y359712D01*
X206513Y359815D01*
X206462Y359916D01*
X206407Y360015D01*
X206349Y360112D01*
X206287Y360207D01*
X206222Y360300D01*
X206154Y360390D01*
X206083Y360478D01*
X206008Y360564D01*
X205931Y360647D01*
X205851Y360727D01*
X205768Y360804D01*
X205682Y360879D01*
X205594Y360950D01*
X205504Y361018D01*
X205411Y361083D01*
X205316Y361145D01*
X205219Y361203D01*
X205120Y361258D01*
X205019Y361309D01*
X204916Y361357D01*
X204812Y361402D01*
X204706Y361442D01*
X204599Y361479D01*
X204491Y361512D01*
X204381Y361542D01*
X204271Y361567D01*
X204160Y361589D01*
X204048Y361606D01*
X203935Y361620D01*
X203822Y361630D01*
X203709Y361636D01*
X203596Y361638D01*
X198404Y361638D01*
X198291Y361636D01*
X198178Y361630D01*
X198065Y361620D01*
X197952Y361606D01*
X197840Y361589D01*
X197729Y361567D01*
X197619Y361542D01*
X197509Y361512D01*
X197401Y361479D01*
X197294Y361442D01*
X197188Y361402D01*
X197084Y361357D01*
X196981Y361309D01*
X196880Y361258D01*
X196781Y361203D01*
X196684Y361145D01*
X196589Y361083D01*
X196496Y361018D01*
X196406Y360950D01*
X196318Y360879D01*
X196232Y360804D01*
X196149Y360727D01*
X196069Y360647D01*
X195992Y360564D01*
X195917Y360478D01*
X195846Y360390D01*
X195778Y360300D01*
X195713Y360207D01*
X195651Y360112D01*
X195593Y360015D01*
X195538Y359916D01*
X195487Y359815D01*
X195439Y359712D01*
X195394Y359608D01*
X195354Y359502D01*
X195317Y359395D01*
X195284Y359287D01*
X195254Y359177D01*
X195229Y359067D01*
X195207Y358956D01*
X195190Y358844D01*
X195176Y358731D01*
X195166Y358618D01*
X195160Y358505D01*
X195158Y358392D01*
X195158Y355146D01*
X280556Y477563D02*
X282151Y478680D01*
X280556Y477563D02*
X284279Y472246D01*
X287470Y474480D01*
X287469Y474480D02*
X287549Y474539D01*
X287627Y474601D01*
X287703Y474665D01*
X287776Y474733D01*
X287847Y474803D01*
X287914Y474876D01*
X287979Y474951D01*
X288041Y475029D01*
X288100Y475109D01*
X288156Y475191D01*
X288209Y475276D01*
X288258Y475362D01*
X288304Y475450D01*
X288347Y475540D01*
X288386Y475631D01*
X288421Y475724D01*
X288453Y475818D01*
X288482Y475914D01*
X288506Y476010D01*
X288527Y476107D01*
X288545Y476205D01*
X288558Y476304D01*
X288568Y476403D01*
X288574Y476502D01*
X288576Y476601D01*
X288574Y476701D01*
X288569Y476800D01*
X288559Y476899D01*
X288546Y476998D01*
X288530Y477096D01*
X288509Y477193D01*
X288485Y477290D01*
X288457Y477385D01*
X288425Y477479D01*
X288390Y477572D01*
X288351Y477664D01*
X288309Y477754D01*
X288263Y477842D01*
X288214Y477929D01*
X288162Y478013D01*
X288107Y478096D01*
X284384Y483413D01*
X284325Y483493D01*
X284263Y483571D01*
X284199Y483647D01*
X284131Y483720D01*
X284061Y483791D01*
X283988Y483858D01*
X283913Y483923D01*
X283835Y483985D01*
X283755Y484044D01*
X283673Y484100D01*
X283588Y484153D01*
X283502Y484202D01*
X283414Y484248D01*
X283324Y484291D01*
X283233Y484330D01*
X283140Y484365D01*
X283046Y484397D01*
X282950Y484426D01*
X282854Y484450D01*
X282757Y484471D01*
X282659Y484489D01*
X282560Y484502D01*
X282461Y484512D01*
X282362Y484518D01*
X282263Y484520D01*
X282163Y484518D01*
X282064Y484513D01*
X281965Y484504D01*
X281866Y484490D01*
X281768Y484474D01*
X281671Y484453D01*
X281574Y484429D01*
X281479Y484401D01*
X281385Y484369D01*
X281292Y484334D01*
X281200Y484295D01*
X281110Y484253D01*
X281022Y484207D01*
X280935Y484158D01*
X280851Y484106D01*
X280768Y484051D01*
X277578Y481817D01*
X272908Y478547D02*
X279609Y468976D01*
X274292Y465253D02*
X272908Y478547D01*
X267591Y474824D02*
X274292Y465253D01*
X269622Y461983D02*
X262921Y471554D01*
X260262Y469692D01*
X260262Y469693D02*
X260171Y469626D01*
X260081Y469557D01*
X259994Y469484D01*
X259910Y469408D01*
X259829Y469329D01*
X259750Y469248D01*
X259674Y469164D01*
X259601Y469077D01*
X259532Y468988D01*
X259465Y468896D01*
X259402Y468802D01*
X259342Y468706D01*
X259285Y468608D01*
X259232Y468508D01*
X259182Y468406D01*
X259136Y468302D01*
X259094Y468197D01*
X259055Y468091D01*
X259020Y467983D01*
X258989Y467874D01*
X258961Y467764D01*
X258938Y467653D01*
X258918Y467542D01*
X258902Y467430D01*
X258890Y467317D01*
X258882Y467204D01*
X258878Y467091D01*
X258878Y466977D01*
X258882Y466864D01*
X258890Y466751D01*
X258902Y466638D01*
X258918Y466526D01*
X258938Y466415D01*
X258961Y466304D01*
X258989Y466194D01*
X259020Y466085D01*
X259055Y465977D01*
X259094Y465871D01*
X259136Y465766D01*
X259182Y465662D01*
X259232Y465560D01*
X259285Y465460D01*
X259342Y465362D01*
X259402Y465266D01*
X259465Y465172D01*
X262444Y460918D01*
X262443Y460918D02*
X262510Y460827D01*
X262579Y460737D01*
X262652Y460650D01*
X262728Y460566D01*
X262807Y460485D01*
X262888Y460406D01*
X262972Y460330D01*
X263059Y460257D01*
X263149Y460188D01*
X263240Y460121D01*
X263334Y460058D01*
X263430Y459998D01*
X263528Y459941D01*
X263628Y459888D01*
X263730Y459838D01*
X263834Y459792D01*
X263939Y459750D01*
X264045Y459711D01*
X264153Y459676D01*
X264262Y459645D01*
X264372Y459617D01*
X264483Y459594D01*
X264594Y459574D01*
X264706Y459558D01*
X264819Y459546D01*
X264932Y459538D01*
X265045Y459534D01*
X265159Y459534D01*
X265272Y459538D01*
X265385Y459546D01*
X265498Y459558D01*
X265610Y459574D01*
X265721Y459594D01*
X265832Y459617D01*
X265942Y459645D01*
X266051Y459676D01*
X266159Y459711D01*
X266265Y459750D01*
X266370Y459792D01*
X266474Y459838D01*
X266576Y459888D01*
X266676Y459941D01*
X266774Y459998D01*
X266870Y460058D01*
X266964Y460121D01*
X269622Y461983D01*
D10*
X457536Y411890D02*
X457536Y394110D01*
X457536Y411890D02*
X452598Y411890D01*
X452458Y411888D01*
X452319Y411882D01*
X452179Y411872D01*
X452040Y411858D01*
X451901Y411841D01*
X451763Y411819D01*
X451626Y411793D01*
X451489Y411764D01*
X451353Y411731D01*
X451219Y411694D01*
X451085Y411653D01*
X450953Y411608D01*
X450821Y411559D01*
X450692Y411507D01*
X450564Y411452D01*
X450437Y411392D01*
X450312Y411329D01*
X450189Y411263D01*
X450068Y411193D01*
X449949Y411120D01*
X449832Y411043D01*
X449718Y410963D01*
X449605Y410880D01*
X449495Y410794D01*
X449388Y410704D01*
X449283Y410612D01*
X449181Y410517D01*
X449081Y410419D01*
X448984Y410318D01*
X448890Y410214D01*
X448800Y410108D01*
X448712Y409999D01*
X448627Y409888D01*
X448546Y409774D01*
X448467Y409659D01*
X448392Y409541D01*
X448321Y409421D01*
X448253Y409298D01*
X448188Y409175D01*
X448127Y409049D01*
X448069Y408921D01*
X448015Y408793D01*
X447965Y408662D01*
X447918Y408530D01*
X447875Y408397D01*
X447836Y408263D01*
X447801Y408128D01*
X447770Y407992D01*
X447742Y407854D01*
X447719Y407717D01*
X447699Y407578D01*
X447683Y407439D01*
X447671Y407300D01*
X447663Y407161D01*
X447659Y407021D01*
X447659Y406881D01*
X447663Y406741D01*
X447671Y406602D01*
X447683Y406463D01*
X447699Y406324D01*
X447719Y406185D01*
X447742Y406048D01*
X447770Y405910D01*
X447801Y405774D01*
X447836Y405639D01*
X447875Y405505D01*
X447918Y405372D01*
X447965Y405240D01*
X448015Y405109D01*
X448069Y404981D01*
X448127Y404853D01*
X448188Y404727D01*
X448253Y404604D01*
X448321Y404482D01*
X448392Y404361D01*
X448467Y404243D01*
X448546Y404128D01*
X448627Y404014D01*
X448712Y403903D01*
X448800Y403794D01*
X448890Y403688D01*
X448984Y403584D01*
X449081Y403483D01*
X449181Y403385D01*
X449283Y403290D01*
X449388Y403198D01*
X449495Y403108D01*
X449605Y403022D01*
X449718Y402939D01*
X449832Y402859D01*
X449949Y402782D01*
X450068Y402709D01*
X450189Y402639D01*
X450312Y402573D01*
X450437Y402510D01*
X450564Y402450D01*
X450692Y402395D01*
X450821Y402343D01*
X450953Y402294D01*
X451085Y402249D01*
X451219Y402208D01*
X451353Y402171D01*
X451489Y402138D01*
X451626Y402109D01*
X451763Y402083D01*
X451901Y402061D01*
X452040Y402044D01*
X452179Y402030D01*
X452319Y402020D01*
X452458Y402014D01*
X452598Y402012D01*
X457536Y402012D01*
X441541Y407939D02*
X436602Y411890D01*
X436602Y394110D01*
X431664Y394110D02*
X441541Y394110D01*
X453738Y286860D02*
X453738Y269080D01*
X453738Y286860D02*
X448799Y286860D01*
X448659Y286858D01*
X448520Y286852D01*
X448380Y286842D01*
X448241Y286828D01*
X448102Y286811D01*
X447964Y286789D01*
X447827Y286763D01*
X447690Y286734D01*
X447554Y286701D01*
X447420Y286664D01*
X447286Y286623D01*
X447154Y286578D01*
X447022Y286529D01*
X446893Y286477D01*
X446765Y286422D01*
X446638Y286362D01*
X446513Y286299D01*
X446390Y286233D01*
X446269Y286163D01*
X446150Y286090D01*
X446033Y286013D01*
X445919Y285933D01*
X445806Y285850D01*
X445696Y285764D01*
X445589Y285674D01*
X445484Y285582D01*
X445382Y285487D01*
X445282Y285389D01*
X445185Y285288D01*
X445091Y285184D01*
X445001Y285078D01*
X444913Y284969D01*
X444828Y284858D01*
X444747Y284744D01*
X444668Y284629D01*
X444593Y284511D01*
X444522Y284391D01*
X444454Y284268D01*
X444389Y284145D01*
X444328Y284019D01*
X444270Y283891D01*
X444216Y283763D01*
X444166Y283632D01*
X444119Y283500D01*
X444076Y283367D01*
X444037Y283233D01*
X444002Y283098D01*
X443971Y282962D01*
X443943Y282824D01*
X443920Y282687D01*
X443900Y282548D01*
X443884Y282409D01*
X443872Y282270D01*
X443864Y282131D01*
X443860Y281991D01*
X443860Y281851D01*
X443864Y281711D01*
X443872Y281572D01*
X443884Y281433D01*
X443900Y281294D01*
X443920Y281155D01*
X443943Y281018D01*
X443971Y280880D01*
X444002Y280744D01*
X444037Y280609D01*
X444076Y280475D01*
X444119Y280342D01*
X444166Y280210D01*
X444216Y280079D01*
X444270Y279951D01*
X444328Y279823D01*
X444389Y279697D01*
X444454Y279574D01*
X444522Y279452D01*
X444593Y279331D01*
X444668Y279213D01*
X444747Y279098D01*
X444828Y278984D01*
X444913Y278873D01*
X445001Y278764D01*
X445091Y278658D01*
X445185Y278554D01*
X445282Y278453D01*
X445382Y278355D01*
X445484Y278260D01*
X445589Y278168D01*
X445696Y278078D01*
X445806Y277992D01*
X445919Y277909D01*
X446033Y277829D01*
X446150Y277752D01*
X446269Y277679D01*
X446390Y277609D01*
X446513Y277543D01*
X446638Y277480D01*
X446765Y277420D01*
X446893Y277365D01*
X447022Y277313D01*
X447154Y277264D01*
X447286Y277219D01*
X447420Y277178D01*
X447554Y277141D01*
X447690Y277108D01*
X447827Y277079D01*
X447964Y277053D01*
X448102Y277031D01*
X448241Y277014D01*
X448380Y277000D01*
X448520Y276990D01*
X448659Y276984D01*
X448799Y276982D01*
X453738Y276982D01*
X432310Y286860D02*
X432178Y286858D01*
X432047Y286852D01*
X431915Y286842D01*
X431784Y286829D01*
X431654Y286811D01*
X431524Y286790D01*
X431394Y286765D01*
X431266Y286736D01*
X431138Y286703D01*
X431012Y286666D01*
X430886Y286626D01*
X430762Y286582D01*
X430639Y286534D01*
X430518Y286483D01*
X430398Y286428D01*
X430280Y286370D01*
X430164Y286308D01*
X430050Y286242D01*
X429937Y286174D01*
X429827Y286102D01*
X429719Y286027D01*
X429613Y285948D01*
X429509Y285867D01*
X429408Y285782D01*
X429310Y285695D01*
X429214Y285604D01*
X429121Y285511D01*
X429030Y285415D01*
X428943Y285317D01*
X428858Y285216D01*
X428777Y285112D01*
X428698Y285006D01*
X428623Y284898D01*
X428551Y284788D01*
X428483Y284675D01*
X428417Y284561D01*
X428355Y284445D01*
X428297Y284327D01*
X428242Y284207D01*
X428191Y284086D01*
X428143Y283963D01*
X428099Y283839D01*
X428059Y283713D01*
X428022Y283587D01*
X427989Y283459D01*
X427960Y283331D01*
X427935Y283201D01*
X427914Y283071D01*
X427896Y282941D01*
X427883Y282810D01*
X427873Y282678D01*
X427867Y282547D01*
X427865Y282415D01*
X432310Y286860D02*
X432460Y286858D01*
X432609Y286852D01*
X432758Y286842D01*
X432907Y286829D01*
X433056Y286811D01*
X433204Y286790D01*
X433352Y286764D01*
X433498Y286735D01*
X433644Y286702D01*
X433789Y286665D01*
X433933Y286624D01*
X434076Y286580D01*
X434218Y286532D01*
X434358Y286480D01*
X434497Y286425D01*
X434635Y286366D01*
X434770Y286303D01*
X434905Y286237D01*
X435037Y286167D01*
X435167Y286094D01*
X435296Y286017D01*
X435423Y285937D01*
X435547Y285854D01*
X435669Y285768D01*
X435789Y285678D01*
X435906Y285585D01*
X436021Y285490D01*
X436134Y285391D01*
X436244Y285289D01*
X436351Y285185D01*
X436455Y285078D01*
X436557Y284968D01*
X436655Y284855D01*
X436751Y284740D01*
X436843Y284622D01*
X436933Y284502D01*
X437019Y284380D01*
X437102Y284256D01*
X437182Y284129D01*
X437258Y284001D01*
X437331Y283870D01*
X437401Y283737D01*
X437467Y283603D01*
X437529Y283467D01*
X437588Y283330D01*
X437644Y283191D01*
X437695Y283050D01*
X437743Y282909D01*
X429347Y278958D02*
X429251Y279051D01*
X429159Y279147D01*
X429069Y279246D01*
X428982Y279347D01*
X428898Y279450D01*
X428816Y279555D01*
X428738Y279663D01*
X428663Y279773D01*
X428590Y279885D01*
X428521Y279999D01*
X428455Y280115D01*
X428393Y280233D01*
X428334Y280352D01*
X428278Y280473D01*
X428225Y280596D01*
X428176Y280720D01*
X428131Y280845D01*
X428088Y280972D01*
X428050Y281099D01*
X428015Y281228D01*
X427984Y281357D01*
X427956Y281488D01*
X427932Y281619D01*
X427911Y281751D01*
X427895Y281883D01*
X427882Y282016D01*
X427872Y282149D01*
X427867Y282282D01*
X427865Y282415D01*
X429347Y278958D02*
X437743Y269080D01*
X427865Y269080D01*
X415495Y275994D02*
X415495Y281921D01*
X415495Y275994D02*
X412038Y271549D01*
X415495Y275994D02*
X418952Y271549D01*
X415495Y275994D02*
X410062Y277970D01*
X415495Y275994D02*
X420928Y277970D01*
X359136Y233490D02*
X359136Y215710D01*
X359136Y233490D02*
X354198Y233490D01*
X354058Y233488D01*
X353919Y233482D01*
X353779Y233472D01*
X353640Y233458D01*
X353501Y233441D01*
X353363Y233419D01*
X353226Y233393D01*
X353089Y233364D01*
X352953Y233331D01*
X352819Y233294D01*
X352685Y233253D01*
X352553Y233208D01*
X352421Y233159D01*
X352292Y233107D01*
X352164Y233052D01*
X352037Y232992D01*
X351912Y232929D01*
X351789Y232863D01*
X351668Y232793D01*
X351549Y232720D01*
X351432Y232643D01*
X351318Y232563D01*
X351205Y232480D01*
X351095Y232394D01*
X350988Y232304D01*
X350883Y232212D01*
X350781Y232117D01*
X350681Y232019D01*
X350584Y231918D01*
X350490Y231814D01*
X350400Y231708D01*
X350312Y231599D01*
X350227Y231488D01*
X350146Y231374D01*
X350067Y231259D01*
X349992Y231141D01*
X349921Y231021D01*
X349853Y230898D01*
X349788Y230775D01*
X349727Y230649D01*
X349669Y230521D01*
X349615Y230393D01*
X349565Y230262D01*
X349518Y230130D01*
X349475Y229997D01*
X349436Y229863D01*
X349401Y229728D01*
X349370Y229592D01*
X349342Y229454D01*
X349319Y229317D01*
X349299Y229178D01*
X349283Y229039D01*
X349271Y228900D01*
X349263Y228761D01*
X349259Y228621D01*
X349259Y228481D01*
X349263Y228341D01*
X349271Y228202D01*
X349283Y228063D01*
X349299Y227924D01*
X349319Y227785D01*
X349342Y227648D01*
X349370Y227510D01*
X349401Y227374D01*
X349436Y227239D01*
X349475Y227105D01*
X349518Y226972D01*
X349565Y226840D01*
X349615Y226709D01*
X349669Y226581D01*
X349727Y226453D01*
X349788Y226327D01*
X349853Y226204D01*
X349921Y226081D01*
X349992Y225961D01*
X350067Y225843D01*
X350146Y225728D01*
X350227Y225614D01*
X350312Y225503D01*
X350400Y225394D01*
X350490Y225288D01*
X350584Y225184D01*
X350681Y225083D01*
X350781Y224985D01*
X350883Y224890D01*
X350988Y224798D01*
X351095Y224708D01*
X351205Y224622D01*
X351318Y224539D01*
X351432Y224459D01*
X351549Y224382D01*
X351668Y224309D01*
X351789Y224239D01*
X351912Y224173D01*
X352037Y224110D01*
X352164Y224050D01*
X352292Y223995D01*
X352421Y223943D01*
X352553Y223894D01*
X352685Y223849D01*
X352819Y223808D01*
X352953Y223771D01*
X353089Y223738D01*
X353226Y223709D01*
X353363Y223683D01*
X353501Y223661D01*
X353640Y223644D01*
X353779Y223630D01*
X353919Y223620D01*
X354058Y223614D01*
X354198Y223612D01*
X359136Y223612D01*
X343141Y215710D02*
X338202Y215710D01*
X338062Y215712D01*
X337923Y215718D01*
X337783Y215728D01*
X337644Y215742D01*
X337505Y215759D01*
X337367Y215781D01*
X337230Y215807D01*
X337093Y215836D01*
X336957Y215869D01*
X336823Y215906D01*
X336689Y215947D01*
X336557Y215992D01*
X336425Y216041D01*
X336296Y216093D01*
X336168Y216148D01*
X336041Y216208D01*
X335916Y216271D01*
X335793Y216337D01*
X335672Y216407D01*
X335553Y216480D01*
X335436Y216557D01*
X335322Y216637D01*
X335209Y216720D01*
X335099Y216806D01*
X334992Y216896D01*
X334887Y216988D01*
X334785Y217083D01*
X334685Y217181D01*
X334588Y217282D01*
X334494Y217386D01*
X334404Y217492D01*
X334316Y217601D01*
X334231Y217712D01*
X334150Y217826D01*
X334071Y217941D01*
X333996Y218059D01*
X333925Y218179D01*
X333857Y218302D01*
X333792Y218425D01*
X333731Y218551D01*
X333673Y218679D01*
X333619Y218807D01*
X333569Y218938D01*
X333522Y219070D01*
X333479Y219203D01*
X333440Y219337D01*
X333405Y219472D01*
X333374Y219608D01*
X333346Y219746D01*
X333323Y219883D01*
X333303Y220022D01*
X333287Y220161D01*
X333275Y220300D01*
X333267Y220439D01*
X333263Y220579D01*
X333263Y220719D01*
X333267Y220859D01*
X333275Y220998D01*
X333287Y221137D01*
X333303Y221276D01*
X333323Y221415D01*
X333346Y221552D01*
X333374Y221690D01*
X333405Y221826D01*
X333440Y221961D01*
X333479Y222095D01*
X333522Y222228D01*
X333569Y222360D01*
X333619Y222491D01*
X333673Y222619D01*
X333731Y222747D01*
X333792Y222873D01*
X333857Y222996D01*
X333925Y223119D01*
X333996Y223239D01*
X334071Y223357D01*
X334150Y223472D01*
X334231Y223586D01*
X334316Y223697D01*
X334404Y223806D01*
X334494Y223912D01*
X334588Y224016D01*
X334685Y224117D01*
X334785Y224215D01*
X334887Y224310D01*
X334992Y224402D01*
X335099Y224492D01*
X335209Y224578D01*
X335322Y224661D01*
X335436Y224741D01*
X335553Y224818D01*
X335672Y224891D01*
X335793Y224961D01*
X335916Y225027D01*
X336041Y225090D01*
X336168Y225150D01*
X336296Y225205D01*
X336425Y225257D01*
X336557Y225306D01*
X336689Y225351D01*
X336823Y225392D01*
X336957Y225429D01*
X337093Y225462D01*
X337230Y225491D01*
X337367Y225517D01*
X337505Y225539D01*
X337644Y225556D01*
X337783Y225570D01*
X337923Y225580D01*
X338062Y225586D01*
X338202Y225588D01*
X337215Y233490D02*
X343141Y233490D01*
X337215Y233490D02*
X337091Y233488D01*
X336967Y233482D01*
X336843Y233472D01*
X336720Y233459D01*
X336597Y233441D01*
X336475Y233420D01*
X336353Y233395D01*
X336232Y233366D01*
X336113Y233333D01*
X335994Y233297D01*
X335877Y233256D01*
X335761Y233213D01*
X335646Y233165D01*
X335533Y233114D01*
X335421Y233059D01*
X335312Y233001D01*
X335204Y232940D01*
X335098Y232875D01*
X334994Y232807D01*
X334893Y232735D01*
X334793Y232661D01*
X334697Y232583D01*
X334602Y232503D01*
X334510Y232419D01*
X334421Y232333D01*
X334335Y232244D01*
X334251Y232152D01*
X334171Y232057D01*
X334093Y231961D01*
X334019Y231861D01*
X333947Y231760D01*
X333879Y231656D01*
X333814Y231550D01*
X333753Y231442D01*
X333695Y231333D01*
X333640Y231221D01*
X333589Y231108D01*
X333541Y230993D01*
X333498Y230877D01*
X333457Y230760D01*
X333421Y230641D01*
X333388Y230522D01*
X333359Y230401D01*
X333334Y230279D01*
X333313Y230157D01*
X333295Y230034D01*
X333282Y229911D01*
X333272Y229787D01*
X333266Y229663D01*
X333264Y229539D01*
X333266Y229415D01*
X333272Y229291D01*
X333282Y229167D01*
X333295Y229044D01*
X333313Y228921D01*
X333334Y228799D01*
X333359Y228677D01*
X333388Y228556D01*
X333421Y228437D01*
X333457Y228318D01*
X333498Y228201D01*
X333541Y228085D01*
X333589Y227970D01*
X333640Y227857D01*
X333695Y227745D01*
X333753Y227636D01*
X333814Y227528D01*
X333879Y227422D01*
X333947Y227318D01*
X334019Y227217D01*
X334093Y227117D01*
X334171Y227021D01*
X334251Y226926D01*
X334335Y226834D01*
X334421Y226745D01*
X334510Y226659D01*
X334602Y226575D01*
X334697Y226495D01*
X334793Y226417D01*
X334893Y226343D01*
X334994Y226271D01*
X335098Y226203D01*
X335204Y226138D01*
X335312Y226077D01*
X335421Y226019D01*
X335533Y225964D01*
X335646Y225913D01*
X335761Y225865D01*
X335877Y225822D01*
X335994Y225781D01*
X336113Y225745D01*
X336232Y225712D01*
X336353Y225683D01*
X336475Y225658D01*
X336597Y225637D01*
X336720Y225619D01*
X336843Y225606D01*
X336967Y225596D01*
X337091Y225590D01*
X337215Y225588D01*
X341166Y225588D01*
X264546Y271620D02*
X264546Y289400D01*
X259608Y289400D01*
X259468Y289398D01*
X259329Y289392D01*
X259189Y289382D01*
X259050Y289368D01*
X258911Y289351D01*
X258773Y289329D01*
X258636Y289303D01*
X258499Y289274D01*
X258363Y289241D01*
X258229Y289204D01*
X258095Y289163D01*
X257963Y289118D01*
X257831Y289069D01*
X257702Y289017D01*
X257574Y288962D01*
X257447Y288902D01*
X257322Y288839D01*
X257199Y288773D01*
X257078Y288703D01*
X256959Y288630D01*
X256842Y288553D01*
X256728Y288473D01*
X256615Y288390D01*
X256505Y288304D01*
X256398Y288214D01*
X256293Y288122D01*
X256191Y288027D01*
X256091Y287929D01*
X255994Y287828D01*
X255900Y287724D01*
X255810Y287618D01*
X255722Y287509D01*
X255637Y287398D01*
X255556Y287284D01*
X255477Y287169D01*
X255402Y287051D01*
X255331Y286931D01*
X255263Y286808D01*
X255198Y286685D01*
X255137Y286559D01*
X255079Y286431D01*
X255025Y286303D01*
X254975Y286172D01*
X254928Y286040D01*
X254885Y285907D01*
X254846Y285773D01*
X254811Y285638D01*
X254780Y285502D01*
X254752Y285364D01*
X254729Y285227D01*
X254709Y285088D01*
X254693Y284949D01*
X254681Y284810D01*
X254673Y284671D01*
X254669Y284531D01*
X254669Y284391D01*
X254673Y284251D01*
X254681Y284112D01*
X254693Y283973D01*
X254709Y283834D01*
X254729Y283695D01*
X254752Y283558D01*
X254780Y283420D01*
X254811Y283284D01*
X254846Y283149D01*
X254885Y283015D01*
X254928Y282882D01*
X254975Y282750D01*
X255025Y282619D01*
X255079Y282491D01*
X255137Y282363D01*
X255198Y282237D01*
X255263Y282114D01*
X255331Y281992D01*
X255402Y281871D01*
X255477Y281753D01*
X255556Y281638D01*
X255637Y281524D01*
X255722Y281413D01*
X255810Y281304D01*
X255900Y281198D01*
X255994Y281094D01*
X256091Y280993D01*
X256191Y280895D01*
X256293Y280800D01*
X256398Y280708D01*
X256505Y280618D01*
X256615Y280532D01*
X256728Y280449D01*
X256842Y280369D01*
X256959Y280292D01*
X257078Y280219D01*
X257199Y280149D01*
X257322Y280083D01*
X257447Y280020D01*
X257574Y279960D01*
X257702Y279905D01*
X257831Y279853D01*
X257963Y279804D01*
X258095Y279759D01*
X258229Y279718D01*
X258363Y279681D01*
X258499Y279648D01*
X258636Y279619D01*
X258773Y279593D01*
X258911Y279571D01*
X259050Y279554D01*
X259189Y279540D01*
X259329Y279530D01*
X259468Y279524D01*
X259608Y279522D01*
X264546Y279522D01*
X248551Y275571D02*
X244600Y289400D01*
X248551Y275571D02*
X238674Y275571D01*
X241637Y279522D02*
X241637Y271620D01*
X260736Y394110D02*
X260736Y411890D01*
X255798Y411890D01*
X255658Y411888D01*
X255519Y411882D01*
X255379Y411872D01*
X255240Y411858D01*
X255101Y411841D01*
X254963Y411819D01*
X254826Y411793D01*
X254689Y411764D01*
X254553Y411731D01*
X254419Y411694D01*
X254285Y411653D01*
X254153Y411608D01*
X254021Y411559D01*
X253892Y411507D01*
X253764Y411452D01*
X253637Y411392D01*
X253512Y411329D01*
X253389Y411263D01*
X253268Y411193D01*
X253149Y411120D01*
X253032Y411043D01*
X252918Y410963D01*
X252805Y410880D01*
X252695Y410794D01*
X252588Y410704D01*
X252483Y410612D01*
X252381Y410517D01*
X252281Y410419D01*
X252184Y410318D01*
X252090Y410214D01*
X252000Y410108D01*
X251912Y409999D01*
X251827Y409888D01*
X251746Y409774D01*
X251667Y409659D01*
X251592Y409541D01*
X251521Y409421D01*
X251453Y409298D01*
X251388Y409175D01*
X251327Y409049D01*
X251269Y408921D01*
X251215Y408793D01*
X251165Y408662D01*
X251118Y408530D01*
X251075Y408397D01*
X251036Y408263D01*
X251001Y408128D01*
X250970Y407992D01*
X250942Y407854D01*
X250919Y407717D01*
X250899Y407578D01*
X250883Y407439D01*
X250871Y407300D01*
X250863Y407161D01*
X250859Y407021D01*
X250859Y406881D01*
X250863Y406741D01*
X250871Y406602D01*
X250883Y406463D01*
X250899Y406324D01*
X250919Y406185D01*
X250942Y406048D01*
X250970Y405910D01*
X251001Y405774D01*
X251036Y405639D01*
X251075Y405505D01*
X251118Y405372D01*
X251165Y405240D01*
X251215Y405109D01*
X251269Y404981D01*
X251327Y404853D01*
X251388Y404727D01*
X251453Y404604D01*
X251521Y404482D01*
X251592Y404361D01*
X251667Y404243D01*
X251746Y404128D01*
X251827Y404014D01*
X251912Y403903D01*
X252000Y403794D01*
X252090Y403688D01*
X252184Y403584D01*
X252281Y403483D01*
X252381Y403385D01*
X252483Y403290D01*
X252588Y403198D01*
X252695Y403108D01*
X252805Y403022D01*
X252918Y402939D01*
X253032Y402859D01*
X253149Y402782D01*
X253268Y402709D01*
X253389Y402639D01*
X253512Y402573D01*
X253637Y402510D01*
X253764Y402450D01*
X253892Y402395D01*
X254021Y402343D01*
X254153Y402294D01*
X254285Y402249D01*
X254419Y402208D01*
X254553Y402171D01*
X254689Y402138D01*
X254826Y402109D01*
X254963Y402083D01*
X255101Y402061D01*
X255240Y402044D01*
X255379Y402030D01*
X255519Y402020D01*
X255658Y402014D01*
X255798Y402012D01*
X260736Y402012D01*
X244741Y394110D02*
X238815Y394110D01*
X238691Y394112D01*
X238567Y394118D01*
X238443Y394128D01*
X238320Y394141D01*
X238197Y394159D01*
X238075Y394180D01*
X237953Y394205D01*
X237832Y394234D01*
X237713Y394267D01*
X237594Y394303D01*
X237477Y394344D01*
X237361Y394387D01*
X237246Y394435D01*
X237133Y394486D01*
X237021Y394541D01*
X236912Y394599D01*
X236804Y394660D01*
X236698Y394725D01*
X236594Y394793D01*
X236493Y394865D01*
X236393Y394939D01*
X236297Y395017D01*
X236202Y395097D01*
X236110Y395181D01*
X236021Y395267D01*
X235935Y395356D01*
X235851Y395448D01*
X235771Y395543D01*
X235693Y395639D01*
X235619Y395739D01*
X235547Y395840D01*
X235479Y395944D01*
X235414Y396050D01*
X235353Y396158D01*
X235295Y396267D01*
X235240Y396379D01*
X235189Y396492D01*
X235141Y396607D01*
X235098Y396723D01*
X235057Y396840D01*
X235021Y396959D01*
X234988Y397078D01*
X234959Y397199D01*
X234934Y397321D01*
X234913Y397443D01*
X234895Y397566D01*
X234882Y397689D01*
X234872Y397813D01*
X234866Y397937D01*
X234864Y398061D01*
X234864Y400037D01*
X234866Y400161D01*
X234872Y400285D01*
X234882Y400409D01*
X234895Y400532D01*
X234913Y400655D01*
X234934Y400777D01*
X234959Y400899D01*
X234988Y401020D01*
X235021Y401139D01*
X235057Y401258D01*
X235098Y401375D01*
X235141Y401491D01*
X235189Y401606D01*
X235240Y401719D01*
X235295Y401831D01*
X235353Y401940D01*
X235414Y402048D01*
X235479Y402154D01*
X235547Y402258D01*
X235619Y402359D01*
X235693Y402459D01*
X235771Y402555D01*
X235851Y402650D01*
X235935Y402742D01*
X236021Y402831D01*
X236110Y402917D01*
X236202Y403001D01*
X236297Y403081D01*
X236393Y403159D01*
X236493Y403233D01*
X236594Y403305D01*
X236698Y403373D01*
X236804Y403438D01*
X236912Y403499D01*
X237021Y403557D01*
X237133Y403612D01*
X237246Y403663D01*
X237361Y403711D01*
X237477Y403754D01*
X237594Y403795D01*
X237713Y403831D01*
X237832Y403864D01*
X237953Y403893D01*
X238075Y403918D01*
X238197Y403939D01*
X238320Y403957D01*
X238443Y403970D01*
X238567Y403980D01*
X238691Y403986D01*
X238815Y403988D01*
X244741Y403988D01*
X244741Y411890D01*
X234864Y411890D01*
X395404Y259603D02*
X395404Y241823D01*
X395404Y251701D02*
X385526Y251701D01*
X385526Y259603D02*
X385526Y241823D01*
X378095Y255652D02*
X373156Y259603D01*
X373156Y241823D01*
X378095Y241823D02*
X368217Y241823D01*
X360786Y241823D02*
X360786Y259603D01*
X355847Y259603D01*
X355708Y259601D01*
X355570Y259595D01*
X355432Y259586D01*
X355294Y259572D01*
X355157Y259555D01*
X355020Y259533D01*
X354883Y259508D01*
X354748Y259479D01*
X354613Y259446D01*
X354480Y259410D01*
X354347Y259370D01*
X354216Y259326D01*
X354086Y259278D01*
X353957Y259227D01*
X353830Y259172D01*
X353704Y259114D01*
X353580Y259052D01*
X353458Y258987D01*
X353338Y258918D01*
X353219Y258846D01*
X353103Y258771D01*
X352989Y258692D01*
X352877Y258610D01*
X352768Y258525D01*
X352660Y258438D01*
X352556Y258347D01*
X352454Y258253D01*
X352355Y258156D01*
X352258Y258057D01*
X352164Y257955D01*
X352073Y257851D01*
X351986Y257743D01*
X351901Y257634D01*
X351819Y257522D01*
X351740Y257408D01*
X351665Y257292D01*
X351593Y257173D01*
X351524Y257053D01*
X351459Y256931D01*
X351397Y256807D01*
X351339Y256681D01*
X351284Y256554D01*
X351233Y256425D01*
X351185Y256295D01*
X351141Y256164D01*
X351101Y256031D01*
X351065Y255898D01*
X351032Y255763D01*
X351003Y255628D01*
X350978Y255491D01*
X350956Y255354D01*
X350939Y255217D01*
X350925Y255079D01*
X350916Y254941D01*
X350910Y254803D01*
X350908Y254664D01*
X350908Y246762D01*
X350910Y246623D01*
X350916Y246485D01*
X350925Y246347D01*
X350939Y246209D01*
X350956Y246072D01*
X350978Y245935D01*
X351003Y245798D01*
X351032Y245663D01*
X351065Y245528D01*
X351101Y245395D01*
X351141Y245262D01*
X351185Y245131D01*
X351233Y245001D01*
X351284Y244872D01*
X351339Y244745D01*
X351397Y244619D01*
X351459Y244495D01*
X351524Y244373D01*
X351593Y244253D01*
X351665Y244134D01*
X351740Y244018D01*
X351819Y243904D01*
X351901Y243792D01*
X351986Y243683D01*
X352073Y243575D01*
X352164Y243471D01*
X352258Y243369D01*
X352355Y243270D01*
X352454Y243173D01*
X352556Y243079D01*
X352660Y242988D01*
X352768Y242901D01*
X352877Y242816D01*
X352989Y242734D01*
X353103Y242655D01*
X353219Y242580D01*
X353338Y242508D01*
X353458Y242439D01*
X353580Y242374D01*
X353704Y242312D01*
X353830Y242254D01*
X353957Y242199D01*
X354086Y242148D01*
X354216Y242100D01*
X354347Y242056D01*
X354480Y242016D01*
X354613Y241980D01*
X354748Y241947D01*
X354883Y241918D01*
X355020Y241893D01*
X355157Y241871D01*
X355294Y241854D01*
X355432Y241840D01*
X355570Y241831D01*
X355708Y241825D01*
X355847Y241823D01*
X360786Y241823D01*
X342834Y241823D02*
X342834Y259603D01*
X337895Y259603D01*
X337755Y259601D01*
X337616Y259595D01*
X337476Y259585D01*
X337337Y259571D01*
X337198Y259554D01*
X337060Y259532D01*
X336923Y259506D01*
X336786Y259477D01*
X336650Y259444D01*
X336516Y259407D01*
X336382Y259366D01*
X336250Y259321D01*
X336118Y259272D01*
X335989Y259220D01*
X335861Y259165D01*
X335734Y259105D01*
X335609Y259042D01*
X335486Y258976D01*
X335365Y258906D01*
X335246Y258833D01*
X335129Y258756D01*
X335015Y258676D01*
X334902Y258593D01*
X334792Y258507D01*
X334685Y258417D01*
X334580Y258325D01*
X334478Y258230D01*
X334378Y258132D01*
X334281Y258031D01*
X334187Y257927D01*
X334097Y257821D01*
X334009Y257712D01*
X333924Y257601D01*
X333843Y257487D01*
X333764Y257372D01*
X333689Y257254D01*
X333618Y257134D01*
X333550Y257011D01*
X333485Y256888D01*
X333424Y256762D01*
X333366Y256634D01*
X333312Y256506D01*
X333262Y256375D01*
X333215Y256243D01*
X333172Y256110D01*
X333133Y255976D01*
X333098Y255841D01*
X333067Y255705D01*
X333039Y255567D01*
X333016Y255430D01*
X332996Y255291D01*
X332980Y255152D01*
X332968Y255013D01*
X332960Y254874D01*
X332956Y254734D01*
X332956Y254594D01*
X332960Y254454D01*
X332968Y254315D01*
X332980Y254176D01*
X332996Y254037D01*
X333016Y253898D01*
X333039Y253761D01*
X333067Y253623D01*
X333098Y253487D01*
X333133Y253352D01*
X333172Y253218D01*
X333215Y253085D01*
X333262Y252953D01*
X333312Y252822D01*
X333366Y252694D01*
X333424Y252566D01*
X333485Y252440D01*
X333550Y252317D01*
X333618Y252194D01*
X333689Y252074D01*
X333764Y251956D01*
X333843Y251841D01*
X333924Y251727D01*
X334009Y251616D01*
X334097Y251507D01*
X334187Y251401D01*
X334281Y251297D01*
X334378Y251196D01*
X334478Y251098D01*
X334580Y251003D01*
X334685Y250911D01*
X334792Y250821D01*
X334902Y250735D01*
X335015Y250652D01*
X335129Y250572D01*
X335246Y250495D01*
X335365Y250422D01*
X335486Y250352D01*
X335609Y250286D01*
X335734Y250223D01*
X335861Y250163D01*
X335989Y250108D01*
X336118Y250056D01*
X336250Y250007D01*
X336382Y249962D01*
X336516Y249921D01*
X336650Y249884D01*
X336786Y249851D01*
X336923Y249822D01*
X337060Y249796D01*
X337198Y249774D01*
X337337Y249757D01*
X337476Y249743D01*
X337616Y249733D01*
X337755Y249727D01*
X337895Y249725D01*
X342834Y249725D01*
X336907Y249725D02*
X332956Y241823D01*
X326169Y255652D02*
X321230Y259603D01*
X321230Y241823D01*
X326169Y241823D02*
X316291Y241823D01*
X309418Y255652D02*
X304479Y259603D01*
X304479Y241823D01*
X309418Y241823D02*
X299540Y241823D01*
D12*
X436844Y370694D02*
X436844Y372782D01*
X436844Y370694D02*
X436846Y370605D01*
X436852Y370517D01*
X436861Y370429D01*
X436874Y370341D01*
X436891Y370254D01*
X436911Y370168D01*
X436936Y370083D01*
X436963Y369998D01*
X436995Y369915D01*
X437029Y369834D01*
X437068Y369754D01*
X437109Y369676D01*
X437154Y369599D01*
X437202Y369525D01*
X437253Y369452D01*
X437307Y369382D01*
X437365Y369315D01*
X437425Y369249D01*
X437487Y369187D01*
X437553Y369127D01*
X437620Y369069D01*
X437690Y369015D01*
X437763Y368964D01*
X437837Y368916D01*
X437914Y368871D01*
X437992Y368830D01*
X438072Y368791D01*
X438153Y368757D01*
X438236Y368725D01*
X438321Y368698D01*
X438406Y368673D01*
X438492Y368653D01*
X438579Y368636D01*
X438667Y368623D01*
X438755Y368614D01*
X438843Y368608D01*
X438932Y368606D01*
X438932Y368605D02*
X444153Y368605D01*
X444153Y368606D02*
X444244Y368608D01*
X444335Y368614D01*
X444426Y368624D01*
X444516Y368638D01*
X444605Y368655D01*
X444693Y368677D01*
X444781Y368703D01*
X444867Y368732D01*
X444952Y368765D01*
X445035Y368802D01*
X445117Y368842D01*
X445197Y368886D01*
X445275Y368933D01*
X445351Y368984D01*
X445424Y369037D01*
X445495Y369094D01*
X445564Y369155D01*
X445629Y369218D01*
X445692Y369283D01*
X445752Y369352D01*
X445810Y369423D01*
X445863Y369496D01*
X445914Y369572D01*
X445961Y369650D01*
X446005Y369730D01*
X446045Y369812D01*
X446082Y369895D01*
X446115Y369980D01*
X446144Y370066D01*
X446170Y370154D01*
X446192Y370242D01*
X446209Y370331D01*
X446223Y370421D01*
X446233Y370512D01*
X446239Y370603D01*
X446241Y370694D01*
X446242Y370694D02*
X446242Y372782D01*
X444153Y376251D02*
X446242Y378861D01*
X436844Y378861D01*
X436844Y376251D02*
X436844Y381472D01*
D10*
X430517Y294805D02*
X450647Y294805D01*
D12*
X400431Y302531D02*
X400431Y304619D01*
X400431Y302531D02*
X400433Y302442D01*
X400439Y302354D01*
X400448Y302266D01*
X400461Y302178D01*
X400478Y302091D01*
X400498Y302005D01*
X400523Y301920D01*
X400550Y301835D01*
X400582Y301752D01*
X400616Y301671D01*
X400655Y301591D01*
X400696Y301513D01*
X400741Y301436D01*
X400789Y301362D01*
X400840Y301289D01*
X400894Y301219D01*
X400952Y301152D01*
X401012Y301086D01*
X401074Y301024D01*
X401140Y300964D01*
X401207Y300906D01*
X401277Y300852D01*
X401350Y300801D01*
X401424Y300753D01*
X401501Y300708D01*
X401579Y300667D01*
X401659Y300628D01*
X401740Y300594D01*
X401823Y300562D01*
X401908Y300535D01*
X401993Y300510D01*
X402079Y300490D01*
X402166Y300473D01*
X402254Y300460D01*
X402342Y300451D01*
X402430Y300445D01*
X402519Y300443D01*
X402519Y300442D02*
X407741Y300442D01*
X407741Y300443D02*
X407832Y300445D01*
X407923Y300451D01*
X408014Y300461D01*
X408104Y300475D01*
X408193Y300492D01*
X408281Y300514D01*
X408369Y300540D01*
X408455Y300569D01*
X408540Y300602D01*
X408623Y300639D01*
X408705Y300679D01*
X408785Y300723D01*
X408863Y300770D01*
X408939Y300821D01*
X409012Y300874D01*
X409083Y300931D01*
X409152Y300992D01*
X409217Y301055D01*
X409280Y301120D01*
X409340Y301189D01*
X409398Y301260D01*
X409451Y301333D01*
X409502Y301409D01*
X409549Y301487D01*
X409593Y301567D01*
X409633Y301649D01*
X409670Y301732D01*
X409703Y301817D01*
X409732Y301903D01*
X409758Y301991D01*
X409780Y302079D01*
X409797Y302168D01*
X409811Y302258D01*
X409821Y302349D01*
X409827Y302440D01*
X409829Y302531D01*
X409829Y304619D01*
X409830Y310960D02*
X409828Y311055D01*
X409822Y311149D01*
X409813Y311243D01*
X409800Y311337D01*
X409783Y311430D01*
X409762Y311522D01*
X409737Y311614D01*
X409709Y311704D01*
X409677Y311793D01*
X409642Y311881D01*
X409603Y311967D01*
X409561Y312052D01*
X409515Y312135D01*
X409466Y312216D01*
X409414Y312295D01*
X409359Y312372D01*
X409300Y312446D01*
X409239Y312518D01*
X409175Y312588D01*
X409108Y312655D01*
X409038Y312719D01*
X408966Y312780D01*
X408892Y312839D01*
X408815Y312894D01*
X408736Y312946D01*
X408655Y312995D01*
X408572Y313041D01*
X408487Y313083D01*
X408401Y313122D01*
X408313Y313157D01*
X408224Y313189D01*
X408134Y313217D01*
X408042Y313242D01*
X407950Y313263D01*
X407857Y313280D01*
X407763Y313293D01*
X407669Y313302D01*
X407575Y313308D01*
X407480Y313310D01*
X409829Y310960D02*
X409827Y310852D01*
X409821Y310743D01*
X409811Y310635D01*
X409798Y310528D01*
X409780Y310421D01*
X409759Y310314D01*
X409734Y310209D01*
X409705Y310104D01*
X409673Y310001D01*
X409636Y309899D01*
X409596Y309798D01*
X409553Y309699D01*
X409506Y309601D01*
X409455Y309505D01*
X409401Y309411D01*
X409344Y309319D01*
X409283Y309229D01*
X409219Y309141D01*
X409153Y309056D01*
X409083Y308973D01*
X409010Y308893D01*
X408934Y308815D01*
X408856Y308740D01*
X408775Y308668D01*
X408691Y308599D01*
X408605Y308533D01*
X408517Y308470D01*
X408426Y308411D01*
X408334Y308354D01*
X408239Y308301D01*
X408143Y308252D01*
X408044Y308206D01*
X407945Y308163D01*
X407843Y308124D01*
X407741Y308089D01*
X405652Y312526D02*
X405721Y312595D01*
X405792Y312661D01*
X405865Y312725D01*
X405941Y312786D01*
X406020Y312844D01*
X406100Y312898D01*
X406183Y312950D01*
X406267Y312998D01*
X406353Y313044D01*
X406441Y313085D01*
X406531Y313124D01*
X406622Y313159D01*
X406714Y313190D01*
X406807Y313218D01*
X406901Y313242D01*
X406996Y313262D01*
X407092Y313279D01*
X407189Y313292D01*
X407286Y313301D01*
X407383Y313307D01*
X407480Y313309D01*
X405652Y312526D02*
X400431Y308088D01*
X400431Y313309D01*
X282992Y327726D02*
X273594Y327726D01*
X282992Y327726D02*
X282992Y330337D01*
X282990Y330438D01*
X282984Y330539D01*
X282974Y330640D01*
X282961Y330740D01*
X282943Y330840D01*
X282922Y330939D01*
X282896Y331037D01*
X282867Y331134D01*
X282835Y331230D01*
X282798Y331324D01*
X282758Y331417D01*
X282714Y331509D01*
X282667Y331598D01*
X282616Y331686D01*
X282562Y331772D01*
X282505Y331855D01*
X282445Y331937D01*
X282381Y332015D01*
X282315Y332092D01*
X282245Y332165D01*
X282173Y332236D01*
X282098Y332304D01*
X282020Y332369D01*
X281940Y332431D01*
X281858Y332490D01*
X281773Y332546D01*
X281687Y332598D01*
X281598Y332647D01*
X281507Y332693D01*
X281415Y332734D01*
X281321Y332773D01*
X281226Y332807D01*
X281130Y332838D01*
X281032Y332865D01*
X280934Y332889D01*
X280834Y332908D01*
X280734Y332924D01*
X280634Y332936D01*
X280533Y332944D01*
X280432Y332948D01*
X280330Y332948D01*
X280229Y332944D01*
X280128Y332936D01*
X280028Y332924D01*
X279928Y332908D01*
X279828Y332889D01*
X279730Y332865D01*
X279632Y332838D01*
X279536Y332807D01*
X279441Y332773D01*
X279347Y332734D01*
X279255Y332693D01*
X279164Y332647D01*
X279076Y332598D01*
X278989Y332546D01*
X278904Y332490D01*
X278822Y332431D01*
X278742Y332369D01*
X278664Y332304D01*
X278589Y332236D01*
X278517Y332165D01*
X278447Y332092D01*
X278381Y332015D01*
X278317Y331937D01*
X278257Y331855D01*
X278200Y331772D01*
X278146Y331686D01*
X278095Y331598D01*
X278048Y331509D01*
X278004Y331417D01*
X277964Y331324D01*
X277927Y331230D01*
X277895Y331134D01*
X277866Y331037D01*
X277840Y330939D01*
X277819Y330840D01*
X277801Y330740D01*
X277788Y330640D01*
X277778Y330539D01*
X277772Y330438D01*
X277770Y330337D01*
X277770Y327726D01*
X277770Y330859D02*
X273594Y332947D01*
X280903Y336813D02*
X282992Y339423D01*
X273594Y339423D01*
X273594Y336813D02*
X273594Y342034D01*
D13*
X376202Y381202D02*
X381202Y376202D01*
X311202Y311212D02*
X311202Y311202D01*
X385972Y373852D02*
X385974Y373941D01*
X385980Y374030D01*
X385990Y374119D01*
X386004Y374207D01*
X386021Y374294D01*
X386043Y374380D01*
X386069Y374466D01*
X386098Y374550D01*
X386131Y374633D01*
X386167Y374714D01*
X386208Y374794D01*
X386251Y374871D01*
X386298Y374947D01*
X386349Y375020D01*
X386402Y375091D01*
X386459Y375160D01*
X386519Y375226D01*
X386582Y375290D01*
X386647Y375350D01*
X386715Y375408D01*
X386786Y375462D01*
X386859Y375513D01*
X386934Y375561D01*
X387011Y375606D01*
X387090Y375647D01*
X387171Y375684D01*
X387253Y375718D01*
X387337Y375749D01*
X387422Y375775D01*
X387508Y375798D01*
X387595Y375816D01*
X387683Y375831D01*
X387772Y375842D01*
X387861Y375849D01*
X387950Y375852D01*
X388039Y375851D01*
X388128Y375846D01*
X388216Y375837D01*
X388305Y375824D01*
X388392Y375807D01*
X388479Y375787D01*
X388565Y375762D01*
X388649Y375734D01*
X388732Y375702D01*
X388814Y375666D01*
X388894Y375627D01*
X388972Y375584D01*
X389048Y375538D01*
X389122Y375488D01*
X389194Y375435D01*
X389263Y375379D01*
X389330Y375320D01*
X389394Y375258D01*
X389455Y375194D01*
X389514Y375126D01*
X389569Y375056D01*
X389621Y374984D01*
X389670Y374909D01*
X389715Y374833D01*
X389757Y374754D01*
X389795Y374674D01*
X389830Y374592D01*
X389861Y374508D01*
X389889Y374423D01*
X389912Y374337D01*
X389932Y374250D01*
X389948Y374163D01*
X389960Y374074D01*
X389968Y373986D01*
X389972Y373897D01*
X389972Y373807D01*
X389968Y373718D01*
X389960Y373630D01*
X389948Y373541D01*
X389932Y373454D01*
X389912Y373367D01*
X389889Y373281D01*
X389861Y373196D01*
X389830Y373112D01*
X389795Y373030D01*
X389757Y372950D01*
X389715Y372871D01*
X389670Y372795D01*
X389621Y372720D01*
X389569Y372648D01*
X389514Y372578D01*
X389455Y372510D01*
X389394Y372446D01*
X389330Y372384D01*
X389263Y372325D01*
X389194Y372269D01*
X389122Y372216D01*
X389048Y372166D01*
X388972Y372120D01*
X388894Y372077D01*
X388814Y372038D01*
X388732Y372002D01*
X388649Y371970D01*
X388565Y371942D01*
X388479Y371917D01*
X388392Y371897D01*
X388305Y371880D01*
X388216Y371867D01*
X388128Y371858D01*
X388039Y371853D01*
X387950Y371852D01*
X387861Y371855D01*
X387772Y371862D01*
X387683Y371873D01*
X387595Y371888D01*
X387508Y371906D01*
X387422Y371929D01*
X387337Y371955D01*
X387253Y371986D01*
X387171Y372020D01*
X387090Y372057D01*
X387011Y372098D01*
X386934Y372143D01*
X386859Y372191D01*
X386786Y372242D01*
X386715Y372296D01*
X386647Y372354D01*
X386582Y372414D01*
X386519Y372478D01*
X386459Y372544D01*
X386402Y372613D01*
X386349Y372684D01*
X386298Y372757D01*
X386251Y372833D01*
X386208Y372910D01*
X386167Y372990D01*
X386131Y373071D01*
X386098Y373154D01*
X386069Y373238D01*
X386043Y373324D01*
X386021Y373410D01*
X386004Y373497D01*
X385990Y373585D01*
X385980Y373674D01*
X385974Y373763D01*
X385972Y373852D01*
X311242Y381212D02*
X311242Y381222D01*
X315942Y381222D01*
X315902Y311212D02*
X311202Y311212D01*
X311242Y376522D02*
X311242Y381212D01*
X311192Y315902D02*
X311192Y311202D01*
X376522Y311202D02*
X381222Y311202D01*
X381222Y311192D02*
X381222Y315892D01*
D12*
X326467Y390024D02*
X326467Y396811D01*
X326467Y390024D02*
X326465Y389923D01*
X326459Y389822D01*
X326449Y389721D01*
X326436Y389621D01*
X326418Y389521D01*
X326397Y389422D01*
X326371Y389324D01*
X326342Y389227D01*
X326310Y389131D01*
X326273Y389037D01*
X326233Y388944D01*
X326189Y388852D01*
X326142Y388763D01*
X326091Y388675D01*
X326037Y388589D01*
X325980Y388506D01*
X325920Y388424D01*
X325856Y388346D01*
X325790Y388269D01*
X325720Y388196D01*
X325648Y388125D01*
X325573Y388057D01*
X325495Y387992D01*
X325415Y387930D01*
X325333Y387871D01*
X325248Y387815D01*
X325161Y387763D01*
X325073Y387714D01*
X324982Y387668D01*
X324890Y387627D01*
X324796Y387588D01*
X324701Y387554D01*
X324605Y387523D01*
X324507Y387496D01*
X324409Y387472D01*
X324309Y387453D01*
X324209Y387437D01*
X324109Y387425D01*
X324008Y387417D01*
X323907Y387413D01*
X323805Y387413D01*
X323704Y387417D01*
X323603Y387425D01*
X323503Y387437D01*
X323403Y387453D01*
X323303Y387472D01*
X323205Y387496D01*
X323107Y387523D01*
X323011Y387554D01*
X322916Y387588D01*
X322822Y387627D01*
X322730Y387668D01*
X322639Y387714D01*
X322551Y387763D01*
X322464Y387815D01*
X322379Y387871D01*
X322297Y387930D01*
X322217Y387992D01*
X322139Y388057D01*
X322064Y388125D01*
X321992Y388196D01*
X321922Y388269D01*
X321856Y388346D01*
X321792Y388424D01*
X321732Y388506D01*
X321675Y388589D01*
X321621Y388675D01*
X321570Y388763D01*
X321523Y388852D01*
X321479Y388944D01*
X321439Y389037D01*
X321402Y389131D01*
X321370Y389227D01*
X321341Y389324D01*
X321315Y389422D01*
X321294Y389521D01*
X321276Y389621D01*
X321263Y389721D01*
X321253Y389822D01*
X321247Y389923D01*
X321245Y390024D01*
X321246Y390024D02*
X321246Y396811D01*
X317018Y394723D02*
X314408Y396811D01*
X314408Y387413D01*
X317018Y387413D02*
X311797Y387413D01*
D14*
X408145Y368790D02*
X408145Y333230D01*
X428465Y333230D01*
X428465Y368790D01*
X408145Y368790D01*
D12*
X419082Y370850D02*
X428480Y377115D01*
X428480Y370850D02*
X419082Y377115D01*
X426392Y380516D02*
X428480Y383126D01*
X419082Y383126D01*
X419082Y380516D02*
X419082Y385737D01*
X346497Y390510D02*
X337099Y390510D01*
X346497Y390510D02*
X346497Y393120D01*
X346495Y393221D01*
X346489Y393322D01*
X346479Y393423D01*
X346466Y393523D01*
X346448Y393623D01*
X346427Y393722D01*
X346401Y393820D01*
X346372Y393917D01*
X346340Y394013D01*
X346303Y394107D01*
X346263Y394200D01*
X346219Y394292D01*
X346172Y394381D01*
X346121Y394469D01*
X346067Y394555D01*
X346010Y394638D01*
X345950Y394720D01*
X345886Y394798D01*
X345820Y394875D01*
X345750Y394948D01*
X345678Y395019D01*
X345603Y395087D01*
X345525Y395152D01*
X345445Y395214D01*
X345363Y395273D01*
X345278Y395329D01*
X345192Y395381D01*
X345103Y395430D01*
X345012Y395476D01*
X344920Y395517D01*
X344826Y395556D01*
X344731Y395590D01*
X344635Y395621D01*
X344537Y395648D01*
X344439Y395672D01*
X344339Y395691D01*
X344239Y395707D01*
X344139Y395719D01*
X344038Y395727D01*
X343937Y395731D01*
X343835Y395731D01*
X343734Y395727D01*
X343633Y395719D01*
X343533Y395707D01*
X343433Y395691D01*
X343333Y395672D01*
X343235Y395648D01*
X343137Y395621D01*
X343041Y395590D01*
X342946Y395556D01*
X342852Y395517D01*
X342760Y395476D01*
X342669Y395430D01*
X342581Y395381D01*
X342494Y395329D01*
X342409Y395273D01*
X342327Y395214D01*
X342247Y395152D01*
X342169Y395087D01*
X342094Y395019D01*
X342022Y394948D01*
X341952Y394875D01*
X341886Y394798D01*
X341822Y394720D01*
X341762Y394638D01*
X341705Y394555D01*
X341651Y394469D01*
X341600Y394381D01*
X341553Y394292D01*
X341509Y394200D01*
X341469Y394107D01*
X341432Y394013D01*
X341400Y393917D01*
X341371Y393820D01*
X341345Y393722D01*
X341324Y393623D01*
X341306Y393523D01*
X341293Y393423D01*
X341283Y393322D01*
X341277Y393221D01*
X341275Y393120D01*
X341276Y393120D02*
X341276Y390510D01*
X341276Y393642D02*
X337099Y395731D01*
X337099Y399596D02*
X337099Y402207D01*
X337098Y402207D02*
X337100Y402308D01*
X337106Y402409D01*
X337116Y402510D01*
X337129Y402610D01*
X337147Y402710D01*
X337168Y402809D01*
X337194Y402907D01*
X337223Y403004D01*
X337255Y403100D01*
X337292Y403194D01*
X337332Y403287D01*
X337376Y403379D01*
X337423Y403468D01*
X337474Y403556D01*
X337528Y403642D01*
X337585Y403725D01*
X337645Y403807D01*
X337709Y403885D01*
X337775Y403962D01*
X337845Y404035D01*
X337917Y404106D01*
X337992Y404174D01*
X338070Y404239D01*
X338150Y404301D01*
X338232Y404360D01*
X338317Y404416D01*
X338404Y404468D01*
X338492Y404517D01*
X338583Y404563D01*
X338675Y404604D01*
X338769Y404643D01*
X338864Y404677D01*
X338960Y404708D01*
X339058Y404735D01*
X339156Y404759D01*
X339256Y404778D01*
X339356Y404794D01*
X339456Y404806D01*
X339557Y404814D01*
X339658Y404818D01*
X339760Y404818D01*
X339861Y404814D01*
X339962Y404806D01*
X340062Y404794D01*
X340162Y404778D01*
X340262Y404759D01*
X340360Y404735D01*
X340458Y404708D01*
X340554Y404677D01*
X340649Y404643D01*
X340743Y404604D01*
X340835Y404563D01*
X340926Y404517D01*
X341015Y404468D01*
X341101Y404416D01*
X341186Y404360D01*
X341268Y404301D01*
X341348Y404239D01*
X341426Y404174D01*
X341501Y404106D01*
X341573Y404035D01*
X341643Y403962D01*
X341709Y403885D01*
X341773Y403807D01*
X341833Y403725D01*
X341890Y403642D01*
X341944Y403556D01*
X341995Y403468D01*
X342042Y403379D01*
X342086Y403287D01*
X342126Y403194D01*
X342163Y403100D01*
X342195Y403004D01*
X342224Y402907D01*
X342250Y402809D01*
X342271Y402710D01*
X342289Y402610D01*
X342302Y402510D01*
X342312Y402409D01*
X342318Y402308D01*
X342320Y402207D01*
X346497Y402729D02*
X346497Y399596D01*
X346496Y402729D02*
X346494Y402819D01*
X346488Y402908D01*
X346479Y402998D01*
X346465Y403087D01*
X346448Y403175D01*
X346427Y403262D01*
X346402Y403349D01*
X346373Y403434D01*
X346341Y403518D01*
X346306Y403600D01*
X346266Y403681D01*
X346224Y403760D01*
X346178Y403837D01*
X346128Y403912D01*
X346076Y403985D01*
X346020Y404056D01*
X345962Y404124D01*
X345900Y404189D01*
X345836Y404252D01*
X345769Y404312D01*
X345700Y404369D01*
X345628Y404423D01*
X345554Y404474D01*
X345478Y404522D01*
X345400Y404566D01*
X345320Y404607D01*
X345238Y404645D01*
X345155Y404679D01*
X345070Y404709D01*
X344984Y404736D01*
X344898Y404759D01*
X344810Y404778D01*
X344721Y404793D01*
X344632Y404805D01*
X344543Y404813D01*
X344453Y404817D01*
X344363Y404817D01*
X344273Y404813D01*
X344184Y404805D01*
X344095Y404793D01*
X344006Y404778D01*
X343918Y404759D01*
X343832Y404736D01*
X343746Y404709D01*
X343661Y404679D01*
X343578Y404645D01*
X343496Y404607D01*
X343416Y404566D01*
X343338Y404522D01*
X343262Y404474D01*
X343188Y404423D01*
X343116Y404369D01*
X343047Y404312D01*
X342980Y404252D01*
X342916Y404189D01*
X342854Y404124D01*
X342796Y404056D01*
X342740Y403985D01*
X342688Y403912D01*
X342638Y403837D01*
X342592Y403760D01*
X342550Y403681D01*
X342510Y403600D01*
X342475Y403518D01*
X342443Y403434D01*
X342414Y403349D01*
X342389Y403262D01*
X342368Y403175D01*
X342351Y403087D01*
X342337Y402998D01*
X342328Y402908D01*
X342322Y402819D01*
X342320Y402729D01*
X342320Y400641D01*
D10*
X285763Y406235D02*
X265633Y406235D01*
D12*
X273238Y410332D02*
X273238Y412421D01*
X273239Y410332D02*
X273241Y410243D01*
X273247Y410155D01*
X273256Y410067D01*
X273269Y409979D01*
X273286Y409892D01*
X273306Y409806D01*
X273331Y409721D01*
X273358Y409636D01*
X273390Y409553D01*
X273424Y409472D01*
X273463Y409392D01*
X273504Y409314D01*
X273549Y409237D01*
X273597Y409163D01*
X273648Y409090D01*
X273702Y409020D01*
X273760Y408953D01*
X273820Y408887D01*
X273882Y408825D01*
X273948Y408765D01*
X274015Y408707D01*
X274085Y408653D01*
X274158Y408602D01*
X274232Y408554D01*
X274309Y408509D01*
X274387Y408468D01*
X274467Y408429D01*
X274548Y408395D01*
X274631Y408363D01*
X274716Y408336D01*
X274801Y408311D01*
X274887Y408291D01*
X274974Y408274D01*
X275062Y408261D01*
X275150Y408252D01*
X275238Y408246D01*
X275327Y408244D01*
X280548Y408244D01*
X280639Y408246D01*
X280730Y408252D01*
X280821Y408262D01*
X280911Y408276D01*
X281000Y408293D01*
X281088Y408315D01*
X281176Y408341D01*
X281262Y408370D01*
X281347Y408403D01*
X281430Y408440D01*
X281512Y408480D01*
X281592Y408524D01*
X281670Y408571D01*
X281746Y408622D01*
X281819Y408675D01*
X281890Y408732D01*
X281959Y408793D01*
X282024Y408856D01*
X282087Y408921D01*
X282147Y408990D01*
X282205Y409061D01*
X282258Y409134D01*
X282309Y409210D01*
X282356Y409288D01*
X282400Y409368D01*
X282440Y409450D01*
X282477Y409533D01*
X282510Y409618D01*
X282539Y409704D01*
X282565Y409792D01*
X282587Y409880D01*
X282604Y409969D01*
X282618Y410059D01*
X282628Y410150D01*
X282634Y410241D01*
X282636Y410332D01*
X282636Y412421D01*
X273238Y415889D02*
X273238Y418500D01*
X273240Y418601D01*
X273246Y418702D01*
X273256Y418803D01*
X273269Y418903D01*
X273287Y419003D01*
X273308Y419102D01*
X273334Y419200D01*
X273363Y419297D01*
X273395Y419393D01*
X273432Y419487D01*
X273472Y419580D01*
X273516Y419672D01*
X273563Y419761D01*
X273614Y419849D01*
X273668Y419935D01*
X273725Y420018D01*
X273785Y420100D01*
X273849Y420178D01*
X273915Y420255D01*
X273985Y420328D01*
X274057Y420399D01*
X274132Y420467D01*
X274210Y420532D01*
X274290Y420594D01*
X274372Y420653D01*
X274457Y420709D01*
X274544Y420761D01*
X274632Y420810D01*
X274723Y420856D01*
X274815Y420897D01*
X274909Y420936D01*
X275004Y420970D01*
X275100Y421001D01*
X275198Y421028D01*
X275296Y421052D01*
X275396Y421071D01*
X275496Y421087D01*
X275596Y421099D01*
X275697Y421107D01*
X275798Y421111D01*
X275900Y421111D01*
X276001Y421107D01*
X276102Y421099D01*
X276202Y421087D01*
X276302Y421071D01*
X276402Y421052D01*
X276500Y421028D01*
X276598Y421001D01*
X276694Y420970D01*
X276789Y420936D01*
X276883Y420897D01*
X276975Y420856D01*
X277066Y420810D01*
X277155Y420761D01*
X277241Y420709D01*
X277326Y420653D01*
X277408Y420594D01*
X277488Y420532D01*
X277566Y420467D01*
X277641Y420399D01*
X277713Y420328D01*
X277783Y420255D01*
X277849Y420178D01*
X277913Y420100D01*
X277973Y420018D01*
X278030Y419935D01*
X278084Y419849D01*
X278135Y419761D01*
X278182Y419672D01*
X278226Y419580D01*
X278266Y419487D01*
X278303Y419393D01*
X278335Y419297D01*
X278364Y419200D01*
X278390Y419102D01*
X278411Y419003D01*
X278429Y418903D01*
X278442Y418803D01*
X278452Y418702D01*
X278458Y418601D01*
X278460Y418500D01*
X282636Y419022D02*
X282636Y415889D01*
X282636Y419022D02*
X282634Y419112D01*
X282628Y419201D01*
X282619Y419291D01*
X282605Y419380D01*
X282588Y419468D01*
X282567Y419555D01*
X282542Y419642D01*
X282513Y419727D01*
X282481Y419811D01*
X282446Y419893D01*
X282406Y419974D01*
X282364Y420053D01*
X282318Y420130D01*
X282268Y420205D01*
X282216Y420278D01*
X282160Y420349D01*
X282102Y420417D01*
X282040Y420482D01*
X281976Y420545D01*
X281909Y420605D01*
X281840Y420662D01*
X281768Y420716D01*
X281694Y420767D01*
X281618Y420815D01*
X281540Y420859D01*
X281460Y420900D01*
X281378Y420938D01*
X281295Y420972D01*
X281210Y421002D01*
X281124Y421029D01*
X281038Y421052D01*
X280950Y421071D01*
X280861Y421086D01*
X280772Y421098D01*
X280683Y421106D01*
X280593Y421110D01*
X280503Y421110D01*
X280413Y421106D01*
X280324Y421098D01*
X280235Y421086D01*
X280146Y421071D01*
X280058Y421052D01*
X279972Y421029D01*
X279886Y421002D01*
X279801Y420972D01*
X279718Y420938D01*
X279636Y420900D01*
X279556Y420859D01*
X279478Y420815D01*
X279402Y420767D01*
X279328Y420716D01*
X279256Y420662D01*
X279187Y420605D01*
X279120Y420545D01*
X279056Y420482D01*
X278994Y420417D01*
X278936Y420349D01*
X278880Y420278D01*
X278828Y420205D01*
X278778Y420130D01*
X278732Y420053D01*
X278690Y419974D01*
X278650Y419893D01*
X278615Y419811D01*
X278583Y419727D01*
X278554Y419642D01*
X278529Y419555D01*
X278508Y419468D01*
X278491Y419380D01*
X278477Y419291D01*
X278468Y419201D01*
X278462Y419112D01*
X278460Y419022D01*
X278459Y419022D02*
X278459Y416934D01*
D10*
X286817Y284645D02*
X266687Y284645D01*
D12*
X274140Y273224D02*
X274140Y271135D01*
X274142Y271046D01*
X274148Y270958D01*
X274157Y270870D01*
X274170Y270782D01*
X274187Y270695D01*
X274207Y270609D01*
X274232Y270524D01*
X274259Y270439D01*
X274291Y270356D01*
X274325Y270275D01*
X274364Y270195D01*
X274405Y270117D01*
X274450Y270040D01*
X274498Y269966D01*
X274549Y269893D01*
X274603Y269823D01*
X274661Y269756D01*
X274721Y269690D01*
X274783Y269628D01*
X274849Y269568D01*
X274916Y269510D01*
X274986Y269456D01*
X275059Y269405D01*
X275133Y269357D01*
X275210Y269312D01*
X275288Y269271D01*
X275368Y269232D01*
X275449Y269198D01*
X275532Y269166D01*
X275617Y269139D01*
X275702Y269114D01*
X275788Y269094D01*
X275875Y269077D01*
X275963Y269064D01*
X276051Y269055D01*
X276139Y269049D01*
X276228Y269047D01*
X281449Y269047D01*
X281540Y269049D01*
X281631Y269055D01*
X281722Y269065D01*
X281812Y269079D01*
X281901Y269096D01*
X281989Y269118D01*
X282077Y269144D01*
X282163Y269173D01*
X282248Y269206D01*
X282331Y269243D01*
X282413Y269283D01*
X282493Y269327D01*
X282571Y269374D01*
X282647Y269425D01*
X282720Y269478D01*
X282791Y269535D01*
X282860Y269596D01*
X282925Y269659D01*
X282988Y269724D01*
X283048Y269793D01*
X283106Y269864D01*
X283159Y269937D01*
X283210Y270013D01*
X283257Y270091D01*
X283301Y270171D01*
X283341Y270253D01*
X283378Y270336D01*
X283411Y270421D01*
X283440Y270507D01*
X283466Y270595D01*
X283488Y270683D01*
X283505Y270772D01*
X283519Y270862D01*
X283529Y270953D01*
X283535Y271044D01*
X283537Y271135D01*
X283538Y271135D02*
X283538Y273224D01*
X283538Y278781D02*
X276228Y276692D01*
X276228Y281913D01*
X278317Y280347D02*
X274140Y280347D01*
X387731Y302189D02*
X387731Y304278D01*
X387731Y302189D02*
X387733Y302100D01*
X387739Y302012D01*
X387748Y301924D01*
X387761Y301836D01*
X387778Y301749D01*
X387798Y301663D01*
X387823Y301578D01*
X387850Y301493D01*
X387882Y301410D01*
X387916Y301329D01*
X387955Y301249D01*
X387996Y301171D01*
X388041Y301094D01*
X388089Y301020D01*
X388140Y300947D01*
X388194Y300877D01*
X388252Y300810D01*
X388312Y300744D01*
X388374Y300682D01*
X388440Y300622D01*
X388507Y300564D01*
X388577Y300510D01*
X388650Y300459D01*
X388724Y300411D01*
X388801Y300366D01*
X388879Y300325D01*
X388959Y300286D01*
X389040Y300252D01*
X389123Y300220D01*
X389208Y300193D01*
X389293Y300168D01*
X389379Y300148D01*
X389466Y300131D01*
X389554Y300118D01*
X389642Y300109D01*
X389730Y300103D01*
X389819Y300101D01*
X395041Y300101D01*
X395132Y300103D01*
X395223Y300109D01*
X395314Y300119D01*
X395404Y300133D01*
X395493Y300150D01*
X395581Y300172D01*
X395669Y300198D01*
X395755Y300227D01*
X395840Y300260D01*
X395923Y300297D01*
X396005Y300337D01*
X396085Y300381D01*
X396163Y300428D01*
X396239Y300479D01*
X396312Y300532D01*
X396383Y300589D01*
X396452Y300650D01*
X396517Y300713D01*
X396580Y300778D01*
X396640Y300847D01*
X396698Y300918D01*
X396751Y300991D01*
X396802Y301067D01*
X396849Y301145D01*
X396893Y301225D01*
X396933Y301307D01*
X396970Y301390D01*
X397003Y301475D01*
X397032Y301561D01*
X397058Y301649D01*
X397080Y301737D01*
X397097Y301826D01*
X397111Y301916D01*
X397121Y302007D01*
X397127Y302098D01*
X397129Y302189D01*
X397129Y304278D01*
X387731Y307747D02*
X387731Y310879D01*
X387733Y310968D01*
X387739Y311056D01*
X387748Y311144D01*
X387761Y311232D01*
X387778Y311319D01*
X387798Y311405D01*
X387823Y311490D01*
X387850Y311575D01*
X387882Y311658D01*
X387916Y311739D01*
X387955Y311819D01*
X387996Y311897D01*
X388041Y311974D01*
X388089Y312048D01*
X388140Y312121D01*
X388194Y312191D01*
X388252Y312258D01*
X388312Y312324D01*
X388374Y312386D01*
X388440Y312446D01*
X388507Y312504D01*
X388577Y312558D01*
X388650Y312609D01*
X388724Y312657D01*
X388801Y312702D01*
X388879Y312743D01*
X388959Y312782D01*
X389040Y312816D01*
X389123Y312848D01*
X389208Y312875D01*
X389293Y312900D01*
X389379Y312920D01*
X389466Y312937D01*
X389554Y312950D01*
X389642Y312959D01*
X389730Y312965D01*
X389819Y312967D01*
X389819Y312968D02*
X390864Y312968D01*
X390864Y312967D02*
X390953Y312965D01*
X391041Y312959D01*
X391129Y312950D01*
X391217Y312937D01*
X391304Y312920D01*
X391390Y312900D01*
X391475Y312875D01*
X391560Y312848D01*
X391643Y312816D01*
X391724Y312782D01*
X391804Y312743D01*
X391882Y312702D01*
X391959Y312657D01*
X392033Y312609D01*
X392106Y312558D01*
X392176Y312504D01*
X392243Y312446D01*
X392309Y312386D01*
X392371Y312324D01*
X392431Y312258D01*
X392489Y312191D01*
X392543Y312121D01*
X392594Y312048D01*
X392642Y311974D01*
X392687Y311897D01*
X392728Y311819D01*
X392767Y311739D01*
X392801Y311658D01*
X392833Y311575D01*
X392860Y311490D01*
X392885Y311405D01*
X392905Y311319D01*
X392922Y311232D01*
X392935Y311144D01*
X392944Y311056D01*
X392950Y310968D01*
X392952Y310879D01*
X392952Y307747D01*
X397129Y307747D01*
X397129Y312968D01*
X291549Y404443D02*
X291549Y406532D01*
X291549Y404443D02*
X291551Y404354D01*
X291557Y404266D01*
X291566Y404178D01*
X291579Y404090D01*
X291596Y404003D01*
X291616Y403917D01*
X291641Y403832D01*
X291668Y403747D01*
X291700Y403664D01*
X291734Y403583D01*
X291773Y403503D01*
X291814Y403425D01*
X291859Y403348D01*
X291907Y403274D01*
X291958Y403201D01*
X292012Y403131D01*
X292070Y403064D01*
X292130Y402998D01*
X292192Y402936D01*
X292258Y402876D01*
X292325Y402818D01*
X292395Y402764D01*
X292468Y402713D01*
X292542Y402665D01*
X292619Y402620D01*
X292697Y402579D01*
X292777Y402540D01*
X292858Y402506D01*
X292941Y402474D01*
X293026Y402447D01*
X293111Y402422D01*
X293197Y402402D01*
X293284Y402385D01*
X293372Y402372D01*
X293460Y402363D01*
X293548Y402357D01*
X293637Y402355D01*
X298858Y402355D01*
X298949Y402357D01*
X299040Y402363D01*
X299131Y402373D01*
X299221Y402387D01*
X299310Y402404D01*
X299398Y402426D01*
X299486Y402452D01*
X299572Y402481D01*
X299657Y402514D01*
X299740Y402551D01*
X299822Y402591D01*
X299902Y402635D01*
X299980Y402682D01*
X300056Y402733D01*
X300129Y402786D01*
X300200Y402843D01*
X300269Y402904D01*
X300334Y402967D01*
X300397Y403032D01*
X300457Y403101D01*
X300515Y403172D01*
X300568Y403245D01*
X300619Y403321D01*
X300666Y403399D01*
X300710Y403479D01*
X300750Y403561D01*
X300787Y403644D01*
X300820Y403729D01*
X300849Y403815D01*
X300875Y403903D01*
X300897Y403991D01*
X300914Y404080D01*
X300928Y404170D01*
X300938Y404261D01*
X300944Y404352D01*
X300946Y404443D01*
X300947Y404443D02*
X300947Y406532D01*
X296770Y410000D02*
X296770Y413133D01*
X296769Y413133D02*
X296767Y413222D01*
X296761Y413310D01*
X296752Y413398D01*
X296739Y413486D01*
X296722Y413573D01*
X296702Y413659D01*
X296677Y413744D01*
X296650Y413829D01*
X296618Y413912D01*
X296584Y413993D01*
X296545Y414073D01*
X296504Y414151D01*
X296459Y414228D01*
X296411Y414302D01*
X296360Y414375D01*
X296306Y414445D01*
X296248Y414512D01*
X296188Y414578D01*
X296126Y414640D01*
X296060Y414700D01*
X295993Y414758D01*
X295923Y414812D01*
X295850Y414863D01*
X295776Y414911D01*
X295699Y414956D01*
X295621Y414997D01*
X295541Y415036D01*
X295460Y415070D01*
X295377Y415102D01*
X295292Y415129D01*
X295207Y415154D01*
X295121Y415174D01*
X295034Y415191D01*
X294946Y415204D01*
X294858Y415213D01*
X294770Y415219D01*
X294681Y415221D01*
X294159Y415221D01*
X294159Y415222D02*
X294058Y415220D01*
X293957Y415214D01*
X293856Y415204D01*
X293756Y415191D01*
X293656Y415173D01*
X293557Y415152D01*
X293459Y415126D01*
X293362Y415097D01*
X293266Y415065D01*
X293172Y415028D01*
X293079Y414988D01*
X292987Y414944D01*
X292898Y414897D01*
X292810Y414846D01*
X292724Y414792D01*
X292641Y414735D01*
X292559Y414675D01*
X292481Y414611D01*
X292404Y414545D01*
X292331Y414475D01*
X292260Y414403D01*
X292192Y414328D01*
X292127Y414250D01*
X292065Y414170D01*
X292006Y414088D01*
X291950Y414003D01*
X291898Y413917D01*
X291849Y413828D01*
X291803Y413737D01*
X291762Y413645D01*
X291723Y413551D01*
X291689Y413456D01*
X291658Y413360D01*
X291631Y413262D01*
X291607Y413164D01*
X291588Y413064D01*
X291572Y412964D01*
X291560Y412864D01*
X291552Y412763D01*
X291548Y412662D01*
X291548Y412560D01*
X291552Y412459D01*
X291560Y412358D01*
X291572Y412258D01*
X291588Y412158D01*
X291607Y412058D01*
X291631Y411960D01*
X291658Y411862D01*
X291689Y411766D01*
X291723Y411671D01*
X291762Y411577D01*
X291803Y411485D01*
X291849Y411394D01*
X291898Y411306D01*
X291950Y411219D01*
X292006Y411134D01*
X292065Y411052D01*
X292127Y410972D01*
X292192Y410894D01*
X292260Y410819D01*
X292331Y410747D01*
X292404Y410677D01*
X292481Y410611D01*
X292559Y410547D01*
X292641Y410487D01*
X292724Y410430D01*
X292810Y410376D01*
X292898Y410325D01*
X292987Y410278D01*
X293079Y410234D01*
X293172Y410194D01*
X293266Y410157D01*
X293362Y410125D01*
X293459Y410096D01*
X293557Y410070D01*
X293656Y410049D01*
X293756Y410031D01*
X293856Y410018D01*
X293957Y410008D01*
X294058Y410002D01*
X294159Y410000D01*
X296770Y410000D01*
X296899Y410002D01*
X297027Y410008D01*
X297155Y410018D01*
X297283Y410032D01*
X297411Y410049D01*
X297538Y410071D01*
X297664Y410097D01*
X297789Y410126D01*
X297913Y410159D01*
X298036Y410197D01*
X298158Y410237D01*
X298279Y410282D01*
X298398Y410330D01*
X298516Y410382D01*
X298632Y410438D01*
X298746Y410497D01*
X298858Y410560D01*
X298969Y410626D01*
X299077Y410695D01*
X299183Y410768D01*
X299287Y410844D01*
X299389Y410923D01*
X299488Y411005D01*
X299584Y411090D01*
X299678Y411178D01*
X299769Y411269D01*
X299857Y411363D01*
X299942Y411459D01*
X300024Y411558D01*
X300103Y411660D01*
X300179Y411764D01*
X300252Y411870D01*
X300321Y411978D01*
X300387Y412088D01*
X300450Y412201D01*
X300509Y412315D01*
X300565Y412431D01*
X300617Y412549D01*
X300665Y412668D01*
X300710Y412789D01*
X300750Y412911D01*
X300788Y413034D01*
X300821Y413158D01*
X300850Y413283D01*
X300876Y413409D01*
X300898Y413536D01*
X300915Y413664D01*
X300929Y413792D01*
X300939Y413920D01*
X300945Y414048D01*
X300947Y414177D01*
X292948Y281248D02*
X292948Y279160D01*
X292949Y279160D02*
X292951Y279071D01*
X292957Y278983D01*
X292966Y278895D01*
X292979Y278807D01*
X292996Y278720D01*
X293016Y278634D01*
X293041Y278549D01*
X293068Y278464D01*
X293100Y278381D01*
X293134Y278300D01*
X293173Y278220D01*
X293214Y278142D01*
X293259Y278065D01*
X293307Y277991D01*
X293358Y277918D01*
X293412Y277848D01*
X293470Y277781D01*
X293530Y277715D01*
X293592Y277653D01*
X293658Y277593D01*
X293725Y277535D01*
X293795Y277481D01*
X293868Y277430D01*
X293942Y277382D01*
X294019Y277337D01*
X294097Y277296D01*
X294177Y277257D01*
X294258Y277223D01*
X294341Y277191D01*
X294426Y277164D01*
X294511Y277139D01*
X294597Y277119D01*
X294684Y277102D01*
X294772Y277089D01*
X294860Y277080D01*
X294948Y277074D01*
X295037Y277072D01*
X300258Y277072D01*
X300349Y277074D01*
X300440Y277080D01*
X300531Y277090D01*
X300621Y277104D01*
X300710Y277121D01*
X300798Y277143D01*
X300886Y277169D01*
X300972Y277198D01*
X301057Y277231D01*
X301140Y277268D01*
X301222Y277308D01*
X301302Y277352D01*
X301380Y277399D01*
X301456Y277450D01*
X301529Y277503D01*
X301600Y277560D01*
X301669Y277621D01*
X301734Y277684D01*
X301797Y277749D01*
X301857Y277818D01*
X301915Y277889D01*
X301968Y277962D01*
X302019Y278038D01*
X302066Y278116D01*
X302110Y278196D01*
X302150Y278278D01*
X302187Y278361D01*
X302220Y278446D01*
X302249Y278532D01*
X302275Y278620D01*
X302297Y278708D01*
X302314Y278797D01*
X302328Y278887D01*
X302338Y278978D01*
X302344Y279069D01*
X302346Y279160D01*
X302346Y281248D01*
X302346Y284717D02*
X301302Y284717D01*
X302346Y284717D02*
X302346Y289938D01*
X292948Y287328D01*
X389498Y406139D02*
X391587Y406139D01*
X391676Y406141D01*
X391764Y406147D01*
X391852Y406156D01*
X391940Y406169D01*
X392027Y406186D01*
X392113Y406206D01*
X392198Y406231D01*
X392283Y406258D01*
X392366Y406290D01*
X392447Y406324D01*
X392527Y406363D01*
X392605Y406404D01*
X392682Y406449D01*
X392756Y406497D01*
X392829Y406548D01*
X392899Y406602D01*
X392966Y406660D01*
X393032Y406720D01*
X393094Y406782D01*
X393154Y406848D01*
X393212Y406915D01*
X393266Y406985D01*
X393317Y407058D01*
X393365Y407132D01*
X393410Y407209D01*
X393451Y407287D01*
X393490Y407367D01*
X393524Y407448D01*
X393556Y407531D01*
X393583Y407616D01*
X393608Y407701D01*
X393628Y407787D01*
X393645Y407874D01*
X393658Y407962D01*
X393667Y408050D01*
X393673Y408138D01*
X393675Y408227D01*
X393675Y413448D01*
X393673Y413537D01*
X393667Y413625D01*
X393658Y413713D01*
X393645Y413801D01*
X393628Y413888D01*
X393608Y413974D01*
X393583Y414059D01*
X393556Y414144D01*
X393524Y414227D01*
X393490Y414308D01*
X393451Y414388D01*
X393410Y414466D01*
X393365Y414543D01*
X393317Y414617D01*
X393266Y414690D01*
X393212Y414760D01*
X393154Y414827D01*
X393094Y414893D01*
X393032Y414955D01*
X392966Y415015D01*
X392899Y415073D01*
X392829Y415127D01*
X392756Y415178D01*
X392682Y415226D01*
X392605Y415271D01*
X392527Y415312D01*
X392447Y415351D01*
X392366Y415385D01*
X392283Y415417D01*
X392198Y415444D01*
X392113Y415469D01*
X392027Y415489D01*
X391940Y415506D01*
X391852Y415519D01*
X391764Y415528D01*
X391676Y415534D01*
X391587Y415536D01*
X391587Y415537D02*
X389498Y415537D01*
X386030Y408749D02*
X386028Y408850D01*
X386022Y408951D01*
X386012Y409052D01*
X385999Y409152D01*
X385981Y409252D01*
X385960Y409351D01*
X385934Y409449D01*
X385905Y409546D01*
X385873Y409642D01*
X385836Y409736D01*
X385796Y409829D01*
X385752Y409921D01*
X385705Y410010D01*
X385654Y410098D01*
X385600Y410184D01*
X385543Y410267D01*
X385483Y410349D01*
X385419Y410427D01*
X385353Y410504D01*
X385283Y410577D01*
X385211Y410648D01*
X385136Y410716D01*
X385058Y410781D01*
X384978Y410843D01*
X384896Y410902D01*
X384811Y410958D01*
X384725Y411010D01*
X384636Y411059D01*
X384545Y411105D01*
X384453Y411146D01*
X384359Y411185D01*
X384264Y411219D01*
X384168Y411250D01*
X384070Y411277D01*
X383972Y411301D01*
X383872Y411320D01*
X383772Y411336D01*
X383672Y411348D01*
X383571Y411356D01*
X383470Y411360D01*
X383368Y411360D01*
X383267Y411356D01*
X383166Y411348D01*
X383066Y411336D01*
X382966Y411320D01*
X382866Y411301D01*
X382768Y411277D01*
X382670Y411250D01*
X382574Y411219D01*
X382479Y411185D01*
X382385Y411146D01*
X382293Y411105D01*
X382202Y411059D01*
X382114Y411010D01*
X382027Y410958D01*
X381942Y410902D01*
X381860Y410843D01*
X381780Y410781D01*
X381702Y410716D01*
X381627Y410648D01*
X381555Y410577D01*
X381485Y410504D01*
X381419Y410427D01*
X381355Y410349D01*
X381295Y410267D01*
X381238Y410184D01*
X381184Y410098D01*
X381133Y410010D01*
X381086Y409921D01*
X381042Y409829D01*
X381002Y409736D01*
X380965Y409642D01*
X380933Y409546D01*
X380904Y409449D01*
X380878Y409351D01*
X380857Y409252D01*
X380839Y409152D01*
X380826Y409052D01*
X380816Y408951D01*
X380810Y408850D01*
X380808Y408749D01*
X380810Y408648D01*
X380816Y408547D01*
X380826Y408446D01*
X380839Y408346D01*
X380857Y408246D01*
X380878Y408147D01*
X380904Y408049D01*
X380933Y407952D01*
X380965Y407856D01*
X381002Y407762D01*
X381042Y407669D01*
X381086Y407577D01*
X381133Y407488D01*
X381184Y407400D01*
X381238Y407314D01*
X381295Y407231D01*
X381355Y407149D01*
X381419Y407071D01*
X381485Y406994D01*
X381555Y406921D01*
X381627Y406850D01*
X381702Y406782D01*
X381780Y406717D01*
X381860Y406655D01*
X381942Y406596D01*
X382027Y406540D01*
X382114Y406488D01*
X382202Y406439D01*
X382293Y406393D01*
X382385Y406352D01*
X382479Y406313D01*
X382574Y406279D01*
X382670Y406248D01*
X382768Y406221D01*
X382866Y406197D01*
X382966Y406178D01*
X383066Y406162D01*
X383166Y406150D01*
X383267Y406142D01*
X383368Y406138D01*
X383470Y406138D01*
X383571Y406142D01*
X383672Y406150D01*
X383772Y406162D01*
X383872Y406178D01*
X383972Y406197D01*
X384070Y406221D01*
X384168Y406248D01*
X384264Y406279D01*
X384359Y406313D01*
X384453Y406352D01*
X384545Y406393D01*
X384636Y406439D01*
X384724Y406488D01*
X384811Y406540D01*
X384896Y406596D01*
X384978Y406655D01*
X385058Y406717D01*
X385136Y406782D01*
X385211Y406850D01*
X385283Y406921D01*
X385353Y406994D01*
X385419Y407071D01*
X385483Y407149D01*
X385543Y407231D01*
X385600Y407314D01*
X385654Y407400D01*
X385705Y407488D01*
X385752Y407577D01*
X385796Y407669D01*
X385836Y407762D01*
X385873Y407856D01*
X385905Y407952D01*
X385934Y408049D01*
X385960Y408147D01*
X385981Y408246D01*
X385999Y408346D01*
X386012Y408446D01*
X386022Y408547D01*
X386028Y408648D01*
X386030Y408749D01*
X385507Y413448D02*
X385505Y413538D01*
X385499Y413627D01*
X385490Y413717D01*
X385476Y413806D01*
X385459Y413894D01*
X385438Y413981D01*
X385413Y414068D01*
X385384Y414153D01*
X385352Y414237D01*
X385317Y414319D01*
X385277Y414400D01*
X385235Y414479D01*
X385189Y414556D01*
X385139Y414631D01*
X385087Y414704D01*
X385031Y414775D01*
X384973Y414843D01*
X384911Y414908D01*
X384847Y414971D01*
X384780Y415031D01*
X384711Y415088D01*
X384639Y415142D01*
X384565Y415193D01*
X384489Y415241D01*
X384411Y415285D01*
X384331Y415326D01*
X384249Y415364D01*
X384166Y415398D01*
X384081Y415428D01*
X383995Y415455D01*
X383909Y415478D01*
X383821Y415497D01*
X383732Y415512D01*
X383643Y415524D01*
X383554Y415532D01*
X383464Y415536D01*
X383374Y415536D01*
X383284Y415532D01*
X383195Y415524D01*
X383106Y415512D01*
X383017Y415497D01*
X382929Y415478D01*
X382843Y415455D01*
X382757Y415428D01*
X382672Y415398D01*
X382589Y415364D01*
X382507Y415326D01*
X382427Y415285D01*
X382349Y415241D01*
X382273Y415193D01*
X382199Y415142D01*
X382127Y415088D01*
X382058Y415031D01*
X381991Y414971D01*
X381927Y414908D01*
X381865Y414843D01*
X381807Y414775D01*
X381751Y414704D01*
X381699Y414631D01*
X381649Y414556D01*
X381603Y414479D01*
X381561Y414400D01*
X381521Y414319D01*
X381486Y414237D01*
X381454Y414153D01*
X381425Y414068D01*
X381400Y413981D01*
X381379Y413894D01*
X381362Y413806D01*
X381348Y413717D01*
X381339Y413627D01*
X381333Y413538D01*
X381331Y413448D01*
X381333Y413358D01*
X381339Y413269D01*
X381348Y413179D01*
X381362Y413090D01*
X381379Y413002D01*
X381400Y412915D01*
X381425Y412828D01*
X381454Y412743D01*
X381486Y412659D01*
X381521Y412577D01*
X381561Y412496D01*
X381603Y412417D01*
X381649Y412340D01*
X381699Y412265D01*
X381751Y412192D01*
X381807Y412121D01*
X381865Y412053D01*
X381927Y411988D01*
X381991Y411925D01*
X382058Y411865D01*
X382127Y411808D01*
X382199Y411754D01*
X382273Y411703D01*
X382349Y411655D01*
X382427Y411611D01*
X382507Y411570D01*
X382589Y411532D01*
X382672Y411498D01*
X382757Y411468D01*
X382843Y411441D01*
X382929Y411418D01*
X383017Y411399D01*
X383106Y411384D01*
X383195Y411372D01*
X383284Y411364D01*
X383374Y411360D01*
X383464Y411360D01*
X383554Y411364D01*
X383643Y411372D01*
X383732Y411384D01*
X383821Y411399D01*
X383909Y411418D01*
X383995Y411441D01*
X384081Y411468D01*
X384166Y411498D01*
X384249Y411532D01*
X384331Y411570D01*
X384411Y411611D01*
X384489Y411655D01*
X384565Y411703D01*
X384639Y411754D01*
X384711Y411808D01*
X384780Y411865D01*
X384847Y411925D01*
X384911Y411988D01*
X384973Y412053D01*
X385031Y412121D01*
X385087Y412192D01*
X385139Y412265D01*
X385189Y412340D01*
X385235Y412417D01*
X385277Y412496D01*
X385317Y412577D01*
X385352Y412659D01*
X385384Y412743D01*
X385413Y412828D01*
X385438Y412915D01*
X385459Y413002D01*
X385476Y413090D01*
X385490Y413179D01*
X385499Y413269D01*
X385505Y413358D01*
X385507Y413448D01*
X391858Y348934D02*
X391858Y346845D01*
X391859Y346845D02*
X391861Y346756D01*
X391867Y346668D01*
X391876Y346580D01*
X391889Y346492D01*
X391906Y346405D01*
X391926Y346319D01*
X391951Y346234D01*
X391978Y346149D01*
X392010Y346066D01*
X392044Y345985D01*
X392083Y345905D01*
X392124Y345827D01*
X392169Y345750D01*
X392217Y345676D01*
X392268Y345603D01*
X392322Y345533D01*
X392380Y345466D01*
X392440Y345400D01*
X392502Y345338D01*
X392568Y345278D01*
X392635Y345220D01*
X392705Y345166D01*
X392778Y345115D01*
X392852Y345067D01*
X392929Y345022D01*
X393007Y344981D01*
X393087Y344942D01*
X393168Y344908D01*
X393251Y344876D01*
X393336Y344849D01*
X393421Y344824D01*
X393507Y344804D01*
X393594Y344787D01*
X393682Y344774D01*
X393770Y344765D01*
X393858Y344759D01*
X393947Y344757D01*
X399168Y344757D01*
X399259Y344759D01*
X399350Y344765D01*
X399441Y344775D01*
X399531Y344789D01*
X399620Y344806D01*
X399708Y344828D01*
X399796Y344854D01*
X399882Y344883D01*
X399967Y344916D01*
X400050Y344953D01*
X400132Y344993D01*
X400212Y345037D01*
X400290Y345084D01*
X400366Y345135D01*
X400439Y345188D01*
X400510Y345245D01*
X400579Y345306D01*
X400644Y345369D01*
X400707Y345434D01*
X400767Y345503D01*
X400825Y345574D01*
X400878Y345647D01*
X400929Y345723D01*
X400976Y345801D01*
X401020Y345881D01*
X401060Y345963D01*
X401097Y346046D01*
X401130Y346131D01*
X401159Y346217D01*
X401185Y346305D01*
X401207Y346393D01*
X401224Y346482D01*
X401238Y346572D01*
X401248Y346663D01*
X401254Y346754D01*
X401256Y346845D01*
X401256Y348934D01*
X396035Y354491D02*
X396035Y357624D01*
X396036Y354491D02*
X396038Y354402D01*
X396044Y354314D01*
X396053Y354226D01*
X396066Y354138D01*
X396083Y354051D01*
X396103Y353965D01*
X396128Y353880D01*
X396155Y353795D01*
X396187Y353712D01*
X396221Y353631D01*
X396260Y353551D01*
X396301Y353473D01*
X396346Y353396D01*
X396394Y353322D01*
X396445Y353249D01*
X396499Y353179D01*
X396557Y353112D01*
X396617Y353046D01*
X396679Y352984D01*
X396745Y352924D01*
X396812Y352866D01*
X396882Y352812D01*
X396955Y352761D01*
X397029Y352713D01*
X397106Y352668D01*
X397184Y352627D01*
X397264Y352588D01*
X397345Y352554D01*
X397428Y352522D01*
X397513Y352495D01*
X397598Y352470D01*
X397684Y352450D01*
X397771Y352433D01*
X397859Y352420D01*
X397947Y352411D01*
X398035Y352405D01*
X398124Y352403D01*
X398124Y352402D02*
X398646Y352402D01*
X398747Y352404D01*
X398848Y352410D01*
X398949Y352420D01*
X399049Y352433D01*
X399149Y352451D01*
X399248Y352472D01*
X399346Y352498D01*
X399443Y352527D01*
X399539Y352559D01*
X399633Y352596D01*
X399726Y352636D01*
X399818Y352680D01*
X399907Y352727D01*
X399995Y352778D01*
X400081Y352832D01*
X400164Y352889D01*
X400246Y352949D01*
X400324Y353013D01*
X400401Y353079D01*
X400474Y353149D01*
X400545Y353221D01*
X400613Y353296D01*
X400678Y353374D01*
X400740Y353454D01*
X400799Y353536D01*
X400855Y353621D01*
X400907Y353708D01*
X400956Y353796D01*
X401002Y353887D01*
X401043Y353979D01*
X401082Y354073D01*
X401116Y354168D01*
X401147Y354264D01*
X401174Y354362D01*
X401198Y354460D01*
X401217Y354560D01*
X401233Y354660D01*
X401245Y354760D01*
X401253Y354861D01*
X401257Y354962D01*
X401257Y355064D01*
X401253Y355165D01*
X401245Y355266D01*
X401233Y355366D01*
X401217Y355466D01*
X401198Y355566D01*
X401174Y355664D01*
X401147Y355762D01*
X401116Y355858D01*
X401082Y355953D01*
X401043Y356047D01*
X401002Y356139D01*
X400956Y356230D01*
X400907Y356318D01*
X400855Y356405D01*
X400799Y356490D01*
X400740Y356572D01*
X400678Y356652D01*
X400613Y356730D01*
X400545Y356805D01*
X400474Y356877D01*
X400401Y356947D01*
X400324Y357013D01*
X400246Y357077D01*
X400164Y357137D01*
X400081Y357194D01*
X399995Y357248D01*
X399907Y357299D01*
X399818Y357346D01*
X399726Y357390D01*
X399633Y357430D01*
X399539Y357467D01*
X399443Y357499D01*
X399346Y357528D01*
X399248Y357554D01*
X399149Y357575D01*
X399049Y357593D01*
X398949Y357606D01*
X398848Y357616D01*
X398747Y357622D01*
X398646Y357624D01*
X396035Y357624D01*
X395909Y357622D01*
X395783Y357616D01*
X395657Y357607D01*
X395532Y357594D01*
X395407Y357576D01*
X395282Y357556D01*
X395158Y357531D01*
X395035Y357503D01*
X394913Y357471D01*
X394792Y357435D01*
X394672Y357396D01*
X394554Y357353D01*
X394437Y357306D01*
X394321Y357256D01*
X394206Y357202D01*
X394094Y357146D01*
X393983Y357085D01*
X393874Y357022D01*
X393767Y356955D01*
X393662Y356885D01*
X393559Y356811D01*
X393459Y356735D01*
X393361Y356656D01*
X393265Y356574D01*
X393172Y356488D01*
X393081Y356401D01*
X392994Y356310D01*
X392908Y356217D01*
X392826Y356121D01*
X392747Y356023D01*
X392671Y355923D01*
X392597Y355820D01*
X392527Y355715D01*
X392460Y355608D01*
X392397Y355499D01*
X392336Y355388D01*
X392280Y355276D01*
X392226Y355161D01*
X392176Y355045D01*
X392129Y354928D01*
X392086Y354810D01*
X392047Y354690D01*
X392011Y354569D01*
X391979Y354447D01*
X391951Y354324D01*
X391926Y354200D01*
X391906Y354075D01*
X391888Y353950D01*
X391875Y353825D01*
X391866Y353699D01*
X391860Y353573D01*
X391858Y353447D01*
X455582Y368523D02*
X464980Y368523D01*
X464980Y371134D01*
X464981Y371134D02*
X464979Y371235D01*
X464973Y371336D01*
X464963Y371437D01*
X464950Y371537D01*
X464932Y371637D01*
X464911Y371736D01*
X464885Y371834D01*
X464856Y371931D01*
X464824Y372027D01*
X464787Y372121D01*
X464747Y372214D01*
X464703Y372306D01*
X464656Y372395D01*
X464605Y372483D01*
X464551Y372569D01*
X464494Y372652D01*
X464434Y372734D01*
X464370Y372812D01*
X464304Y372889D01*
X464234Y372962D01*
X464162Y373033D01*
X464087Y373101D01*
X464009Y373166D01*
X463929Y373228D01*
X463847Y373287D01*
X463762Y373343D01*
X463676Y373395D01*
X463587Y373444D01*
X463496Y373490D01*
X463404Y373531D01*
X463310Y373570D01*
X463215Y373604D01*
X463119Y373635D01*
X463021Y373662D01*
X462923Y373686D01*
X462823Y373705D01*
X462723Y373721D01*
X462623Y373733D01*
X462522Y373741D01*
X462421Y373745D01*
X462319Y373745D01*
X462218Y373741D01*
X462117Y373733D01*
X462017Y373721D01*
X461917Y373705D01*
X461817Y373686D01*
X461719Y373662D01*
X461621Y373635D01*
X461525Y373604D01*
X461430Y373570D01*
X461336Y373531D01*
X461244Y373490D01*
X461153Y373444D01*
X461065Y373395D01*
X460978Y373343D01*
X460893Y373287D01*
X460811Y373228D01*
X460731Y373166D01*
X460653Y373101D01*
X460578Y373033D01*
X460506Y372962D01*
X460436Y372889D01*
X460370Y372812D01*
X460306Y372734D01*
X460246Y372652D01*
X460189Y372569D01*
X460135Y372483D01*
X460084Y372395D01*
X460037Y372306D01*
X459993Y372214D01*
X459953Y372121D01*
X459916Y372027D01*
X459884Y371931D01*
X459855Y371834D01*
X459829Y371736D01*
X459808Y371637D01*
X459790Y371537D01*
X459777Y371437D01*
X459767Y371336D01*
X459761Y371235D01*
X459759Y371134D01*
X459759Y368523D01*
X459759Y371656D02*
X455582Y373744D01*
X462631Y382832D02*
X462726Y382830D01*
X462820Y382824D01*
X462914Y382815D01*
X463008Y382802D01*
X463101Y382785D01*
X463193Y382764D01*
X463285Y382739D01*
X463375Y382711D01*
X463464Y382679D01*
X463552Y382644D01*
X463638Y382605D01*
X463723Y382563D01*
X463806Y382517D01*
X463887Y382468D01*
X463966Y382416D01*
X464043Y382361D01*
X464117Y382302D01*
X464189Y382241D01*
X464259Y382177D01*
X464326Y382110D01*
X464390Y382040D01*
X464451Y381968D01*
X464510Y381894D01*
X464565Y381817D01*
X464617Y381738D01*
X464666Y381657D01*
X464712Y381574D01*
X464754Y381489D01*
X464793Y381403D01*
X464828Y381315D01*
X464860Y381226D01*
X464888Y381136D01*
X464913Y381044D01*
X464934Y380952D01*
X464951Y380859D01*
X464964Y380765D01*
X464973Y380671D01*
X464979Y380577D01*
X464981Y380482D01*
X464980Y380482D02*
X464978Y380374D01*
X464972Y380265D01*
X464962Y380157D01*
X464949Y380050D01*
X464931Y379943D01*
X464910Y379836D01*
X464885Y379731D01*
X464856Y379626D01*
X464824Y379523D01*
X464787Y379421D01*
X464747Y379320D01*
X464704Y379221D01*
X464657Y379123D01*
X464606Y379027D01*
X464552Y378933D01*
X464495Y378841D01*
X464434Y378751D01*
X464370Y378663D01*
X464304Y378578D01*
X464234Y378495D01*
X464161Y378415D01*
X464085Y378337D01*
X464007Y378262D01*
X463926Y378190D01*
X463842Y378121D01*
X463756Y378055D01*
X463668Y377992D01*
X463577Y377933D01*
X463485Y377876D01*
X463390Y377823D01*
X463294Y377774D01*
X463195Y377728D01*
X463096Y377685D01*
X462994Y377646D01*
X462892Y377611D01*
X460803Y382049D02*
X460872Y382118D01*
X460943Y382184D01*
X461016Y382248D01*
X461092Y382309D01*
X461171Y382367D01*
X461251Y382421D01*
X461334Y382473D01*
X461418Y382521D01*
X461504Y382567D01*
X461592Y382608D01*
X461682Y382647D01*
X461773Y382682D01*
X461865Y382713D01*
X461958Y382741D01*
X462052Y382765D01*
X462147Y382785D01*
X462243Y382802D01*
X462340Y382815D01*
X462437Y382824D01*
X462534Y382830D01*
X462631Y382832D01*
X460803Y382048D02*
X455582Y377610D01*
X455582Y382831D01*
X378201Y268737D02*
X368803Y268737D01*
X378201Y268737D02*
X378201Y271348D01*
X378199Y271449D01*
X378193Y271550D01*
X378183Y271651D01*
X378170Y271751D01*
X378152Y271851D01*
X378131Y271950D01*
X378105Y272048D01*
X378076Y272145D01*
X378044Y272241D01*
X378007Y272335D01*
X377967Y272428D01*
X377923Y272520D01*
X377876Y272609D01*
X377825Y272697D01*
X377771Y272783D01*
X377714Y272866D01*
X377654Y272948D01*
X377590Y273026D01*
X377524Y273103D01*
X377454Y273176D01*
X377382Y273247D01*
X377307Y273315D01*
X377229Y273380D01*
X377149Y273442D01*
X377067Y273501D01*
X376982Y273557D01*
X376896Y273609D01*
X376807Y273658D01*
X376716Y273704D01*
X376624Y273745D01*
X376530Y273784D01*
X376435Y273818D01*
X376339Y273849D01*
X376241Y273876D01*
X376143Y273900D01*
X376043Y273919D01*
X375943Y273935D01*
X375843Y273947D01*
X375742Y273955D01*
X375641Y273959D01*
X375539Y273959D01*
X375438Y273955D01*
X375337Y273947D01*
X375237Y273935D01*
X375137Y273919D01*
X375037Y273900D01*
X374939Y273876D01*
X374841Y273849D01*
X374745Y273818D01*
X374650Y273784D01*
X374556Y273745D01*
X374464Y273704D01*
X374373Y273658D01*
X374285Y273609D01*
X374198Y273557D01*
X374113Y273501D01*
X374031Y273442D01*
X373951Y273380D01*
X373873Y273315D01*
X373798Y273247D01*
X373726Y273176D01*
X373656Y273103D01*
X373590Y273026D01*
X373526Y272948D01*
X373466Y272866D01*
X373409Y272783D01*
X373355Y272697D01*
X373304Y272609D01*
X373257Y272520D01*
X373213Y272428D01*
X373173Y272335D01*
X373136Y272241D01*
X373104Y272145D01*
X373075Y272048D01*
X373049Y271950D01*
X373028Y271851D01*
X373010Y271751D01*
X372997Y271651D01*
X372987Y271550D01*
X372981Y271449D01*
X372979Y271348D01*
X372980Y271348D02*
X372980Y268737D01*
X372980Y271870D02*
X368803Y273958D01*
X371413Y277824D02*
X371514Y277826D01*
X371615Y277832D01*
X371716Y277842D01*
X371816Y277855D01*
X371916Y277873D01*
X372015Y277894D01*
X372113Y277920D01*
X372210Y277949D01*
X372306Y277981D01*
X372400Y278018D01*
X372493Y278058D01*
X372585Y278102D01*
X372674Y278149D01*
X372762Y278200D01*
X372848Y278254D01*
X372931Y278311D01*
X373013Y278371D01*
X373091Y278435D01*
X373168Y278501D01*
X373241Y278571D01*
X373312Y278643D01*
X373380Y278718D01*
X373445Y278796D01*
X373507Y278876D01*
X373566Y278958D01*
X373622Y279043D01*
X373674Y279130D01*
X373723Y279218D01*
X373769Y279309D01*
X373810Y279401D01*
X373849Y279495D01*
X373883Y279590D01*
X373914Y279686D01*
X373941Y279784D01*
X373965Y279882D01*
X373984Y279982D01*
X374000Y280082D01*
X374012Y280182D01*
X374020Y280283D01*
X374024Y280384D01*
X374024Y280486D01*
X374020Y280587D01*
X374012Y280688D01*
X374000Y280788D01*
X373984Y280888D01*
X373965Y280988D01*
X373941Y281086D01*
X373914Y281184D01*
X373883Y281280D01*
X373849Y281375D01*
X373810Y281469D01*
X373769Y281561D01*
X373723Y281652D01*
X373674Y281740D01*
X373622Y281827D01*
X373566Y281912D01*
X373507Y281994D01*
X373445Y282074D01*
X373380Y282152D01*
X373312Y282227D01*
X373241Y282299D01*
X373168Y282369D01*
X373091Y282435D01*
X373013Y282499D01*
X372931Y282559D01*
X372848Y282616D01*
X372762Y282670D01*
X372674Y282721D01*
X372585Y282768D01*
X372493Y282812D01*
X372400Y282852D01*
X372306Y282889D01*
X372210Y282921D01*
X372113Y282950D01*
X372015Y282976D01*
X371916Y282997D01*
X371816Y283015D01*
X371716Y283028D01*
X371615Y283038D01*
X371514Y283044D01*
X371413Y283046D01*
X371312Y283044D01*
X371211Y283038D01*
X371110Y283028D01*
X371010Y283015D01*
X370910Y282997D01*
X370811Y282976D01*
X370713Y282950D01*
X370616Y282921D01*
X370520Y282889D01*
X370426Y282852D01*
X370333Y282812D01*
X370241Y282768D01*
X370152Y282721D01*
X370064Y282670D01*
X369978Y282616D01*
X369895Y282559D01*
X369813Y282499D01*
X369735Y282435D01*
X369658Y282369D01*
X369585Y282299D01*
X369514Y282227D01*
X369446Y282152D01*
X369381Y282074D01*
X369319Y281994D01*
X369260Y281912D01*
X369204Y281827D01*
X369152Y281741D01*
X369103Y281652D01*
X369057Y281561D01*
X369016Y281469D01*
X368977Y281375D01*
X368943Y281280D01*
X368912Y281184D01*
X368885Y281086D01*
X368861Y280988D01*
X368842Y280888D01*
X368826Y280788D01*
X368814Y280688D01*
X368806Y280587D01*
X368802Y280486D01*
X368802Y280384D01*
X368806Y280283D01*
X368814Y280182D01*
X368826Y280082D01*
X368842Y279982D01*
X368861Y279882D01*
X368885Y279784D01*
X368912Y279686D01*
X368943Y279590D01*
X368977Y279495D01*
X369016Y279401D01*
X369057Y279309D01*
X369103Y279218D01*
X369152Y279130D01*
X369204Y279043D01*
X369260Y278958D01*
X369319Y278876D01*
X369381Y278796D01*
X369446Y278718D01*
X369514Y278643D01*
X369585Y278571D01*
X369658Y278501D01*
X369735Y278435D01*
X369813Y278371D01*
X369895Y278311D01*
X369978Y278254D01*
X370064Y278200D01*
X370152Y278149D01*
X370241Y278102D01*
X370333Y278058D01*
X370426Y278018D01*
X370520Y277981D01*
X370616Y277949D01*
X370713Y277920D01*
X370811Y277894D01*
X370910Y277873D01*
X371010Y277855D01*
X371110Y277842D01*
X371211Y277832D01*
X371312Y277826D01*
X371413Y277824D01*
X376112Y278347D02*
X376202Y278349D01*
X376291Y278355D01*
X376381Y278364D01*
X376470Y278378D01*
X376558Y278395D01*
X376645Y278416D01*
X376732Y278441D01*
X376817Y278470D01*
X376901Y278502D01*
X376983Y278537D01*
X377064Y278577D01*
X377143Y278619D01*
X377220Y278665D01*
X377295Y278715D01*
X377368Y278767D01*
X377439Y278823D01*
X377507Y278881D01*
X377572Y278943D01*
X377635Y279007D01*
X377695Y279074D01*
X377752Y279143D01*
X377806Y279215D01*
X377857Y279289D01*
X377905Y279365D01*
X377949Y279443D01*
X377990Y279523D01*
X378028Y279605D01*
X378062Y279688D01*
X378092Y279773D01*
X378119Y279859D01*
X378142Y279945D01*
X378161Y280033D01*
X378176Y280122D01*
X378188Y280211D01*
X378196Y280300D01*
X378200Y280390D01*
X378200Y280480D01*
X378196Y280570D01*
X378188Y280659D01*
X378176Y280748D01*
X378161Y280837D01*
X378142Y280925D01*
X378119Y281011D01*
X378092Y281097D01*
X378062Y281182D01*
X378028Y281265D01*
X377990Y281347D01*
X377949Y281427D01*
X377905Y281505D01*
X377857Y281581D01*
X377806Y281655D01*
X377752Y281727D01*
X377695Y281796D01*
X377635Y281863D01*
X377572Y281927D01*
X377507Y281989D01*
X377439Y282047D01*
X377368Y282103D01*
X377295Y282155D01*
X377220Y282205D01*
X377143Y282251D01*
X377064Y282293D01*
X376983Y282333D01*
X376901Y282368D01*
X376817Y282400D01*
X376732Y282429D01*
X376645Y282454D01*
X376558Y282475D01*
X376470Y282492D01*
X376381Y282506D01*
X376291Y282515D01*
X376202Y282521D01*
X376112Y282523D01*
X376022Y282521D01*
X375933Y282515D01*
X375843Y282506D01*
X375754Y282492D01*
X375666Y282475D01*
X375579Y282454D01*
X375492Y282429D01*
X375407Y282400D01*
X375323Y282368D01*
X375241Y282333D01*
X375160Y282293D01*
X375081Y282251D01*
X375004Y282205D01*
X374929Y282155D01*
X374856Y282103D01*
X374785Y282047D01*
X374717Y281989D01*
X374652Y281927D01*
X374589Y281863D01*
X374529Y281796D01*
X374472Y281727D01*
X374418Y281655D01*
X374367Y281581D01*
X374319Y281505D01*
X374275Y281427D01*
X374234Y281347D01*
X374196Y281265D01*
X374162Y281182D01*
X374132Y281097D01*
X374105Y281011D01*
X374082Y280925D01*
X374063Y280837D01*
X374048Y280748D01*
X374036Y280659D01*
X374028Y280570D01*
X374024Y280480D01*
X374024Y280390D01*
X374028Y280300D01*
X374036Y280211D01*
X374048Y280122D01*
X374063Y280033D01*
X374082Y279945D01*
X374105Y279859D01*
X374132Y279773D01*
X374162Y279688D01*
X374196Y279605D01*
X374234Y279523D01*
X374275Y279443D01*
X374319Y279365D01*
X374367Y279289D01*
X374418Y279215D01*
X374472Y279143D01*
X374529Y279074D01*
X374589Y279007D01*
X374652Y278943D01*
X374717Y278881D01*
X374785Y278823D01*
X374856Y278767D01*
X374929Y278715D01*
X375004Y278665D01*
X375081Y278619D01*
X375160Y278577D01*
X375241Y278537D01*
X375323Y278502D01*
X375407Y278470D01*
X375492Y278441D01*
X375579Y278416D01*
X375666Y278395D01*
X375754Y278378D01*
X375843Y278364D01*
X375933Y278355D01*
X376022Y278349D01*
X376112Y278347D01*
X331211Y268737D02*
X321813Y268737D01*
X331211Y268737D02*
X331211Y271348D01*
X331209Y271449D01*
X331203Y271550D01*
X331193Y271651D01*
X331180Y271751D01*
X331162Y271851D01*
X331141Y271950D01*
X331115Y272048D01*
X331086Y272145D01*
X331054Y272241D01*
X331017Y272335D01*
X330977Y272428D01*
X330933Y272520D01*
X330886Y272609D01*
X330835Y272697D01*
X330781Y272783D01*
X330724Y272866D01*
X330664Y272948D01*
X330600Y273026D01*
X330534Y273103D01*
X330464Y273176D01*
X330392Y273247D01*
X330317Y273315D01*
X330239Y273380D01*
X330159Y273442D01*
X330077Y273501D01*
X329992Y273557D01*
X329906Y273609D01*
X329817Y273658D01*
X329726Y273704D01*
X329634Y273745D01*
X329540Y273784D01*
X329445Y273818D01*
X329349Y273849D01*
X329251Y273876D01*
X329153Y273900D01*
X329053Y273919D01*
X328953Y273935D01*
X328853Y273947D01*
X328752Y273955D01*
X328651Y273959D01*
X328549Y273959D01*
X328448Y273955D01*
X328347Y273947D01*
X328247Y273935D01*
X328147Y273919D01*
X328047Y273900D01*
X327949Y273876D01*
X327851Y273849D01*
X327755Y273818D01*
X327660Y273784D01*
X327566Y273745D01*
X327474Y273704D01*
X327383Y273658D01*
X327295Y273609D01*
X327208Y273557D01*
X327123Y273501D01*
X327041Y273442D01*
X326961Y273380D01*
X326883Y273315D01*
X326808Y273247D01*
X326736Y273176D01*
X326666Y273103D01*
X326600Y273026D01*
X326536Y272948D01*
X326476Y272866D01*
X326419Y272783D01*
X326365Y272697D01*
X326314Y272609D01*
X326267Y272520D01*
X326223Y272428D01*
X326183Y272335D01*
X326146Y272241D01*
X326114Y272145D01*
X326085Y272048D01*
X326059Y271950D01*
X326038Y271851D01*
X326020Y271751D01*
X326007Y271651D01*
X325997Y271550D01*
X325991Y271449D01*
X325989Y271348D01*
X325990Y271348D02*
X325990Y268737D01*
X325990Y271870D02*
X321813Y273958D01*
X325990Y279912D02*
X325990Y283045D01*
X325990Y279912D02*
X325992Y279823D01*
X325998Y279735D01*
X326007Y279647D01*
X326020Y279559D01*
X326037Y279472D01*
X326057Y279386D01*
X326082Y279301D01*
X326109Y279216D01*
X326141Y279133D01*
X326175Y279052D01*
X326214Y278972D01*
X326255Y278894D01*
X326300Y278817D01*
X326348Y278743D01*
X326399Y278670D01*
X326453Y278600D01*
X326511Y278533D01*
X326571Y278467D01*
X326633Y278405D01*
X326699Y278345D01*
X326766Y278287D01*
X326836Y278233D01*
X326909Y278182D01*
X326983Y278134D01*
X327060Y278089D01*
X327138Y278048D01*
X327218Y278009D01*
X327299Y277975D01*
X327382Y277943D01*
X327467Y277916D01*
X327552Y277891D01*
X327638Y277871D01*
X327725Y277854D01*
X327813Y277841D01*
X327901Y277832D01*
X327989Y277826D01*
X328078Y277824D01*
X328600Y277824D01*
X328701Y277826D01*
X328802Y277832D01*
X328903Y277842D01*
X329003Y277855D01*
X329103Y277873D01*
X329202Y277894D01*
X329300Y277920D01*
X329397Y277949D01*
X329493Y277981D01*
X329587Y278018D01*
X329680Y278058D01*
X329772Y278102D01*
X329861Y278149D01*
X329949Y278200D01*
X330035Y278254D01*
X330118Y278311D01*
X330200Y278371D01*
X330278Y278435D01*
X330355Y278501D01*
X330428Y278571D01*
X330499Y278643D01*
X330567Y278718D01*
X330632Y278796D01*
X330694Y278876D01*
X330753Y278958D01*
X330809Y279043D01*
X330861Y279130D01*
X330910Y279218D01*
X330956Y279309D01*
X330997Y279401D01*
X331036Y279495D01*
X331070Y279590D01*
X331101Y279686D01*
X331128Y279784D01*
X331152Y279882D01*
X331171Y279982D01*
X331187Y280082D01*
X331199Y280182D01*
X331207Y280283D01*
X331211Y280384D01*
X331211Y280486D01*
X331207Y280587D01*
X331199Y280688D01*
X331187Y280788D01*
X331171Y280888D01*
X331152Y280988D01*
X331128Y281086D01*
X331101Y281184D01*
X331070Y281280D01*
X331036Y281375D01*
X330997Y281469D01*
X330956Y281561D01*
X330910Y281652D01*
X330861Y281740D01*
X330809Y281827D01*
X330753Y281912D01*
X330694Y281994D01*
X330632Y282074D01*
X330567Y282152D01*
X330499Y282227D01*
X330428Y282299D01*
X330355Y282369D01*
X330278Y282435D01*
X330200Y282499D01*
X330118Y282559D01*
X330035Y282616D01*
X329949Y282670D01*
X329861Y282721D01*
X329772Y282768D01*
X329680Y282812D01*
X329587Y282852D01*
X329493Y282889D01*
X329397Y282921D01*
X329300Y282950D01*
X329202Y282976D01*
X329103Y282997D01*
X329003Y283015D01*
X328903Y283028D01*
X328802Y283038D01*
X328701Y283044D01*
X328600Y283046D01*
X328600Y283045D02*
X325990Y283045D01*
X325864Y283043D01*
X325738Y283037D01*
X325612Y283028D01*
X325487Y283015D01*
X325362Y282997D01*
X325237Y282977D01*
X325113Y282952D01*
X324990Y282924D01*
X324868Y282892D01*
X324747Y282856D01*
X324627Y282817D01*
X324509Y282774D01*
X324392Y282727D01*
X324276Y282677D01*
X324161Y282623D01*
X324049Y282567D01*
X323938Y282506D01*
X323829Y282443D01*
X323722Y282376D01*
X323617Y282306D01*
X323514Y282232D01*
X323414Y282156D01*
X323316Y282077D01*
X323220Y281995D01*
X323127Y281909D01*
X323036Y281822D01*
X322949Y281731D01*
X322863Y281638D01*
X322781Y281542D01*
X322702Y281444D01*
X322626Y281344D01*
X322552Y281241D01*
X322482Y281136D01*
X322415Y281029D01*
X322352Y280920D01*
X322291Y280809D01*
X322235Y280697D01*
X322181Y280582D01*
X322131Y280466D01*
X322084Y280349D01*
X322041Y280231D01*
X322002Y280111D01*
X321966Y279990D01*
X321934Y279868D01*
X321906Y279745D01*
X321881Y279621D01*
X321861Y279496D01*
X321843Y279371D01*
X321830Y279246D01*
X321821Y279120D01*
X321815Y278994D01*
X321813Y278868D01*
M02*
