G04 EAGLE Gerber RS-274X export*
G75*
%MOMM*%
%FSLAX34Y34*%
%LPD*%
%INSilkscreen Top*%
%IPPOS*%
%AMOC8*
5,1,8,0,0,1.08239X$1,22.5*%
G01*
%ADD10C,0.101600*%
%ADD11C,0.152400*%
%ADD12R,0.014731X0.014731*%
%ADD13R,0.147319X0.014731*%
%ADD14R,0.265175X0.014731*%
%ADD15R,0.383031X0.014731*%
%ADD16R,0.515619X0.014731*%
%ADD17R,0.633475X0.014731*%
%ADD18R,0.751331X0.014731*%
%ADD19R,0.883919X0.014731*%
%ADD20R,1.001775X0.014731*%
%ADD21R,1.119631X0.014731*%
%ADD22R,1.134363X0.014731*%
%ADD23R,1.149094X0.014731*%
%ADD24R,1.163825X0.014731*%
%ADD25R,1.178556X0.014731*%
%ADD26R,1.193288X0.014731*%
%ADD27R,1.222756X0.014731*%
%ADD28R,1.237488X0.014731*%
%ADD29R,1.266950X0.014731*%
%ADD30R,1.281681X0.014731*%
%ADD31R,1.311144X0.014731*%
%ADD32R,1.325881X0.014731*%
%ADD33R,1.355344X0.014731*%
%ADD34R,1.370075X0.014731*%
%ADD35R,1.384806X0.014731*%
%ADD36R,1.399538X0.014731*%
%ADD37R,1.414275X0.014731*%
%ADD38R,1.443738X0.014731*%
%ADD39R,1.458469X0.014731*%
%ADD40R,1.487931X0.014731*%
%ADD41R,1.502663X0.014731*%
%ADD42R,1.517394X0.014731*%
%ADD43R,1.532125X0.014731*%
%ADD44R,1.546856X0.014731*%
%ADD45R,1.576319X0.014731*%
%ADD46R,1.605788X0.014731*%
%ADD47R,1.620519X0.014731*%
%ADD48R,1.649981X0.014731*%
%ADD49R,1.664713X0.014731*%
%ADD50R,1.694175X0.014731*%
%ADD51R,1.708913X0.014731*%
%ADD52R,1.738375X0.014731*%
%ADD53R,1.753106X0.014731*%
%ADD54R,1.767838X0.014731*%
%ADD55R,1.782569X0.014731*%
%ADD56R,1.797306X0.014731*%
%ADD57R,0.117856X0.014731*%
%ADD58R,1.826769X0.014731*%
%ADD59R,0.235713X0.014731*%
%ADD60R,0.353569X0.014731*%
%ADD61R,1.856231X0.014731*%
%ADD62R,0.486156X0.014731*%
%ADD63R,1.870963X0.014731*%
%ADD64R,0.604013X0.014731*%
%ADD65R,0.721869X0.014731*%
%ADD66R,1.885694X0.014731*%
%ADD67R,0.839719X0.014731*%
%ADD68R,0.972306X0.014731*%
%ADD69R,1.090169X0.014731*%
%ADD70R,1.208025X0.014731*%
%ADD71R,1.252219X0.014731*%
%ADD72R,1.296412X0.014731*%
%ADD73R,1.340612X0.014731*%
%ADD74R,1.826763X0.014731*%
%ADD75R,1.414269X0.014731*%
%ADD76R,1.812031X0.014731*%
%ADD77R,1.429000X0.014731*%
%ADD78R,1.458462X0.014731*%
%ADD79R,1.473200X0.014731*%
%ADD80R,1.723644X0.014731*%
%ADD81R,1.694181X0.014731*%
%ADD82R,1.679450X0.014731*%
%ADD83R,1.561594X0.014731*%
%ADD84R,1.576325X0.014731*%
%ADD85R,1.591056X0.014731*%
%ADD86R,1.635250X0.014731*%
%ADD87R,1.561588X0.014731*%
%ADD88R,1.443731X0.014731*%
%ADD89R,1.797300X0.014731*%
%ADD90R,1.841500X0.014731*%
%ADD91R,1.311150X0.014731*%
%ADD92R,1.296419X0.014731*%
%ADD93R,1.193294X0.014731*%
%ADD94R,0.957575X0.014731*%
%ADD95R,0.589281X0.014731*%
%ADD96R,0.471425X0.014731*%
%ADD97R,0.220975X0.014731*%
%ADD98R,1.812038X0.014731*%
%ADD99R,0.103119X0.014731*%
%ADD100R,0.029463X0.014731*%
%ADD101R,0.162050X0.014731*%
%ADD102R,0.397763X0.014731*%
%ADD103R,0.648206X0.014731*%
%ADD104R,1.679444X0.014731*%
%ADD105R,1.016506X0.014731*%
%ADD106R,1.104900X0.014731*%
%ADD107R,1.222750X0.014731*%
%ADD108R,1.429006X0.014731*%
%ADD109R,1.208019X0.014731*%
%ADD110R,0.987044X0.014731*%
%ADD111R,0.854456X0.014731*%
%ADD112R,0.618744X0.014731*%
%ADD113R,0.500888X0.014731*%
%ADD114R,0.368300X0.014731*%
%ADD115R,0.132587X0.014731*%
%ADD116R,1.664719X0.014731*%
%ADD117R,1.075438X0.014731*%
%ADD118R,0.942844X0.014731*%
%ADD119R,0.707131X0.014731*%
%ADD120R,0.456694X0.014731*%
%ADD121R,0.088388X0.014731*%
%ADD122C,0.127000*%
%ADD123C,0.076200*%
%ADD124C,0.050800*%
%ADD125C,0.762000*%
%ADD126R,0.762000X0.508000*%
%ADD127R,0.762000X1.016000*%


D10*
X412318Y469182D02*
X414976Y467320D01*
X415070Y467257D01*
X415166Y467197D01*
X415264Y467140D01*
X415364Y467087D01*
X415466Y467037D01*
X415570Y466991D01*
X415675Y466949D01*
X415781Y466910D01*
X415889Y466875D01*
X415998Y466844D01*
X416108Y466816D01*
X416219Y466793D01*
X416330Y466773D01*
X416442Y466757D01*
X416555Y466745D01*
X416668Y466737D01*
X416781Y466733D01*
X416895Y466733D01*
X417008Y466737D01*
X417121Y466745D01*
X417234Y466757D01*
X417346Y466773D01*
X417457Y466793D01*
X417568Y466816D01*
X417678Y466844D01*
X417787Y466875D01*
X417895Y466910D01*
X418001Y466949D01*
X418106Y466991D01*
X418210Y467037D01*
X418312Y467087D01*
X418412Y467140D01*
X418510Y467197D01*
X418606Y467257D01*
X418700Y467320D01*
X418791Y467387D01*
X418881Y467456D01*
X418968Y467529D01*
X419052Y467605D01*
X419133Y467684D01*
X419212Y467765D01*
X419288Y467849D01*
X419361Y467936D01*
X419430Y468026D01*
X419497Y468117D01*
X419560Y468211D01*
X419620Y468307D01*
X419677Y468405D01*
X419730Y468505D01*
X419780Y468607D01*
X419826Y468711D01*
X419868Y468816D01*
X419907Y468922D01*
X419942Y469030D01*
X419973Y469139D01*
X420001Y469249D01*
X420024Y469360D01*
X420044Y469471D01*
X420060Y469583D01*
X420072Y469696D01*
X420080Y469809D01*
X420084Y469922D01*
X420084Y470036D01*
X420080Y470149D01*
X420072Y470262D01*
X420060Y470375D01*
X420044Y470487D01*
X420024Y470598D01*
X420001Y470709D01*
X419973Y470819D01*
X419942Y470928D01*
X419907Y471036D01*
X419868Y471142D01*
X419826Y471247D01*
X419780Y471351D01*
X419730Y471453D01*
X419677Y471553D01*
X419620Y471651D01*
X419560Y471747D01*
X419497Y471841D01*
X419430Y471932D01*
X419361Y472022D01*
X419288Y472109D01*
X419212Y472193D01*
X419133Y472274D01*
X419052Y472353D01*
X418968Y472429D01*
X418881Y472502D01*
X418792Y472571D01*
X418700Y472638D01*
X422210Y476519D02*
X419019Y478753D01*
X422209Y476519D02*
X422290Y476459D01*
X422369Y476397D01*
X422446Y476331D01*
X422520Y476263D01*
X422591Y476192D01*
X422659Y476118D01*
X422725Y476041D01*
X422787Y475962D01*
X422847Y475881D01*
X422903Y475797D01*
X422956Y475712D01*
X423005Y475624D01*
X423051Y475535D01*
X423094Y475443D01*
X423133Y475350D01*
X423168Y475256D01*
X423200Y475161D01*
X423228Y475064D01*
X423252Y474966D01*
X423272Y474868D01*
X423289Y474768D01*
X423301Y474668D01*
X423310Y474568D01*
X423315Y474468D01*
X423316Y474367D01*
X423313Y474266D01*
X423306Y474166D01*
X423295Y474066D01*
X423281Y473966D01*
X423262Y473867D01*
X423240Y473769D01*
X423214Y473672D01*
X423184Y473575D01*
X423151Y473481D01*
X423114Y473387D01*
X423073Y473295D01*
X423028Y473204D01*
X422981Y473116D01*
X422929Y473029D01*
X422875Y472945D01*
X422817Y472862D01*
X422756Y472782D01*
X422692Y472704D01*
X422625Y472629D01*
X422556Y472556D01*
X422483Y472487D01*
X422408Y472420D01*
X422330Y472356D01*
X422250Y472295D01*
X422167Y472237D01*
X422083Y472183D01*
X421996Y472131D01*
X421908Y472084D01*
X421817Y472039D01*
X421725Y471998D01*
X421631Y471961D01*
X421537Y471928D01*
X421440Y471898D01*
X421343Y471872D01*
X421245Y471850D01*
X421146Y471831D01*
X421046Y471817D01*
X420946Y471806D01*
X420846Y471799D01*
X420745Y471796D01*
X420644Y471797D01*
X420544Y471802D01*
X420444Y471811D01*
X420344Y471823D01*
X420244Y471840D01*
X420146Y471860D01*
X420048Y471884D01*
X419951Y471912D01*
X419856Y471944D01*
X419762Y471979D01*
X419669Y472018D01*
X419577Y472061D01*
X419488Y472107D01*
X419400Y472156D01*
X419315Y472209D01*
X419231Y472265D01*
X417104Y473755D01*
X427850Y472569D02*
X424339Y460764D01*
X434231Y468102D01*
X431043Y456070D02*
X433702Y454208D01*
X433796Y454145D01*
X433892Y454085D01*
X433990Y454028D01*
X434090Y453975D01*
X434192Y453925D01*
X434296Y453879D01*
X434401Y453837D01*
X434507Y453798D01*
X434615Y453763D01*
X434724Y453732D01*
X434834Y453704D01*
X434945Y453681D01*
X435056Y453661D01*
X435168Y453645D01*
X435281Y453633D01*
X435394Y453625D01*
X435507Y453621D01*
X435621Y453621D01*
X435734Y453625D01*
X435847Y453633D01*
X435960Y453645D01*
X436072Y453661D01*
X436183Y453681D01*
X436294Y453704D01*
X436404Y453732D01*
X436513Y453763D01*
X436621Y453798D01*
X436727Y453837D01*
X436832Y453879D01*
X436936Y453925D01*
X437038Y453975D01*
X437138Y454028D01*
X437236Y454085D01*
X437332Y454145D01*
X437426Y454208D01*
X437517Y454275D01*
X437607Y454344D01*
X437694Y454417D01*
X437778Y454493D01*
X437859Y454572D01*
X437938Y454653D01*
X438014Y454737D01*
X438087Y454824D01*
X438156Y454914D01*
X438223Y455005D01*
X438286Y455099D01*
X438346Y455195D01*
X438403Y455293D01*
X438456Y455393D01*
X438506Y455495D01*
X438552Y455599D01*
X438594Y455704D01*
X438633Y455810D01*
X438668Y455918D01*
X438699Y456027D01*
X438727Y456137D01*
X438750Y456248D01*
X438770Y456359D01*
X438786Y456471D01*
X438798Y456584D01*
X438806Y456697D01*
X438810Y456810D01*
X438810Y456924D01*
X438806Y457037D01*
X438798Y457150D01*
X438786Y457263D01*
X438770Y457375D01*
X438750Y457486D01*
X438727Y457597D01*
X438699Y457707D01*
X438668Y457816D01*
X438633Y457924D01*
X438594Y458030D01*
X438552Y458135D01*
X438506Y458239D01*
X438456Y458341D01*
X438403Y458441D01*
X438346Y458539D01*
X438286Y458635D01*
X438223Y458729D01*
X438156Y458820D01*
X438087Y458910D01*
X438014Y458997D01*
X437938Y459081D01*
X437859Y459162D01*
X437778Y459241D01*
X437694Y459317D01*
X437607Y459390D01*
X437518Y459459D01*
X437426Y459526D01*
X440935Y463407D02*
X437745Y465641D01*
X440935Y463407D02*
X441016Y463347D01*
X441095Y463285D01*
X441172Y463219D01*
X441246Y463151D01*
X441317Y463080D01*
X441385Y463006D01*
X441451Y462929D01*
X441513Y462850D01*
X441573Y462769D01*
X441629Y462685D01*
X441682Y462600D01*
X441731Y462512D01*
X441777Y462423D01*
X441820Y462331D01*
X441859Y462238D01*
X441894Y462144D01*
X441926Y462049D01*
X441954Y461952D01*
X441978Y461854D01*
X441998Y461756D01*
X442015Y461656D01*
X442027Y461556D01*
X442036Y461456D01*
X442041Y461356D01*
X442042Y461255D01*
X442039Y461154D01*
X442032Y461054D01*
X442021Y460954D01*
X442007Y460854D01*
X441988Y460755D01*
X441966Y460657D01*
X441940Y460560D01*
X441910Y460463D01*
X441877Y460369D01*
X441840Y460275D01*
X441799Y460183D01*
X441754Y460092D01*
X441707Y460004D01*
X441655Y459917D01*
X441601Y459833D01*
X441543Y459750D01*
X441482Y459670D01*
X441418Y459592D01*
X441351Y459517D01*
X441282Y459444D01*
X441209Y459375D01*
X441134Y459308D01*
X441056Y459244D01*
X440976Y459183D01*
X440893Y459125D01*
X440809Y459071D01*
X440722Y459019D01*
X440634Y458972D01*
X440543Y458927D01*
X440451Y458886D01*
X440357Y458849D01*
X440263Y458816D01*
X440166Y458786D01*
X440069Y458760D01*
X439971Y458738D01*
X439872Y458719D01*
X439772Y458705D01*
X439672Y458694D01*
X439572Y458687D01*
X439471Y458684D01*
X439370Y458685D01*
X439270Y458690D01*
X439170Y458699D01*
X439070Y458711D01*
X438970Y458728D01*
X438872Y458748D01*
X438774Y458772D01*
X438677Y458800D01*
X438582Y458832D01*
X438488Y458867D01*
X438395Y458906D01*
X438303Y458949D01*
X438214Y458995D01*
X438126Y459044D01*
X438041Y459097D01*
X437957Y459153D01*
X435830Y460643D01*
X497242Y334770D02*
X497242Y331524D01*
X497242Y334770D02*
X497240Y334883D01*
X497234Y334996D01*
X497224Y335109D01*
X497210Y335222D01*
X497193Y335334D01*
X497171Y335445D01*
X497146Y335555D01*
X497116Y335665D01*
X497083Y335773D01*
X497046Y335880D01*
X497006Y335986D01*
X496961Y336090D01*
X496913Y336193D01*
X496862Y336294D01*
X496807Y336393D01*
X496749Y336490D01*
X496687Y336585D01*
X496622Y336678D01*
X496554Y336768D01*
X496483Y336856D01*
X496408Y336942D01*
X496331Y337025D01*
X496251Y337105D01*
X496168Y337182D01*
X496082Y337257D01*
X495994Y337328D01*
X495904Y337396D01*
X495811Y337461D01*
X495716Y337523D01*
X495619Y337581D01*
X495520Y337636D01*
X495419Y337687D01*
X495316Y337735D01*
X495212Y337780D01*
X495106Y337820D01*
X494999Y337857D01*
X494891Y337890D01*
X494781Y337920D01*
X494671Y337945D01*
X494560Y337967D01*
X494448Y337984D01*
X494335Y337998D01*
X494222Y338008D01*
X494109Y338014D01*
X493996Y338016D01*
X493883Y338014D01*
X493770Y338008D01*
X493657Y337998D01*
X493544Y337984D01*
X493432Y337967D01*
X493321Y337945D01*
X493211Y337920D01*
X493101Y337890D01*
X492993Y337857D01*
X492886Y337820D01*
X492780Y337780D01*
X492676Y337735D01*
X492573Y337687D01*
X492472Y337636D01*
X492373Y337581D01*
X492276Y337523D01*
X492181Y337461D01*
X492088Y337396D01*
X491998Y337328D01*
X491910Y337257D01*
X491824Y337182D01*
X491741Y337105D01*
X491661Y337025D01*
X491584Y336942D01*
X491509Y336856D01*
X491438Y336768D01*
X491370Y336678D01*
X491305Y336585D01*
X491243Y336490D01*
X491185Y336393D01*
X491130Y336294D01*
X491079Y336193D01*
X491031Y336090D01*
X490986Y335986D01*
X490946Y335880D01*
X490909Y335773D01*
X490876Y335665D01*
X490846Y335555D01*
X490821Y335445D01*
X490799Y335334D01*
X490782Y335222D01*
X490768Y335109D01*
X490758Y334996D01*
X490752Y334883D01*
X490750Y334770D01*
X485558Y335419D02*
X485558Y331524D01*
X485558Y335419D02*
X485560Y335520D01*
X485566Y335620D01*
X485576Y335720D01*
X485589Y335820D01*
X485607Y335919D01*
X485628Y336018D01*
X485653Y336115D01*
X485682Y336212D01*
X485715Y336307D01*
X485751Y336401D01*
X485791Y336493D01*
X485834Y336584D01*
X485881Y336673D01*
X485931Y336760D01*
X485985Y336846D01*
X486042Y336929D01*
X486102Y337009D01*
X486165Y337088D01*
X486232Y337164D01*
X486301Y337237D01*
X486373Y337307D01*
X486447Y337375D01*
X486524Y337440D01*
X486604Y337501D01*
X486686Y337560D01*
X486770Y337615D01*
X486856Y337667D01*
X486944Y337716D01*
X487034Y337761D01*
X487126Y337803D01*
X487219Y337841D01*
X487314Y337875D01*
X487409Y337906D01*
X487506Y337933D01*
X487604Y337956D01*
X487703Y337976D01*
X487803Y337991D01*
X487903Y338003D01*
X488003Y338011D01*
X488104Y338015D01*
X488204Y338015D01*
X488305Y338011D01*
X488405Y338003D01*
X488505Y337991D01*
X488605Y337976D01*
X488704Y337956D01*
X488802Y337933D01*
X488899Y337906D01*
X488994Y337875D01*
X489089Y337841D01*
X489182Y337803D01*
X489274Y337761D01*
X489364Y337716D01*
X489452Y337667D01*
X489538Y337615D01*
X489622Y337560D01*
X489704Y337501D01*
X489784Y337440D01*
X489861Y337375D01*
X489935Y337307D01*
X490007Y337237D01*
X490076Y337164D01*
X490143Y337088D01*
X490206Y337009D01*
X490266Y336929D01*
X490323Y336846D01*
X490377Y336760D01*
X490427Y336673D01*
X490474Y336584D01*
X490517Y336493D01*
X490557Y336401D01*
X490593Y336307D01*
X490626Y336212D01*
X490655Y336115D01*
X490680Y336018D01*
X490701Y335919D01*
X490719Y335820D01*
X490732Y335720D01*
X490742Y335620D01*
X490748Y335520D01*
X490750Y335419D01*
X490751Y335419D02*
X490751Y332823D01*
X485558Y342305D02*
X497242Y346200D01*
X485558Y350095D01*
X497242Y354384D02*
X497242Y357630D01*
X497240Y357743D01*
X497234Y357856D01*
X497224Y357969D01*
X497210Y358082D01*
X497193Y358194D01*
X497171Y358305D01*
X497146Y358415D01*
X497116Y358525D01*
X497083Y358633D01*
X497046Y358740D01*
X497006Y358846D01*
X496961Y358950D01*
X496913Y359053D01*
X496862Y359154D01*
X496807Y359253D01*
X496749Y359350D01*
X496687Y359445D01*
X496622Y359538D01*
X496554Y359628D01*
X496483Y359716D01*
X496408Y359802D01*
X496331Y359885D01*
X496251Y359965D01*
X496168Y360042D01*
X496082Y360117D01*
X495994Y360188D01*
X495904Y360256D01*
X495811Y360321D01*
X495716Y360383D01*
X495619Y360441D01*
X495520Y360496D01*
X495419Y360547D01*
X495316Y360595D01*
X495212Y360640D01*
X495106Y360680D01*
X494999Y360717D01*
X494891Y360750D01*
X494781Y360780D01*
X494671Y360805D01*
X494560Y360827D01*
X494448Y360844D01*
X494335Y360858D01*
X494222Y360868D01*
X494109Y360874D01*
X493996Y360876D01*
X493883Y360874D01*
X493770Y360868D01*
X493657Y360858D01*
X493544Y360844D01*
X493432Y360827D01*
X493321Y360805D01*
X493211Y360780D01*
X493101Y360750D01*
X492993Y360717D01*
X492886Y360680D01*
X492780Y360640D01*
X492676Y360595D01*
X492573Y360547D01*
X492472Y360496D01*
X492373Y360441D01*
X492276Y360383D01*
X492181Y360321D01*
X492088Y360256D01*
X491998Y360188D01*
X491910Y360117D01*
X491824Y360042D01*
X491741Y359965D01*
X491661Y359885D01*
X491584Y359802D01*
X491509Y359716D01*
X491438Y359628D01*
X491370Y359538D01*
X491305Y359445D01*
X491243Y359350D01*
X491185Y359253D01*
X491130Y359154D01*
X491079Y359053D01*
X491031Y358950D01*
X490986Y358846D01*
X490946Y358740D01*
X490909Y358633D01*
X490876Y358525D01*
X490846Y358415D01*
X490821Y358305D01*
X490799Y358194D01*
X490782Y358082D01*
X490768Y357969D01*
X490758Y357856D01*
X490752Y357743D01*
X490750Y357630D01*
X485558Y358279D02*
X485558Y354384D01*
X485558Y358279D02*
X485560Y358380D01*
X485566Y358480D01*
X485576Y358580D01*
X485589Y358680D01*
X485607Y358779D01*
X485628Y358878D01*
X485653Y358975D01*
X485682Y359072D01*
X485715Y359167D01*
X485751Y359261D01*
X485791Y359353D01*
X485834Y359444D01*
X485881Y359533D01*
X485931Y359620D01*
X485985Y359706D01*
X486042Y359789D01*
X486102Y359869D01*
X486165Y359948D01*
X486232Y360024D01*
X486301Y360097D01*
X486373Y360167D01*
X486447Y360235D01*
X486524Y360300D01*
X486604Y360361D01*
X486686Y360420D01*
X486770Y360475D01*
X486856Y360527D01*
X486944Y360576D01*
X487034Y360621D01*
X487126Y360663D01*
X487219Y360701D01*
X487314Y360735D01*
X487409Y360766D01*
X487506Y360793D01*
X487604Y360816D01*
X487703Y360836D01*
X487803Y360851D01*
X487903Y360863D01*
X488003Y360871D01*
X488104Y360875D01*
X488204Y360875D01*
X488305Y360871D01*
X488405Y360863D01*
X488505Y360851D01*
X488605Y360836D01*
X488704Y360816D01*
X488802Y360793D01*
X488899Y360766D01*
X488994Y360735D01*
X489089Y360701D01*
X489182Y360663D01*
X489274Y360621D01*
X489364Y360576D01*
X489452Y360527D01*
X489538Y360475D01*
X489622Y360420D01*
X489704Y360361D01*
X489784Y360300D01*
X489861Y360235D01*
X489935Y360167D01*
X490007Y360097D01*
X490076Y360024D01*
X490143Y359948D01*
X490206Y359869D01*
X490266Y359789D01*
X490323Y359706D01*
X490377Y359620D01*
X490427Y359533D01*
X490474Y359444D01*
X490517Y359353D01*
X490557Y359261D01*
X490593Y359167D01*
X490626Y359072D01*
X490655Y358975D01*
X490680Y358878D01*
X490701Y358779D01*
X490719Y358680D01*
X490732Y358580D01*
X490742Y358480D01*
X490748Y358380D01*
X490750Y358279D01*
X490751Y358279D02*
X490751Y355683D01*
X412788Y209159D02*
X410129Y207297D01*
X412788Y209158D02*
X412879Y209225D01*
X412969Y209294D01*
X413056Y209367D01*
X413140Y209443D01*
X413221Y209522D01*
X413300Y209603D01*
X413376Y209687D01*
X413449Y209774D01*
X413518Y209864D01*
X413585Y209955D01*
X413648Y210049D01*
X413708Y210145D01*
X413765Y210243D01*
X413818Y210343D01*
X413868Y210445D01*
X413914Y210549D01*
X413956Y210654D01*
X413995Y210760D01*
X414030Y210868D01*
X414061Y210977D01*
X414089Y211087D01*
X414112Y211198D01*
X414132Y211309D01*
X414148Y211421D01*
X414160Y211534D01*
X414168Y211647D01*
X414172Y211760D01*
X414172Y211874D01*
X414168Y211987D01*
X414160Y212100D01*
X414148Y212213D01*
X414132Y212325D01*
X414112Y212436D01*
X414089Y212547D01*
X414061Y212657D01*
X414030Y212766D01*
X413995Y212874D01*
X413956Y212980D01*
X413914Y213085D01*
X413868Y213189D01*
X413818Y213291D01*
X413765Y213391D01*
X413708Y213489D01*
X413648Y213585D01*
X413585Y213679D01*
X413518Y213770D01*
X413449Y213860D01*
X413376Y213947D01*
X413300Y214031D01*
X413221Y214112D01*
X413140Y214191D01*
X413056Y214267D01*
X412969Y214340D01*
X412880Y214409D01*
X412788Y214476D01*
X412694Y214539D01*
X412598Y214599D01*
X412500Y214656D01*
X412400Y214709D01*
X412298Y214759D01*
X412194Y214805D01*
X412089Y214847D01*
X411983Y214886D01*
X411875Y214921D01*
X411766Y214952D01*
X411656Y214980D01*
X411545Y215003D01*
X411434Y215023D01*
X411322Y215039D01*
X411209Y215051D01*
X411096Y215059D01*
X410983Y215063D01*
X410869Y215063D01*
X410756Y215059D01*
X410643Y215051D01*
X410530Y215039D01*
X410418Y215023D01*
X410307Y215003D01*
X410196Y214980D01*
X410086Y214952D01*
X409977Y214921D01*
X409869Y214886D01*
X409763Y214847D01*
X409658Y214805D01*
X409554Y214759D01*
X409452Y214709D01*
X409352Y214656D01*
X409254Y214599D01*
X409158Y214539D01*
X409064Y214476D01*
X406618Y219102D02*
X403428Y216868D01*
X406618Y219102D02*
X406702Y219158D01*
X406787Y219211D01*
X406875Y219260D01*
X406964Y219306D01*
X407056Y219349D01*
X407149Y219388D01*
X407243Y219423D01*
X407338Y219455D01*
X407435Y219483D01*
X407533Y219507D01*
X407631Y219527D01*
X407731Y219544D01*
X407831Y219556D01*
X407931Y219565D01*
X408032Y219570D01*
X408132Y219571D01*
X408233Y219568D01*
X408333Y219561D01*
X408433Y219550D01*
X408533Y219536D01*
X408632Y219517D01*
X408730Y219495D01*
X408827Y219469D01*
X408924Y219439D01*
X409019Y219406D01*
X409112Y219369D01*
X409204Y219328D01*
X409295Y219283D01*
X409383Y219236D01*
X409470Y219184D01*
X409554Y219130D01*
X409637Y219072D01*
X409717Y219011D01*
X409795Y218947D01*
X409870Y218880D01*
X409943Y218811D01*
X410012Y218738D01*
X410079Y218663D01*
X410143Y218585D01*
X410204Y218505D01*
X410262Y218422D01*
X410316Y218338D01*
X410368Y218251D01*
X410415Y218163D01*
X410460Y218072D01*
X410501Y217980D01*
X410538Y217886D01*
X410571Y217792D01*
X410601Y217695D01*
X410627Y217598D01*
X410649Y217500D01*
X410668Y217401D01*
X410682Y217301D01*
X410693Y217201D01*
X410700Y217101D01*
X410703Y217000D01*
X410702Y216900D01*
X410697Y216799D01*
X410688Y216699D01*
X410676Y216599D01*
X410659Y216499D01*
X410639Y216401D01*
X410615Y216303D01*
X410587Y216206D01*
X410555Y216111D01*
X410520Y216017D01*
X410481Y215924D01*
X410438Y215832D01*
X410392Y215743D01*
X410343Y215655D01*
X410290Y215570D01*
X410234Y215486D01*
X410174Y215405D01*
X410112Y215326D01*
X410046Y215249D01*
X409978Y215175D01*
X409907Y215104D01*
X409833Y215036D01*
X409756Y214970D01*
X409677Y214908D01*
X409596Y214848D01*
X407470Y213359D01*
X412259Y223052D02*
X422151Y215714D01*
X418639Y227519D01*
X428855Y220409D02*
X431514Y222270D01*
X431605Y222337D01*
X431695Y222406D01*
X431782Y222479D01*
X431866Y222555D01*
X431947Y222634D01*
X432026Y222715D01*
X432102Y222799D01*
X432175Y222886D01*
X432244Y222976D01*
X432311Y223067D01*
X432374Y223161D01*
X432434Y223257D01*
X432491Y223355D01*
X432544Y223455D01*
X432594Y223557D01*
X432640Y223661D01*
X432682Y223766D01*
X432721Y223872D01*
X432756Y223980D01*
X432787Y224089D01*
X432815Y224199D01*
X432838Y224310D01*
X432858Y224421D01*
X432874Y224533D01*
X432886Y224646D01*
X432894Y224759D01*
X432898Y224872D01*
X432898Y224986D01*
X432894Y225099D01*
X432886Y225212D01*
X432874Y225325D01*
X432858Y225437D01*
X432838Y225548D01*
X432815Y225659D01*
X432787Y225769D01*
X432756Y225878D01*
X432721Y225986D01*
X432682Y226092D01*
X432640Y226197D01*
X432594Y226301D01*
X432544Y226403D01*
X432491Y226503D01*
X432434Y226601D01*
X432374Y226697D01*
X432311Y226791D01*
X432244Y226882D01*
X432175Y226972D01*
X432102Y227059D01*
X432026Y227143D01*
X431947Y227224D01*
X431866Y227303D01*
X431782Y227379D01*
X431695Y227452D01*
X431606Y227521D01*
X431514Y227588D01*
X431420Y227651D01*
X431324Y227711D01*
X431226Y227768D01*
X431126Y227821D01*
X431024Y227871D01*
X430920Y227917D01*
X430815Y227959D01*
X430709Y227998D01*
X430601Y228033D01*
X430492Y228064D01*
X430382Y228092D01*
X430271Y228115D01*
X430160Y228135D01*
X430048Y228151D01*
X429935Y228163D01*
X429822Y228171D01*
X429709Y228175D01*
X429595Y228175D01*
X429482Y228171D01*
X429369Y228163D01*
X429256Y228151D01*
X429144Y228135D01*
X429033Y228115D01*
X428922Y228092D01*
X428812Y228064D01*
X428703Y228033D01*
X428595Y227998D01*
X428489Y227959D01*
X428384Y227917D01*
X428280Y227871D01*
X428178Y227821D01*
X428078Y227768D01*
X427980Y227711D01*
X427884Y227651D01*
X427790Y227588D01*
X425344Y232214D02*
X422153Y229980D01*
X425344Y232214D02*
X425428Y232270D01*
X425513Y232323D01*
X425601Y232372D01*
X425690Y232418D01*
X425782Y232461D01*
X425875Y232500D01*
X425969Y232535D01*
X426064Y232567D01*
X426161Y232595D01*
X426259Y232619D01*
X426357Y232639D01*
X426457Y232656D01*
X426557Y232668D01*
X426657Y232677D01*
X426758Y232682D01*
X426858Y232683D01*
X426959Y232680D01*
X427059Y232673D01*
X427159Y232662D01*
X427259Y232648D01*
X427358Y232629D01*
X427456Y232607D01*
X427553Y232581D01*
X427650Y232551D01*
X427745Y232518D01*
X427838Y232481D01*
X427930Y232440D01*
X428021Y232395D01*
X428109Y232348D01*
X428196Y232296D01*
X428280Y232242D01*
X428363Y232184D01*
X428443Y232123D01*
X428521Y232059D01*
X428596Y231992D01*
X428669Y231923D01*
X428738Y231850D01*
X428805Y231775D01*
X428869Y231697D01*
X428930Y231617D01*
X428988Y231534D01*
X429042Y231450D01*
X429094Y231363D01*
X429141Y231275D01*
X429186Y231184D01*
X429227Y231092D01*
X429264Y230998D01*
X429297Y230904D01*
X429327Y230807D01*
X429353Y230710D01*
X429375Y230612D01*
X429394Y230513D01*
X429408Y230413D01*
X429419Y230313D01*
X429426Y230213D01*
X429429Y230112D01*
X429428Y230012D01*
X429423Y229911D01*
X429414Y229811D01*
X429402Y229711D01*
X429385Y229611D01*
X429365Y229513D01*
X429341Y229415D01*
X429313Y229318D01*
X429281Y229223D01*
X429246Y229129D01*
X429207Y229036D01*
X429164Y228944D01*
X429118Y228855D01*
X429069Y228767D01*
X429016Y228682D01*
X428960Y228598D01*
X428900Y228517D01*
X428838Y228438D01*
X428772Y228361D01*
X428704Y228287D01*
X428633Y228216D01*
X428559Y228148D01*
X428482Y228082D01*
X428403Y228020D01*
X428322Y227960D01*
X426195Y226471D01*
X260886Y222270D02*
X258228Y224132D01*
X260886Y222270D02*
X260980Y222207D01*
X261076Y222147D01*
X261174Y222090D01*
X261274Y222037D01*
X261376Y221987D01*
X261480Y221941D01*
X261585Y221899D01*
X261691Y221860D01*
X261799Y221825D01*
X261908Y221794D01*
X262018Y221766D01*
X262129Y221743D01*
X262240Y221723D01*
X262352Y221707D01*
X262465Y221695D01*
X262578Y221687D01*
X262691Y221683D01*
X262805Y221683D01*
X262918Y221687D01*
X263031Y221695D01*
X263144Y221707D01*
X263256Y221723D01*
X263367Y221743D01*
X263478Y221766D01*
X263588Y221794D01*
X263697Y221825D01*
X263805Y221860D01*
X263911Y221899D01*
X264016Y221941D01*
X264120Y221987D01*
X264222Y222037D01*
X264322Y222090D01*
X264420Y222147D01*
X264516Y222207D01*
X264610Y222270D01*
X264701Y222337D01*
X264791Y222406D01*
X264878Y222479D01*
X264962Y222555D01*
X265043Y222634D01*
X265122Y222715D01*
X265198Y222799D01*
X265271Y222886D01*
X265340Y222976D01*
X265407Y223067D01*
X265470Y223161D01*
X265530Y223257D01*
X265587Y223355D01*
X265640Y223455D01*
X265690Y223557D01*
X265736Y223661D01*
X265778Y223766D01*
X265817Y223872D01*
X265852Y223980D01*
X265883Y224089D01*
X265911Y224199D01*
X265934Y224310D01*
X265954Y224421D01*
X265970Y224533D01*
X265982Y224646D01*
X265990Y224759D01*
X265994Y224872D01*
X265994Y224986D01*
X265990Y225099D01*
X265982Y225212D01*
X265970Y225325D01*
X265954Y225437D01*
X265934Y225548D01*
X265911Y225659D01*
X265883Y225769D01*
X265852Y225878D01*
X265817Y225986D01*
X265778Y226092D01*
X265736Y226197D01*
X265690Y226301D01*
X265640Y226403D01*
X265587Y226503D01*
X265530Y226601D01*
X265470Y226697D01*
X265407Y226791D01*
X265340Y226882D01*
X265271Y226972D01*
X265198Y227059D01*
X265122Y227143D01*
X265043Y227224D01*
X264962Y227303D01*
X264878Y227379D01*
X264791Y227452D01*
X264702Y227521D01*
X264610Y227588D01*
X268120Y231469D02*
X264929Y233703D01*
X268119Y231469D02*
X268200Y231409D01*
X268279Y231347D01*
X268356Y231281D01*
X268430Y231213D01*
X268501Y231142D01*
X268569Y231068D01*
X268635Y230991D01*
X268697Y230912D01*
X268757Y230831D01*
X268813Y230747D01*
X268866Y230662D01*
X268915Y230574D01*
X268961Y230485D01*
X269004Y230393D01*
X269043Y230300D01*
X269078Y230206D01*
X269110Y230111D01*
X269138Y230014D01*
X269162Y229916D01*
X269182Y229818D01*
X269199Y229718D01*
X269211Y229618D01*
X269220Y229518D01*
X269225Y229418D01*
X269226Y229317D01*
X269223Y229216D01*
X269216Y229116D01*
X269205Y229016D01*
X269191Y228916D01*
X269172Y228817D01*
X269150Y228719D01*
X269124Y228622D01*
X269094Y228525D01*
X269061Y228431D01*
X269024Y228337D01*
X268983Y228245D01*
X268938Y228154D01*
X268891Y228066D01*
X268839Y227979D01*
X268785Y227895D01*
X268727Y227812D01*
X268666Y227732D01*
X268602Y227654D01*
X268535Y227579D01*
X268466Y227506D01*
X268393Y227437D01*
X268318Y227370D01*
X268240Y227306D01*
X268160Y227245D01*
X268077Y227187D01*
X267993Y227133D01*
X267906Y227081D01*
X267818Y227034D01*
X267727Y226989D01*
X267635Y226948D01*
X267541Y226911D01*
X267447Y226878D01*
X267350Y226848D01*
X267253Y226822D01*
X267155Y226800D01*
X267056Y226781D01*
X266956Y226767D01*
X266856Y226756D01*
X266756Y226749D01*
X266655Y226746D01*
X266554Y226747D01*
X266454Y226752D01*
X266354Y226761D01*
X266254Y226773D01*
X266154Y226790D01*
X266056Y226810D01*
X265958Y226834D01*
X265861Y226862D01*
X265766Y226894D01*
X265672Y226929D01*
X265579Y226968D01*
X265487Y227011D01*
X265398Y227057D01*
X265310Y227106D01*
X265225Y227159D01*
X265141Y227215D01*
X263014Y228705D01*
X273760Y227519D02*
X270249Y215714D01*
X280141Y223052D01*
X276953Y211020D02*
X279612Y209158D01*
X279706Y209095D01*
X279802Y209035D01*
X279900Y208978D01*
X280000Y208925D01*
X280102Y208875D01*
X280206Y208829D01*
X280311Y208787D01*
X280417Y208748D01*
X280525Y208713D01*
X280634Y208682D01*
X280744Y208654D01*
X280855Y208631D01*
X280966Y208611D01*
X281078Y208595D01*
X281191Y208583D01*
X281304Y208575D01*
X281417Y208571D01*
X281531Y208571D01*
X281644Y208575D01*
X281757Y208583D01*
X281870Y208595D01*
X281982Y208611D01*
X282093Y208631D01*
X282204Y208654D01*
X282314Y208682D01*
X282423Y208713D01*
X282531Y208748D01*
X282637Y208787D01*
X282742Y208829D01*
X282846Y208875D01*
X282948Y208925D01*
X283048Y208978D01*
X283146Y209035D01*
X283242Y209095D01*
X283336Y209158D01*
X283427Y209225D01*
X283517Y209294D01*
X283604Y209367D01*
X283688Y209443D01*
X283769Y209522D01*
X283848Y209603D01*
X283924Y209687D01*
X283997Y209774D01*
X284066Y209864D01*
X284133Y209955D01*
X284196Y210049D01*
X284256Y210145D01*
X284313Y210243D01*
X284366Y210343D01*
X284416Y210445D01*
X284462Y210549D01*
X284504Y210654D01*
X284543Y210760D01*
X284578Y210868D01*
X284609Y210977D01*
X284637Y211087D01*
X284660Y211198D01*
X284680Y211309D01*
X284696Y211421D01*
X284708Y211534D01*
X284716Y211647D01*
X284720Y211760D01*
X284720Y211874D01*
X284716Y211987D01*
X284708Y212100D01*
X284696Y212213D01*
X284680Y212325D01*
X284660Y212436D01*
X284637Y212547D01*
X284609Y212657D01*
X284578Y212766D01*
X284543Y212874D01*
X284504Y212980D01*
X284462Y213085D01*
X284416Y213189D01*
X284366Y213291D01*
X284313Y213391D01*
X284256Y213489D01*
X284196Y213585D01*
X284133Y213679D01*
X284066Y213770D01*
X283997Y213860D01*
X283924Y213947D01*
X283848Y214031D01*
X283769Y214112D01*
X283688Y214191D01*
X283604Y214267D01*
X283517Y214340D01*
X283428Y214409D01*
X283336Y214476D01*
X286845Y218357D02*
X283655Y220591D01*
X286845Y218357D02*
X286926Y218297D01*
X287005Y218235D01*
X287082Y218169D01*
X287156Y218101D01*
X287227Y218030D01*
X287295Y217956D01*
X287361Y217879D01*
X287423Y217800D01*
X287483Y217719D01*
X287539Y217635D01*
X287592Y217550D01*
X287641Y217462D01*
X287687Y217373D01*
X287730Y217281D01*
X287769Y217188D01*
X287804Y217094D01*
X287836Y216999D01*
X287864Y216902D01*
X287888Y216804D01*
X287908Y216706D01*
X287925Y216606D01*
X287937Y216506D01*
X287946Y216406D01*
X287951Y216306D01*
X287952Y216205D01*
X287949Y216104D01*
X287942Y216004D01*
X287931Y215904D01*
X287917Y215804D01*
X287898Y215705D01*
X287876Y215607D01*
X287850Y215510D01*
X287820Y215413D01*
X287787Y215319D01*
X287750Y215225D01*
X287709Y215133D01*
X287664Y215042D01*
X287617Y214954D01*
X287565Y214867D01*
X287511Y214783D01*
X287453Y214700D01*
X287392Y214620D01*
X287328Y214542D01*
X287261Y214467D01*
X287192Y214394D01*
X287119Y214325D01*
X287044Y214258D01*
X286966Y214194D01*
X286886Y214133D01*
X286803Y214075D01*
X286719Y214021D01*
X286632Y213969D01*
X286544Y213922D01*
X286453Y213877D01*
X286361Y213836D01*
X286267Y213799D01*
X286173Y213766D01*
X286076Y213736D01*
X285979Y213710D01*
X285881Y213688D01*
X285782Y213669D01*
X285682Y213655D01*
X285582Y213644D01*
X285482Y213637D01*
X285381Y213634D01*
X285280Y213635D01*
X285180Y213640D01*
X285080Y213649D01*
X284980Y213661D01*
X284880Y213678D01*
X284782Y213698D01*
X284684Y213722D01*
X284587Y213750D01*
X284492Y213782D01*
X284398Y213817D01*
X284305Y213856D01*
X284213Y213899D01*
X284124Y213945D01*
X284036Y213994D01*
X283951Y214047D01*
X283867Y214103D01*
X281740Y215593D01*
X206842Y331524D02*
X206842Y334770D01*
X206840Y334883D01*
X206834Y334996D01*
X206824Y335109D01*
X206810Y335222D01*
X206793Y335334D01*
X206771Y335445D01*
X206746Y335555D01*
X206716Y335665D01*
X206683Y335773D01*
X206646Y335880D01*
X206606Y335986D01*
X206561Y336090D01*
X206513Y336193D01*
X206462Y336294D01*
X206407Y336393D01*
X206349Y336490D01*
X206287Y336585D01*
X206222Y336678D01*
X206154Y336768D01*
X206083Y336856D01*
X206008Y336942D01*
X205931Y337025D01*
X205851Y337105D01*
X205768Y337182D01*
X205682Y337257D01*
X205594Y337328D01*
X205504Y337396D01*
X205411Y337461D01*
X205316Y337523D01*
X205219Y337581D01*
X205120Y337636D01*
X205019Y337687D01*
X204916Y337735D01*
X204812Y337780D01*
X204706Y337820D01*
X204599Y337857D01*
X204491Y337890D01*
X204381Y337920D01*
X204271Y337945D01*
X204160Y337967D01*
X204048Y337984D01*
X203935Y337998D01*
X203822Y338008D01*
X203709Y338014D01*
X203596Y338016D01*
X203483Y338014D01*
X203370Y338008D01*
X203257Y337998D01*
X203144Y337984D01*
X203032Y337967D01*
X202921Y337945D01*
X202811Y337920D01*
X202701Y337890D01*
X202593Y337857D01*
X202486Y337820D01*
X202380Y337780D01*
X202276Y337735D01*
X202173Y337687D01*
X202072Y337636D01*
X201973Y337581D01*
X201876Y337523D01*
X201781Y337461D01*
X201688Y337396D01*
X201598Y337328D01*
X201510Y337257D01*
X201424Y337182D01*
X201341Y337105D01*
X201261Y337025D01*
X201184Y336942D01*
X201109Y336856D01*
X201038Y336768D01*
X200970Y336678D01*
X200905Y336585D01*
X200843Y336490D01*
X200785Y336393D01*
X200730Y336294D01*
X200679Y336193D01*
X200631Y336090D01*
X200586Y335986D01*
X200546Y335880D01*
X200509Y335773D01*
X200476Y335665D01*
X200446Y335555D01*
X200421Y335445D01*
X200399Y335334D01*
X200382Y335222D01*
X200368Y335109D01*
X200358Y334996D01*
X200352Y334883D01*
X200350Y334770D01*
X195158Y335419D02*
X195158Y331524D01*
X195158Y335419D02*
X195160Y335520D01*
X195166Y335620D01*
X195176Y335720D01*
X195189Y335820D01*
X195207Y335919D01*
X195228Y336018D01*
X195253Y336115D01*
X195282Y336212D01*
X195315Y336307D01*
X195351Y336401D01*
X195391Y336493D01*
X195434Y336584D01*
X195481Y336673D01*
X195531Y336760D01*
X195585Y336846D01*
X195642Y336929D01*
X195702Y337009D01*
X195765Y337088D01*
X195832Y337164D01*
X195901Y337237D01*
X195973Y337307D01*
X196047Y337375D01*
X196124Y337440D01*
X196204Y337501D01*
X196286Y337560D01*
X196370Y337615D01*
X196456Y337667D01*
X196544Y337716D01*
X196634Y337761D01*
X196726Y337803D01*
X196819Y337841D01*
X196914Y337875D01*
X197009Y337906D01*
X197106Y337933D01*
X197204Y337956D01*
X197303Y337976D01*
X197403Y337991D01*
X197503Y338003D01*
X197603Y338011D01*
X197704Y338015D01*
X197804Y338015D01*
X197905Y338011D01*
X198005Y338003D01*
X198105Y337991D01*
X198205Y337976D01*
X198304Y337956D01*
X198402Y337933D01*
X198499Y337906D01*
X198594Y337875D01*
X198689Y337841D01*
X198782Y337803D01*
X198874Y337761D01*
X198964Y337716D01*
X199052Y337667D01*
X199138Y337615D01*
X199222Y337560D01*
X199304Y337501D01*
X199384Y337440D01*
X199461Y337375D01*
X199535Y337307D01*
X199607Y337237D01*
X199676Y337164D01*
X199743Y337088D01*
X199806Y337009D01*
X199866Y336929D01*
X199923Y336846D01*
X199977Y336760D01*
X200027Y336673D01*
X200074Y336584D01*
X200117Y336493D01*
X200157Y336401D01*
X200193Y336307D01*
X200226Y336212D01*
X200255Y336115D01*
X200280Y336018D01*
X200301Y335919D01*
X200319Y335820D01*
X200332Y335720D01*
X200342Y335620D01*
X200348Y335520D01*
X200350Y335419D01*
X200351Y335419D02*
X200351Y332823D01*
X195158Y342305D02*
X206842Y346200D01*
X195158Y350095D01*
X206842Y354384D02*
X206842Y357630D01*
X206840Y357743D01*
X206834Y357856D01*
X206824Y357969D01*
X206810Y358082D01*
X206793Y358194D01*
X206771Y358305D01*
X206746Y358415D01*
X206716Y358525D01*
X206683Y358633D01*
X206646Y358740D01*
X206606Y358846D01*
X206561Y358950D01*
X206513Y359053D01*
X206462Y359154D01*
X206407Y359253D01*
X206349Y359350D01*
X206287Y359445D01*
X206222Y359538D01*
X206154Y359628D01*
X206083Y359716D01*
X206008Y359802D01*
X205931Y359885D01*
X205851Y359965D01*
X205768Y360042D01*
X205682Y360117D01*
X205594Y360188D01*
X205504Y360256D01*
X205411Y360321D01*
X205316Y360383D01*
X205219Y360441D01*
X205120Y360496D01*
X205019Y360547D01*
X204916Y360595D01*
X204812Y360640D01*
X204706Y360680D01*
X204599Y360717D01*
X204491Y360750D01*
X204381Y360780D01*
X204271Y360805D01*
X204160Y360827D01*
X204048Y360844D01*
X203935Y360858D01*
X203822Y360868D01*
X203709Y360874D01*
X203596Y360876D01*
X203483Y360874D01*
X203370Y360868D01*
X203257Y360858D01*
X203144Y360844D01*
X203032Y360827D01*
X202921Y360805D01*
X202811Y360780D01*
X202701Y360750D01*
X202593Y360717D01*
X202486Y360680D01*
X202380Y360640D01*
X202276Y360595D01*
X202173Y360547D01*
X202072Y360496D01*
X201973Y360441D01*
X201876Y360383D01*
X201781Y360321D01*
X201688Y360256D01*
X201598Y360188D01*
X201510Y360117D01*
X201424Y360042D01*
X201341Y359965D01*
X201261Y359885D01*
X201184Y359802D01*
X201109Y359716D01*
X201038Y359628D01*
X200970Y359538D01*
X200905Y359445D01*
X200843Y359350D01*
X200785Y359253D01*
X200730Y359154D01*
X200679Y359053D01*
X200631Y358950D01*
X200586Y358846D01*
X200546Y358740D01*
X200509Y358633D01*
X200476Y358525D01*
X200446Y358415D01*
X200421Y358305D01*
X200399Y358194D01*
X200382Y358082D01*
X200368Y357969D01*
X200358Y357856D01*
X200352Y357743D01*
X200350Y357630D01*
X195158Y358279D02*
X195158Y354384D01*
X195158Y358279D02*
X195160Y358380D01*
X195166Y358480D01*
X195176Y358580D01*
X195189Y358680D01*
X195207Y358779D01*
X195228Y358878D01*
X195253Y358975D01*
X195282Y359072D01*
X195315Y359167D01*
X195351Y359261D01*
X195391Y359353D01*
X195434Y359444D01*
X195481Y359533D01*
X195531Y359620D01*
X195585Y359706D01*
X195642Y359789D01*
X195702Y359869D01*
X195765Y359948D01*
X195832Y360024D01*
X195901Y360097D01*
X195973Y360167D01*
X196047Y360235D01*
X196124Y360300D01*
X196204Y360361D01*
X196286Y360420D01*
X196370Y360475D01*
X196456Y360527D01*
X196544Y360576D01*
X196634Y360621D01*
X196726Y360663D01*
X196819Y360701D01*
X196914Y360735D01*
X197009Y360766D01*
X197106Y360793D01*
X197204Y360816D01*
X197303Y360836D01*
X197403Y360851D01*
X197503Y360863D01*
X197603Y360871D01*
X197704Y360875D01*
X197804Y360875D01*
X197905Y360871D01*
X198005Y360863D01*
X198105Y360851D01*
X198205Y360836D01*
X198304Y360816D01*
X198402Y360793D01*
X198499Y360766D01*
X198594Y360735D01*
X198689Y360701D01*
X198782Y360663D01*
X198874Y360621D01*
X198964Y360576D01*
X199052Y360527D01*
X199138Y360475D01*
X199222Y360420D01*
X199304Y360361D01*
X199384Y360300D01*
X199461Y360235D01*
X199535Y360167D01*
X199607Y360097D01*
X199676Y360024D01*
X199743Y359948D01*
X199806Y359869D01*
X199866Y359789D01*
X199923Y359706D01*
X199977Y359620D01*
X200027Y359533D01*
X200074Y359444D01*
X200117Y359353D01*
X200157Y359261D01*
X200193Y359167D01*
X200226Y359072D01*
X200255Y358975D01*
X200280Y358878D01*
X200301Y358779D01*
X200319Y358680D01*
X200332Y358580D01*
X200342Y358480D01*
X200348Y358380D01*
X200350Y358279D01*
X200351Y358279D02*
X200351Y355683D01*
X257309Y453617D02*
X259968Y455479D01*
X259968Y455478D02*
X260059Y455545D01*
X260149Y455614D01*
X260236Y455687D01*
X260320Y455763D01*
X260401Y455842D01*
X260480Y455923D01*
X260556Y456007D01*
X260629Y456094D01*
X260698Y456184D01*
X260765Y456275D01*
X260828Y456369D01*
X260888Y456465D01*
X260945Y456563D01*
X260998Y456663D01*
X261048Y456765D01*
X261094Y456869D01*
X261136Y456974D01*
X261175Y457080D01*
X261210Y457188D01*
X261241Y457297D01*
X261269Y457407D01*
X261292Y457518D01*
X261312Y457629D01*
X261328Y457741D01*
X261340Y457854D01*
X261348Y457967D01*
X261352Y458080D01*
X261352Y458194D01*
X261348Y458307D01*
X261340Y458420D01*
X261328Y458533D01*
X261312Y458645D01*
X261292Y458756D01*
X261269Y458867D01*
X261241Y458977D01*
X261210Y459086D01*
X261175Y459194D01*
X261136Y459300D01*
X261094Y459405D01*
X261048Y459509D01*
X260998Y459611D01*
X260945Y459711D01*
X260888Y459809D01*
X260828Y459905D01*
X260765Y459999D01*
X260698Y460090D01*
X260629Y460180D01*
X260556Y460267D01*
X260480Y460351D01*
X260401Y460432D01*
X260320Y460511D01*
X260236Y460587D01*
X260149Y460660D01*
X260060Y460729D01*
X259968Y460796D01*
X259874Y460859D01*
X259778Y460919D01*
X259680Y460976D01*
X259580Y461029D01*
X259478Y461079D01*
X259374Y461125D01*
X259269Y461167D01*
X259163Y461206D01*
X259055Y461241D01*
X258946Y461272D01*
X258836Y461300D01*
X258725Y461323D01*
X258614Y461343D01*
X258502Y461359D01*
X258389Y461371D01*
X258276Y461379D01*
X258163Y461383D01*
X258049Y461383D01*
X257936Y461379D01*
X257823Y461371D01*
X257710Y461359D01*
X257598Y461343D01*
X257487Y461323D01*
X257376Y461300D01*
X257266Y461272D01*
X257157Y461241D01*
X257049Y461206D01*
X256943Y461167D01*
X256838Y461125D01*
X256734Y461079D01*
X256632Y461029D01*
X256532Y460976D01*
X256434Y460919D01*
X256338Y460859D01*
X256244Y460796D01*
X253798Y465422D02*
X250608Y463188D01*
X253798Y465422D02*
X253882Y465478D01*
X253967Y465531D01*
X254055Y465580D01*
X254144Y465626D01*
X254236Y465669D01*
X254329Y465708D01*
X254423Y465743D01*
X254518Y465775D01*
X254615Y465803D01*
X254713Y465827D01*
X254811Y465847D01*
X254911Y465864D01*
X255011Y465876D01*
X255111Y465885D01*
X255212Y465890D01*
X255312Y465891D01*
X255413Y465888D01*
X255513Y465881D01*
X255613Y465870D01*
X255713Y465856D01*
X255812Y465837D01*
X255910Y465815D01*
X256007Y465789D01*
X256104Y465759D01*
X256199Y465726D01*
X256292Y465689D01*
X256384Y465648D01*
X256475Y465603D01*
X256563Y465556D01*
X256650Y465504D01*
X256734Y465450D01*
X256817Y465392D01*
X256897Y465331D01*
X256975Y465267D01*
X257050Y465200D01*
X257123Y465131D01*
X257192Y465058D01*
X257259Y464983D01*
X257323Y464905D01*
X257384Y464825D01*
X257442Y464742D01*
X257496Y464658D01*
X257548Y464571D01*
X257595Y464483D01*
X257640Y464392D01*
X257681Y464300D01*
X257718Y464206D01*
X257751Y464112D01*
X257781Y464015D01*
X257807Y463918D01*
X257829Y463820D01*
X257848Y463721D01*
X257862Y463621D01*
X257873Y463521D01*
X257880Y463421D01*
X257883Y463320D01*
X257882Y463220D01*
X257877Y463119D01*
X257868Y463019D01*
X257856Y462919D01*
X257839Y462819D01*
X257819Y462721D01*
X257795Y462623D01*
X257767Y462526D01*
X257735Y462431D01*
X257700Y462337D01*
X257661Y462244D01*
X257618Y462152D01*
X257572Y462063D01*
X257523Y461975D01*
X257470Y461890D01*
X257414Y461806D01*
X257354Y461725D01*
X257292Y461646D01*
X257226Y461569D01*
X257158Y461495D01*
X257087Y461424D01*
X257013Y461356D01*
X256936Y461290D01*
X256857Y461228D01*
X256776Y461168D01*
X254650Y459679D01*
X259439Y469372D02*
X269331Y462034D01*
X265819Y473839D01*
X276035Y466729D02*
X278694Y468590D01*
X278785Y468657D01*
X278875Y468726D01*
X278962Y468799D01*
X279046Y468875D01*
X279127Y468954D01*
X279206Y469035D01*
X279282Y469119D01*
X279355Y469206D01*
X279424Y469296D01*
X279491Y469387D01*
X279554Y469481D01*
X279614Y469577D01*
X279671Y469675D01*
X279724Y469775D01*
X279774Y469877D01*
X279820Y469981D01*
X279862Y470086D01*
X279901Y470192D01*
X279936Y470300D01*
X279967Y470409D01*
X279995Y470519D01*
X280018Y470630D01*
X280038Y470741D01*
X280054Y470853D01*
X280066Y470966D01*
X280074Y471079D01*
X280078Y471192D01*
X280078Y471306D01*
X280074Y471419D01*
X280066Y471532D01*
X280054Y471645D01*
X280038Y471757D01*
X280018Y471868D01*
X279995Y471979D01*
X279967Y472089D01*
X279936Y472198D01*
X279901Y472306D01*
X279862Y472412D01*
X279820Y472517D01*
X279774Y472621D01*
X279724Y472723D01*
X279671Y472823D01*
X279614Y472921D01*
X279554Y473017D01*
X279491Y473111D01*
X279424Y473202D01*
X279355Y473292D01*
X279282Y473379D01*
X279206Y473463D01*
X279127Y473544D01*
X279046Y473623D01*
X278962Y473699D01*
X278875Y473772D01*
X278786Y473841D01*
X278694Y473908D01*
X278600Y473971D01*
X278504Y474031D01*
X278406Y474088D01*
X278306Y474141D01*
X278204Y474191D01*
X278100Y474237D01*
X277995Y474279D01*
X277889Y474318D01*
X277781Y474353D01*
X277672Y474384D01*
X277562Y474412D01*
X277451Y474435D01*
X277340Y474455D01*
X277228Y474471D01*
X277115Y474483D01*
X277002Y474491D01*
X276889Y474495D01*
X276775Y474495D01*
X276662Y474491D01*
X276549Y474483D01*
X276436Y474471D01*
X276324Y474455D01*
X276213Y474435D01*
X276102Y474412D01*
X275992Y474384D01*
X275883Y474353D01*
X275775Y474318D01*
X275669Y474279D01*
X275564Y474237D01*
X275460Y474191D01*
X275358Y474141D01*
X275258Y474088D01*
X275160Y474031D01*
X275064Y473971D01*
X274970Y473908D01*
X272524Y478534D02*
X269333Y476300D01*
X272524Y478534D02*
X272608Y478590D01*
X272693Y478643D01*
X272781Y478692D01*
X272870Y478738D01*
X272962Y478781D01*
X273055Y478820D01*
X273149Y478855D01*
X273244Y478887D01*
X273341Y478915D01*
X273439Y478939D01*
X273537Y478959D01*
X273637Y478976D01*
X273737Y478988D01*
X273837Y478997D01*
X273938Y479002D01*
X274038Y479003D01*
X274139Y479000D01*
X274239Y478993D01*
X274339Y478982D01*
X274439Y478968D01*
X274538Y478949D01*
X274636Y478927D01*
X274733Y478901D01*
X274830Y478871D01*
X274925Y478838D01*
X275018Y478801D01*
X275110Y478760D01*
X275201Y478715D01*
X275289Y478668D01*
X275376Y478616D01*
X275460Y478562D01*
X275543Y478504D01*
X275623Y478443D01*
X275701Y478379D01*
X275776Y478312D01*
X275849Y478243D01*
X275918Y478170D01*
X275985Y478095D01*
X276049Y478017D01*
X276110Y477937D01*
X276168Y477854D01*
X276222Y477770D01*
X276274Y477683D01*
X276321Y477595D01*
X276366Y477504D01*
X276407Y477412D01*
X276444Y477318D01*
X276477Y477224D01*
X276507Y477127D01*
X276533Y477030D01*
X276555Y476932D01*
X276574Y476833D01*
X276588Y476733D01*
X276599Y476633D01*
X276606Y476533D01*
X276609Y476432D01*
X276608Y476332D01*
X276603Y476231D01*
X276594Y476131D01*
X276582Y476031D01*
X276565Y475931D01*
X276545Y475833D01*
X276521Y475735D01*
X276493Y475638D01*
X276461Y475543D01*
X276426Y475449D01*
X276387Y475356D01*
X276344Y475264D01*
X276298Y475175D01*
X276249Y475087D01*
X276196Y475002D01*
X276140Y474918D01*
X276080Y474837D01*
X276018Y474758D01*
X275952Y474681D01*
X275884Y474607D01*
X275813Y474536D01*
X275739Y474468D01*
X275662Y474402D01*
X275583Y474340D01*
X275502Y474280D01*
X273375Y472791D01*
D11*
X430394Y420780D02*
X430394Y403000D01*
X430394Y420780D02*
X435333Y420780D01*
X435473Y420778D01*
X435612Y420772D01*
X435752Y420762D01*
X435891Y420748D01*
X436030Y420731D01*
X436168Y420709D01*
X436305Y420683D01*
X436442Y420654D01*
X436578Y420621D01*
X436712Y420584D01*
X436846Y420543D01*
X436978Y420498D01*
X437110Y420449D01*
X437239Y420397D01*
X437367Y420342D01*
X437494Y420282D01*
X437619Y420219D01*
X437742Y420153D01*
X437863Y420083D01*
X437982Y420010D01*
X438099Y419933D01*
X438213Y419853D01*
X438326Y419770D01*
X438436Y419684D01*
X438543Y419594D01*
X438648Y419502D01*
X438750Y419407D01*
X438850Y419309D01*
X438947Y419208D01*
X439041Y419104D01*
X439131Y418998D01*
X439219Y418889D01*
X439304Y418778D01*
X439385Y418664D01*
X439464Y418549D01*
X439539Y418431D01*
X439610Y418311D01*
X439678Y418188D01*
X439743Y418065D01*
X439804Y417939D01*
X439862Y417811D01*
X439916Y417683D01*
X439966Y417552D01*
X440013Y417420D01*
X440056Y417287D01*
X440095Y417153D01*
X440130Y417018D01*
X440161Y416882D01*
X440189Y416744D01*
X440212Y416607D01*
X440232Y416468D01*
X440248Y416329D01*
X440260Y416190D01*
X440268Y416051D01*
X440272Y415911D01*
X440272Y415771D01*
X440268Y415631D01*
X440260Y415492D01*
X440248Y415353D01*
X440232Y415214D01*
X440212Y415075D01*
X440189Y414938D01*
X440161Y414800D01*
X440130Y414664D01*
X440095Y414529D01*
X440056Y414395D01*
X440013Y414262D01*
X439966Y414130D01*
X439916Y413999D01*
X439862Y413871D01*
X439804Y413743D01*
X439743Y413617D01*
X439678Y413494D01*
X439610Y413372D01*
X439539Y413251D01*
X439464Y413133D01*
X439385Y413018D01*
X439304Y412904D01*
X439219Y412793D01*
X439131Y412684D01*
X439041Y412578D01*
X438947Y412474D01*
X438850Y412373D01*
X438750Y412275D01*
X438648Y412180D01*
X438543Y412088D01*
X438436Y411998D01*
X438326Y411912D01*
X438213Y411829D01*
X438099Y411749D01*
X437982Y411672D01*
X437863Y411599D01*
X437742Y411529D01*
X437619Y411463D01*
X437494Y411400D01*
X437367Y411340D01*
X437239Y411285D01*
X437110Y411233D01*
X436978Y411184D01*
X436846Y411139D01*
X436712Y411098D01*
X436578Y411061D01*
X436442Y411028D01*
X436305Y410999D01*
X436168Y410973D01*
X436030Y410951D01*
X435891Y410934D01*
X435752Y410920D01*
X435612Y410910D01*
X435473Y410904D01*
X435333Y410902D01*
X430394Y410902D01*
X446389Y416829D02*
X451328Y420780D01*
X451328Y403000D01*
X456266Y403000D02*
X446389Y403000D01*
X416412Y298290D02*
X416412Y280510D01*
X416412Y298290D02*
X421351Y298290D01*
X421491Y298288D01*
X421630Y298282D01*
X421770Y298272D01*
X421909Y298258D01*
X422048Y298241D01*
X422186Y298219D01*
X422323Y298193D01*
X422460Y298164D01*
X422596Y298131D01*
X422730Y298094D01*
X422864Y298053D01*
X422996Y298008D01*
X423128Y297959D01*
X423257Y297907D01*
X423385Y297852D01*
X423512Y297792D01*
X423637Y297729D01*
X423760Y297663D01*
X423881Y297593D01*
X424000Y297520D01*
X424117Y297443D01*
X424231Y297363D01*
X424344Y297280D01*
X424454Y297194D01*
X424561Y297104D01*
X424666Y297012D01*
X424768Y296917D01*
X424868Y296819D01*
X424965Y296718D01*
X425059Y296614D01*
X425149Y296508D01*
X425237Y296399D01*
X425322Y296288D01*
X425403Y296174D01*
X425482Y296059D01*
X425557Y295941D01*
X425628Y295821D01*
X425696Y295698D01*
X425761Y295575D01*
X425822Y295449D01*
X425880Y295321D01*
X425934Y295193D01*
X425984Y295062D01*
X426031Y294930D01*
X426074Y294797D01*
X426113Y294663D01*
X426148Y294528D01*
X426179Y294392D01*
X426207Y294254D01*
X426230Y294117D01*
X426250Y293978D01*
X426266Y293839D01*
X426278Y293700D01*
X426286Y293561D01*
X426290Y293421D01*
X426290Y293281D01*
X426286Y293141D01*
X426278Y293002D01*
X426266Y292863D01*
X426250Y292724D01*
X426230Y292585D01*
X426207Y292448D01*
X426179Y292310D01*
X426148Y292174D01*
X426113Y292039D01*
X426074Y291905D01*
X426031Y291772D01*
X425984Y291640D01*
X425934Y291509D01*
X425880Y291381D01*
X425822Y291253D01*
X425761Y291127D01*
X425696Y291004D01*
X425628Y290882D01*
X425557Y290761D01*
X425482Y290643D01*
X425403Y290528D01*
X425322Y290414D01*
X425237Y290303D01*
X425149Y290194D01*
X425059Y290088D01*
X424965Y289984D01*
X424868Y289883D01*
X424768Y289785D01*
X424666Y289690D01*
X424561Y289598D01*
X424454Y289508D01*
X424344Y289422D01*
X424231Y289339D01*
X424117Y289259D01*
X424000Y289182D01*
X423881Y289109D01*
X423760Y289039D01*
X423637Y288973D01*
X423512Y288910D01*
X423385Y288850D01*
X423257Y288795D01*
X423128Y288743D01*
X422996Y288694D01*
X422864Y288649D01*
X422730Y288608D01*
X422596Y288571D01*
X422460Y288538D01*
X422323Y288509D01*
X422186Y288483D01*
X422048Y288461D01*
X421909Y288444D01*
X421770Y288430D01*
X421630Y288420D01*
X421491Y288414D01*
X421351Y288412D01*
X416412Y288412D01*
X437840Y298290D02*
X437972Y298288D01*
X438103Y298282D01*
X438235Y298272D01*
X438366Y298259D01*
X438496Y298241D01*
X438626Y298220D01*
X438756Y298195D01*
X438884Y298166D01*
X439012Y298133D01*
X439138Y298096D01*
X439264Y298056D01*
X439388Y298012D01*
X439511Y297964D01*
X439632Y297913D01*
X439752Y297858D01*
X439870Y297800D01*
X439986Y297738D01*
X440100Y297672D01*
X440213Y297604D01*
X440323Y297532D01*
X440431Y297457D01*
X440537Y297378D01*
X440641Y297297D01*
X440742Y297212D01*
X440840Y297125D01*
X440936Y297034D01*
X441029Y296941D01*
X441120Y296845D01*
X441207Y296747D01*
X441292Y296646D01*
X441373Y296542D01*
X441452Y296436D01*
X441527Y296328D01*
X441599Y296218D01*
X441667Y296105D01*
X441733Y295991D01*
X441795Y295875D01*
X441853Y295757D01*
X441908Y295637D01*
X441959Y295516D01*
X442007Y295393D01*
X442051Y295269D01*
X442091Y295143D01*
X442128Y295017D01*
X442161Y294889D01*
X442190Y294761D01*
X442215Y294631D01*
X442236Y294501D01*
X442254Y294371D01*
X442267Y294240D01*
X442277Y294108D01*
X442283Y293977D01*
X442285Y293845D01*
X437840Y298290D02*
X437690Y298288D01*
X437541Y298282D01*
X437392Y298272D01*
X437243Y298259D01*
X437094Y298241D01*
X436946Y298220D01*
X436798Y298194D01*
X436652Y298165D01*
X436506Y298132D01*
X436361Y298095D01*
X436217Y298054D01*
X436074Y298010D01*
X435932Y297962D01*
X435792Y297910D01*
X435653Y297855D01*
X435515Y297796D01*
X435380Y297733D01*
X435245Y297667D01*
X435113Y297597D01*
X434983Y297524D01*
X434854Y297447D01*
X434727Y297367D01*
X434603Y297284D01*
X434481Y297198D01*
X434361Y297108D01*
X434244Y297015D01*
X434129Y296920D01*
X434016Y296821D01*
X433906Y296719D01*
X433799Y296615D01*
X433695Y296508D01*
X433593Y296398D01*
X433495Y296285D01*
X433399Y296170D01*
X433307Y296052D01*
X433217Y295932D01*
X433131Y295810D01*
X433048Y295686D01*
X432968Y295559D01*
X432892Y295431D01*
X432819Y295300D01*
X432749Y295167D01*
X432683Y295033D01*
X432621Y294897D01*
X432562Y294760D01*
X432506Y294621D01*
X432455Y294480D01*
X432407Y294339D01*
X440803Y290388D02*
X440899Y290481D01*
X440991Y290577D01*
X441081Y290676D01*
X441168Y290777D01*
X441253Y290880D01*
X441334Y290985D01*
X441412Y291093D01*
X441487Y291203D01*
X441560Y291315D01*
X441629Y291429D01*
X441695Y291545D01*
X441757Y291663D01*
X441816Y291782D01*
X441872Y291903D01*
X441925Y292026D01*
X441974Y292150D01*
X442019Y292275D01*
X442062Y292402D01*
X442100Y292529D01*
X442135Y292658D01*
X442166Y292787D01*
X442194Y292918D01*
X442218Y293049D01*
X442239Y293181D01*
X442255Y293313D01*
X442268Y293446D01*
X442278Y293579D01*
X442283Y293712D01*
X442285Y293845D01*
X440803Y290388D02*
X432407Y280510D01*
X442285Y280510D01*
X454655Y287424D02*
X454655Y293351D01*
X454655Y287424D02*
X458112Y282979D01*
X454655Y287424D02*
X451198Y282979D01*
X454655Y287424D02*
X460088Y289400D01*
X454655Y287424D02*
X449222Y289400D01*
X333264Y233490D02*
X333264Y215710D01*
X333264Y233490D02*
X338203Y233490D01*
X338343Y233488D01*
X338482Y233482D01*
X338622Y233472D01*
X338761Y233458D01*
X338900Y233441D01*
X339038Y233419D01*
X339175Y233393D01*
X339312Y233364D01*
X339448Y233331D01*
X339582Y233294D01*
X339716Y233253D01*
X339848Y233208D01*
X339980Y233159D01*
X340109Y233107D01*
X340237Y233052D01*
X340364Y232992D01*
X340489Y232929D01*
X340612Y232863D01*
X340733Y232793D01*
X340852Y232720D01*
X340969Y232643D01*
X341083Y232563D01*
X341196Y232480D01*
X341306Y232394D01*
X341413Y232304D01*
X341518Y232212D01*
X341620Y232117D01*
X341720Y232019D01*
X341817Y231918D01*
X341911Y231814D01*
X342001Y231708D01*
X342089Y231599D01*
X342174Y231488D01*
X342255Y231374D01*
X342334Y231259D01*
X342409Y231141D01*
X342480Y231021D01*
X342548Y230898D01*
X342613Y230775D01*
X342674Y230649D01*
X342732Y230521D01*
X342786Y230393D01*
X342836Y230262D01*
X342883Y230130D01*
X342926Y229997D01*
X342965Y229863D01*
X343000Y229728D01*
X343031Y229592D01*
X343059Y229454D01*
X343082Y229317D01*
X343102Y229178D01*
X343118Y229039D01*
X343130Y228900D01*
X343138Y228761D01*
X343142Y228621D01*
X343142Y228481D01*
X343138Y228341D01*
X343130Y228202D01*
X343118Y228063D01*
X343102Y227924D01*
X343082Y227785D01*
X343059Y227648D01*
X343031Y227510D01*
X343000Y227374D01*
X342965Y227239D01*
X342926Y227105D01*
X342883Y226972D01*
X342836Y226840D01*
X342786Y226709D01*
X342732Y226581D01*
X342674Y226453D01*
X342613Y226327D01*
X342548Y226204D01*
X342480Y226082D01*
X342409Y225961D01*
X342334Y225843D01*
X342255Y225728D01*
X342174Y225614D01*
X342089Y225503D01*
X342001Y225394D01*
X341911Y225288D01*
X341817Y225184D01*
X341720Y225083D01*
X341620Y224985D01*
X341518Y224890D01*
X341413Y224798D01*
X341306Y224708D01*
X341196Y224622D01*
X341083Y224539D01*
X340969Y224459D01*
X340852Y224382D01*
X340733Y224309D01*
X340612Y224239D01*
X340489Y224173D01*
X340364Y224110D01*
X340237Y224050D01*
X340109Y223995D01*
X339980Y223943D01*
X339848Y223894D01*
X339716Y223849D01*
X339582Y223808D01*
X339448Y223771D01*
X339312Y223738D01*
X339175Y223709D01*
X339038Y223683D01*
X338900Y223661D01*
X338761Y223644D01*
X338622Y223630D01*
X338482Y223620D01*
X338343Y223614D01*
X338203Y223612D01*
X333264Y223612D01*
X349259Y215710D02*
X354198Y215710D01*
X354338Y215712D01*
X354477Y215718D01*
X354617Y215728D01*
X354756Y215742D01*
X354895Y215759D01*
X355033Y215781D01*
X355170Y215807D01*
X355307Y215836D01*
X355443Y215869D01*
X355577Y215906D01*
X355711Y215947D01*
X355843Y215992D01*
X355975Y216041D01*
X356104Y216093D01*
X356232Y216148D01*
X356359Y216208D01*
X356484Y216271D01*
X356607Y216337D01*
X356728Y216407D01*
X356847Y216480D01*
X356964Y216557D01*
X357078Y216637D01*
X357191Y216720D01*
X357301Y216806D01*
X357408Y216896D01*
X357513Y216988D01*
X357615Y217083D01*
X357715Y217181D01*
X357812Y217282D01*
X357906Y217386D01*
X357996Y217492D01*
X358084Y217601D01*
X358169Y217712D01*
X358250Y217826D01*
X358329Y217941D01*
X358404Y218059D01*
X358475Y218180D01*
X358543Y218302D01*
X358608Y218425D01*
X358669Y218551D01*
X358727Y218679D01*
X358781Y218807D01*
X358831Y218938D01*
X358878Y219070D01*
X358921Y219203D01*
X358960Y219337D01*
X358995Y219472D01*
X359026Y219608D01*
X359054Y219746D01*
X359077Y219883D01*
X359097Y220022D01*
X359113Y220161D01*
X359125Y220300D01*
X359133Y220439D01*
X359137Y220579D01*
X359137Y220719D01*
X359133Y220859D01*
X359125Y220998D01*
X359113Y221137D01*
X359097Y221276D01*
X359077Y221415D01*
X359054Y221552D01*
X359026Y221690D01*
X358995Y221826D01*
X358960Y221961D01*
X358921Y222095D01*
X358878Y222228D01*
X358831Y222360D01*
X358781Y222491D01*
X358727Y222619D01*
X358669Y222747D01*
X358608Y222873D01*
X358543Y222996D01*
X358475Y223119D01*
X358404Y223239D01*
X358329Y223357D01*
X358250Y223472D01*
X358169Y223586D01*
X358084Y223697D01*
X357996Y223806D01*
X357906Y223912D01*
X357812Y224016D01*
X357715Y224117D01*
X357615Y224215D01*
X357513Y224310D01*
X357408Y224402D01*
X357301Y224492D01*
X357191Y224578D01*
X357078Y224661D01*
X356964Y224741D01*
X356847Y224818D01*
X356728Y224891D01*
X356607Y224961D01*
X356484Y225027D01*
X356359Y225090D01*
X356232Y225150D01*
X356104Y225205D01*
X355975Y225257D01*
X355843Y225306D01*
X355711Y225351D01*
X355577Y225392D01*
X355443Y225429D01*
X355307Y225462D01*
X355170Y225491D01*
X355033Y225517D01*
X354895Y225539D01*
X354756Y225556D01*
X354617Y225570D01*
X354477Y225580D01*
X354338Y225586D01*
X354198Y225588D01*
X355185Y233490D02*
X349259Y233490D01*
X355185Y233490D02*
X355309Y233488D01*
X355433Y233482D01*
X355557Y233472D01*
X355680Y233459D01*
X355803Y233441D01*
X355925Y233420D01*
X356047Y233395D01*
X356168Y233366D01*
X356287Y233333D01*
X356406Y233297D01*
X356523Y233256D01*
X356639Y233213D01*
X356754Y233165D01*
X356867Y233114D01*
X356979Y233059D01*
X357088Y233001D01*
X357196Y232940D01*
X357302Y232875D01*
X357406Y232807D01*
X357507Y232735D01*
X357607Y232661D01*
X357703Y232583D01*
X357798Y232503D01*
X357890Y232419D01*
X357979Y232333D01*
X358065Y232244D01*
X358149Y232152D01*
X358229Y232057D01*
X358307Y231961D01*
X358381Y231861D01*
X358453Y231760D01*
X358521Y231656D01*
X358586Y231550D01*
X358647Y231442D01*
X358705Y231333D01*
X358760Y231221D01*
X358811Y231108D01*
X358859Y230993D01*
X358902Y230877D01*
X358943Y230760D01*
X358979Y230641D01*
X359012Y230522D01*
X359041Y230401D01*
X359066Y230279D01*
X359087Y230157D01*
X359105Y230034D01*
X359118Y229911D01*
X359128Y229787D01*
X359134Y229663D01*
X359136Y229539D01*
X359134Y229415D01*
X359128Y229291D01*
X359118Y229167D01*
X359105Y229044D01*
X359087Y228921D01*
X359066Y228799D01*
X359041Y228677D01*
X359012Y228556D01*
X358979Y228437D01*
X358943Y228318D01*
X358902Y228201D01*
X358859Y228085D01*
X358811Y227970D01*
X358760Y227857D01*
X358705Y227745D01*
X358647Y227636D01*
X358586Y227528D01*
X358521Y227422D01*
X358453Y227318D01*
X358381Y227217D01*
X358307Y227117D01*
X358229Y227021D01*
X358149Y226926D01*
X358065Y226834D01*
X357979Y226745D01*
X357890Y226659D01*
X357798Y226575D01*
X357703Y226495D01*
X357607Y226417D01*
X357507Y226343D01*
X357406Y226271D01*
X357302Y226203D01*
X357196Y226138D01*
X357088Y226077D01*
X356979Y226019D01*
X356867Y225964D01*
X356754Y225913D01*
X356639Y225865D01*
X356523Y225822D01*
X356406Y225781D01*
X356287Y225745D01*
X356168Y225712D01*
X356047Y225683D01*
X355925Y225658D01*
X355803Y225637D01*
X355680Y225619D01*
X355557Y225606D01*
X355433Y225596D01*
X355309Y225590D01*
X355185Y225588D01*
X351234Y225588D01*
X234864Y280510D02*
X234864Y298290D01*
X239803Y298290D01*
X239943Y298288D01*
X240082Y298282D01*
X240222Y298272D01*
X240361Y298258D01*
X240500Y298241D01*
X240638Y298219D01*
X240775Y298193D01*
X240912Y298164D01*
X241048Y298131D01*
X241182Y298094D01*
X241316Y298053D01*
X241448Y298008D01*
X241580Y297959D01*
X241709Y297907D01*
X241837Y297852D01*
X241964Y297792D01*
X242089Y297729D01*
X242212Y297663D01*
X242333Y297593D01*
X242452Y297520D01*
X242569Y297443D01*
X242683Y297363D01*
X242796Y297280D01*
X242906Y297194D01*
X243013Y297104D01*
X243118Y297012D01*
X243220Y296917D01*
X243320Y296819D01*
X243417Y296718D01*
X243511Y296614D01*
X243601Y296508D01*
X243689Y296399D01*
X243774Y296288D01*
X243855Y296174D01*
X243934Y296059D01*
X244009Y295941D01*
X244080Y295821D01*
X244148Y295698D01*
X244213Y295575D01*
X244274Y295449D01*
X244332Y295321D01*
X244386Y295193D01*
X244436Y295062D01*
X244483Y294930D01*
X244526Y294797D01*
X244565Y294663D01*
X244600Y294528D01*
X244631Y294392D01*
X244659Y294254D01*
X244682Y294117D01*
X244702Y293978D01*
X244718Y293839D01*
X244730Y293700D01*
X244738Y293561D01*
X244742Y293421D01*
X244742Y293281D01*
X244738Y293141D01*
X244730Y293002D01*
X244718Y292863D01*
X244702Y292724D01*
X244682Y292585D01*
X244659Y292448D01*
X244631Y292310D01*
X244600Y292174D01*
X244565Y292039D01*
X244526Y291905D01*
X244483Y291772D01*
X244436Y291640D01*
X244386Y291509D01*
X244332Y291381D01*
X244274Y291253D01*
X244213Y291127D01*
X244148Y291004D01*
X244080Y290882D01*
X244009Y290761D01*
X243934Y290643D01*
X243855Y290528D01*
X243774Y290414D01*
X243689Y290303D01*
X243601Y290194D01*
X243511Y290088D01*
X243417Y289984D01*
X243320Y289883D01*
X243220Y289785D01*
X243118Y289690D01*
X243013Y289598D01*
X242906Y289508D01*
X242796Y289422D01*
X242683Y289339D01*
X242569Y289259D01*
X242452Y289182D01*
X242333Y289109D01*
X242212Y289039D01*
X242089Y288973D01*
X241964Y288910D01*
X241837Y288850D01*
X241709Y288795D01*
X241580Y288743D01*
X241448Y288694D01*
X241316Y288649D01*
X241182Y288608D01*
X241048Y288571D01*
X240912Y288538D01*
X240775Y288509D01*
X240638Y288483D01*
X240500Y288461D01*
X240361Y288444D01*
X240222Y288430D01*
X240082Y288420D01*
X239943Y288414D01*
X239803Y288412D01*
X234864Y288412D01*
X250859Y284461D02*
X254810Y298290D01*
X250859Y284461D02*
X260736Y284461D01*
X257773Y288412D02*
X257773Y280510D01*
X239944Y403000D02*
X239944Y420780D01*
X244883Y420780D01*
X245023Y420778D01*
X245162Y420772D01*
X245302Y420762D01*
X245441Y420748D01*
X245580Y420731D01*
X245718Y420709D01*
X245855Y420683D01*
X245992Y420654D01*
X246128Y420621D01*
X246262Y420584D01*
X246396Y420543D01*
X246528Y420498D01*
X246660Y420449D01*
X246789Y420397D01*
X246917Y420342D01*
X247044Y420282D01*
X247169Y420219D01*
X247292Y420153D01*
X247413Y420083D01*
X247532Y420010D01*
X247649Y419933D01*
X247763Y419853D01*
X247876Y419770D01*
X247986Y419684D01*
X248093Y419594D01*
X248198Y419502D01*
X248300Y419407D01*
X248400Y419309D01*
X248497Y419208D01*
X248591Y419104D01*
X248681Y418998D01*
X248769Y418889D01*
X248854Y418778D01*
X248935Y418664D01*
X249014Y418549D01*
X249089Y418431D01*
X249160Y418311D01*
X249228Y418188D01*
X249293Y418065D01*
X249354Y417939D01*
X249412Y417811D01*
X249466Y417683D01*
X249516Y417552D01*
X249563Y417420D01*
X249606Y417287D01*
X249645Y417153D01*
X249680Y417018D01*
X249711Y416882D01*
X249739Y416744D01*
X249762Y416607D01*
X249782Y416468D01*
X249798Y416329D01*
X249810Y416190D01*
X249818Y416051D01*
X249822Y415911D01*
X249822Y415771D01*
X249818Y415631D01*
X249810Y415492D01*
X249798Y415353D01*
X249782Y415214D01*
X249762Y415075D01*
X249739Y414938D01*
X249711Y414800D01*
X249680Y414664D01*
X249645Y414529D01*
X249606Y414395D01*
X249563Y414262D01*
X249516Y414130D01*
X249466Y413999D01*
X249412Y413871D01*
X249354Y413743D01*
X249293Y413617D01*
X249228Y413494D01*
X249160Y413372D01*
X249089Y413251D01*
X249014Y413133D01*
X248935Y413018D01*
X248854Y412904D01*
X248769Y412793D01*
X248681Y412684D01*
X248591Y412578D01*
X248497Y412474D01*
X248400Y412373D01*
X248300Y412275D01*
X248198Y412180D01*
X248093Y412088D01*
X247986Y411998D01*
X247876Y411912D01*
X247763Y411829D01*
X247649Y411749D01*
X247532Y411672D01*
X247413Y411599D01*
X247292Y411529D01*
X247169Y411463D01*
X247044Y411400D01*
X246917Y411340D01*
X246789Y411285D01*
X246660Y411233D01*
X246528Y411184D01*
X246396Y411139D01*
X246262Y411098D01*
X246128Y411061D01*
X245992Y411028D01*
X245855Y410999D01*
X245718Y410973D01*
X245580Y410951D01*
X245441Y410934D01*
X245302Y410920D01*
X245162Y410910D01*
X245023Y410904D01*
X244883Y410902D01*
X239944Y410902D01*
X255939Y403000D02*
X261865Y403000D01*
X261989Y403002D01*
X262113Y403008D01*
X262237Y403018D01*
X262360Y403031D01*
X262483Y403049D01*
X262605Y403070D01*
X262727Y403095D01*
X262848Y403124D01*
X262967Y403157D01*
X263086Y403193D01*
X263203Y403234D01*
X263319Y403277D01*
X263434Y403325D01*
X263547Y403376D01*
X263659Y403431D01*
X263768Y403489D01*
X263876Y403550D01*
X263982Y403615D01*
X264086Y403683D01*
X264187Y403755D01*
X264287Y403829D01*
X264383Y403907D01*
X264478Y403987D01*
X264570Y404071D01*
X264659Y404157D01*
X264745Y404246D01*
X264829Y404338D01*
X264909Y404433D01*
X264987Y404529D01*
X265061Y404629D01*
X265133Y404730D01*
X265201Y404834D01*
X265266Y404940D01*
X265327Y405048D01*
X265385Y405157D01*
X265440Y405269D01*
X265491Y405382D01*
X265539Y405497D01*
X265582Y405613D01*
X265623Y405730D01*
X265659Y405849D01*
X265692Y405968D01*
X265721Y406089D01*
X265746Y406211D01*
X265767Y406333D01*
X265785Y406456D01*
X265798Y406579D01*
X265808Y406703D01*
X265814Y406827D01*
X265816Y406951D01*
X265816Y408927D01*
X265814Y409051D01*
X265808Y409175D01*
X265798Y409299D01*
X265785Y409422D01*
X265767Y409545D01*
X265746Y409667D01*
X265721Y409789D01*
X265692Y409910D01*
X265659Y410029D01*
X265623Y410148D01*
X265582Y410265D01*
X265539Y410381D01*
X265491Y410496D01*
X265440Y410609D01*
X265385Y410721D01*
X265327Y410830D01*
X265266Y410938D01*
X265201Y411044D01*
X265133Y411148D01*
X265061Y411249D01*
X264987Y411349D01*
X264909Y411445D01*
X264829Y411540D01*
X264745Y411632D01*
X264659Y411721D01*
X264570Y411807D01*
X264478Y411891D01*
X264383Y411971D01*
X264287Y412049D01*
X264187Y412123D01*
X264086Y412195D01*
X263982Y412263D01*
X263876Y412328D01*
X263768Y412389D01*
X263659Y412447D01*
X263547Y412502D01*
X263434Y412553D01*
X263319Y412601D01*
X263203Y412644D01*
X263086Y412685D01*
X262967Y412721D01*
X262848Y412754D01*
X262727Y412783D01*
X262605Y412808D01*
X262483Y412829D01*
X262360Y412847D01*
X262237Y412860D01*
X262113Y412870D01*
X261989Y412876D01*
X261865Y412878D01*
X255939Y412878D01*
X255939Y420780D01*
X265816Y420780D01*
D12*
X275422Y360279D03*
D13*
X274907Y360426D03*
D14*
X274317Y360573D03*
D15*
X273876Y360721D03*
D16*
X273360Y360868D03*
D17*
X272918Y361015D03*
D18*
X272329Y361163D03*
D19*
X271813Y361310D03*
D20*
X271371Y361457D03*
D21*
X270929Y361605D03*
D22*
X270855Y361752D03*
D23*
X270929Y361899D03*
D24*
X271003Y362047D03*
D25*
X270929Y362194D03*
D26*
X271003Y362341D03*
D27*
X271003Y362488D03*
D28*
X271076Y362636D03*
X271076Y362783D03*
D29*
X271076Y362930D03*
D30*
X271150Y363078D03*
D31*
X271150Y363225D03*
X271150Y363372D03*
D32*
X271224Y363520D03*
D33*
X271224Y363667D03*
D34*
X271297Y363814D03*
D35*
X271224Y363962D03*
D36*
X271297Y364109D03*
D37*
X271371Y364256D03*
D38*
X271371Y364404D03*
X271371Y364551D03*
D39*
X271445Y364698D03*
D40*
X271445Y364846D03*
D41*
X271518Y364993D03*
D42*
X271445Y365140D03*
D43*
X271518Y365288D03*
D44*
X271592Y365435D03*
D45*
X271592Y365582D03*
X271592Y365730D03*
D46*
X271592Y365877D03*
D47*
X271666Y366024D03*
X271666Y366171D03*
D48*
X271666Y366319D03*
D49*
X271739Y366466D03*
D50*
X271739Y366613D03*
X271739Y366761D03*
D51*
X271813Y366908D03*
D52*
X271813Y367055D03*
D53*
X271887Y367203D03*
D54*
X271813Y367350D03*
D55*
X271887Y367497D03*
D56*
X271960Y367645D03*
D57*
X292438Y367645D03*
D58*
X271960Y367792D03*
D59*
X291849Y367792D03*
D58*
X271960Y367939D03*
D60*
X291407Y367939D03*
D61*
X271960Y368087D03*
D62*
X290891Y368087D03*
D63*
X272034Y368234D03*
D64*
X290449Y368234D03*
D63*
X272034Y368381D03*
D65*
X289860Y368381D03*
D66*
X271960Y368529D03*
D67*
X289418Y368529D03*
D66*
X271960Y368676D03*
D68*
X288902Y368676D03*
D63*
X271887Y368823D03*
D69*
X288460Y368823D03*
D66*
X271813Y368971D03*
D21*
X288313Y368971D03*
D66*
X271813Y369118D03*
D23*
X288313Y369118D03*
D66*
X271666Y369265D03*
D24*
X288387Y369265D03*
D66*
X271666Y369413D03*
D25*
X288460Y369413D03*
D63*
X271592Y369560D03*
D26*
X288387Y369560D03*
D66*
X271518Y369707D03*
D70*
X288460Y369707D03*
D66*
X271518Y369854D03*
D28*
X288460Y369854D03*
D66*
X271371Y370002D03*
D71*
X288534Y370002D03*
D66*
X271371Y370149D03*
D71*
X288534Y370149D03*
D63*
X271297Y370296D03*
D30*
X288534Y370296D03*
D66*
X271224Y370444D03*
D72*
X288608Y370444D03*
D66*
X271224Y370591D03*
D32*
X288608Y370591D03*
D66*
X271076Y370738D03*
D32*
X288608Y370738D03*
D66*
X271076Y370886D03*
D73*
X288681Y370886D03*
D63*
X271003Y371033D03*
D34*
X288681Y371033D03*
D61*
X271076Y371180D03*
D35*
X288755Y371180D03*
D61*
X271076Y371328D03*
D36*
X288681Y371328D03*
D74*
X271076Y371475D03*
D75*
X288755Y371475D03*
D76*
X271150Y371622D03*
D77*
X288828Y371622D03*
D55*
X271150Y371770D03*
D78*
X288828Y371770D03*
D55*
X271150Y371917D03*
D78*
X288828Y371917D03*
D54*
X271224Y372064D03*
D79*
X288902Y372064D03*
D52*
X271224Y372212D03*
D41*
X288902Y372212D03*
D80*
X271297Y372359D03*
D41*
X288902Y372359D03*
D51*
X271224Y372506D03*
D43*
X288902Y372506D03*
D81*
X271297Y372654D03*
D44*
X288976Y372654D03*
D82*
X271371Y372801D03*
D83*
X289049Y372801D03*
D48*
X271371Y372948D03*
D84*
X288976Y372948D03*
D48*
X271371Y373096D03*
D85*
X289049Y373096D03*
D86*
X271445Y373243D03*
D47*
X289049Y373243D03*
D46*
X271445Y373390D03*
D86*
X289123Y373390D03*
D46*
X271445Y373537D03*
D86*
X289123Y373537D03*
D84*
X271445Y373685D03*
D49*
X289123Y373685D03*
D87*
X271518Y373832D03*
D82*
X289197Y373832D03*
D44*
X271592Y373979D03*
D51*
X289197Y373979D03*
D43*
X271518Y374127D03*
D51*
X289197Y374127D03*
D42*
X271592Y374274D03*
D80*
X289270Y374274D03*
D40*
X271592Y374421D03*
D53*
X289270Y374421D03*
D79*
X271666Y374569D03*
D54*
X289344Y374569D03*
D79*
X271666Y374716D03*
D55*
X289270Y374716D03*
D88*
X271666Y374863D03*
D89*
X289344Y374863D03*
D77*
X271739Y375011D03*
D76*
X289418Y375011D03*
D36*
X271739Y375158D03*
D90*
X289418Y375158D03*
D36*
X271739Y375305D03*
D90*
X289418Y375305D03*
D35*
X271813Y375453D03*
D63*
X289418Y375453D03*
D33*
X271813Y375600D03*
D66*
X289491Y375600D03*
D73*
X271887Y375747D03*
D63*
X289418Y375747D03*
D32*
X271813Y375895D03*
D66*
X289344Y375895D03*
D91*
X271887Y376042D03*
D66*
X289344Y376042D03*
D92*
X271960Y376189D03*
D63*
X289270Y376189D03*
D29*
X271960Y376337D03*
D66*
X289197Y376337D03*
D29*
X271960Y376484D03*
D66*
X289197Y376484D03*
D71*
X272034Y376631D03*
D66*
X289049Y376631D03*
D27*
X272034Y376779D03*
D66*
X289049Y376779D03*
D70*
X272108Y376926D03*
D63*
X288976Y376926D03*
D93*
X272034Y377073D03*
D66*
X288902Y377073D03*
D25*
X272108Y377220D03*
D66*
X288902Y377220D03*
D24*
X272181Y377368D03*
D66*
X288755Y377368D03*
D23*
X272108Y377515D03*
D66*
X288755Y377515D03*
D22*
X272181Y377662D03*
D63*
X288681Y377662D03*
D69*
X272108Y377810D03*
D66*
X288608Y377810D03*
D94*
X271592Y377957D03*
D66*
X288608Y377957D03*
D67*
X271003Y378104D03*
D66*
X288460Y378104D03*
D65*
X270561Y378252D03*
D66*
X288460Y378252D03*
D95*
X270045Y378399D03*
D61*
X288460Y378399D03*
D96*
X269603Y378546D03*
D90*
X288534Y378546D03*
D60*
X269014Y378694D03*
D90*
X288534Y378694D03*
D97*
X268498Y378841D03*
D98*
X288534Y378841D03*
D99*
X268056Y378988D03*
D56*
X288608Y378988D03*
D100*
X277853Y379136D03*
D55*
X288534Y379136D03*
D101*
X277338Y379283D03*
D54*
X288608Y379283D03*
D14*
X276822Y379430D03*
D53*
X288681Y379430D03*
D102*
X276306Y379578D03*
D80*
X288681Y379578D03*
D16*
X275864Y379725D03*
D80*
X288681Y379725D03*
D103*
X275349Y379872D03*
D81*
X288681Y379872D03*
D18*
X274833Y380020D03*
D104*
X288755Y380020D03*
D19*
X274317Y380167D03*
D49*
X288828Y380167D03*
D105*
X273802Y380314D03*
D48*
X288755Y380314D03*
D106*
X273360Y380462D03*
D86*
X288828Y380462D03*
D22*
X273360Y380609D03*
D47*
X288902Y380609D03*
D23*
X273434Y380756D03*
D85*
X288902Y380756D03*
D24*
X273507Y380903D03*
D85*
X288902Y380903D03*
D25*
X273434Y381051D03*
D87*
X288902Y381051D03*
D26*
X273507Y381198D03*
D44*
X288976Y381198D03*
D107*
X273507Y381345D03*
D43*
X289049Y381345D03*
D28*
X273581Y381493D03*
D42*
X288976Y381493D03*
D28*
X273581Y381640D03*
D41*
X289049Y381640D03*
D29*
X273581Y381787D03*
D79*
X289049Y381787D03*
D30*
X273655Y381935D03*
D39*
X289123Y381935D03*
D31*
X273655Y382082D03*
D39*
X289123Y382082D03*
D31*
X273655Y382229D03*
D108*
X289123Y382229D03*
D32*
X273728Y382377D03*
D75*
X289197Y382377D03*
D33*
X273728Y382524D03*
D35*
X289197Y382524D03*
D34*
X273802Y382671D03*
D35*
X289197Y382671D03*
X273728Y382819D03*
D34*
X289270Y382819D03*
D36*
X273802Y382966D03*
D73*
X289270Y382966D03*
D75*
X273876Y383113D03*
D73*
X289270Y383113D03*
D38*
X273876Y383261D03*
D91*
X289270Y383261D03*
D38*
X273876Y383408D03*
D72*
X289344Y383408D03*
D79*
X273876Y383555D03*
D30*
X289418Y383555D03*
D40*
X273949Y383703D03*
D29*
X289344Y383703D03*
D41*
X274023Y383850D03*
D71*
X289418Y383850D03*
D42*
X273949Y383997D03*
D27*
X289418Y383997D03*
D43*
X274023Y384145D03*
D109*
X289491Y384145D03*
D87*
X274023Y384292D03*
D109*
X289491Y384292D03*
D45*
X274096Y384439D03*
D25*
X289491Y384439D03*
D45*
X274096Y384586D03*
D24*
X289565Y384586D03*
D46*
X274096Y384734D03*
D23*
X289639Y384734D03*
D47*
X274170Y384881D03*
D22*
X289565Y384881D03*
D47*
X274170Y385028D03*
D106*
X289565Y385028D03*
D48*
X274170Y385176D03*
D110*
X289123Y385176D03*
D49*
X274244Y385323D03*
D111*
X288608Y385323D03*
D50*
X274244Y385470D03*
D18*
X288092Y385470D03*
D50*
X274244Y385618D03*
D112*
X287576Y385618D03*
D51*
X274317Y385765D03*
D113*
X287134Y385765D03*
D52*
X274317Y385912D03*
D114*
X286619Y385912D03*
D53*
X274391Y386060D03*
D14*
X286103Y386060D03*
D54*
X274317Y386207D03*
D115*
X285587Y386207D03*
D55*
X274391Y386354D03*
D12*
X285145Y386354D03*
D56*
X274465Y386502D03*
D58*
X274465Y386649D03*
X274465Y386796D03*
D61*
X274465Y386944D03*
D63*
X274538Y387091D03*
X274538Y387238D03*
D66*
X274465Y387386D03*
X274465Y387533D03*
X274317Y387680D03*
X274317Y387828D03*
D63*
X274244Y387975D03*
D66*
X274170Y388122D03*
X274170Y388269D03*
X274023Y388417D03*
X274023Y388564D03*
D63*
X273949Y388711D03*
D66*
X273876Y388859D03*
X273876Y389006D03*
D63*
X273802Y389153D03*
D66*
X273728Y389301D03*
X273728Y389448D03*
X273581Y389595D03*
X273581Y389743D03*
D63*
X273507Y389890D03*
D61*
X273581Y390037D03*
X273581Y390185D03*
D74*
X273581Y390332D03*
D76*
X273655Y390479D03*
D55*
X273655Y390627D03*
X273655Y390774D03*
D54*
X273728Y390921D03*
D52*
X273728Y391069D03*
D80*
X273802Y391216D03*
D51*
X273728Y391363D03*
D81*
X273802Y391511D03*
D82*
X273876Y391658D03*
D116*
X273802Y391805D03*
D48*
X273876Y391952D03*
D47*
X273876Y392100D03*
D46*
X273949Y392247D03*
X273949Y392394D03*
D84*
X273949Y392542D03*
D87*
X274023Y392689D03*
D43*
X274023Y392836D03*
X274023Y392984D03*
D42*
X274096Y393131D03*
D40*
X274096Y393278D03*
D79*
X274170Y393426D03*
X274170Y393573D03*
D88*
X274170Y393720D03*
D77*
X274244Y393868D03*
D36*
X274244Y394015D03*
X274244Y394162D03*
D35*
X274317Y394310D03*
D33*
X274317Y394457D03*
D73*
X274391Y394604D03*
D32*
X274317Y394752D03*
D91*
X274391Y394899D03*
D92*
X274465Y395046D03*
D29*
X274465Y395194D03*
X274465Y395341D03*
D28*
X274465Y395488D03*
D27*
X274538Y395635D03*
D70*
X274612Y395783D03*
D93*
X274538Y395930D03*
D25*
X274612Y396077D03*
D23*
X274612Y396225D03*
X274612Y396372D03*
D22*
X274686Y396519D03*
D117*
X274538Y396667D03*
D118*
X274023Y396814D03*
D67*
X273507Y396961D03*
D119*
X272992Y397109D03*
D95*
X272550Y397256D03*
D120*
X272034Y397403D03*
D60*
X271518Y397551D03*
D97*
X271003Y397698D03*
D121*
X270487Y397845D03*
D10*
X397284Y403154D02*
X397284Y405356D01*
X404622Y405356D01*
X404622Y400953D01*
X404620Y400846D01*
X404614Y400739D01*
X404604Y400632D01*
X404591Y400526D01*
X404573Y400420D01*
X404552Y400315D01*
X404527Y400211D01*
X404498Y400107D01*
X404465Y400005D01*
X404428Y399905D01*
X404388Y399805D01*
X404344Y399707D01*
X404297Y399611D01*
X404246Y399517D01*
X404192Y399424D01*
X404135Y399334D01*
X404074Y399245D01*
X404010Y399159D01*
X403943Y399076D01*
X403873Y398994D01*
X403800Y398916D01*
X403724Y398840D01*
X403646Y398767D01*
X403564Y398697D01*
X403481Y398630D01*
X403395Y398566D01*
X403306Y398505D01*
X403216Y398448D01*
X403123Y398394D01*
X403029Y398343D01*
X402933Y398296D01*
X402835Y398252D01*
X402735Y398212D01*
X402635Y398175D01*
X402533Y398142D01*
X402429Y398113D01*
X402325Y398088D01*
X402220Y398067D01*
X402114Y398049D01*
X402008Y398036D01*
X401901Y398026D01*
X401794Y398020D01*
X401687Y398018D01*
X394349Y398018D01*
X394242Y398020D01*
X394135Y398026D01*
X394028Y398036D01*
X393922Y398049D01*
X393816Y398067D01*
X393711Y398088D01*
X393607Y398113D01*
X393503Y398142D01*
X393401Y398175D01*
X393301Y398212D01*
X393201Y398252D01*
X393103Y398296D01*
X393007Y398343D01*
X392913Y398394D01*
X392820Y398448D01*
X392730Y398505D01*
X392641Y398566D01*
X392555Y398630D01*
X392472Y398697D01*
X392390Y398767D01*
X392312Y398840D01*
X392236Y398916D01*
X392163Y398994D01*
X392093Y399076D01*
X392026Y399159D01*
X391962Y399245D01*
X391901Y399334D01*
X391844Y399424D01*
X391790Y399517D01*
X391739Y399611D01*
X391692Y399707D01*
X391648Y399805D01*
X391608Y399905D01*
X391571Y400005D01*
X391538Y400107D01*
X391509Y400211D01*
X391484Y400315D01*
X391463Y400420D01*
X391445Y400526D01*
X391432Y400632D01*
X391422Y400739D01*
X391416Y400846D01*
X391414Y400953D01*
X391414Y405356D01*
X391414Y411673D02*
X404622Y411673D01*
X404622Y419011D02*
X391414Y411673D01*
X391414Y419011D02*
X404622Y419011D01*
X404622Y425328D02*
X391414Y425328D01*
X391414Y428997D01*
X391416Y429117D01*
X391422Y429237D01*
X391432Y429357D01*
X391445Y429476D01*
X391463Y429595D01*
X391484Y429713D01*
X391510Y429830D01*
X391539Y429947D01*
X391572Y430062D01*
X391609Y430176D01*
X391649Y430289D01*
X391693Y430401D01*
X391741Y430511D01*
X391792Y430620D01*
X391847Y430727D01*
X391906Y430832D01*
X391967Y430934D01*
X392032Y431035D01*
X392101Y431134D01*
X392172Y431231D01*
X392247Y431325D01*
X392325Y431416D01*
X392405Y431505D01*
X392489Y431591D01*
X392575Y431675D01*
X392664Y431756D01*
X392755Y431833D01*
X392849Y431908D01*
X392946Y431979D01*
X393045Y432048D01*
X393146Y432113D01*
X393249Y432174D01*
X393353Y432233D01*
X393460Y432288D01*
X393569Y432339D01*
X393679Y432387D01*
X393791Y432431D01*
X393904Y432471D01*
X394018Y432508D01*
X394133Y432541D01*
X394250Y432570D01*
X394367Y432596D01*
X394485Y432617D01*
X394604Y432635D01*
X394723Y432648D01*
X394843Y432658D01*
X394963Y432664D01*
X395083Y432666D01*
X400953Y432666D01*
X401073Y432664D01*
X401193Y432658D01*
X401313Y432648D01*
X401432Y432635D01*
X401551Y432617D01*
X401669Y432596D01*
X401786Y432570D01*
X401903Y432541D01*
X402018Y432508D01*
X402132Y432471D01*
X402245Y432431D01*
X402357Y432387D01*
X402467Y432339D01*
X402576Y432288D01*
X402683Y432233D01*
X402788Y432174D01*
X402890Y432113D01*
X402991Y432048D01*
X403090Y431979D01*
X403187Y431908D01*
X403281Y431833D01*
X403372Y431756D01*
X403461Y431675D01*
X403547Y431591D01*
X403631Y431505D01*
X403712Y431416D01*
X403789Y431325D01*
X403864Y431231D01*
X403935Y431134D01*
X404004Y431035D01*
X404069Y430934D01*
X404130Y430832D01*
X404189Y430727D01*
X404244Y430620D01*
X404295Y430511D01*
X404343Y430401D01*
X404387Y430289D01*
X404427Y430176D01*
X404464Y430062D01*
X404497Y429947D01*
X404526Y429830D01*
X404552Y429713D01*
X404573Y429595D01*
X404591Y429476D01*
X404604Y429357D01*
X404614Y429237D01*
X404620Y429117D01*
X404622Y428997D01*
X404622Y425328D01*
X379222Y401828D02*
X366014Y401828D01*
X366014Y405497D01*
X366016Y405617D01*
X366022Y405737D01*
X366032Y405857D01*
X366045Y405976D01*
X366063Y406095D01*
X366084Y406213D01*
X366110Y406330D01*
X366139Y406447D01*
X366172Y406562D01*
X366209Y406676D01*
X366249Y406789D01*
X366293Y406901D01*
X366341Y407011D01*
X366392Y407120D01*
X366447Y407227D01*
X366506Y407332D01*
X366567Y407434D01*
X366632Y407535D01*
X366701Y407634D01*
X366772Y407731D01*
X366847Y407825D01*
X366924Y407916D01*
X367005Y408005D01*
X367089Y408091D01*
X367175Y408175D01*
X367264Y408256D01*
X367355Y408333D01*
X367449Y408408D01*
X367546Y408479D01*
X367645Y408548D01*
X367746Y408613D01*
X367849Y408674D01*
X367953Y408733D01*
X368060Y408788D01*
X368169Y408839D01*
X368279Y408887D01*
X368391Y408931D01*
X368504Y408971D01*
X368618Y409008D01*
X368733Y409041D01*
X368850Y409070D01*
X368967Y409096D01*
X369085Y409117D01*
X369204Y409135D01*
X369323Y409148D01*
X369443Y409158D01*
X369563Y409164D01*
X369683Y409166D01*
X369803Y409164D01*
X369923Y409158D01*
X370043Y409148D01*
X370162Y409135D01*
X370281Y409117D01*
X370399Y409096D01*
X370516Y409070D01*
X370633Y409041D01*
X370748Y409008D01*
X370862Y408971D01*
X370975Y408931D01*
X371087Y408887D01*
X371197Y408839D01*
X371306Y408788D01*
X371413Y408733D01*
X371518Y408674D01*
X371620Y408613D01*
X371721Y408548D01*
X371820Y408479D01*
X371917Y408408D01*
X372011Y408333D01*
X372102Y408256D01*
X372191Y408175D01*
X372277Y408091D01*
X372361Y408005D01*
X372442Y407916D01*
X372519Y407825D01*
X372594Y407731D01*
X372665Y407634D01*
X372734Y407535D01*
X372799Y407434D01*
X372860Y407332D01*
X372919Y407227D01*
X372974Y407120D01*
X373025Y407011D01*
X373073Y406901D01*
X373117Y406789D01*
X373157Y406676D01*
X373194Y406562D01*
X373227Y406447D01*
X373256Y406330D01*
X373282Y406213D01*
X373303Y406095D01*
X373321Y405976D01*
X373334Y405857D01*
X373344Y405737D01*
X373350Y405617D01*
X373352Y405497D01*
X373352Y401828D01*
X373352Y406231D02*
X379222Y409166D01*
X379222Y417367D02*
X366014Y417367D01*
X366014Y413698D02*
X366014Y421036D01*
X376287Y432557D02*
X376394Y432555D01*
X376501Y432549D01*
X376608Y432539D01*
X376714Y432526D01*
X376820Y432508D01*
X376925Y432487D01*
X377029Y432462D01*
X377133Y432433D01*
X377235Y432400D01*
X377335Y432363D01*
X377435Y432323D01*
X377533Y432279D01*
X377629Y432232D01*
X377723Y432181D01*
X377816Y432127D01*
X377906Y432070D01*
X377995Y432009D01*
X378081Y431945D01*
X378164Y431878D01*
X378246Y431808D01*
X378324Y431735D01*
X378400Y431659D01*
X378473Y431581D01*
X378543Y431499D01*
X378610Y431416D01*
X378674Y431330D01*
X378735Y431241D01*
X378792Y431151D01*
X378846Y431058D01*
X378897Y430964D01*
X378944Y430868D01*
X378988Y430770D01*
X379028Y430670D01*
X379065Y430570D01*
X379098Y430468D01*
X379127Y430364D01*
X379152Y430260D01*
X379173Y430155D01*
X379191Y430049D01*
X379204Y429943D01*
X379214Y429836D01*
X379220Y429729D01*
X379222Y429622D01*
X379220Y429469D01*
X379214Y429316D01*
X379205Y429163D01*
X379192Y429011D01*
X379175Y428859D01*
X379154Y428707D01*
X379130Y428556D01*
X379102Y428406D01*
X379070Y428256D01*
X379034Y428108D01*
X378995Y427960D01*
X378952Y427813D01*
X378906Y427667D01*
X378856Y427523D01*
X378802Y427379D01*
X378745Y427237D01*
X378685Y427097D01*
X378620Y426958D01*
X378553Y426821D01*
X378482Y426685D01*
X378408Y426551D01*
X378331Y426419D01*
X378250Y426289D01*
X378166Y426161D01*
X378079Y426035D01*
X377989Y425912D01*
X377896Y425790D01*
X377800Y425671D01*
X377701Y425555D01*
X377600Y425440D01*
X377495Y425329D01*
X377388Y425220D01*
X368949Y425587D02*
X368842Y425589D01*
X368735Y425595D01*
X368628Y425605D01*
X368522Y425618D01*
X368416Y425636D01*
X368311Y425657D01*
X368207Y425682D01*
X368103Y425711D01*
X368001Y425744D01*
X367901Y425781D01*
X367801Y425821D01*
X367703Y425865D01*
X367607Y425912D01*
X367513Y425963D01*
X367420Y426017D01*
X367330Y426074D01*
X367241Y426135D01*
X367155Y426199D01*
X367072Y426266D01*
X366990Y426336D01*
X366912Y426409D01*
X366836Y426485D01*
X366763Y426563D01*
X366693Y426645D01*
X366626Y426728D01*
X366562Y426814D01*
X366501Y426903D01*
X366444Y426993D01*
X366390Y427086D01*
X366339Y427180D01*
X366292Y427276D01*
X366248Y427374D01*
X366208Y427474D01*
X366171Y427574D01*
X366138Y427676D01*
X366109Y427780D01*
X366084Y427884D01*
X366063Y427989D01*
X366045Y428095D01*
X366032Y428201D01*
X366022Y428308D01*
X366016Y428415D01*
X366014Y428522D01*
X366016Y428670D01*
X366022Y428817D01*
X366032Y428964D01*
X366046Y429111D01*
X366063Y429258D01*
X366085Y429403D01*
X366111Y429549D01*
X366140Y429693D01*
X366173Y429837D01*
X366211Y429980D01*
X366252Y430122D01*
X366296Y430262D01*
X366345Y430402D01*
X366397Y430540D01*
X366453Y430676D01*
X366513Y430811D01*
X366576Y430944D01*
X366643Y431076D01*
X366713Y431206D01*
X366786Y431334D01*
X366864Y431459D01*
X366944Y431583D01*
X367028Y431705D01*
X367115Y431824D01*
X371517Y427054D02*
X371461Y426963D01*
X371402Y426874D01*
X371340Y426787D01*
X371275Y426703D01*
X371207Y426620D01*
X371136Y426541D01*
X371062Y426464D01*
X370985Y426390D01*
X370906Y426318D01*
X370824Y426250D01*
X370740Y426184D01*
X370653Y426121D01*
X370565Y426062D01*
X370474Y426006D01*
X370381Y425953D01*
X370287Y425903D01*
X370191Y425857D01*
X370093Y425814D01*
X369994Y425775D01*
X369893Y425739D01*
X369791Y425707D01*
X369688Y425679D01*
X369584Y425655D01*
X369480Y425634D01*
X369374Y425617D01*
X369269Y425603D01*
X369162Y425594D01*
X369056Y425588D01*
X368949Y425586D01*
X373719Y431089D02*
X373775Y431180D01*
X373834Y431269D01*
X373896Y431356D01*
X373961Y431441D01*
X374029Y431523D01*
X374100Y431602D01*
X374174Y431679D01*
X374251Y431753D01*
X374330Y431825D01*
X374412Y431893D01*
X374496Y431959D01*
X374583Y432022D01*
X374671Y432081D01*
X374762Y432137D01*
X374855Y432190D01*
X374949Y432240D01*
X375045Y432286D01*
X375143Y432329D01*
X375242Y432368D01*
X375343Y432404D01*
X375445Y432436D01*
X375548Y432464D01*
X375652Y432488D01*
X375756Y432509D01*
X375862Y432526D01*
X375967Y432540D01*
X376074Y432549D01*
X376180Y432555D01*
X376287Y432557D01*
X373719Y431090D02*
X371517Y427054D01*
X353822Y410718D02*
X340614Y410718D01*
X340614Y414387D01*
X340616Y414507D01*
X340622Y414627D01*
X340632Y414747D01*
X340645Y414866D01*
X340663Y414985D01*
X340684Y415103D01*
X340710Y415220D01*
X340739Y415337D01*
X340772Y415452D01*
X340809Y415566D01*
X340849Y415679D01*
X340893Y415791D01*
X340941Y415901D01*
X340992Y416010D01*
X341047Y416117D01*
X341106Y416222D01*
X341167Y416324D01*
X341232Y416425D01*
X341301Y416524D01*
X341372Y416621D01*
X341447Y416715D01*
X341524Y416806D01*
X341605Y416895D01*
X341689Y416981D01*
X341775Y417065D01*
X341864Y417146D01*
X341955Y417223D01*
X342049Y417298D01*
X342146Y417369D01*
X342245Y417438D01*
X342346Y417503D01*
X342449Y417564D01*
X342553Y417623D01*
X342660Y417678D01*
X342769Y417729D01*
X342879Y417777D01*
X342991Y417821D01*
X343104Y417861D01*
X343218Y417898D01*
X343333Y417931D01*
X343450Y417960D01*
X343567Y417986D01*
X343685Y418007D01*
X343804Y418025D01*
X343923Y418038D01*
X344043Y418048D01*
X344163Y418054D01*
X344283Y418056D01*
X344403Y418054D01*
X344523Y418048D01*
X344643Y418038D01*
X344762Y418025D01*
X344881Y418007D01*
X344999Y417986D01*
X345116Y417960D01*
X345233Y417931D01*
X345348Y417898D01*
X345462Y417861D01*
X345575Y417821D01*
X345687Y417777D01*
X345797Y417729D01*
X345906Y417678D01*
X346013Y417623D01*
X346118Y417564D01*
X346220Y417503D01*
X346321Y417438D01*
X346420Y417369D01*
X346517Y417298D01*
X346611Y417223D01*
X346702Y417146D01*
X346791Y417065D01*
X346877Y416981D01*
X346961Y416895D01*
X347042Y416806D01*
X347119Y416715D01*
X347194Y416621D01*
X347265Y416524D01*
X347334Y416425D01*
X347399Y416324D01*
X347460Y416222D01*
X347519Y416117D01*
X347574Y416010D01*
X347625Y415901D01*
X347673Y415791D01*
X347717Y415679D01*
X347757Y415566D01*
X347794Y415452D01*
X347827Y415337D01*
X347856Y415220D01*
X347882Y415103D01*
X347903Y414985D01*
X347921Y414866D01*
X347934Y414747D01*
X347944Y414627D01*
X347950Y414507D01*
X347952Y414387D01*
X347952Y410718D01*
X347952Y415121D02*
X353822Y418056D01*
X353822Y422708D02*
X340614Y431513D01*
X340614Y422708D02*
X353822Y431513D01*
X303022Y411847D02*
X289814Y411847D01*
X289814Y408178D02*
X289814Y415516D01*
X289814Y428198D02*
X303022Y419392D01*
X303022Y428198D02*
X289814Y419392D01*
X328422Y407698D02*
X328422Y404763D01*
X328420Y404656D01*
X328414Y404549D01*
X328404Y404442D01*
X328391Y404336D01*
X328373Y404230D01*
X328352Y404125D01*
X328327Y404021D01*
X328298Y403917D01*
X328265Y403815D01*
X328228Y403715D01*
X328188Y403615D01*
X328144Y403517D01*
X328097Y403421D01*
X328046Y403327D01*
X327992Y403234D01*
X327935Y403144D01*
X327874Y403055D01*
X327810Y402969D01*
X327743Y402886D01*
X327673Y402804D01*
X327600Y402726D01*
X327524Y402650D01*
X327446Y402577D01*
X327364Y402507D01*
X327281Y402440D01*
X327195Y402376D01*
X327106Y402315D01*
X327016Y402258D01*
X326923Y402204D01*
X326829Y402153D01*
X326733Y402106D01*
X326635Y402062D01*
X326535Y402022D01*
X326435Y401985D01*
X326333Y401952D01*
X326229Y401923D01*
X326125Y401898D01*
X326020Y401877D01*
X325914Y401859D01*
X325808Y401846D01*
X325701Y401836D01*
X325594Y401830D01*
X325487Y401828D01*
X318149Y401828D01*
X318042Y401830D01*
X317935Y401836D01*
X317828Y401846D01*
X317722Y401859D01*
X317616Y401877D01*
X317511Y401898D01*
X317407Y401923D01*
X317303Y401952D01*
X317201Y401985D01*
X317101Y402022D01*
X317001Y402062D01*
X316903Y402106D01*
X316807Y402153D01*
X316713Y402204D01*
X316620Y402258D01*
X316530Y402315D01*
X316441Y402376D01*
X316355Y402440D01*
X316272Y402507D01*
X316190Y402577D01*
X316112Y402650D01*
X316036Y402726D01*
X315963Y402804D01*
X315893Y402886D01*
X315826Y402969D01*
X315762Y403055D01*
X315701Y403144D01*
X315644Y403234D01*
X315590Y403327D01*
X315539Y403421D01*
X315492Y403517D01*
X315448Y403615D01*
X315408Y403715D01*
X315371Y403815D01*
X315338Y403917D01*
X315309Y404021D01*
X315284Y404125D01*
X315263Y404230D01*
X315245Y404336D01*
X315232Y404442D01*
X315222Y404549D01*
X315216Y404656D01*
X315214Y404763D01*
X315214Y407698D01*
X315214Y415347D02*
X328422Y415347D01*
X315214Y411678D02*
X315214Y419016D01*
X325487Y430537D02*
X325594Y430535D01*
X325701Y430529D01*
X325808Y430519D01*
X325914Y430506D01*
X326020Y430488D01*
X326125Y430467D01*
X326229Y430442D01*
X326333Y430413D01*
X326435Y430380D01*
X326535Y430343D01*
X326635Y430303D01*
X326733Y430259D01*
X326829Y430212D01*
X326923Y430161D01*
X327016Y430107D01*
X327106Y430050D01*
X327195Y429989D01*
X327281Y429925D01*
X327364Y429858D01*
X327446Y429788D01*
X327524Y429715D01*
X327600Y429639D01*
X327673Y429561D01*
X327743Y429479D01*
X327810Y429396D01*
X327874Y429310D01*
X327935Y429221D01*
X327992Y429131D01*
X328046Y429038D01*
X328097Y428944D01*
X328144Y428848D01*
X328188Y428750D01*
X328228Y428650D01*
X328265Y428550D01*
X328298Y428448D01*
X328327Y428344D01*
X328352Y428240D01*
X328373Y428135D01*
X328391Y428029D01*
X328404Y427923D01*
X328414Y427816D01*
X328420Y427709D01*
X328422Y427602D01*
X328420Y427449D01*
X328414Y427296D01*
X328405Y427143D01*
X328392Y426991D01*
X328375Y426839D01*
X328354Y426687D01*
X328330Y426536D01*
X328302Y426386D01*
X328270Y426236D01*
X328234Y426088D01*
X328195Y425940D01*
X328152Y425793D01*
X328106Y425647D01*
X328056Y425503D01*
X328002Y425359D01*
X327945Y425217D01*
X327885Y425077D01*
X327820Y424938D01*
X327753Y424801D01*
X327682Y424665D01*
X327608Y424531D01*
X327531Y424399D01*
X327450Y424269D01*
X327366Y424141D01*
X327279Y424015D01*
X327189Y423892D01*
X327096Y423770D01*
X327000Y423651D01*
X326901Y423535D01*
X326800Y423420D01*
X326695Y423309D01*
X326588Y423200D01*
X318149Y423566D02*
X318042Y423568D01*
X317935Y423574D01*
X317828Y423584D01*
X317722Y423597D01*
X317616Y423615D01*
X317511Y423636D01*
X317407Y423661D01*
X317303Y423690D01*
X317201Y423723D01*
X317101Y423760D01*
X317001Y423800D01*
X316903Y423844D01*
X316807Y423891D01*
X316713Y423942D01*
X316620Y423996D01*
X316530Y424053D01*
X316441Y424114D01*
X316355Y424178D01*
X316272Y424245D01*
X316190Y424315D01*
X316112Y424388D01*
X316036Y424464D01*
X315963Y424542D01*
X315893Y424624D01*
X315826Y424707D01*
X315762Y424793D01*
X315701Y424882D01*
X315644Y424972D01*
X315590Y425065D01*
X315539Y425159D01*
X315492Y425255D01*
X315448Y425353D01*
X315408Y425453D01*
X315371Y425553D01*
X315338Y425655D01*
X315309Y425759D01*
X315284Y425863D01*
X315263Y425968D01*
X315245Y426074D01*
X315232Y426180D01*
X315222Y426287D01*
X315216Y426394D01*
X315214Y426501D01*
X315216Y426649D01*
X315222Y426796D01*
X315232Y426943D01*
X315246Y427090D01*
X315263Y427237D01*
X315285Y427382D01*
X315311Y427528D01*
X315340Y427672D01*
X315373Y427816D01*
X315411Y427959D01*
X315452Y428101D01*
X315496Y428241D01*
X315545Y428381D01*
X315597Y428519D01*
X315653Y428655D01*
X315713Y428790D01*
X315776Y428923D01*
X315843Y429055D01*
X315913Y429185D01*
X315986Y429313D01*
X316064Y429438D01*
X316144Y429562D01*
X316228Y429684D01*
X316315Y429803D01*
X320717Y425034D02*
X320661Y424943D01*
X320602Y424854D01*
X320540Y424767D01*
X320475Y424683D01*
X320407Y424600D01*
X320336Y424521D01*
X320262Y424444D01*
X320185Y424370D01*
X320106Y424298D01*
X320024Y424230D01*
X319940Y424164D01*
X319853Y424101D01*
X319765Y424042D01*
X319674Y423986D01*
X319581Y423933D01*
X319487Y423883D01*
X319391Y423837D01*
X319293Y423794D01*
X319194Y423755D01*
X319093Y423719D01*
X318991Y423687D01*
X318888Y423659D01*
X318784Y423635D01*
X318680Y423614D01*
X318574Y423597D01*
X318469Y423583D01*
X318362Y423574D01*
X318256Y423568D01*
X318149Y423566D01*
X322919Y429069D02*
X322975Y429160D01*
X323034Y429249D01*
X323096Y429336D01*
X323161Y429421D01*
X323229Y429503D01*
X323300Y429582D01*
X323374Y429659D01*
X323451Y429733D01*
X323530Y429805D01*
X323612Y429873D01*
X323696Y429939D01*
X323783Y430002D01*
X323871Y430061D01*
X323962Y430117D01*
X324055Y430170D01*
X324149Y430220D01*
X324245Y430266D01*
X324343Y430309D01*
X324442Y430348D01*
X324543Y430384D01*
X324645Y430416D01*
X324748Y430444D01*
X324852Y430468D01*
X324956Y430489D01*
X325062Y430506D01*
X325167Y430520D01*
X325274Y430529D01*
X325380Y430535D01*
X325487Y430537D01*
X322919Y429069D02*
X320717Y425034D01*
D122*
X283401Y246148D02*
X280901Y246148D01*
X283401Y246148D02*
X285901Y246148D01*
X283401Y246148D02*
X280901Y251148D01*
X285901Y251148D02*
X283401Y246148D01*
X285901Y251148D02*
X280901Y251148D01*
X278401Y261148D02*
X288401Y261148D01*
X288401Y236148D01*
X278401Y236148D01*
X278401Y261148D01*
D123*
X274342Y239546D02*
X264944Y239546D01*
X264944Y242157D01*
X264943Y242157D02*
X264945Y242257D01*
X264951Y242357D01*
X264960Y242456D01*
X264974Y242556D01*
X264991Y242654D01*
X265012Y242752D01*
X265036Y242849D01*
X265065Y242945D01*
X265097Y243040D01*
X265132Y243133D01*
X265171Y243225D01*
X265214Y243316D01*
X265260Y243404D01*
X265310Y243491D01*
X265362Y243576D01*
X265418Y243659D01*
X265477Y243740D01*
X265540Y243818D01*
X265605Y243894D01*
X265673Y243968D01*
X265743Y244038D01*
X265817Y244106D01*
X265893Y244171D01*
X265971Y244234D01*
X266052Y244293D01*
X266135Y244349D01*
X266220Y244401D01*
X266307Y244451D01*
X266395Y244497D01*
X266486Y244540D01*
X266578Y244579D01*
X266671Y244614D01*
X266766Y244646D01*
X266862Y244675D01*
X266959Y244699D01*
X267057Y244720D01*
X267155Y244737D01*
X267255Y244751D01*
X267354Y244760D01*
X267454Y244766D01*
X267554Y244768D01*
X267554Y244767D02*
X271731Y244767D01*
X271731Y244768D02*
X271831Y244766D01*
X271931Y244760D01*
X272030Y244751D01*
X272130Y244737D01*
X272228Y244720D01*
X272326Y244699D01*
X272423Y244675D01*
X272519Y244646D01*
X272614Y244614D01*
X272707Y244579D01*
X272799Y244540D01*
X272890Y244497D01*
X272978Y244451D01*
X273065Y244401D01*
X273150Y244349D01*
X273233Y244293D01*
X273314Y244234D01*
X273392Y244171D01*
X273468Y244106D01*
X273542Y244038D01*
X273612Y243968D01*
X273680Y243894D01*
X273745Y243818D01*
X273808Y243740D01*
X273867Y243659D01*
X273923Y243576D01*
X273975Y243491D01*
X274025Y243404D01*
X274071Y243316D01*
X274114Y243225D01*
X274153Y243133D01*
X274188Y243040D01*
X274220Y242945D01*
X274249Y242849D01*
X274273Y242752D01*
X274294Y242654D01*
X274311Y242556D01*
X274325Y242456D01*
X274334Y242357D01*
X274340Y242257D01*
X274342Y242157D01*
X274342Y239546D01*
X267032Y248995D02*
X264944Y251605D01*
X274342Y251605D01*
X274342Y248995D02*
X274342Y254216D01*
X432521Y241252D02*
X441919Y241252D01*
X432521Y241252D02*
X432521Y245429D01*
X436698Y245429D02*
X436698Y241252D01*
X436698Y249290D02*
X436698Y251901D01*
X436700Y252002D01*
X436706Y252103D01*
X436716Y252204D01*
X436729Y252304D01*
X436747Y252404D01*
X436768Y252503D01*
X436794Y252601D01*
X436823Y252698D01*
X436855Y252794D01*
X436892Y252888D01*
X436932Y252981D01*
X436976Y253073D01*
X437023Y253162D01*
X437074Y253250D01*
X437128Y253336D01*
X437185Y253419D01*
X437245Y253501D01*
X437309Y253579D01*
X437375Y253656D01*
X437445Y253729D01*
X437517Y253800D01*
X437592Y253868D01*
X437670Y253933D01*
X437750Y253995D01*
X437832Y254054D01*
X437917Y254110D01*
X438004Y254162D01*
X438092Y254211D01*
X438183Y254257D01*
X438275Y254298D01*
X438369Y254337D01*
X438464Y254371D01*
X438560Y254402D01*
X438658Y254429D01*
X438756Y254453D01*
X438856Y254472D01*
X438956Y254488D01*
X439056Y254500D01*
X439157Y254508D01*
X439258Y254512D01*
X439360Y254512D01*
X439461Y254508D01*
X439562Y254500D01*
X439662Y254488D01*
X439762Y254472D01*
X439862Y254453D01*
X439960Y254429D01*
X440058Y254402D01*
X440154Y254371D01*
X440249Y254337D01*
X440343Y254298D01*
X440435Y254257D01*
X440526Y254211D01*
X440615Y254162D01*
X440701Y254110D01*
X440786Y254054D01*
X440868Y253995D01*
X440948Y253933D01*
X441026Y253868D01*
X441101Y253800D01*
X441173Y253729D01*
X441243Y253656D01*
X441309Y253579D01*
X441373Y253501D01*
X441433Y253419D01*
X441490Y253336D01*
X441544Y253250D01*
X441595Y253162D01*
X441642Y253073D01*
X441686Y252981D01*
X441726Y252888D01*
X441763Y252794D01*
X441795Y252698D01*
X441824Y252601D01*
X441850Y252503D01*
X441871Y252404D01*
X441889Y252304D01*
X441902Y252204D01*
X441912Y252103D01*
X441918Y252002D01*
X441920Y251901D01*
X441919Y251901D02*
X441919Y249290D01*
X432521Y249290D01*
X432521Y251901D01*
X432522Y251901D02*
X432524Y251991D01*
X432530Y252080D01*
X432539Y252170D01*
X432553Y252259D01*
X432570Y252347D01*
X432591Y252434D01*
X432616Y252521D01*
X432645Y252606D01*
X432677Y252690D01*
X432712Y252772D01*
X432752Y252853D01*
X432794Y252932D01*
X432840Y253009D01*
X432890Y253084D01*
X432942Y253157D01*
X432998Y253228D01*
X433056Y253296D01*
X433118Y253361D01*
X433182Y253424D01*
X433249Y253484D01*
X433318Y253541D01*
X433390Y253595D01*
X433464Y253646D01*
X433540Y253694D01*
X433618Y253738D01*
X433698Y253779D01*
X433780Y253817D01*
X433863Y253851D01*
X433948Y253881D01*
X434034Y253908D01*
X434120Y253931D01*
X434208Y253950D01*
X434297Y253965D01*
X434386Y253977D01*
X434475Y253985D01*
X434565Y253989D01*
X434655Y253989D01*
X434745Y253985D01*
X434834Y253977D01*
X434923Y253965D01*
X435012Y253950D01*
X435100Y253931D01*
X435186Y253908D01*
X435272Y253881D01*
X435357Y253851D01*
X435440Y253817D01*
X435522Y253779D01*
X435602Y253738D01*
X435680Y253694D01*
X435756Y253646D01*
X435830Y253595D01*
X435902Y253541D01*
X435971Y253484D01*
X436038Y253424D01*
X436102Y253361D01*
X436164Y253296D01*
X436222Y253228D01*
X436278Y253157D01*
X436330Y253084D01*
X436380Y253009D01*
X436426Y252932D01*
X436468Y252853D01*
X436508Y252772D01*
X436543Y252690D01*
X436575Y252606D01*
X436604Y252521D01*
X436629Y252434D01*
X436650Y252347D01*
X436667Y252259D01*
X436681Y252170D01*
X436690Y252080D01*
X436696Y251991D01*
X436698Y251901D01*
X434610Y257998D02*
X432521Y260609D01*
X441919Y260609D01*
X441919Y263219D02*
X441919Y257998D01*
D11*
X240820Y311658D02*
X240820Y329438D01*
X245759Y329438D01*
X245898Y329436D01*
X246036Y329430D01*
X246174Y329421D01*
X246312Y329407D01*
X246449Y329390D01*
X246586Y329368D01*
X246723Y329343D01*
X246858Y329314D01*
X246993Y329281D01*
X247126Y329245D01*
X247259Y329205D01*
X247390Y329161D01*
X247520Y329113D01*
X247649Y329062D01*
X247776Y329007D01*
X247902Y328949D01*
X248026Y328887D01*
X248148Y328822D01*
X248268Y328753D01*
X248387Y328681D01*
X248503Y328606D01*
X248617Y328527D01*
X248729Y328445D01*
X248838Y328360D01*
X248946Y328273D01*
X249050Y328182D01*
X249152Y328088D01*
X249251Y327991D01*
X249348Y327892D01*
X249442Y327790D01*
X249533Y327686D01*
X249620Y327578D01*
X249705Y327469D01*
X249787Y327357D01*
X249866Y327243D01*
X249941Y327127D01*
X250013Y327008D01*
X250082Y326888D01*
X250147Y326766D01*
X250209Y326642D01*
X250267Y326516D01*
X250322Y326389D01*
X250373Y326260D01*
X250421Y326130D01*
X250465Y325999D01*
X250505Y325866D01*
X250541Y325733D01*
X250574Y325598D01*
X250603Y325463D01*
X250628Y325326D01*
X250650Y325189D01*
X250667Y325052D01*
X250681Y324914D01*
X250690Y324776D01*
X250696Y324638D01*
X250698Y324499D01*
X250698Y316597D01*
X250696Y316458D01*
X250690Y316320D01*
X250681Y316182D01*
X250667Y316044D01*
X250650Y315907D01*
X250628Y315770D01*
X250603Y315633D01*
X250574Y315498D01*
X250541Y315363D01*
X250505Y315230D01*
X250465Y315097D01*
X250421Y314966D01*
X250373Y314836D01*
X250322Y314707D01*
X250267Y314580D01*
X250209Y314454D01*
X250147Y314330D01*
X250082Y314208D01*
X250013Y314088D01*
X249941Y313969D01*
X249866Y313853D01*
X249787Y313739D01*
X249705Y313627D01*
X249620Y313518D01*
X249533Y313410D01*
X249442Y313306D01*
X249348Y313204D01*
X249251Y313105D01*
X249152Y313008D01*
X249050Y312914D01*
X248946Y312823D01*
X248838Y312736D01*
X248729Y312651D01*
X248617Y312569D01*
X248503Y312490D01*
X248387Y312415D01*
X248268Y312343D01*
X248148Y312274D01*
X248026Y312209D01*
X247902Y312147D01*
X247776Y312089D01*
X247649Y312034D01*
X247520Y311983D01*
X247390Y311935D01*
X247259Y311891D01*
X247126Y311851D01*
X246993Y311815D01*
X246858Y311782D01*
X246723Y311753D01*
X246586Y311728D01*
X246449Y311706D01*
X246312Y311689D01*
X246174Y311675D01*
X246036Y311666D01*
X245898Y311660D01*
X245759Y311658D01*
X240820Y311658D01*
X244994Y337530D02*
X248945Y337530D01*
X244994Y337531D02*
X244870Y337533D01*
X244746Y337539D01*
X244622Y337549D01*
X244499Y337562D01*
X244376Y337580D01*
X244254Y337601D01*
X244132Y337626D01*
X244011Y337655D01*
X243892Y337688D01*
X243773Y337724D01*
X243656Y337765D01*
X243540Y337808D01*
X243425Y337856D01*
X243312Y337907D01*
X243200Y337962D01*
X243091Y338020D01*
X242983Y338081D01*
X242877Y338146D01*
X242773Y338214D01*
X242672Y338286D01*
X242572Y338360D01*
X242476Y338438D01*
X242381Y338518D01*
X242289Y338602D01*
X242200Y338688D01*
X242114Y338777D01*
X242030Y338869D01*
X241950Y338964D01*
X241872Y339060D01*
X241798Y339160D01*
X241726Y339261D01*
X241658Y339365D01*
X241593Y339471D01*
X241532Y339579D01*
X241474Y339688D01*
X241419Y339800D01*
X241368Y339913D01*
X241320Y340028D01*
X241277Y340144D01*
X241236Y340261D01*
X241200Y340380D01*
X241167Y340499D01*
X241138Y340620D01*
X241113Y340742D01*
X241092Y340864D01*
X241074Y340987D01*
X241061Y341110D01*
X241051Y341234D01*
X241045Y341358D01*
X241043Y341482D01*
X241043Y351359D01*
X241045Y351483D01*
X241051Y351607D01*
X241061Y351731D01*
X241074Y351854D01*
X241092Y351977D01*
X241113Y352099D01*
X241138Y352221D01*
X241167Y352342D01*
X241200Y352461D01*
X241236Y352580D01*
X241277Y352697D01*
X241320Y352813D01*
X241368Y352928D01*
X241419Y353041D01*
X241474Y353153D01*
X241532Y353262D01*
X241593Y353370D01*
X241658Y353476D01*
X241726Y353580D01*
X241798Y353681D01*
X241872Y353781D01*
X241950Y353877D01*
X242030Y353972D01*
X242114Y354064D01*
X242200Y354153D01*
X242289Y354239D01*
X242381Y354323D01*
X242476Y354403D01*
X242572Y354481D01*
X242672Y354555D01*
X242773Y354627D01*
X242877Y354695D01*
X242983Y354760D01*
X243091Y354821D01*
X243200Y354879D01*
X243312Y354934D01*
X243425Y354985D01*
X243540Y355033D01*
X243656Y355076D01*
X243773Y355117D01*
X243892Y355153D01*
X244011Y355186D01*
X244132Y355215D01*
X244254Y355240D01*
X244376Y355261D01*
X244499Y355279D01*
X244622Y355292D01*
X244746Y355302D01*
X244870Y355308D01*
X244994Y355310D01*
X248945Y355310D01*
X265016Y445053D02*
X269955Y445053D01*
X270095Y445051D01*
X270234Y445045D01*
X270374Y445035D01*
X270513Y445021D01*
X270652Y445004D01*
X270790Y444982D01*
X270927Y444956D01*
X271064Y444927D01*
X271200Y444894D01*
X271334Y444857D01*
X271468Y444816D01*
X271600Y444771D01*
X271732Y444722D01*
X271861Y444670D01*
X271989Y444615D01*
X272116Y444555D01*
X272241Y444492D01*
X272364Y444426D01*
X272485Y444356D01*
X272604Y444283D01*
X272721Y444206D01*
X272835Y444126D01*
X272948Y444043D01*
X273058Y443957D01*
X273165Y443867D01*
X273270Y443775D01*
X273372Y443680D01*
X273472Y443582D01*
X273569Y443481D01*
X273663Y443377D01*
X273753Y443271D01*
X273841Y443162D01*
X273926Y443051D01*
X274007Y442937D01*
X274086Y442822D01*
X274161Y442704D01*
X274232Y442584D01*
X274300Y442461D01*
X274365Y442338D01*
X274426Y442212D01*
X274484Y442084D01*
X274538Y441956D01*
X274588Y441825D01*
X274635Y441693D01*
X274678Y441560D01*
X274717Y441426D01*
X274752Y441291D01*
X274783Y441155D01*
X274811Y441017D01*
X274834Y440880D01*
X274854Y440741D01*
X274870Y440602D01*
X274882Y440463D01*
X274890Y440324D01*
X274894Y440184D01*
X274894Y440044D01*
X274890Y439904D01*
X274882Y439765D01*
X274870Y439626D01*
X274854Y439487D01*
X274834Y439348D01*
X274811Y439211D01*
X274783Y439073D01*
X274752Y438937D01*
X274717Y438802D01*
X274678Y438668D01*
X274635Y438535D01*
X274588Y438403D01*
X274538Y438272D01*
X274484Y438144D01*
X274426Y438016D01*
X274365Y437890D01*
X274300Y437767D01*
X274232Y437645D01*
X274161Y437524D01*
X274086Y437406D01*
X274007Y437291D01*
X273926Y437177D01*
X273841Y437066D01*
X273753Y436957D01*
X273663Y436851D01*
X273569Y436747D01*
X273472Y436646D01*
X273372Y436548D01*
X273270Y436453D01*
X273165Y436361D01*
X273058Y436271D01*
X272948Y436185D01*
X272835Y436102D01*
X272721Y436022D01*
X272604Y435945D01*
X272485Y435872D01*
X272364Y435802D01*
X272241Y435736D01*
X272116Y435673D01*
X271989Y435613D01*
X271861Y435558D01*
X271732Y435506D01*
X271600Y435457D01*
X271468Y435412D01*
X271334Y435371D01*
X271200Y435334D01*
X271064Y435301D01*
X270927Y435272D01*
X270790Y435246D01*
X270652Y435224D01*
X270513Y435207D01*
X270374Y435193D01*
X270234Y435183D01*
X270095Y435177D01*
X269955Y435175D01*
X269955Y435176D02*
X265016Y435176D01*
X265016Y452956D01*
X269955Y452956D01*
X269955Y452955D02*
X270079Y452953D01*
X270203Y452947D01*
X270327Y452937D01*
X270450Y452924D01*
X270573Y452906D01*
X270695Y452885D01*
X270817Y452860D01*
X270938Y452831D01*
X271057Y452798D01*
X271176Y452762D01*
X271293Y452721D01*
X271409Y452678D01*
X271524Y452630D01*
X271637Y452579D01*
X271749Y452524D01*
X271858Y452466D01*
X271966Y452405D01*
X272072Y452340D01*
X272176Y452272D01*
X272277Y452200D01*
X272377Y452126D01*
X272473Y452048D01*
X272568Y451968D01*
X272660Y451884D01*
X272749Y451798D01*
X272835Y451709D01*
X272919Y451617D01*
X272999Y451522D01*
X273077Y451426D01*
X273151Y451326D01*
X273223Y451225D01*
X273291Y451121D01*
X273356Y451015D01*
X273417Y450907D01*
X273475Y450798D01*
X273530Y450686D01*
X273581Y450573D01*
X273629Y450458D01*
X273672Y450342D01*
X273713Y450225D01*
X273749Y450106D01*
X273782Y449987D01*
X273811Y449866D01*
X273836Y449744D01*
X273857Y449622D01*
X273875Y449499D01*
X273888Y449376D01*
X273898Y449252D01*
X273904Y449128D01*
X273906Y449004D01*
X273904Y448880D01*
X273898Y448756D01*
X273888Y448632D01*
X273875Y448509D01*
X273857Y448386D01*
X273836Y448264D01*
X273811Y448142D01*
X273782Y448021D01*
X273749Y447902D01*
X273713Y447783D01*
X273672Y447666D01*
X273629Y447550D01*
X273581Y447435D01*
X273530Y447322D01*
X273475Y447210D01*
X273417Y447101D01*
X273356Y446993D01*
X273291Y446887D01*
X273223Y446783D01*
X273151Y446682D01*
X273077Y446582D01*
X272999Y446486D01*
X272919Y446391D01*
X272835Y446299D01*
X272749Y446210D01*
X272660Y446124D01*
X272568Y446040D01*
X272473Y445960D01*
X272377Y445882D01*
X272277Y445808D01*
X272176Y445736D01*
X272072Y445668D01*
X271966Y445603D01*
X271858Y445542D01*
X271749Y445484D01*
X271637Y445429D01*
X271524Y445378D01*
X271409Y445330D01*
X271293Y445287D01*
X271176Y445246D01*
X271057Y445210D01*
X270938Y445177D01*
X270817Y445148D01*
X270695Y445123D01*
X270573Y445102D01*
X270450Y445084D01*
X270327Y445071D01*
X270203Y445061D01*
X270079Y445055D01*
X269955Y445053D01*
X460914Y330911D02*
X460914Y313131D01*
X460914Y330911D02*
X465852Y330911D01*
X465992Y330909D01*
X466131Y330903D01*
X466271Y330893D01*
X466410Y330879D01*
X466549Y330862D01*
X466687Y330840D01*
X466824Y330814D01*
X466961Y330785D01*
X467097Y330752D01*
X467231Y330715D01*
X467365Y330674D01*
X467497Y330629D01*
X467629Y330580D01*
X467758Y330528D01*
X467886Y330473D01*
X468013Y330413D01*
X468138Y330350D01*
X468261Y330284D01*
X468382Y330214D01*
X468501Y330141D01*
X468618Y330064D01*
X468732Y329984D01*
X468845Y329901D01*
X468955Y329815D01*
X469062Y329725D01*
X469167Y329633D01*
X469269Y329538D01*
X469369Y329440D01*
X469466Y329339D01*
X469560Y329235D01*
X469650Y329129D01*
X469738Y329020D01*
X469823Y328909D01*
X469904Y328795D01*
X469983Y328680D01*
X470058Y328562D01*
X470129Y328442D01*
X470197Y328319D01*
X470262Y328196D01*
X470323Y328070D01*
X470381Y327942D01*
X470435Y327814D01*
X470485Y327683D01*
X470532Y327551D01*
X470575Y327418D01*
X470614Y327284D01*
X470649Y327149D01*
X470680Y327013D01*
X470708Y326875D01*
X470731Y326738D01*
X470751Y326599D01*
X470767Y326460D01*
X470779Y326321D01*
X470787Y326182D01*
X470791Y326042D01*
X470791Y325902D01*
X470787Y325762D01*
X470779Y325623D01*
X470767Y325484D01*
X470751Y325345D01*
X470731Y325206D01*
X470708Y325069D01*
X470680Y324931D01*
X470649Y324795D01*
X470614Y324660D01*
X470575Y324526D01*
X470532Y324393D01*
X470485Y324261D01*
X470435Y324130D01*
X470381Y324002D01*
X470323Y323874D01*
X470262Y323748D01*
X470197Y323625D01*
X470129Y323503D01*
X470058Y323382D01*
X469983Y323264D01*
X469904Y323149D01*
X469823Y323035D01*
X469738Y322924D01*
X469650Y322815D01*
X469560Y322709D01*
X469466Y322605D01*
X469369Y322504D01*
X469269Y322406D01*
X469167Y322311D01*
X469062Y322219D01*
X468955Y322129D01*
X468845Y322043D01*
X468732Y321960D01*
X468618Y321880D01*
X468501Y321803D01*
X468382Y321730D01*
X468261Y321660D01*
X468138Y321594D01*
X468013Y321531D01*
X467886Y321471D01*
X467758Y321416D01*
X467629Y321364D01*
X467497Y321315D01*
X467365Y321270D01*
X467231Y321229D01*
X467097Y321192D01*
X466961Y321159D01*
X466824Y321130D01*
X466687Y321104D01*
X466549Y321082D01*
X466410Y321065D01*
X466271Y321051D01*
X466131Y321041D01*
X465992Y321035D01*
X465852Y321033D01*
X460914Y321033D01*
X466840Y321033D02*
X470791Y313131D01*
X285763Y284645D02*
X265633Y284645D01*
D123*
X282829Y325049D02*
X282829Y327138D01*
X282829Y325049D02*
X282827Y324960D01*
X282821Y324872D01*
X282812Y324784D01*
X282799Y324696D01*
X282782Y324609D01*
X282762Y324523D01*
X282737Y324438D01*
X282710Y324353D01*
X282678Y324270D01*
X282644Y324189D01*
X282605Y324109D01*
X282564Y324031D01*
X282519Y323954D01*
X282471Y323880D01*
X282420Y323807D01*
X282366Y323737D01*
X282308Y323670D01*
X282248Y323604D01*
X282186Y323542D01*
X282120Y323482D01*
X282053Y323424D01*
X281983Y323370D01*
X281910Y323319D01*
X281836Y323271D01*
X281759Y323226D01*
X281681Y323185D01*
X281601Y323146D01*
X281520Y323112D01*
X281437Y323080D01*
X281352Y323053D01*
X281267Y323028D01*
X281181Y323008D01*
X281094Y322991D01*
X281006Y322978D01*
X280918Y322969D01*
X280830Y322963D01*
X280741Y322961D01*
X275519Y322961D01*
X275428Y322963D01*
X275337Y322969D01*
X275246Y322979D01*
X275156Y322993D01*
X275067Y323011D01*
X274978Y323032D01*
X274891Y323058D01*
X274805Y323087D01*
X274720Y323120D01*
X274636Y323157D01*
X274554Y323197D01*
X274475Y323241D01*
X274397Y323288D01*
X274321Y323339D01*
X274247Y323393D01*
X274176Y323450D01*
X274108Y323510D01*
X274042Y323573D01*
X273979Y323639D01*
X273919Y323707D01*
X273862Y323778D01*
X273808Y323852D01*
X273757Y323928D01*
X273710Y324005D01*
X273666Y324085D01*
X273626Y324167D01*
X273589Y324251D01*
X273556Y324335D01*
X273527Y324422D01*
X273501Y324509D01*
X273480Y324598D01*
X273462Y324687D01*
X273448Y324777D01*
X273438Y324868D01*
X273432Y324959D01*
X273430Y325050D01*
X273431Y325049D02*
X273431Y327138D01*
X275519Y330607D02*
X273431Y333217D01*
X282829Y333217D01*
X282829Y330607D02*
X282829Y335828D01*
X275519Y339751D02*
X273431Y342361D01*
X282829Y342361D01*
X282829Y339751D02*
X282829Y344972D01*
X300609Y325868D02*
X300609Y323779D01*
X300607Y323690D01*
X300601Y323602D01*
X300592Y323514D01*
X300579Y323426D01*
X300562Y323339D01*
X300542Y323253D01*
X300517Y323168D01*
X300490Y323083D01*
X300458Y323000D01*
X300424Y322919D01*
X300385Y322839D01*
X300344Y322761D01*
X300299Y322684D01*
X300251Y322610D01*
X300200Y322537D01*
X300146Y322467D01*
X300088Y322400D01*
X300028Y322334D01*
X299966Y322272D01*
X299900Y322212D01*
X299833Y322154D01*
X299763Y322100D01*
X299690Y322049D01*
X299616Y322001D01*
X299539Y321956D01*
X299461Y321915D01*
X299381Y321876D01*
X299300Y321842D01*
X299217Y321810D01*
X299132Y321783D01*
X299047Y321758D01*
X298961Y321738D01*
X298874Y321721D01*
X298786Y321708D01*
X298698Y321699D01*
X298610Y321693D01*
X298521Y321691D01*
X293299Y321691D01*
X293208Y321693D01*
X293117Y321699D01*
X293026Y321709D01*
X292936Y321723D01*
X292847Y321741D01*
X292758Y321762D01*
X292671Y321788D01*
X292585Y321817D01*
X292500Y321850D01*
X292416Y321887D01*
X292334Y321927D01*
X292255Y321971D01*
X292177Y322018D01*
X292101Y322069D01*
X292027Y322123D01*
X291956Y322180D01*
X291888Y322240D01*
X291822Y322303D01*
X291759Y322369D01*
X291699Y322437D01*
X291642Y322508D01*
X291588Y322582D01*
X291537Y322658D01*
X291490Y322735D01*
X291446Y322815D01*
X291406Y322897D01*
X291369Y322981D01*
X291336Y323065D01*
X291307Y323152D01*
X291281Y323239D01*
X291260Y323328D01*
X291242Y323417D01*
X291228Y323507D01*
X291218Y323598D01*
X291212Y323689D01*
X291210Y323780D01*
X291211Y323779D02*
X291211Y325868D01*
X293299Y329337D02*
X291211Y331947D01*
X300609Y331947D01*
X300609Y329337D02*
X300609Y334558D01*
X295910Y338480D02*
X295725Y338482D01*
X295540Y338489D01*
X295356Y338500D01*
X295172Y338515D01*
X294988Y338535D01*
X294804Y338559D01*
X294622Y338588D01*
X294440Y338621D01*
X294259Y338658D01*
X294079Y338700D01*
X293899Y338746D01*
X293721Y338796D01*
X293545Y338850D01*
X293369Y338909D01*
X293195Y338971D01*
X293023Y339038D01*
X292852Y339109D01*
X292683Y339184D01*
X292516Y339263D01*
X292436Y339293D01*
X292357Y339326D01*
X292280Y339363D01*
X292204Y339403D01*
X292130Y339446D01*
X292058Y339492D01*
X291989Y339542D01*
X291921Y339594D01*
X291856Y339650D01*
X291793Y339708D01*
X291734Y339770D01*
X291676Y339833D01*
X291622Y339900D01*
X291571Y339968D01*
X291523Y340039D01*
X291478Y340112D01*
X291436Y340186D01*
X291398Y340263D01*
X291363Y340341D01*
X291331Y340420D01*
X291303Y340501D01*
X291279Y340583D01*
X291258Y340667D01*
X291241Y340750D01*
X291228Y340835D01*
X291219Y340920D01*
X291213Y341005D01*
X291211Y341091D01*
X291213Y341177D01*
X291219Y341262D01*
X291228Y341347D01*
X291241Y341432D01*
X291258Y341515D01*
X291279Y341599D01*
X291303Y341681D01*
X291331Y341762D01*
X291363Y341841D01*
X291398Y341919D01*
X291436Y341996D01*
X291478Y342070D01*
X291523Y342143D01*
X291571Y342214D01*
X291622Y342282D01*
X291676Y342349D01*
X291734Y342412D01*
X291793Y342474D01*
X291856Y342532D01*
X291921Y342588D01*
X291989Y342640D01*
X292058Y342690D01*
X292130Y342736D01*
X292204Y342779D01*
X292280Y342819D01*
X292357Y342856D01*
X292436Y342889D01*
X292516Y342919D01*
X292683Y342998D01*
X292852Y343073D01*
X293023Y343144D01*
X293195Y343211D01*
X293369Y343273D01*
X293545Y343332D01*
X293721Y343386D01*
X293899Y343436D01*
X294079Y343482D01*
X294259Y343524D01*
X294440Y343561D01*
X294622Y343594D01*
X294804Y343623D01*
X294988Y343647D01*
X295172Y343667D01*
X295356Y343682D01*
X295540Y343693D01*
X295725Y343700D01*
X295910Y343702D01*
X295910Y338481D02*
X296095Y338483D01*
X296280Y338490D01*
X296464Y338501D01*
X296648Y338516D01*
X296832Y338536D01*
X297016Y338560D01*
X297198Y338589D01*
X297380Y338622D01*
X297561Y338659D01*
X297741Y338701D01*
X297921Y338747D01*
X298099Y338797D01*
X298275Y338851D01*
X298451Y338910D01*
X298625Y338972D01*
X298797Y339039D01*
X298968Y339110D01*
X299137Y339185D01*
X299304Y339264D01*
X299304Y339263D02*
X299384Y339293D01*
X299463Y339326D01*
X299540Y339363D01*
X299616Y339403D01*
X299690Y339446D01*
X299762Y339492D01*
X299831Y339542D01*
X299899Y339595D01*
X299964Y339650D01*
X300027Y339709D01*
X300086Y339770D01*
X300144Y339833D01*
X300198Y339900D01*
X300249Y339968D01*
X300297Y340039D01*
X300342Y340112D01*
X300384Y340186D01*
X300422Y340263D01*
X300457Y340341D01*
X300489Y340420D01*
X300517Y340501D01*
X300541Y340583D01*
X300562Y340667D01*
X300579Y340750D01*
X300592Y340835D01*
X300601Y340920D01*
X300607Y341005D01*
X300609Y341091D01*
X299304Y342919D02*
X299137Y342998D01*
X298968Y343073D01*
X298797Y343144D01*
X298625Y343211D01*
X298451Y343273D01*
X298275Y343332D01*
X298099Y343386D01*
X297921Y343436D01*
X297741Y343482D01*
X297561Y343524D01*
X297380Y343561D01*
X297198Y343594D01*
X297016Y343623D01*
X296832Y343647D01*
X296648Y343667D01*
X296464Y343682D01*
X296280Y343693D01*
X296095Y343700D01*
X295910Y343702D01*
X299304Y342919D02*
X299384Y342889D01*
X299463Y342856D01*
X299540Y342819D01*
X299616Y342779D01*
X299690Y342736D01*
X299762Y342690D01*
X299831Y342640D01*
X299899Y342588D01*
X299964Y342532D01*
X300027Y342474D01*
X300086Y342412D01*
X300144Y342349D01*
X300198Y342282D01*
X300249Y342214D01*
X300297Y342143D01*
X300342Y342070D01*
X300384Y341996D01*
X300422Y341919D01*
X300457Y341841D01*
X300489Y341762D01*
X300517Y341681D01*
X300541Y341599D01*
X300562Y341515D01*
X300579Y341432D01*
X300592Y341347D01*
X300601Y341262D01*
X300607Y341177D01*
X300609Y341091D01*
X298521Y339003D02*
X293299Y343180D01*
D122*
X372150Y246420D02*
X374650Y246420D01*
X377150Y246420D01*
X374650Y246420D02*
X372150Y251420D01*
X377150Y251420D02*
X374650Y246420D01*
X377150Y251420D02*
X372150Y251420D01*
X369650Y261420D02*
X379650Y261420D01*
X379650Y236420D01*
X369650Y236420D01*
X369650Y261420D01*
D123*
X366889Y238191D02*
X357491Y238191D01*
X357491Y240802D01*
X357493Y240902D01*
X357499Y241002D01*
X357508Y241101D01*
X357522Y241201D01*
X357539Y241299D01*
X357560Y241397D01*
X357584Y241494D01*
X357613Y241590D01*
X357645Y241685D01*
X357680Y241778D01*
X357719Y241870D01*
X357762Y241961D01*
X357808Y242049D01*
X357858Y242136D01*
X357910Y242221D01*
X357966Y242304D01*
X358025Y242385D01*
X358088Y242463D01*
X358153Y242539D01*
X358221Y242613D01*
X358291Y242683D01*
X358365Y242751D01*
X358441Y242816D01*
X358519Y242879D01*
X358600Y242938D01*
X358683Y242994D01*
X358768Y243046D01*
X358855Y243096D01*
X358943Y243142D01*
X359034Y243185D01*
X359126Y243224D01*
X359219Y243259D01*
X359314Y243291D01*
X359410Y243320D01*
X359507Y243344D01*
X359605Y243365D01*
X359703Y243382D01*
X359803Y243396D01*
X359902Y243405D01*
X360002Y243411D01*
X360102Y243413D01*
X360102Y243412D02*
X364278Y243412D01*
X364278Y243413D02*
X364378Y243411D01*
X364478Y243405D01*
X364577Y243396D01*
X364677Y243382D01*
X364775Y243365D01*
X364873Y243344D01*
X364970Y243320D01*
X365066Y243291D01*
X365161Y243259D01*
X365254Y243224D01*
X365346Y243185D01*
X365437Y243142D01*
X365525Y243096D01*
X365612Y243046D01*
X365697Y242994D01*
X365780Y242938D01*
X365861Y242879D01*
X365939Y242816D01*
X366015Y242751D01*
X366089Y242683D01*
X366159Y242613D01*
X366227Y242539D01*
X366292Y242463D01*
X366355Y242385D01*
X366414Y242304D01*
X366470Y242221D01*
X366522Y242136D01*
X366572Y242049D01*
X366618Y241961D01*
X366661Y241870D01*
X366700Y241778D01*
X366735Y241685D01*
X366767Y241590D01*
X366796Y241494D01*
X366820Y241397D01*
X366841Y241299D01*
X366858Y241201D01*
X366872Y241101D01*
X366881Y241002D01*
X366887Y240902D01*
X366889Y240802D01*
X366889Y238191D01*
X366889Y247640D02*
X366889Y250250D01*
X366887Y250351D01*
X366881Y250452D01*
X366871Y250553D01*
X366858Y250653D01*
X366840Y250753D01*
X366819Y250852D01*
X366793Y250950D01*
X366764Y251047D01*
X366732Y251143D01*
X366695Y251237D01*
X366655Y251330D01*
X366611Y251422D01*
X366564Y251511D01*
X366513Y251599D01*
X366459Y251685D01*
X366402Y251768D01*
X366342Y251850D01*
X366278Y251928D01*
X366212Y252005D01*
X366142Y252078D01*
X366070Y252149D01*
X365995Y252217D01*
X365917Y252282D01*
X365837Y252344D01*
X365755Y252403D01*
X365670Y252459D01*
X365584Y252511D01*
X365495Y252560D01*
X365404Y252606D01*
X365312Y252647D01*
X365218Y252686D01*
X365123Y252720D01*
X365027Y252751D01*
X364929Y252778D01*
X364831Y252802D01*
X364731Y252821D01*
X364631Y252837D01*
X364531Y252849D01*
X364430Y252857D01*
X364329Y252861D01*
X364227Y252861D01*
X364126Y252857D01*
X364025Y252849D01*
X363925Y252837D01*
X363825Y252821D01*
X363725Y252802D01*
X363627Y252778D01*
X363529Y252751D01*
X363433Y252720D01*
X363338Y252686D01*
X363244Y252647D01*
X363152Y252606D01*
X363061Y252560D01*
X362973Y252511D01*
X362886Y252459D01*
X362801Y252403D01*
X362719Y252344D01*
X362639Y252282D01*
X362561Y252217D01*
X362486Y252149D01*
X362414Y252078D01*
X362344Y252005D01*
X362278Y251928D01*
X362214Y251850D01*
X362154Y251768D01*
X362097Y251685D01*
X362043Y251599D01*
X361992Y251511D01*
X361945Y251422D01*
X361901Y251330D01*
X361861Y251237D01*
X361824Y251143D01*
X361792Y251047D01*
X361763Y250950D01*
X361737Y250852D01*
X361716Y250753D01*
X361698Y250653D01*
X361685Y250553D01*
X361675Y250452D01*
X361669Y250351D01*
X361667Y250250D01*
X357491Y250772D02*
X357491Y247640D01*
X357491Y250772D02*
X357493Y250862D01*
X357499Y250951D01*
X357508Y251041D01*
X357522Y251130D01*
X357539Y251218D01*
X357560Y251305D01*
X357585Y251392D01*
X357614Y251477D01*
X357646Y251561D01*
X357681Y251643D01*
X357721Y251724D01*
X357763Y251803D01*
X357809Y251880D01*
X357859Y251955D01*
X357911Y252028D01*
X357967Y252099D01*
X358025Y252167D01*
X358087Y252232D01*
X358151Y252295D01*
X358218Y252355D01*
X358287Y252412D01*
X358359Y252466D01*
X358433Y252517D01*
X358509Y252565D01*
X358587Y252609D01*
X358667Y252650D01*
X358749Y252688D01*
X358832Y252722D01*
X358917Y252752D01*
X359003Y252779D01*
X359089Y252802D01*
X359177Y252821D01*
X359266Y252836D01*
X359355Y252848D01*
X359444Y252856D01*
X359534Y252860D01*
X359624Y252860D01*
X359714Y252856D01*
X359803Y252848D01*
X359892Y252836D01*
X359981Y252821D01*
X360069Y252802D01*
X360155Y252779D01*
X360241Y252752D01*
X360326Y252722D01*
X360409Y252688D01*
X360491Y252650D01*
X360571Y252609D01*
X360649Y252565D01*
X360725Y252517D01*
X360799Y252466D01*
X360871Y252412D01*
X360940Y252355D01*
X361007Y252295D01*
X361071Y252232D01*
X361133Y252167D01*
X361191Y252099D01*
X361247Y252028D01*
X361299Y251955D01*
X361349Y251880D01*
X361395Y251803D01*
X361437Y251724D01*
X361477Y251643D01*
X361512Y251561D01*
X361544Y251477D01*
X361573Y251392D01*
X361598Y251305D01*
X361619Y251218D01*
X361636Y251130D01*
X361650Y251041D01*
X361659Y250951D01*
X361665Y250862D01*
X361667Y250772D01*
X361668Y250772D02*
X361668Y248684D01*
D122*
X398820Y246420D02*
X401320Y246420D01*
X403820Y246420D01*
X401320Y246420D02*
X398820Y251420D01*
X403820Y251420D02*
X401320Y246420D01*
X403820Y251420D02*
X398820Y251420D01*
X396320Y261420D02*
X406320Y261420D01*
X406320Y236420D01*
X396320Y236420D01*
X396320Y261420D01*
D123*
X393559Y238191D02*
X384161Y238191D01*
X384161Y240802D01*
X384163Y240902D01*
X384169Y241002D01*
X384178Y241101D01*
X384192Y241201D01*
X384209Y241299D01*
X384230Y241397D01*
X384254Y241494D01*
X384283Y241590D01*
X384315Y241685D01*
X384350Y241778D01*
X384389Y241870D01*
X384432Y241961D01*
X384478Y242049D01*
X384528Y242136D01*
X384580Y242221D01*
X384636Y242304D01*
X384695Y242385D01*
X384758Y242463D01*
X384823Y242539D01*
X384891Y242613D01*
X384961Y242683D01*
X385035Y242751D01*
X385111Y242816D01*
X385189Y242879D01*
X385270Y242938D01*
X385353Y242994D01*
X385438Y243046D01*
X385525Y243096D01*
X385613Y243142D01*
X385704Y243185D01*
X385796Y243224D01*
X385889Y243259D01*
X385984Y243291D01*
X386080Y243320D01*
X386177Y243344D01*
X386275Y243365D01*
X386373Y243382D01*
X386473Y243396D01*
X386572Y243405D01*
X386672Y243411D01*
X386772Y243413D01*
X386772Y243412D02*
X390948Y243412D01*
X390948Y243413D02*
X391048Y243411D01*
X391148Y243405D01*
X391247Y243396D01*
X391347Y243382D01*
X391445Y243365D01*
X391543Y243344D01*
X391640Y243320D01*
X391736Y243291D01*
X391831Y243259D01*
X391924Y243224D01*
X392016Y243185D01*
X392107Y243142D01*
X392195Y243096D01*
X392282Y243046D01*
X392367Y242994D01*
X392450Y242938D01*
X392531Y242879D01*
X392609Y242816D01*
X392685Y242751D01*
X392759Y242683D01*
X392829Y242613D01*
X392897Y242539D01*
X392962Y242463D01*
X393025Y242385D01*
X393084Y242304D01*
X393140Y242221D01*
X393192Y242136D01*
X393242Y242049D01*
X393288Y241961D01*
X393331Y241870D01*
X393370Y241778D01*
X393405Y241685D01*
X393437Y241590D01*
X393466Y241494D01*
X393490Y241397D01*
X393511Y241299D01*
X393528Y241201D01*
X393542Y241101D01*
X393551Y241002D01*
X393557Y240902D01*
X393559Y240802D01*
X393559Y238191D01*
X384161Y250511D02*
X384163Y250606D01*
X384169Y250700D01*
X384178Y250794D01*
X384191Y250888D01*
X384208Y250981D01*
X384229Y251073D01*
X384254Y251165D01*
X384282Y251255D01*
X384314Y251344D01*
X384349Y251432D01*
X384388Y251518D01*
X384430Y251603D01*
X384476Y251686D01*
X384525Y251767D01*
X384577Y251846D01*
X384632Y251923D01*
X384691Y251997D01*
X384752Y252069D01*
X384816Y252139D01*
X384883Y252206D01*
X384953Y252270D01*
X385025Y252331D01*
X385099Y252390D01*
X385176Y252445D01*
X385255Y252497D01*
X385336Y252546D01*
X385419Y252592D01*
X385504Y252634D01*
X385590Y252673D01*
X385678Y252708D01*
X385767Y252740D01*
X385857Y252768D01*
X385949Y252793D01*
X386041Y252814D01*
X386134Y252831D01*
X386228Y252844D01*
X386322Y252853D01*
X386416Y252859D01*
X386511Y252861D01*
X384161Y250511D02*
X384163Y250403D01*
X384169Y250294D01*
X384179Y250186D01*
X384192Y250079D01*
X384210Y249972D01*
X384231Y249865D01*
X384256Y249760D01*
X384285Y249655D01*
X384317Y249552D01*
X384354Y249450D01*
X384394Y249349D01*
X384437Y249250D01*
X384484Y249152D01*
X384535Y249056D01*
X384589Y248962D01*
X384646Y248870D01*
X384707Y248780D01*
X384771Y248692D01*
X384837Y248607D01*
X384907Y248524D01*
X384980Y248444D01*
X385056Y248366D01*
X385134Y248291D01*
X385215Y248219D01*
X385299Y248150D01*
X385385Y248084D01*
X385473Y248021D01*
X385564Y247962D01*
X385656Y247905D01*
X385751Y247852D01*
X385848Y247803D01*
X385946Y247757D01*
X386045Y247714D01*
X386147Y247675D01*
X386249Y247640D01*
X388339Y252078D02*
X388270Y252147D01*
X388199Y252213D01*
X388126Y252277D01*
X388050Y252338D01*
X387971Y252396D01*
X387891Y252450D01*
X387808Y252502D01*
X387724Y252550D01*
X387638Y252596D01*
X387550Y252637D01*
X387460Y252676D01*
X387369Y252711D01*
X387277Y252742D01*
X387184Y252770D01*
X387090Y252794D01*
X386995Y252814D01*
X386899Y252831D01*
X386802Y252844D01*
X386705Y252853D01*
X386608Y252859D01*
X386511Y252861D01*
X388338Y252078D02*
X393559Y247640D01*
X393559Y252861D01*
D11*
X327152Y299720D02*
X327152Y393700D01*
X362458Y397510D02*
X362580Y397508D01*
X362702Y397502D01*
X362824Y397492D01*
X362945Y397479D01*
X363066Y397461D01*
X363186Y397440D01*
X363306Y397414D01*
X363424Y397385D01*
X363542Y397353D01*
X363659Y397316D01*
X363774Y397276D01*
X363888Y397232D01*
X364000Y397184D01*
X364111Y397133D01*
X364220Y397078D01*
X364328Y397020D01*
X364433Y396958D01*
X364536Y396893D01*
X364638Y396825D01*
X364737Y396753D01*
X364833Y396679D01*
X364928Y396601D01*
X365019Y396520D01*
X365109Y396437D01*
X365195Y396351D01*
X365278Y396261D01*
X365359Y396170D01*
X365437Y396075D01*
X365511Y395979D01*
X365583Y395880D01*
X365651Y395778D01*
X365716Y395675D01*
X365778Y395570D01*
X365836Y395462D01*
X365891Y395353D01*
X365942Y395242D01*
X365990Y395130D01*
X366034Y395016D01*
X366074Y394901D01*
X366111Y394784D01*
X366143Y394666D01*
X366172Y394548D01*
X366198Y394428D01*
X366219Y394308D01*
X366237Y394187D01*
X366250Y394066D01*
X366260Y393944D01*
X366266Y393822D01*
X366268Y393700D01*
X327152Y299720D02*
X327154Y299598D01*
X327160Y299476D01*
X327170Y299354D01*
X327183Y299233D01*
X327201Y299112D01*
X327222Y298992D01*
X327248Y298872D01*
X327277Y298754D01*
X327309Y298636D01*
X327346Y298519D01*
X327386Y298404D01*
X327430Y298290D01*
X327478Y298178D01*
X327529Y298067D01*
X327584Y297958D01*
X327642Y297850D01*
X327704Y297745D01*
X327769Y297642D01*
X327837Y297540D01*
X327909Y297441D01*
X327983Y297345D01*
X328061Y297250D01*
X328142Y297159D01*
X328225Y297069D01*
X328311Y296983D01*
X328401Y296900D01*
X328492Y296819D01*
X328587Y296741D01*
X328683Y296667D01*
X328782Y296595D01*
X328884Y296527D01*
X328987Y296462D01*
X329092Y296400D01*
X329200Y296342D01*
X329309Y296287D01*
X329420Y296236D01*
X329532Y296188D01*
X329646Y296144D01*
X329761Y296104D01*
X329878Y296067D01*
X329996Y296035D01*
X330114Y296006D01*
X330234Y295980D01*
X330354Y295959D01*
X330475Y295941D01*
X330596Y295928D01*
X330718Y295918D01*
X330840Y295912D01*
X330962Y295910D01*
X327152Y393700D02*
X327154Y393822D01*
X327160Y393944D01*
X327170Y394066D01*
X327183Y394187D01*
X327201Y394308D01*
X327222Y394428D01*
X327248Y394548D01*
X327277Y394666D01*
X327309Y394784D01*
X327346Y394901D01*
X327386Y395016D01*
X327430Y395130D01*
X327478Y395242D01*
X327529Y395353D01*
X327584Y395462D01*
X327642Y395570D01*
X327704Y395675D01*
X327769Y395778D01*
X327837Y395880D01*
X327909Y395979D01*
X327983Y396075D01*
X328061Y396170D01*
X328142Y396261D01*
X328225Y396351D01*
X328311Y396437D01*
X328401Y396520D01*
X328492Y396601D01*
X328587Y396679D01*
X328683Y396753D01*
X328782Y396825D01*
X328884Y396893D01*
X328987Y396958D01*
X329092Y397020D01*
X329200Y397078D01*
X329309Y397133D01*
X329420Y397184D01*
X329532Y397232D01*
X329646Y397276D01*
X329761Y397316D01*
X329878Y397353D01*
X329996Y397385D01*
X330114Y397414D01*
X330234Y397440D01*
X330354Y397461D01*
X330475Y397479D01*
X330596Y397492D01*
X330718Y397502D01*
X330840Y397508D01*
X330962Y397510D01*
X366268Y299720D02*
X366266Y299598D01*
X366260Y299476D01*
X366250Y299354D01*
X366237Y299233D01*
X366219Y299112D01*
X366198Y298992D01*
X366172Y298872D01*
X366143Y298754D01*
X366111Y298636D01*
X366074Y298519D01*
X366034Y298404D01*
X365990Y298290D01*
X365942Y298178D01*
X365891Y298067D01*
X365836Y297958D01*
X365778Y297850D01*
X365716Y297745D01*
X365651Y297642D01*
X365583Y297540D01*
X365511Y297441D01*
X365437Y297345D01*
X365359Y297250D01*
X365278Y297159D01*
X365195Y297069D01*
X365109Y296983D01*
X365019Y296900D01*
X364928Y296819D01*
X364833Y296741D01*
X364737Y296667D01*
X364638Y296595D01*
X364536Y296527D01*
X364433Y296462D01*
X364328Y296400D01*
X364220Y296342D01*
X364111Y296287D01*
X364000Y296236D01*
X363888Y296188D01*
X363774Y296144D01*
X363659Y296104D01*
X363542Y296067D01*
X363424Y296035D01*
X363306Y296006D01*
X363186Y295980D01*
X363066Y295959D01*
X362945Y295941D01*
X362824Y295928D01*
X362702Y295918D01*
X362580Y295912D01*
X362458Y295910D01*
X366268Y299720D02*
X366268Y393700D01*
X362458Y397510D02*
X330962Y397510D01*
X330962Y295910D02*
X341630Y295910D01*
X351790Y295910D01*
X362458Y295910D01*
X351790Y295910D02*
X351788Y296051D01*
X351782Y296192D01*
X351772Y296333D01*
X351759Y296474D01*
X351741Y296614D01*
X351719Y296753D01*
X351694Y296892D01*
X351665Y297031D01*
X351632Y297168D01*
X351595Y297304D01*
X351554Y297439D01*
X351510Y297574D01*
X351462Y297706D01*
X351410Y297838D01*
X351355Y297968D01*
X351296Y298096D01*
X351233Y298223D01*
X351167Y298347D01*
X351098Y298470D01*
X351025Y298591D01*
X350949Y298710D01*
X350869Y298827D01*
X350786Y298941D01*
X350701Y299054D01*
X350612Y299163D01*
X350520Y299271D01*
X350425Y299375D01*
X350327Y299477D01*
X350226Y299576D01*
X350123Y299673D01*
X350017Y299766D01*
X349909Y299856D01*
X349798Y299944D01*
X349685Y300028D01*
X349569Y300109D01*
X349451Y300187D01*
X349331Y300262D01*
X349209Y300333D01*
X349085Y300401D01*
X348959Y300465D01*
X348832Y300526D01*
X348703Y300583D01*
X348572Y300636D01*
X348440Y300686D01*
X348307Y300733D01*
X348172Y300775D01*
X348036Y300814D01*
X347899Y300849D01*
X347762Y300880D01*
X347623Y300907D01*
X347484Y300931D01*
X347344Y300950D01*
X347204Y300966D01*
X347063Y300978D01*
X346922Y300986D01*
X346781Y300990D01*
X346639Y300990D01*
X346498Y300986D01*
X346357Y300978D01*
X346216Y300966D01*
X346076Y300950D01*
X345936Y300931D01*
X345797Y300907D01*
X345658Y300880D01*
X345521Y300849D01*
X345384Y300814D01*
X345248Y300775D01*
X345113Y300733D01*
X344980Y300686D01*
X344848Y300636D01*
X344717Y300583D01*
X344588Y300526D01*
X344461Y300465D01*
X344335Y300401D01*
X344211Y300333D01*
X344089Y300262D01*
X343969Y300187D01*
X343851Y300109D01*
X343735Y300028D01*
X343622Y299944D01*
X343511Y299856D01*
X343403Y299766D01*
X343297Y299673D01*
X343194Y299576D01*
X343093Y299477D01*
X342995Y299375D01*
X342900Y299271D01*
X342808Y299163D01*
X342719Y299054D01*
X342634Y298941D01*
X342551Y298827D01*
X342471Y298710D01*
X342395Y298591D01*
X342322Y298470D01*
X342253Y298347D01*
X342187Y298223D01*
X342124Y298096D01*
X342065Y297968D01*
X342010Y297838D01*
X341958Y297706D01*
X341910Y297574D01*
X341866Y297439D01*
X341825Y297304D01*
X341788Y297168D01*
X341755Y297031D01*
X341726Y296892D01*
X341701Y296753D01*
X341679Y296614D01*
X341661Y296474D01*
X341648Y296333D01*
X341638Y296192D01*
X341632Y296051D01*
X341630Y295910D01*
D124*
X362712Y295910D02*
X362712Y397510D01*
D122*
X326771Y291465D02*
X326771Y280035D01*
X325501Y280035D02*
X328041Y280035D01*
X328041Y291465D02*
X325501Y291465D01*
X335243Y280035D02*
X337783Y280035D01*
X335243Y280035D02*
X335143Y280037D01*
X335044Y280043D01*
X334944Y280053D01*
X334846Y280066D01*
X334747Y280084D01*
X334650Y280105D01*
X334554Y280130D01*
X334458Y280159D01*
X334364Y280192D01*
X334271Y280228D01*
X334180Y280268D01*
X334090Y280312D01*
X334002Y280359D01*
X333916Y280409D01*
X333832Y280463D01*
X333750Y280520D01*
X333671Y280580D01*
X333593Y280644D01*
X333519Y280710D01*
X333447Y280779D01*
X333378Y280851D01*
X333312Y280925D01*
X333248Y281003D01*
X333188Y281082D01*
X333131Y281164D01*
X333077Y281248D01*
X333027Y281334D01*
X332980Y281422D01*
X332936Y281512D01*
X332896Y281603D01*
X332860Y281696D01*
X332827Y281790D01*
X332798Y281886D01*
X332773Y281982D01*
X332752Y282079D01*
X332734Y282178D01*
X332721Y282276D01*
X332711Y282376D01*
X332705Y282475D01*
X332703Y282575D01*
X332703Y288925D01*
X332705Y289025D01*
X332711Y289124D01*
X332721Y289224D01*
X332734Y289322D01*
X332752Y289421D01*
X332773Y289518D01*
X332798Y289614D01*
X332827Y289710D01*
X332860Y289804D01*
X332896Y289897D01*
X332936Y289988D01*
X332980Y290078D01*
X333027Y290166D01*
X333077Y290252D01*
X333131Y290336D01*
X333188Y290418D01*
X333248Y290497D01*
X333312Y290575D01*
X333378Y290649D01*
X333447Y290721D01*
X333519Y290790D01*
X333593Y290856D01*
X333671Y290920D01*
X333750Y290980D01*
X333832Y291037D01*
X333916Y291091D01*
X334002Y291141D01*
X334090Y291188D01*
X334180Y291232D01*
X334271Y291272D01*
X334364Y291308D01*
X334458Y291341D01*
X334554Y291370D01*
X334650Y291395D01*
X334747Y291416D01*
X334846Y291434D01*
X334944Y291447D01*
X335044Y291457D01*
X335143Y291463D01*
X335243Y291465D01*
X337783Y291465D01*
X345758Y291466D02*
X345862Y291464D01*
X345967Y291458D01*
X346071Y291449D01*
X346174Y291436D01*
X346277Y291418D01*
X346379Y291398D01*
X346481Y291373D01*
X346581Y291345D01*
X346681Y291313D01*
X346779Y291277D01*
X346876Y291238D01*
X346971Y291196D01*
X347065Y291150D01*
X347157Y291100D01*
X347247Y291048D01*
X347335Y290992D01*
X347421Y290932D01*
X347505Y290870D01*
X347586Y290805D01*
X347665Y290737D01*
X347742Y290665D01*
X347815Y290592D01*
X347887Y290515D01*
X347955Y290436D01*
X348020Y290355D01*
X348082Y290271D01*
X348142Y290185D01*
X348198Y290097D01*
X348250Y290007D01*
X348300Y289915D01*
X348346Y289821D01*
X348388Y289726D01*
X348427Y289629D01*
X348463Y289531D01*
X348495Y289431D01*
X348523Y289331D01*
X348548Y289229D01*
X348568Y289127D01*
X348586Y289024D01*
X348599Y288921D01*
X348608Y288817D01*
X348614Y288712D01*
X348616Y288608D01*
X345758Y291465D02*
X345640Y291463D01*
X345521Y291457D01*
X345403Y291448D01*
X345286Y291435D01*
X345169Y291417D01*
X345052Y291397D01*
X344936Y291372D01*
X344821Y291344D01*
X344708Y291311D01*
X344595Y291276D01*
X344483Y291236D01*
X344373Y291194D01*
X344264Y291147D01*
X344156Y291097D01*
X344051Y291044D01*
X343947Y290987D01*
X343845Y290927D01*
X343745Y290864D01*
X343647Y290797D01*
X343551Y290728D01*
X343458Y290655D01*
X343367Y290579D01*
X343278Y290501D01*
X343192Y290419D01*
X343109Y290335D01*
X343028Y290249D01*
X342951Y290159D01*
X342876Y290068D01*
X342804Y289974D01*
X342735Y289877D01*
X342670Y289779D01*
X342607Y289678D01*
X342548Y289575D01*
X342492Y289471D01*
X342440Y289365D01*
X342391Y289257D01*
X342346Y289148D01*
X342304Y289037D01*
X342266Y288925D01*
X347663Y286386D02*
X347739Y286461D01*
X347814Y286540D01*
X347885Y286621D01*
X347954Y286705D01*
X348019Y286791D01*
X348081Y286879D01*
X348141Y286969D01*
X348197Y287061D01*
X348250Y287156D01*
X348299Y287252D01*
X348345Y287350D01*
X348388Y287449D01*
X348427Y287550D01*
X348462Y287652D01*
X348494Y287755D01*
X348522Y287859D01*
X348547Y287964D01*
X348568Y288071D01*
X348585Y288177D01*
X348598Y288284D01*
X348607Y288392D01*
X348613Y288500D01*
X348615Y288608D01*
X347663Y286385D02*
X342265Y280035D01*
X348615Y280035D01*
D11*
X308610Y469900D02*
X283210Y469900D01*
X308610Y469900D02*
X308610Y495300D01*
X283210Y495300D01*
X283210Y469900D01*
D125*
X295910Y501650D02*
X295910Y558800D01*
D11*
X308610Y469900D02*
X334010Y469900D01*
X334010Y495300D01*
X308610Y495300D01*
D125*
X321310Y501650D02*
X321310Y558800D01*
D11*
X334010Y469900D02*
X359410Y469900D01*
X359410Y495300D01*
X334010Y495300D01*
D125*
X346710Y501650D02*
X346710Y558800D01*
D11*
X359410Y469900D02*
X384810Y469900D01*
X384810Y495300D01*
X359410Y495300D01*
D125*
X372110Y501650D02*
X372110Y558800D01*
D11*
X384810Y469900D02*
X410210Y469900D01*
X410210Y495300D01*
X384810Y495300D01*
D125*
X397510Y501650D02*
X397510Y558800D01*
D126*
X295910Y497840D03*
X321310Y497840D03*
X346710Y497840D03*
X372110Y497840D03*
X397510Y497840D03*
D127*
X295910Y464820D03*
X321310Y464820D03*
X346710Y464820D03*
X372110Y464820D03*
X397510Y464820D03*
D122*
X408305Y437515D02*
X417195Y437515D01*
X417295Y437513D01*
X417394Y437507D01*
X417494Y437497D01*
X417592Y437484D01*
X417691Y437466D01*
X417788Y437445D01*
X417884Y437420D01*
X417980Y437391D01*
X418074Y437358D01*
X418167Y437322D01*
X418258Y437282D01*
X418348Y437238D01*
X418436Y437191D01*
X418522Y437141D01*
X418606Y437087D01*
X418688Y437030D01*
X418767Y436970D01*
X418845Y436906D01*
X418919Y436840D01*
X418991Y436771D01*
X419060Y436699D01*
X419126Y436625D01*
X419190Y436547D01*
X419250Y436468D01*
X419307Y436386D01*
X419361Y436302D01*
X419411Y436216D01*
X419458Y436128D01*
X419502Y436038D01*
X419542Y435947D01*
X419578Y435854D01*
X419611Y435760D01*
X419640Y435664D01*
X419665Y435568D01*
X419686Y435471D01*
X419704Y435372D01*
X419717Y435274D01*
X419727Y435174D01*
X419733Y435075D01*
X419735Y434975D01*
X419735Y433705D01*
X419735Y443495D02*
X408305Y443495D01*
X408305Y446670D01*
X408307Y446781D01*
X408313Y446891D01*
X408322Y447002D01*
X408336Y447112D01*
X408353Y447221D01*
X408374Y447330D01*
X408399Y447438D01*
X408428Y447545D01*
X408460Y447651D01*
X408496Y447756D01*
X408536Y447859D01*
X408579Y447961D01*
X408626Y448062D01*
X408677Y448161D01*
X408730Y448258D01*
X408787Y448352D01*
X408848Y448445D01*
X408911Y448536D01*
X408978Y448625D01*
X409048Y448711D01*
X409121Y448794D01*
X409196Y448876D01*
X409274Y448954D01*
X409356Y449029D01*
X409439Y449102D01*
X409525Y449172D01*
X409614Y449239D01*
X409705Y449302D01*
X409798Y449363D01*
X409893Y449420D01*
X409989Y449473D01*
X410088Y449524D01*
X410189Y449571D01*
X410291Y449614D01*
X410394Y449654D01*
X410499Y449690D01*
X410605Y449722D01*
X410712Y449751D01*
X410820Y449776D01*
X410929Y449797D01*
X411038Y449814D01*
X411148Y449828D01*
X411259Y449837D01*
X411369Y449843D01*
X411480Y449845D01*
X411591Y449843D01*
X411701Y449837D01*
X411812Y449828D01*
X411922Y449814D01*
X412031Y449797D01*
X412140Y449776D01*
X412248Y449751D01*
X412355Y449722D01*
X412461Y449690D01*
X412566Y449654D01*
X412669Y449614D01*
X412771Y449571D01*
X412872Y449524D01*
X412971Y449473D01*
X413068Y449420D01*
X413162Y449363D01*
X413255Y449302D01*
X413346Y449239D01*
X413435Y449172D01*
X413521Y449102D01*
X413604Y449029D01*
X413686Y448954D01*
X413764Y448876D01*
X413839Y448794D01*
X413912Y448711D01*
X413982Y448625D01*
X414049Y448536D01*
X414112Y448445D01*
X414173Y448352D01*
X414230Y448258D01*
X414283Y448161D01*
X414334Y448062D01*
X414381Y447961D01*
X414424Y447859D01*
X414464Y447756D01*
X414500Y447651D01*
X414532Y447545D01*
X414561Y447438D01*
X414586Y447330D01*
X414607Y447221D01*
X414624Y447112D01*
X414638Y447002D01*
X414647Y446891D01*
X414653Y446781D01*
X414655Y446670D01*
X414655Y443495D01*
X410845Y454354D02*
X408305Y457529D01*
X419735Y457529D01*
X419735Y454354D02*
X419735Y460704D01*
D123*
X391908Y275971D02*
X389819Y275971D01*
X389730Y275973D01*
X389642Y275979D01*
X389554Y275988D01*
X389466Y276001D01*
X389379Y276018D01*
X389293Y276038D01*
X389208Y276063D01*
X389123Y276090D01*
X389040Y276122D01*
X388959Y276156D01*
X388879Y276195D01*
X388801Y276236D01*
X388724Y276281D01*
X388650Y276329D01*
X388577Y276380D01*
X388507Y276434D01*
X388440Y276492D01*
X388374Y276552D01*
X388312Y276614D01*
X388252Y276680D01*
X388194Y276747D01*
X388140Y276817D01*
X388089Y276890D01*
X388041Y276964D01*
X387996Y277041D01*
X387955Y277119D01*
X387916Y277199D01*
X387882Y277280D01*
X387850Y277363D01*
X387823Y277448D01*
X387798Y277533D01*
X387778Y277619D01*
X387761Y277706D01*
X387748Y277794D01*
X387739Y277882D01*
X387733Y277970D01*
X387731Y278059D01*
X387731Y283281D01*
X387733Y283372D01*
X387739Y283463D01*
X387749Y283554D01*
X387763Y283644D01*
X387780Y283733D01*
X387802Y283821D01*
X387828Y283909D01*
X387857Y283995D01*
X387890Y284080D01*
X387927Y284163D01*
X387967Y284245D01*
X388011Y284325D01*
X388058Y284403D01*
X388109Y284479D01*
X388162Y284552D01*
X388219Y284623D01*
X388280Y284692D01*
X388343Y284757D01*
X388408Y284820D01*
X388477Y284880D01*
X388548Y284938D01*
X388621Y284991D01*
X388697Y285042D01*
X388775Y285089D01*
X388855Y285133D01*
X388937Y285173D01*
X389020Y285210D01*
X389105Y285243D01*
X389191Y285272D01*
X389279Y285298D01*
X389367Y285320D01*
X389456Y285337D01*
X389546Y285351D01*
X389637Y285361D01*
X389728Y285367D01*
X389819Y285369D01*
X391908Y285369D01*
X395377Y283281D02*
X397987Y285369D01*
X397987Y275971D01*
X395377Y275971D02*
X400598Y275971D01*
X404521Y281192D02*
X407653Y281192D01*
X407742Y281190D01*
X407830Y281184D01*
X407918Y281175D01*
X408006Y281162D01*
X408093Y281145D01*
X408179Y281125D01*
X408264Y281100D01*
X408349Y281073D01*
X408432Y281041D01*
X408513Y281007D01*
X408593Y280968D01*
X408671Y280927D01*
X408748Y280882D01*
X408822Y280834D01*
X408895Y280783D01*
X408965Y280729D01*
X409032Y280671D01*
X409098Y280611D01*
X409160Y280549D01*
X409220Y280483D01*
X409278Y280416D01*
X409332Y280346D01*
X409383Y280273D01*
X409431Y280199D01*
X409476Y280122D01*
X409517Y280044D01*
X409556Y279964D01*
X409590Y279883D01*
X409622Y279800D01*
X409649Y279715D01*
X409674Y279630D01*
X409694Y279544D01*
X409711Y279457D01*
X409724Y279369D01*
X409733Y279281D01*
X409739Y279193D01*
X409741Y279104D01*
X409742Y279104D02*
X409742Y278582D01*
X409740Y278481D01*
X409734Y278380D01*
X409724Y278279D01*
X409711Y278179D01*
X409693Y278079D01*
X409672Y277980D01*
X409646Y277882D01*
X409617Y277785D01*
X409585Y277689D01*
X409548Y277595D01*
X409508Y277502D01*
X409464Y277410D01*
X409417Y277321D01*
X409366Y277233D01*
X409312Y277147D01*
X409255Y277064D01*
X409195Y276982D01*
X409131Y276904D01*
X409065Y276827D01*
X408995Y276754D01*
X408923Y276683D01*
X408848Y276615D01*
X408770Y276550D01*
X408690Y276488D01*
X408608Y276429D01*
X408523Y276373D01*
X408436Y276321D01*
X408348Y276272D01*
X408257Y276226D01*
X408165Y276185D01*
X408071Y276146D01*
X407976Y276112D01*
X407880Y276081D01*
X407782Y276054D01*
X407684Y276030D01*
X407584Y276011D01*
X407484Y275995D01*
X407384Y275983D01*
X407283Y275975D01*
X407182Y275971D01*
X407080Y275971D01*
X406979Y275975D01*
X406878Y275983D01*
X406778Y275995D01*
X406678Y276011D01*
X406578Y276030D01*
X406480Y276054D01*
X406382Y276081D01*
X406286Y276112D01*
X406191Y276146D01*
X406097Y276185D01*
X406005Y276226D01*
X405914Y276272D01*
X405826Y276321D01*
X405739Y276373D01*
X405654Y276429D01*
X405572Y276488D01*
X405492Y276550D01*
X405414Y276615D01*
X405339Y276683D01*
X405267Y276754D01*
X405197Y276827D01*
X405131Y276904D01*
X405067Y276982D01*
X405007Y277064D01*
X404950Y277147D01*
X404896Y277233D01*
X404845Y277321D01*
X404798Y277410D01*
X404754Y277502D01*
X404714Y277595D01*
X404677Y277689D01*
X404645Y277785D01*
X404616Y277882D01*
X404590Y277980D01*
X404569Y278079D01*
X404551Y278179D01*
X404538Y278279D01*
X404528Y278380D01*
X404522Y278481D01*
X404520Y278582D01*
X404521Y278582D02*
X404521Y281192D01*
X404523Y281321D01*
X404529Y281449D01*
X404539Y281577D01*
X404553Y281705D01*
X404570Y281833D01*
X404592Y281960D01*
X404618Y282086D01*
X404647Y282211D01*
X404680Y282335D01*
X404718Y282458D01*
X404758Y282580D01*
X404803Y282701D01*
X404851Y282820D01*
X404903Y282938D01*
X404959Y283054D01*
X405018Y283168D01*
X405081Y283280D01*
X405147Y283391D01*
X405216Y283499D01*
X405289Y283605D01*
X405365Y283709D01*
X405444Y283811D01*
X405526Y283910D01*
X405611Y284006D01*
X405699Y284100D01*
X405790Y284191D01*
X405884Y284279D01*
X405980Y284364D01*
X406079Y284446D01*
X406181Y284525D01*
X406285Y284601D01*
X406391Y284674D01*
X406499Y284743D01*
X406609Y284809D01*
X406722Y284872D01*
X406836Y284931D01*
X406952Y284987D01*
X407070Y285039D01*
X407189Y285087D01*
X407310Y285132D01*
X407432Y285172D01*
X407555Y285210D01*
X407679Y285243D01*
X407804Y285272D01*
X407930Y285298D01*
X408057Y285320D01*
X408185Y285337D01*
X408313Y285351D01*
X408441Y285361D01*
X408569Y285367D01*
X408698Y285369D01*
X419989Y366959D02*
X419989Y369048D01*
X419989Y366959D02*
X419987Y366870D01*
X419981Y366782D01*
X419972Y366694D01*
X419959Y366606D01*
X419942Y366519D01*
X419922Y366433D01*
X419897Y366348D01*
X419870Y366263D01*
X419838Y366180D01*
X419804Y366099D01*
X419765Y366019D01*
X419724Y365941D01*
X419679Y365864D01*
X419631Y365790D01*
X419580Y365717D01*
X419526Y365647D01*
X419468Y365580D01*
X419408Y365514D01*
X419346Y365452D01*
X419280Y365392D01*
X419213Y365334D01*
X419143Y365280D01*
X419070Y365229D01*
X418996Y365181D01*
X418919Y365136D01*
X418841Y365095D01*
X418761Y365056D01*
X418680Y365022D01*
X418597Y364990D01*
X418512Y364963D01*
X418427Y364938D01*
X418341Y364918D01*
X418254Y364901D01*
X418166Y364888D01*
X418078Y364879D01*
X417990Y364873D01*
X417901Y364871D01*
X412679Y364871D01*
X412588Y364873D01*
X412497Y364879D01*
X412406Y364889D01*
X412316Y364903D01*
X412227Y364921D01*
X412138Y364942D01*
X412051Y364968D01*
X411965Y364997D01*
X411880Y365030D01*
X411796Y365067D01*
X411714Y365107D01*
X411635Y365151D01*
X411557Y365198D01*
X411481Y365249D01*
X411407Y365303D01*
X411336Y365360D01*
X411268Y365420D01*
X411202Y365483D01*
X411139Y365549D01*
X411079Y365617D01*
X411022Y365688D01*
X410968Y365762D01*
X410917Y365838D01*
X410870Y365915D01*
X410826Y365995D01*
X410786Y366077D01*
X410749Y366161D01*
X410716Y366245D01*
X410687Y366332D01*
X410661Y366419D01*
X410640Y366508D01*
X410622Y366597D01*
X410608Y366687D01*
X410598Y366778D01*
X410592Y366869D01*
X410590Y366960D01*
X410591Y366959D02*
X410591Y369048D01*
X412679Y372517D02*
X410591Y375127D01*
X419989Y375127D01*
X419989Y372517D02*
X419989Y377738D01*
X417901Y381661D02*
X410591Y383749D01*
X417901Y381661D02*
X417901Y386882D01*
X419989Y385315D02*
X415812Y385315D01*
X421259Y306818D02*
X421259Y304729D01*
X421257Y304640D01*
X421251Y304552D01*
X421242Y304464D01*
X421229Y304376D01*
X421212Y304289D01*
X421192Y304203D01*
X421167Y304118D01*
X421140Y304033D01*
X421108Y303950D01*
X421074Y303869D01*
X421035Y303789D01*
X420994Y303711D01*
X420949Y303634D01*
X420901Y303560D01*
X420850Y303487D01*
X420796Y303417D01*
X420738Y303350D01*
X420678Y303284D01*
X420616Y303222D01*
X420550Y303162D01*
X420483Y303104D01*
X420413Y303050D01*
X420340Y302999D01*
X420266Y302951D01*
X420189Y302906D01*
X420111Y302865D01*
X420031Y302826D01*
X419950Y302792D01*
X419867Y302760D01*
X419782Y302733D01*
X419697Y302708D01*
X419611Y302688D01*
X419524Y302671D01*
X419436Y302658D01*
X419348Y302649D01*
X419260Y302643D01*
X419171Y302641D01*
X413949Y302641D01*
X413858Y302643D01*
X413767Y302649D01*
X413676Y302659D01*
X413586Y302673D01*
X413497Y302691D01*
X413408Y302712D01*
X413321Y302738D01*
X413235Y302767D01*
X413150Y302800D01*
X413066Y302837D01*
X412984Y302877D01*
X412905Y302921D01*
X412827Y302968D01*
X412751Y303019D01*
X412677Y303073D01*
X412606Y303130D01*
X412538Y303190D01*
X412472Y303253D01*
X412409Y303319D01*
X412349Y303387D01*
X412292Y303458D01*
X412238Y303532D01*
X412187Y303608D01*
X412140Y303685D01*
X412096Y303765D01*
X412056Y303847D01*
X412019Y303931D01*
X411986Y304015D01*
X411957Y304102D01*
X411931Y304189D01*
X411910Y304278D01*
X411892Y304367D01*
X411878Y304457D01*
X411868Y304548D01*
X411862Y304639D01*
X411860Y304730D01*
X411861Y304729D02*
X411861Y306818D01*
X413949Y310287D02*
X411861Y312897D01*
X421259Y312897D01*
X421259Y310287D02*
X421259Y315508D01*
X414211Y324652D02*
X414116Y324650D01*
X414022Y324644D01*
X413928Y324635D01*
X413834Y324622D01*
X413741Y324605D01*
X413649Y324584D01*
X413557Y324559D01*
X413467Y324531D01*
X413378Y324499D01*
X413290Y324464D01*
X413204Y324425D01*
X413119Y324383D01*
X413036Y324337D01*
X412955Y324288D01*
X412876Y324236D01*
X412799Y324181D01*
X412725Y324122D01*
X412653Y324061D01*
X412583Y323997D01*
X412516Y323930D01*
X412452Y323860D01*
X412391Y323788D01*
X412332Y323714D01*
X412277Y323637D01*
X412225Y323558D01*
X412176Y323477D01*
X412130Y323394D01*
X412088Y323309D01*
X412049Y323223D01*
X412014Y323135D01*
X411982Y323046D01*
X411954Y322956D01*
X411929Y322864D01*
X411908Y322772D01*
X411891Y322679D01*
X411878Y322585D01*
X411869Y322491D01*
X411863Y322397D01*
X411861Y322302D01*
X411863Y322194D01*
X411869Y322085D01*
X411879Y321977D01*
X411892Y321870D01*
X411910Y321763D01*
X411931Y321656D01*
X411956Y321551D01*
X411985Y321446D01*
X412017Y321343D01*
X412054Y321241D01*
X412094Y321140D01*
X412137Y321041D01*
X412184Y320943D01*
X412235Y320847D01*
X412289Y320753D01*
X412346Y320661D01*
X412407Y320571D01*
X412471Y320483D01*
X412537Y320398D01*
X412607Y320315D01*
X412680Y320235D01*
X412756Y320157D01*
X412834Y320082D01*
X412915Y320010D01*
X412999Y319941D01*
X413085Y319875D01*
X413173Y319812D01*
X413264Y319753D01*
X413356Y319696D01*
X413451Y319643D01*
X413548Y319594D01*
X413646Y319548D01*
X413745Y319505D01*
X413847Y319466D01*
X413949Y319431D01*
X416039Y323869D02*
X415970Y323938D01*
X415899Y324004D01*
X415826Y324068D01*
X415750Y324129D01*
X415671Y324187D01*
X415591Y324241D01*
X415508Y324293D01*
X415424Y324341D01*
X415338Y324387D01*
X415250Y324428D01*
X415160Y324467D01*
X415069Y324502D01*
X414977Y324533D01*
X414884Y324561D01*
X414790Y324585D01*
X414695Y324605D01*
X414599Y324622D01*
X414502Y324635D01*
X414405Y324644D01*
X414308Y324650D01*
X414211Y324652D01*
X416038Y323869D02*
X421259Y319431D01*
X421259Y324652D01*
X419989Y333939D02*
X419989Y336028D01*
X419989Y333939D02*
X419987Y333850D01*
X419981Y333762D01*
X419972Y333674D01*
X419959Y333586D01*
X419942Y333499D01*
X419922Y333413D01*
X419897Y333328D01*
X419870Y333243D01*
X419838Y333160D01*
X419804Y333079D01*
X419765Y332999D01*
X419724Y332921D01*
X419679Y332844D01*
X419631Y332770D01*
X419580Y332697D01*
X419526Y332627D01*
X419468Y332560D01*
X419408Y332494D01*
X419346Y332432D01*
X419280Y332372D01*
X419213Y332314D01*
X419143Y332260D01*
X419070Y332209D01*
X418996Y332161D01*
X418919Y332116D01*
X418841Y332075D01*
X418761Y332036D01*
X418680Y332002D01*
X418597Y331970D01*
X418512Y331943D01*
X418427Y331918D01*
X418341Y331898D01*
X418254Y331881D01*
X418166Y331868D01*
X418078Y331859D01*
X417990Y331853D01*
X417901Y331851D01*
X412679Y331851D01*
X412588Y331853D01*
X412497Y331859D01*
X412406Y331869D01*
X412316Y331883D01*
X412227Y331901D01*
X412138Y331922D01*
X412051Y331948D01*
X411965Y331977D01*
X411880Y332010D01*
X411796Y332047D01*
X411714Y332087D01*
X411635Y332131D01*
X411557Y332178D01*
X411481Y332229D01*
X411407Y332283D01*
X411336Y332340D01*
X411268Y332400D01*
X411202Y332463D01*
X411139Y332529D01*
X411079Y332597D01*
X411022Y332668D01*
X410968Y332742D01*
X410917Y332818D01*
X410870Y332895D01*
X410826Y332975D01*
X410786Y333057D01*
X410749Y333141D01*
X410716Y333225D01*
X410687Y333312D01*
X410661Y333399D01*
X410640Y333488D01*
X410622Y333577D01*
X410608Y333667D01*
X410598Y333758D01*
X410592Y333849D01*
X410590Y333940D01*
X410591Y333939D02*
X410591Y336028D01*
X412679Y339497D02*
X410591Y342107D01*
X419989Y342107D01*
X419989Y339497D02*
X419989Y344718D01*
X419989Y348641D02*
X419989Y351251D01*
X419987Y351352D01*
X419981Y351453D01*
X419971Y351554D01*
X419958Y351654D01*
X419940Y351754D01*
X419919Y351853D01*
X419893Y351951D01*
X419864Y352048D01*
X419832Y352144D01*
X419795Y352238D01*
X419755Y352331D01*
X419711Y352423D01*
X419664Y352512D01*
X419613Y352600D01*
X419559Y352686D01*
X419502Y352769D01*
X419442Y352851D01*
X419378Y352929D01*
X419312Y353006D01*
X419242Y353079D01*
X419170Y353150D01*
X419095Y353218D01*
X419017Y353283D01*
X418937Y353345D01*
X418855Y353404D01*
X418770Y353460D01*
X418684Y353512D01*
X418595Y353561D01*
X418504Y353607D01*
X418412Y353648D01*
X418318Y353687D01*
X418223Y353721D01*
X418127Y353752D01*
X418029Y353779D01*
X417931Y353803D01*
X417831Y353822D01*
X417731Y353838D01*
X417631Y353850D01*
X417530Y353858D01*
X417429Y353862D01*
X417327Y353862D01*
X417226Y353858D01*
X417125Y353850D01*
X417025Y353838D01*
X416925Y353822D01*
X416825Y353803D01*
X416727Y353779D01*
X416629Y353752D01*
X416533Y353721D01*
X416438Y353687D01*
X416344Y353648D01*
X416252Y353607D01*
X416161Y353561D01*
X416073Y353512D01*
X415986Y353460D01*
X415901Y353404D01*
X415819Y353345D01*
X415739Y353283D01*
X415661Y353218D01*
X415586Y353150D01*
X415514Y353079D01*
X415444Y353006D01*
X415378Y352929D01*
X415314Y352851D01*
X415254Y352769D01*
X415197Y352686D01*
X415143Y352600D01*
X415092Y352512D01*
X415045Y352423D01*
X415001Y352331D01*
X414961Y352238D01*
X414924Y352144D01*
X414892Y352048D01*
X414863Y351951D01*
X414837Y351853D01*
X414816Y351754D01*
X414798Y351654D01*
X414785Y351554D01*
X414775Y351453D01*
X414769Y351352D01*
X414767Y351251D01*
X410591Y351773D02*
X410591Y348641D01*
X410591Y351773D02*
X410593Y351863D01*
X410599Y351952D01*
X410608Y352042D01*
X410622Y352131D01*
X410639Y352219D01*
X410660Y352306D01*
X410685Y352393D01*
X410714Y352478D01*
X410746Y352562D01*
X410781Y352644D01*
X410821Y352725D01*
X410863Y352804D01*
X410909Y352881D01*
X410959Y352956D01*
X411011Y353029D01*
X411067Y353100D01*
X411125Y353168D01*
X411187Y353233D01*
X411251Y353296D01*
X411318Y353356D01*
X411387Y353413D01*
X411459Y353467D01*
X411533Y353518D01*
X411609Y353566D01*
X411687Y353610D01*
X411767Y353651D01*
X411849Y353689D01*
X411932Y353723D01*
X412017Y353753D01*
X412103Y353780D01*
X412189Y353803D01*
X412277Y353822D01*
X412366Y353837D01*
X412455Y353849D01*
X412544Y353857D01*
X412634Y353861D01*
X412724Y353861D01*
X412814Y353857D01*
X412903Y353849D01*
X412992Y353837D01*
X413081Y353822D01*
X413169Y353803D01*
X413255Y353780D01*
X413341Y353753D01*
X413426Y353723D01*
X413509Y353689D01*
X413591Y353651D01*
X413671Y353610D01*
X413749Y353566D01*
X413825Y353518D01*
X413899Y353467D01*
X413971Y353413D01*
X414040Y353356D01*
X414107Y353296D01*
X414171Y353233D01*
X414233Y353168D01*
X414291Y353100D01*
X414347Y353029D01*
X414399Y352956D01*
X414449Y352881D01*
X414495Y352804D01*
X414537Y352725D01*
X414577Y352644D01*
X414612Y352562D01*
X414644Y352478D01*
X414673Y352393D01*
X414698Y352306D01*
X414719Y352219D01*
X414736Y352131D01*
X414750Y352042D01*
X414759Y351952D01*
X414765Y351863D01*
X414767Y351773D01*
X414768Y351773D02*
X414768Y349685D01*
M02*
