G04 EAGLE Gerber RS-274X export*
G75*
%MOMM*%
%FSLAX34Y34*%
%LPD*%
%IN*%
%IPPOS*%
%AMOC8*
5,1,8,0,0,1.08239X$1,22.5*%
G01*
%ADD10C,0.254000*%


D10*
X5870Y152400D02*
X92470Y2400D01*
X265670Y2400D01*
X352270Y152400D01*
X352270Y302400D01*
X5870Y302400D01*
X5870Y152400D01*
X102670Y113809D02*
X102593Y112830D01*
X102439Y111860D01*
X102210Y110904D01*
X101906Y109970D01*
X101531Y109063D01*
X101085Y108188D01*
X100571Y107350D01*
X99994Y106555D01*
X99356Y105808D01*
X98662Y105114D01*
X97915Y104476D01*
X97120Y103899D01*
X96282Y103385D01*
X95407Y102939D01*
X94500Y102564D01*
X93566Y102260D01*
X92611Y102031D01*
X91640Y101877D01*
X90661Y101800D01*
X89679Y101800D01*
X88700Y101877D01*
X87730Y102031D01*
X86774Y102260D01*
X85840Y102564D01*
X84933Y102939D01*
X84058Y103385D01*
X83220Y103899D01*
X82425Y104476D01*
X81678Y105114D01*
X80984Y105808D01*
X80346Y106555D01*
X79769Y107350D01*
X79255Y108188D01*
X78809Y109063D01*
X78434Y109970D01*
X78130Y110904D01*
X77901Y111860D01*
X77747Y112830D01*
X77670Y113809D01*
X77670Y114791D01*
X77747Y115770D01*
X77901Y116741D01*
X78130Y117696D01*
X78434Y118630D01*
X78809Y119537D01*
X79255Y120412D01*
X79769Y121250D01*
X80346Y122045D01*
X80984Y122792D01*
X81678Y123486D01*
X82425Y124124D01*
X83220Y124701D01*
X84058Y125215D01*
X84933Y125661D01*
X85840Y126036D01*
X86774Y126340D01*
X87730Y126569D01*
X88700Y126723D01*
X89679Y126800D01*
X90661Y126800D01*
X91640Y126723D01*
X92611Y126569D01*
X93566Y126340D01*
X94500Y126036D01*
X95407Y125661D01*
X96282Y125215D01*
X97120Y124701D01*
X97915Y124124D01*
X98662Y123486D01*
X99356Y122792D01*
X99994Y122045D01*
X100571Y121250D01*
X101085Y120412D01*
X101531Y119537D01*
X101906Y118630D01*
X102210Y117696D01*
X102439Y116741D01*
X102593Y115770D01*
X102670Y114791D01*
X102670Y113809D01*
X280470Y113809D02*
X280393Y112830D01*
X280239Y111860D01*
X280010Y110904D01*
X279706Y109970D01*
X279331Y109063D01*
X278885Y108188D01*
X278371Y107350D01*
X277794Y106555D01*
X277156Y105808D01*
X276462Y105114D01*
X275715Y104476D01*
X274920Y103899D01*
X274082Y103385D01*
X273207Y102939D01*
X272300Y102564D01*
X271366Y102260D01*
X270411Y102031D01*
X269440Y101877D01*
X268461Y101800D01*
X267479Y101800D01*
X266500Y101877D01*
X265530Y102031D01*
X264574Y102260D01*
X263640Y102564D01*
X262733Y102939D01*
X261858Y103385D01*
X261020Y103899D01*
X260225Y104476D01*
X259478Y105114D01*
X258784Y105808D01*
X258146Y106555D01*
X257569Y107350D01*
X257055Y108188D01*
X256609Y109063D01*
X256234Y109970D01*
X255930Y110904D01*
X255701Y111860D01*
X255547Y112830D01*
X255470Y113809D01*
X255470Y114791D01*
X255547Y115770D01*
X255701Y116741D01*
X255930Y117696D01*
X256234Y118630D01*
X256609Y119537D01*
X257055Y120412D01*
X257569Y121250D01*
X258146Y122045D01*
X258784Y122792D01*
X259478Y123486D01*
X260225Y124124D01*
X261020Y124701D01*
X261858Y125215D01*
X262733Y125661D01*
X263640Y126036D01*
X264574Y126340D01*
X265530Y126569D01*
X266500Y126723D01*
X267479Y126800D01*
X268461Y126800D01*
X269440Y126723D01*
X270411Y126569D01*
X271366Y126340D01*
X272300Y126036D01*
X273207Y125661D01*
X274082Y125215D01*
X274920Y124701D01*
X275715Y124124D01*
X276462Y123486D01*
X277156Y122792D01*
X277794Y122045D01*
X278371Y121250D01*
X278885Y120412D01*
X279331Y119537D01*
X279706Y118630D01*
X280010Y117696D01*
X280239Y116741D01*
X280393Y115770D01*
X280470Y114791D01*
X280470Y113809D01*
M02*
