G04 EAGLE Gerber RS-274X export*
G75*
%MOMM*%
%FSLAX34Y34*%
%LPD*%
%INSilkscreen Bottom*%
%IPPOS*%
%AMOC8*
5,1,8,0,0,1.08239X$1,22.5*%
G01*
%ADD10C,0.152400*%
%ADD11C,0.127000*%
%ADD12C,0.203200*%


D10*
X120142Y127820D02*
X136398Y127820D01*
X136398Y123305D02*
X136398Y132336D01*
X136398Y147828D02*
X120142Y136991D01*
X120142Y147828D02*
X136398Y136991D01*
X170942Y122354D02*
X187198Y122354D01*
X187198Y126870D01*
X187196Y127003D01*
X187190Y127135D01*
X187180Y127267D01*
X187167Y127399D01*
X187149Y127531D01*
X187128Y127661D01*
X187103Y127792D01*
X187074Y127921D01*
X187041Y128049D01*
X187005Y128177D01*
X186965Y128303D01*
X186921Y128428D01*
X186873Y128552D01*
X186822Y128674D01*
X186767Y128795D01*
X186709Y128914D01*
X186647Y129032D01*
X186582Y129147D01*
X186513Y129261D01*
X186442Y129372D01*
X186366Y129481D01*
X186288Y129588D01*
X186207Y129693D01*
X186122Y129795D01*
X186035Y129895D01*
X185945Y129992D01*
X185852Y130087D01*
X185756Y130178D01*
X185658Y130267D01*
X185557Y130353D01*
X185453Y130436D01*
X185347Y130516D01*
X185239Y130592D01*
X185129Y130666D01*
X185016Y130736D01*
X184902Y130803D01*
X184785Y130866D01*
X184667Y130926D01*
X184547Y130983D01*
X184425Y131036D01*
X184302Y131085D01*
X184178Y131131D01*
X184052Y131173D01*
X183925Y131211D01*
X183797Y131246D01*
X183668Y131277D01*
X183539Y131304D01*
X183408Y131327D01*
X183277Y131347D01*
X183145Y131362D01*
X183013Y131374D01*
X182881Y131382D01*
X182748Y131386D01*
X182616Y131386D01*
X182483Y131382D01*
X182351Y131374D01*
X182219Y131362D01*
X182087Y131347D01*
X181956Y131327D01*
X181825Y131304D01*
X181696Y131277D01*
X181567Y131246D01*
X181439Y131211D01*
X181312Y131173D01*
X181186Y131131D01*
X181062Y131085D01*
X180939Y131036D01*
X180817Y130983D01*
X180697Y130926D01*
X180579Y130866D01*
X180462Y130803D01*
X180348Y130736D01*
X180235Y130666D01*
X180125Y130592D01*
X180017Y130516D01*
X179911Y130436D01*
X179807Y130353D01*
X179706Y130267D01*
X179608Y130178D01*
X179512Y130087D01*
X179419Y129992D01*
X179329Y129895D01*
X179242Y129795D01*
X179157Y129693D01*
X179076Y129588D01*
X178998Y129481D01*
X178922Y129372D01*
X178851Y129261D01*
X178782Y129147D01*
X178717Y129032D01*
X178655Y128914D01*
X178597Y128795D01*
X178542Y128674D01*
X178491Y128552D01*
X178443Y128428D01*
X178399Y128303D01*
X178359Y128177D01*
X178323Y128049D01*
X178290Y127921D01*
X178261Y127792D01*
X178236Y127661D01*
X178215Y127531D01*
X178197Y127399D01*
X178184Y127267D01*
X178174Y127135D01*
X178168Y127003D01*
X178166Y126870D01*
X178167Y126870D02*
X178167Y122354D01*
X178167Y127773D02*
X170942Y131385D01*
X170942Y136991D02*
X187198Y147828D01*
X187198Y136991D02*
X170942Y147828D01*
X145542Y130090D02*
X145542Y126478D01*
X145544Y126360D01*
X145550Y126242D01*
X145559Y126124D01*
X145573Y126007D01*
X145590Y125890D01*
X145611Y125773D01*
X145636Y125658D01*
X145665Y125543D01*
X145698Y125429D01*
X145734Y125317D01*
X145774Y125206D01*
X145817Y125096D01*
X145864Y124987D01*
X145914Y124880D01*
X145969Y124775D01*
X146026Y124672D01*
X146087Y124571D01*
X146151Y124471D01*
X146218Y124374D01*
X146288Y124279D01*
X146362Y124187D01*
X146438Y124096D01*
X146518Y124009D01*
X146600Y123924D01*
X146685Y123842D01*
X146772Y123762D01*
X146863Y123686D01*
X146955Y123612D01*
X147050Y123542D01*
X147147Y123475D01*
X147247Y123411D01*
X147348Y123350D01*
X147451Y123293D01*
X147556Y123238D01*
X147663Y123188D01*
X147772Y123141D01*
X147882Y123098D01*
X147993Y123058D01*
X148105Y123022D01*
X148219Y122989D01*
X148334Y122960D01*
X148449Y122935D01*
X148566Y122914D01*
X148683Y122897D01*
X148800Y122883D01*
X148918Y122874D01*
X149036Y122868D01*
X149154Y122866D01*
X149154Y122865D02*
X158186Y122865D01*
X158186Y122866D02*
X158304Y122868D01*
X158422Y122874D01*
X158540Y122883D01*
X158657Y122897D01*
X158774Y122914D01*
X158891Y122935D01*
X159006Y122960D01*
X159121Y122989D01*
X159235Y123022D01*
X159347Y123058D01*
X159458Y123098D01*
X159568Y123141D01*
X159677Y123188D01*
X159784Y123238D01*
X159889Y123292D01*
X159992Y123350D01*
X160093Y123411D01*
X160193Y123475D01*
X160290Y123542D01*
X160385Y123612D01*
X160477Y123686D01*
X160568Y123762D01*
X160655Y123842D01*
X160740Y123924D01*
X160822Y124009D01*
X160902Y124096D01*
X160978Y124187D01*
X161052Y124279D01*
X161122Y124374D01*
X161189Y124471D01*
X161253Y124571D01*
X161314Y124672D01*
X161371Y124775D01*
X161425Y124880D01*
X161476Y124987D01*
X161523Y125096D01*
X161566Y125206D01*
X161606Y125317D01*
X161642Y125429D01*
X161675Y125543D01*
X161704Y125658D01*
X161729Y125773D01*
X161750Y125890D01*
X161767Y126007D01*
X161781Y126124D01*
X161790Y126242D01*
X161796Y126360D01*
X161798Y126478D01*
X161798Y130090D01*
X161798Y139404D02*
X145542Y139404D01*
X161798Y134889D02*
X161798Y143920D01*
X149154Y157988D02*
X149036Y157986D01*
X148918Y157980D01*
X148800Y157971D01*
X148683Y157957D01*
X148566Y157940D01*
X148449Y157919D01*
X148334Y157894D01*
X148219Y157865D01*
X148105Y157832D01*
X147993Y157796D01*
X147882Y157756D01*
X147772Y157713D01*
X147663Y157666D01*
X147556Y157616D01*
X147451Y157561D01*
X147348Y157504D01*
X147247Y157443D01*
X147147Y157379D01*
X147050Y157312D01*
X146955Y157242D01*
X146863Y157168D01*
X146772Y157092D01*
X146685Y157012D01*
X146600Y156930D01*
X146518Y156845D01*
X146438Y156758D01*
X146362Y156667D01*
X146288Y156575D01*
X146218Y156480D01*
X146151Y156383D01*
X146087Y156283D01*
X146026Y156182D01*
X145969Y156079D01*
X145914Y155974D01*
X145864Y155867D01*
X145817Y155758D01*
X145774Y155648D01*
X145734Y155537D01*
X145698Y155425D01*
X145665Y155311D01*
X145636Y155196D01*
X145611Y155081D01*
X145590Y154964D01*
X145573Y154847D01*
X145559Y154730D01*
X145550Y154612D01*
X145544Y154494D01*
X145542Y154376D01*
X145544Y154193D01*
X145551Y154011D01*
X145562Y153829D01*
X145577Y153647D01*
X145597Y153465D01*
X145620Y153284D01*
X145649Y153104D01*
X145681Y152924D01*
X145718Y152745D01*
X145759Y152568D01*
X145805Y152391D01*
X145854Y152215D01*
X145908Y152041D01*
X145966Y151867D01*
X146028Y151696D01*
X146094Y151526D01*
X146165Y151357D01*
X146239Y151190D01*
X146317Y151025D01*
X146399Y150862D01*
X146485Y150701D01*
X146575Y150542D01*
X146669Y150385D01*
X146766Y150231D01*
X146867Y150079D01*
X146972Y149929D01*
X147080Y149782D01*
X147191Y149638D01*
X147306Y149496D01*
X147425Y149357D01*
X147547Y149221D01*
X147672Y149088D01*
X147800Y148958D01*
X158186Y149409D02*
X158304Y149411D01*
X158422Y149417D01*
X158540Y149426D01*
X158657Y149440D01*
X158774Y149457D01*
X158891Y149478D01*
X159006Y149503D01*
X159121Y149532D01*
X159235Y149565D01*
X159347Y149601D01*
X159458Y149641D01*
X159568Y149684D01*
X159677Y149731D01*
X159784Y149781D01*
X159889Y149836D01*
X159992Y149893D01*
X160093Y149954D01*
X160193Y150018D01*
X160290Y150085D01*
X160385Y150155D01*
X160477Y150229D01*
X160568Y150305D01*
X160655Y150385D01*
X160740Y150467D01*
X160822Y150552D01*
X160902Y150639D01*
X160978Y150730D01*
X161052Y150822D01*
X161122Y150917D01*
X161189Y151014D01*
X161253Y151114D01*
X161314Y151215D01*
X161372Y151318D01*
X161426Y151423D01*
X161476Y151530D01*
X161523Y151639D01*
X161567Y151749D01*
X161606Y151860D01*
X161642Y151973D01*
X161675Y152086D01*
X161704Y152201D01*
X161729Y152316D01*
X161750Y152433D01*
X161767Y152550D01*
X161781Y152667D01*
X161790Y152785D01*
X161796Y152903D01*
X161798Y153021D01*
X161796Y153182D01*
X161790Y153344D01*
X161781Y153505D01*
X161767Y153666D01*
X161750Y153826D01*
X161729Y153986D01*
X161704Y154146D01*
X161675Y154305D01*
X161643Y154463D01*
X161607Y154620D01*
X161567Y154776D01*
X161523Y154932D01*
X161475Y155086D01*
X161424Y155239D01*
X161370Y155391D01*
X161311Y155542D01*
X161250Y155691D01*
X161184Y155838D01*
X161115Y155984D01*
X161043Y156129D01*
X160967Y156271D01*
X160888Y156412D01*
X160806Y156551D01*
X160720Y156687D01*
X160631Y156822D01*
X160539Y156955D01*
X160443Y157085D01*
X155025Y151214D02*
X155087Y151113D01*
X155152Y151013D01*
X155221Y150916D01*
X155293Y150821D01*
X155367Y150728D01*
X155445Y150638D01*
X155526Y150550D01*
X155609Y150465D01*
X155695Y150383D01*
X155784Y150304D01*
X155875Y150227D01*
X155969Y150154D01*
X156065Y150083D01*
X156163Y150016D01*
X156263Y149952D01*
X156366Y149891D01*
X156470Y149834D01*
X156576Y149780D01*
X156684Y149730D01*
X156793Y149683D01*
X156904Y149639D01*
X157016Y149599D01*
X157130Y149563D01*
X157244Y149531D01*
X157360Y149502D01*
X157476Y149477D01*
X157593Y149456D01*
X157711Y149439D01*
X157829Y149425D01*
X157948Y149416D01*
X158067Y149410D01*
X158186Y149408D01*
X152315Y156182D02*
X152253Y156283D01*
X152188Y156383D01*
X152119Y156480D01*
X152047Y156575D01*
X151973Y156668D01*
X151895Y156758D01*
X151814Y156846D01*
X151731Y156931D01*
X151645Y157013D01*
X151556Y157092D01*
X151465Y157169D01*
X151371Y157242D01*
X151275Y157313D01*
X151177Y157380D01*
X151077Y157444D01*
X150974Y157505D01*
X150870Y157562D01*
X150764Y157616D01*
X150656Y157666D01*
X150547Y157713D01*
X150436Y157757D01*
X150324Y157797D01*
X150210Y157833D01*
X150096Y157865D01*
X149980Y157894D01*
X149864Y157919D01*
X149747Y157940D01*
X149629Y157957D01*
X149511Y157971D01*
X149392Y157980D01*
X149273Y157986D01*
X149154Y157988D01*
X152315Y156182D02*
X155025Y151215D01*
X196342Y121661D02*
X212598Y121661D01*
X212598Y126177D01*
X212596Y126310D01*
X212590Y126442D01*
X212580Y126574D01*
X212567Y126706D01*
X212549Y126838D01*
X212528Y126968D01*
X212503Y127099D01*
X212474Y127228D01*
X212441Y127356D01*
X212405Y127484D01*
X212365Y127610D01*
X212321Y127735D01*
X212273Y127859D01*
X212222Y127981D01*
X212167Y128102D01*
X212109Y128221D01*
X212047Y128339D01*
X211982Y128454D01*
X211913Y128568D01*
X211842Y128679D01*
X211766Y128788D01*
X211688Y128895D01*
X211607Y129000D01*
X211522Y129102D01*
X211435Y129202D01*
X211345Y129299D01*
X211252Y129394D01*
X211156Y129485D01*
X211058Y129574D01*
X210957Y129660D01*
X210853Y129743D01*
X210747Y129823D01*
X210639Y129899D01*
X210529Y129973D01*
X210416Y130043D01*
X210302Y130110D01*
X210185Y130173D01*
X210067Y130233D01*
X209947Y130290D01*
X209825Y130343D01*
X209702Y130392D01*
X209578Y130438D01*
X209452Y130480D01*
X209325Y130518D01*
X209197Y130553D01*
X209068Y130584D01*
X208939Y130611D01*
X208808Y130634D01*
X208677Y130654D01*
X208545Y130669D01*
X208413Y130681D01*
X208281Y130689D01*
X208148Y130693D01*
X208016Y130693D01*
X207883Y130689D01*
X207751Y130681D01*
X207619Y130669D01*
X207487Y130654D01*
X207356Y130634D01*
X207225Y130611D01*
X207096Y130584D01*
X206967Y130553D01*
X206839Y130518D01*
X206712Y130480D01*
X206586Y130438D01*
X206462Y130392D01*
X206339Y130343D01*
X206217Y130290D01*
X206097Y130233D01*
X205979Y130173D01*
X205862Y130110D01*
X205748Y130043D01*
X205635Y129973D01*
X205525Y129899D01*
X205417Y129823D01*
X205311Y129743D01*
X205207Y129660D01*
X205106Y129574D01*
X205008Y129485D01*
X204912Y129394D01*
X204819Y129299D01*
X204729Y129202D01*
X204642Y129102D01*
X204557Y129000D01*
X204476Y128895D01*
X204398Y128788D01*
X204322Y128679D01*
X204251Y128568D01*
X204182Y128454D01*
X204117Y128339D01*
X204055Y128221D01*
X203997Y128102D01*
X203942Y127981D01*
X203891Y127859D01*
X203843Y127735D01*
X203799Y127610D01*
X203759Y127484D01*
X203723Y127356D01*
X203690Y127228D01*
X203661Y127099D01*
X203636Y126968D01*
X203615Y126838D01*
X203597Y126706D01*
X203584Y126574D01*
X203574Y126442D01*
X203568Y126310D01*
X203566Y126177D01*
X203567Y126177D02*
X203567Y121661D01*
X203567Y127080D02*
X196342Y130692D01*
X196342Y140674D02*
X212598Y140674D01*
X212598Y136159D02*
X212598Y145190D01*
X199954Y159258D02*
X199836Y159256D01*
X199718Y159250D01*
X199600Y159241D01*
X199483Y159227D01*
X199366Y159210D01*
X199249Y159189D01*
X199134Y159164D01*
X199019Y159135D01*
X198905Y159102D01*
X198793Y159066D01*
X198682Y159026D01*
X198572Y158983D01*
X198463Y158936D01*
X198356Y158886D01*
X198251Y158831D01*
X198148Y158774D01*
X198047Y158713D01*
X197947Y158649D01*
X197850Y158582D01*
X197755Y158512D01*
X197663Y158438D01*
X197572Y158362D01*
X197485Y158282D01*
X197400Y158200D01*
X197318Y158115D01*
X197238Y158028D01*
X197162Y157937D01*
X197088Y157845D01*
X197018Y157750D01*
X196951Y157653D01*
X196887Y157553D01*
X196826Y157452D01*
X196769Y157349D01*
X196714Y157244D01*
X196664Y157137D01*
X196617Y157028D01*
X196574Y156918D01*
X196534Y156807D01*
X196498Y156695D01*
X196465Y156581D01*
X196436Y156466D01*
X196411Y156351D01*
X196390Y156234D01*
X196373Y156117D01*
X196359Y156000D01*
X196350Y155882D01*
X196344Y155764D01*
X196342Y155646D01*
X196344Y155463D01*
X196351Y155281D01*
X196362Y155099D01*
X196377Y154917D01*
X196397Y154735D01*
X196420Y154554D01*
X196449Y154374D01*
X196481Y154194D01*
X196518Y154015D01*
X196559Y153838D01*
X196605Y153661D01*
X196654Y153485D01*
X196708Y153311D01*
X196766Y153137D01*
X196828Y152966D01*
X196894Y152796D01*
X196965Y152627D01*
X197039Y152460D01*
X197117Y152295D01*
X197199Y152132D01*
X197285Y151971D01*
X197375Y151812D01*
X197469Y151655D01*
X197566Y151501D01*
X197667Y151349D01*
X197772Y151199D01*
X197880Y151052D01*
X197991Y150908D01*
X198106Y150766D01*
X198225Y150627D01*
X198347Y150491D01*
X198472Y150358D01*
X198600Y150228D01*
X208986Y150679D02*
X209104Y150681D01*
X209222Y150687D01*
X209340Y150696D01*
X209457Y150710D01*
X209574Y150727D01*
X209691Y150748D01*
X209806Y150773D01*
X209921Y150802D01*
X210035Y150835D01*
X210147Y150871D01*
X210258Y150911D01*
X210368Y150954D01*
X210477Y151001D01*
X210584Y151051D01*
X210689Y151106D01*
X210792Y151163D01*
X210893Y151224D01*
X210993Y151288D01*
X211090Y151355D01*
X211185Y151425D01*
X211277Y151499D01*
X211368Y151575D01*
X211455Y151655D01*
X211540Y151737D01*
X211622Y151822D01*
X211702Y151909D01*
X211778Y152000D01*
X211852Y152092D01*
X211922Y152187D01*
X211989Y152284D01*
X212053Y152384D01*
X212114Y152485D01*
X212172Y152588D01*
X212226Y152693D01*
X212276Y152800D01*
X212323Y152909D01*
X212367Y153019D01*
X212406Y153130D01*
X212442Y153243D01*
X212475Y153356D01*
X212504Y153471D01*
X212529Y153586D01*
X212550Y153703D01*
X212567Y153820D01*
X212581Y153937D01*
X212590Y154055D01*
X212596Y154173D01*
X212598Y154291D01*
X212596Y154452D01*
X212590Y154614D01*
X212581Y154775D01*
X212567Y154936D01*
X212550Y155096D01*
X212529Y155256D01*
X212504Y155416D01*
X212475Y155575D01*
X212443Y155733D01*
X212407Y155890D01*
X212367Y156046D01*
X212323Y156202D01*
X212275Y156356D01*
X212224Y156509D01*
X212170Y156661D01*
X212111Y156812D01*
X212050Y156961D01*
X211984Y157108D01*
X211915Y157254D01*
X211843Y157399D01*
X211767Y157541D01*
X211688Y157682D01*
X211606Y157821D01*
X211520Y157957D01*
X211431Y158092D01*
X211339Y158225D01*
X211243Y158355D01*
X205825Y152484D02*
X205887Y152383D01*
X205952Y152283D01*
X206021Y152186D01*
X206093Y152091D01*
X206167Y151998D01*
X206245Y151908D01*
X206326Y151820D01*
X206409Y151735D01*
X206495Y151653D01*
X206584Y151574D01*
X206675Y151497D01*
X206769Y151424D01*
X206865Y151353D01*
X206963Y151286D01*
X207063Y151222D01*
X207166Y151161D01*
X207270Y151104D01*
X207376Y151050D01*
X207484Y151000D01*
X207593Y150953D01*
X207704Y150909D01*
X207816Y150869D01*
X207930Y150833D01*
X208044Y150801D01*
X208160Y150772D01*
X208276Y150747D01*
X208393Y150726D01*
X208511Y150709D01*
X208629Y150695D01*
X208748Y150686D01*
X208867Y150680D01*
X208986Y150678D01*
X203115Y157452D02*
X203053Y157553D01*
X202988Y157653D01*
X202919Y157750D01*
X202847Y157845D01*
X202773Y157938D01*
X202695Y158028D01*
X202614Y158116D01*
X202531Y158201D01*
X202445Y158283D01*
X202356Y158362D01*
X202265Y158439D01*
X202171Y158512D01*
X202075Y158583D01*
X201977Y158650D01*
X201877Y158714D01*
X201774Y158775D01*
X201670Y158832D01*
X201564Y158886D01*
X201456Y158936D01*
X201347Y158983D01*
X201236Y159027D01*
X201124Y159067D01*
X201010Y159103D01*
X200896Y159135D01*
X200780Y159164D01*
X200664Y159189D01*
X200547Y159210D01*
X200429Y159227D01*
X200311Y159241D01*
X200192Y159250D01*
X200073Y159256D01*
X199954Y159258D01*
X203115Y157452D02*
X205825Y152485D01*
D11*
X229969Y128941D02*
X229969Y126359D01*
X229969Y128941D02*
X221361Y128941D01*
X221361Y123777D01*
X221363Y123662D01*
X221369Y123547D01*
X221378Y123432D01*
X221392Y123318D01*
X221409Y123204D01*
X221430Y123091D01*
X221455Y122979D01*
X221483Y122867D01*
X221516Y122757D01*
X221552Y122648D01*
X221591Y122540D01*
X221634Y122433D01*
X221681Y122328D01*
X221731Y122224D01*
X221785Y122122D01*
X221842Y122022D01*
X221902Y121924D01*
X221965Y121828D01*
X222032Y121735D01*
X222102Y121643D01*
X222175Y121554D01*
X222250Y121467D01*
X222329Y121383D01*
X222410Y121302D01*
X222494Y121223D01*
X222581Y121148D01*
X222670Y121075D01*
X222762Y121005D01*
X222855Y120938D01*
X222951Y120875D01*
X223049Y120815D01*
X223149Y120758D01*
X223251Y120704D01*
X223355Y120654D01*
X223460Y120607D01*
X223567Y120564D01*
X223675Y120525D01*
X223784Y120489D01*
X223894Y120456D01*
X224006Y120428D01*
X224118Y120403D01*
X224231Y120382D01*
X224345Y120365D01*
X224459Y120351D01*
X224574Y120342D01*
X224689Y120336D01*
X224804Y120334D01*
X233412Y120334D01*
X233527Y120336D01*
X233642Y120342D01*
X233757Y120351D01*
X233871Y120365D01*
X233985Y120382D01*
X234098Y120403D01*
X234210Y120428D01*
X234322Y120456D01*
X234432Y120489D01*
X234541Y120525D01*
X234649Y120564D01*
X234756Y120607D01*
X234861Y120654D01*
X234965Y120704D01*
X235067Y120758D01*
X235167Y120815D01*
X235265Y120875D01*
X235361Y120938D01*
X235454Y121005D01*
X235546Y121075D01*
X235635Y121148D01*
X235722Y121223D01*
X235806Y121302D01*
X235887Y121383D01*
X235965Y121467D01*
X236041Y121554D01*
X236114Y121643D01*
X236184Y121735D01*
X236251Y121828D01*
X236314Y121924D01*
X236374Y122022D01*
X236431Y122122D01*
X236485Y122224D01*
X236535Y122328D01*
X236582Y122433D01*
X236625Y122540D01*
X236664Y122648D01*
X236700Y122757D01*
X236733Y122867D01*
X236761Y122979D01*
X236786Y123091D01*
X236807Y123204D01*
X236824Y123318D01*
X236838Y123432D01*
X236847Y123547D01*
X236853Y123662D01*
X236855Y123777D01*
X236855Y128941D01*
X236855Y136190D02*
X221361Y136190D01*
X221361Y144798D02*
X236855Y136190D01*
X236855Y144798D02*
X221361Y144798D01*
X221361Y152047D02*
X236855Y152047D01*
X236855Y156351D01*
X236853Y156481D01*
X236847Y156611D01*
X236837Y156741D01*
X236824Y156870D01*
X236806Y156999D01*
X236785Y157127D01*
X236759Y157254D01*
X236730Y157381D01*
X236697Y157507D01*
X236660Y157631D01*
X236620Y157755D01*
X236575Y157877D01*
X236527Y157998D01*
X236476Y158117D01*
X236421Y158235D01*
X236362Y158351D01*
X236300Y158465D01*
X236234Y158578D01*
X236165Y158688D01*
X236093Y158796D01*
X236018Y158902D01*
X235939Y159005D01*
X235857Y159106D01*
X235773Y159205D01*
X235685Y159301D01*
X235594Y159394D01*
X235501Y159485D01*
X235405Y159573D01*
X235306Y159657D01*
X235205Y159739D01*
X235102Y159818D01*
X234996Y159893D01*
X234888Y159965D01*
X234778Y160034D01*
X234665Y160100D01*
X234551Y160162D01*
X234435Y160221D01*
X234317Y160276D01*
X234198Y160327D01*
X234077Y160375D01*
X233955Y160420D01*
X233831Y160460D01*
X233707Y160497D01*
X233581Y160530D01*
X233454Y160559D01*
X233327Y160585D01*
X233199Y160606D01*
X233070Y160624D01*
X232941Y160637D01*
X232811Y160647D01*
X232681Y160653D01*
X232551Y160655D01*
X225665Y160655D01*
X225535Y160653D01*
X225405Y160647D01*
X225275Y160637D01*
X225146Y160624D01*
X225017Y160606D01*
X224889Y160585D01*
X224762Y160559D01*
X224635Y160530D01*
X224509Y160497D01*
X224385Y160460D01*
X224261Y160420D01*
X224139Y160375D01*
X224018Y160327D01*
X223899Y160276D01*
X223781Y160221D01*
X223665Y160162D01*
X223551Y160100D01*
X223438Y160034D01*
X223328Y159965D01*
X223220Y159893D01*
X223114Y159818D01*
X223011Y159739D01*
X222910Y159657D01*
X222811Y159573D01*
X222715Y159485D01*
X222622Y159394D01*
X222531Y159301D01*
X222443Y159205D01*
X222359Y159106D01*
X222277Y159005D01*
X222198Y158902D01*
X222123Y158796D01*
X222051Y158688D01*
X221982Y158578D01*
X221916Y158465D01*
X221854Y158351D01*
X221795Y158235D01*
X221740Y158117D01*
X221689Y157998D01*
X221641Y157877D01*
X221596Y157755D01*
X221556Y157631D01*
X221519Y157507D01*
X221486Y157381D01*
X221457Y157254D01*
X221431Y157127D01*
X221410Y156999D01*
X221392Y156870D01*
X221379Y156741D01*
X221369Y156611D01*
X221363Y156481D01*
X221361Y156351D01*
X221361Y152047D01*
D12*
X252349Y233426D02*
X252349Y250698D01*
X252349Y243022D02*
X242753Y243022D01*
X242753Y250698D02*
X242753Y233426D01*
X235040Y246860D02*
X230242Y250698D01*
X230242Y233426D01*
X225445Y233426D02*
X235040Y233426D01*
X217731Y233426D02*
X217731Y250698D01*
X212934Y250698D01*
X212797Y250696D01*
X212660Y250690D01*
X212523Y250680D01*
X212387Y250667D01*
X212251Y250649D01*
X212116Y250628D01*
X211981Y250602D01*
X211847Y250573D01*
X211714Y250540D01*
X211582Y250504D01*
X211451Y250463D01*
X211322Y250419D01*
X211193Y250371D01*
X211066Y250320D01*
X210941Y250264D01*
X210817Y250206D01*
X210695Y250144D01*
X210575Y250078D01*
X210456Y250009D01*
X210340Y249936D01*
X210226Y249861D01*
X210114Y249782D01*
X210004Y249700D01*
X209897Y249614D01*
X209792Y249526D01*
X209690Y249435D01*
X209590Y249341D01*
X209493Y249244D01*
X209399Y249144D01*
X209308Y249042D01*
X209220Y248937D01*
X209134Y248830D01*
X209052Y248720D01*
X208973Y248608D01*
X208898Y248494D01*
X208825Y248378D01*
X208756Y248259D01*
X208691Y248139D01*
X208628Y248017D01*
X208570Y247893D01*
X208514Y247768D01*
X208463Y247641D01*
X208415Y247512D01*
X208371Y247383D01*
X208330Y247252D01*
X208294Y247120D01*
X208261Y246987D01*
X208232Y246853D01*
X208206Y246718D01*
X208185Y246583D01*
X208167Y246447D01*
X208154Y246311D01*
X208144Y246174D01*
X208138Y246037D01*
X208136Y245900D01*
X208136Y238224D01*
X208138Y238087D01*
X208144Y237950D01*
X208154Y237813D01*
X208167Y237677D01*
X208185Y237541D01*
X208206Y237406D01*
X208232Y237271D01*
X208261Y237137D01*
X208294Y237004D01*
X208330Y236872D01*
X208371Y236741D01*
X208415Y236612D01*
X208463Y236483D01*
X208514Y236356D01*
X208570Y236231D01*
X208628Y236107D01*
X208690Y235985D01*
X208756Y235865D01*
X208825Y235746D01*
X208898Y235630D01*
X208973Y235516D01*
X209052Y235404D01*
X209134Y235294D01*
X209220Y235187D01*
X209308Y235082D01*
X209399Y234980D01*
X209493Y234880D01*
X209590Y234783D01*
X209690Y234689D01*
X209792Y234598D01*
X209897Y234510D01*
X210004Y234424D01*
X210114Y234342D01*
X210226Y234263D01*
X210340Y234188D01*
X210456Y234115D01*
X210575Y234046D01*
X210695Y233980D01*
X210817Y233918D01*
X210941Y233860D01*
X211066Y233804D01*
X211193Y233753D01*
X211322Y233705D01*
X211451Y233661D01*
X211582Y233620D01*
X211714Y233584D01*
X211847Y233551D01*
X211981Y233522D01*
X212116Y233496D01*
X212251Y233475D01*
X212387Y233457D01*
X212523Y233444D01*
X212660Y233434D01*
X212797Y233428D01*
X212934Y233426D01*
X217731Y233426D01*
X199760Y233426D02*
X199760Y250698D01*
X194962Y250698D01*
X194824Y250696D01*
X194686Y250690D01*
X194548Y250680D01*
X194410Y250666D01*
X194273Y250648D01*
X194136Y250626D01*
X194001Y250601D01*
X193865Y250571D01*
X193731Y250537D01*
X193598Y250500D01*
X193466Y250459D01*
X193335Y250414D01*
X193206Y250365D01*
X193078Y250313D01*
X192952Y250257D01*
X192827Y250197D01*
X192704Y250133D01*
X192583Y250067D01*
X192464Y249996D01*
X192347Y249923D01*
X192232Y249846D01*
X192119Y249765D01*
X192009Y249682D01*
X191902Y249595D01*
X191796Y249505D01*
X191694Y249413D01*
X191594Y249317D01*
X191497Y249219D01*
X191403Y249117D01*
X191311Y249013D01*
X191223Y248907D01*
X191138Y248798D01*
X191056Y248687D01*
X190977Y248573D01*
X190902Y248457D01*
X190830Y248339D01*
X190761Y248219D01*
X190696Y248097D01*
X190635Y247973D01*
X190577Y247847D01*
X190523Y247720D01*
X190472Y247591D01*
X190425Y247461D01*
X190382Y247330D01*
X190343Y247197D01*
X190307Y247064D01*
X190276Y246929D01*
X190248Y246794D01*
X190224Y246657D01*
X190204Y246521D01*
X190188Y246383D01*
X190176Y246245D01*
X190168Y246107D01*
X190164Y245969D01*
X190164Y245831D01*
X190168Y245693D01*
X190176Y245555D01*
X190188Y245417D01*
X190204Y245279D01*
X190224Y245143D01*
X190248Y245006D01*
X190276Y244871D01*
X190307Y244736D01*
X190343Y244603D01*
X190382Y244470D01*
X190425Y244339D01*
X190472Y244209D01*
X190523Y244080D01*
X190577Y243953D01*
X190635Y243827D01*
X190696Y243703D01*
X190761Y243581D01*
X190830Y243461D01*
X190902Y243343D01*
X190977Y243227D01*
X191056Y243113D01*
X191138Y243002D01*
X191223Y242893D01*
X191311Y242787D01*
X191403Y242683D01*
X191497Y242581D01*
X191594Y242483D01*
X191694Y242387D01*
X191796Y242295D01*
X191902Y242205D01*
X192009Y242118D01*
X192119Y242035D01*
X192232Y241954D01*
X192347Y241877D01*
X192464Y241804D01*
X192583Y241733D01*
X192704Y241667D01*
X192827Y241603D01*
X192952Y241543D01*
X193078Y241487D01*
X193206Y241435D01*
X193335Y241386D01*
X193466Y241341D01*
X193598Y241300D01*
X193731Y241263D01*
X193865Y241229D01*
X194001Y241199D01*
X194136Y241174D01*
X194273Y241152D01*
X194410Y241134D01*
X194548Y241120D01*
X194686Y241110D01*
X194824Y241104D01*
X194962Y241102D01*
X199760Y241102D01*
X194003Y241102D02*
X190165Y233426D01*
X183113Y242062D02*
X183109Y242402D01*
X183097Y242741D01*
X183077Y243081D01*
X183048Y243419D01*
X183012Y243757D01*
X182967Y244094D01*
X182915Y244429D01*
X182854Y244764D01*
X182786Y245097D01*
X182709Y245428D01*
X182625Y245757D01*
X182533Y246084D01*
X182433Y246409D01*
X182325Y246731D01*
X182210Y247051D01*
X182087Y247367D01*
X181957Y247681D01*
X181819Y247992D01*
X181674Y248299D01*
X181635Y248408D01*
X181592Y248516D01*
X181545Y248622D01*
X181496Y248727D01*
X181442Y248830D01*
X181386Y248931D01*
X181326Y249030D01*
X181263Y249127D01*
X181197Y249222D01*
X181128Y249315D01*
X181055Y249406D01*
X180980Y249494D01*
X180902Y249580D01*
X180821Y249663D01*
X180738Y249743D01*
X180652Y249821D01*
X180563Y249896D01*
X180473Y249968D01*
X180379Y250037D01*
X180284Y250103D01*
X180187Y250165D01*
X180087Y250225D01*
X179986Y250281D01*
X179883Y250334D01*
X179778Y250383D01*
X179671Y250429D01*
X179564Y250472D01*
X179454Y250511D01*
X179344Y250546D01*
X179233Y250578D01*
X179120Y250606D01*
X179007Y250630D01*
X178893Y250651D01*
X178778Y250668D01*
X178663Y250681D01*
X178548Y250690D01*
X178432Y250696D01*
X178316Y250698D01*
X178200Y250696D01*
X178084Y250690D01*
X177969Y250681D01*
X177854Y250668D01*
X177739Y250651D01*
X177625Y250630D01*
X177512Y250606D01*
X177399Y250578D01*
X177288Y250546D01*
X177178Y250511D01*
X177068Y250472D01*
X176961Y250429D01*
X176854Y250383D01*
X176749Y250334D01*
X176646Y250281D01*
X176545Y250225D01*
X176445Y250165D01*
X176348Y250103D01*
X176253Y250037D01*
X176159Y249968D01*
X176069Y249896D01*
X175980Y249821D01*
X175894Y249743D01*
X175811Y249663D01*
X175730Y249580D01*
X175652Y249494D01*
X175577Y249406D01*
X175504Y249315D01*
X175435Y249223D01*
X175369Y249127D01*
X175306Y249030D01*
X175246Y248931D01*
X175190Y248830D01*
X175136Y248727D01*
X175087Y248622D01*
X175040Y248516D01*
X174997Y248408D01*
X174958Y248299D01*
X174813Y247992D01*
X174675Y247681D01*
X174545Y247367D01*
X174422Y247051D01*
X174307Y246731D01*
X174199Y246409D01*
X174099Y246084D01*
X174007Y245757D01*
X173923Y245428D01*
X173846Y245097D01*
X173778Y244764D01*
X173717Y244429D01*
X173665Y244094D01*
X173620Y243757D01*
X173584Y243419D01*
X173555Y243081D01*
X173535Y242741D01*
X173523Y242402D01*
X173519Y242062D01*
X183114Y242062D02*
X183110Y241722D01*
X183098Y241383D01*
X183078Y241043D01*
X183049Y240705D01*
X183013Y240367D01*
X182968Y240030D01*
X182916Y239694D01*
X182855Y239360D01*
X182787Y239027D01*
X182710Y238696D01*
X182626Y238367D01*
X182534Y238040D01*
X182434Y237715D01*
X182326Y237393D01*
X182211Y237073D01*
X182088Y236756D01*
X181958Y236442D01*
X181820Y236132D01*
X181675Y235825D01*
X181674Y235825D02*
X181635Y235716D01*
X181592Y235608D01*
X181545Y235502D01*
X181496Y235397D01*
X181442Y235294D01*
X181386Y235193D01*
X181326Y235094D01*
X181263Y234997D01*
X181197Y234901D01*
X181128Y234809D01*
X181055Y234718D01*
X180980Y234630D01*
X180902Y234544D01*
X180821Y234461D01*
X180738Y234381D01*
X180652Y234303D01*
X180563Y234228D01*
X180473Y234156D01*
X180379Y234087D01*
X180284Y234021D01*
X180187Y233959D01*
X180087Y233899D01*
X179986Y233843D01*
X179883Y233790D01*
X179778Y233741D01*
X179671Y233695D01*
X179564Y233652D01*
X179454Y233613D01*
X179344Y233578D01*
X179233Y233546D01*
X179120Y233518D01*
X179007Y233494D01*
X178893Y233473D01*
X178778Y233456D01*
X178663Y233443D01*
X178548Y233434D01*
X178432Y233428D01*
X178316Y233426D01*
X174957Y235825D02*
X174812Y236132D01*
X174674Y236442D01*
X174544Y236756D01*
X174421Y237073D01*
X174306Y237393D01*
X174198Y237715D01*
X174098Y238040D01*
X174006Y238367D01*
X173922Y238696D01*
X173845Y239027D01*
X173777Y239360D01*
X173716Y239694D01*
X173664Y240030D01*
X173619Y240367D01*
X173583Y240705D01*
X173554Y241043D01*
X173534Y241383D01*
X173522Y241722D01*
X173518Y242062D01*
X174958Y235825D02*
X174997Y235716D01*
X175040Y235608D01*
X175087Y235502D01*
X175136Y235397D01*
X175190Y235294D01*
X175246Y235193D01*
X175306Y235094D01*
X175369Y234997D01*
X175435Y234901D01*
X175504Y234809D01*
X175577Y234718D01*
X175652Y234630D01*
X175730Y234544D01*
X175811Y234461D01*
X175894Y234380D01*
X175980Y234303D01*
X176069Y234228D01*
X176159Y234156D01*
X176253Y234087D01*
X176348Y234021D01*
X176445Y233959D01*
X176545Y233899D01*
X176646Y233843D01*
X176749Y233790D01*
X176854Y233741D01*
X176961Y233695D01*
X177068Y233652D01*
X177178Y233613D01*
X177288Y233578D01*
X177399Y233546D01*
X177512Y233518D01*
X177625Y233494D01*
X177739Y233473D01*
X177854Y233456D01*
X177969Y233443D01*
X178084Y233434D01*
X178200Y233428D01*
X178316Y233426D01*
X182154Y237264D02*
X174478Y246860D01*
X159403Y244941D02*
X167079Y233426D01*
X159403Y233426D02*
X167079Y244941D01*
X152806Y240143D02*
X141291Y240143D01*
X134939Y233426D02*
X129181Y250698D01*
X123424Y233426D01*
X124863Y237744D02*
X133499Y237744D01*
X116670Y233426D02*
X116670Y250698D01*
X111873Y250698D01*
X111736Y250696D01*
X111599Y250690D01*
X111462Y250680D01*
X111326Y250667D01*
X111190Y250649D01*
X111055Y250628D01*
X110920Y250602D01*
X110786Y250573D01*
X110653Y250540D01*
X110521Y250504D01*
X110390Y250463D01*
X110261Y250419D01*
X110132Y250371D01*
X110005Y250320D01*
X109880Y250264D01*
X109756Y250206D01*
X109634Y250144D01*
X109514Y250078D01*
X109395Y250009D01*
X109279Y249936D01*
X109165Y249861D01*
X109053Y249782D01*
X108943Y249700D01*
X108836Y249614D01*
X108731Y249526D01*
X108629Y249435D01*
X108529Y249341D01*
X108432Y249244D01*
X108338Y249144D01*
X108247Y249042D01*
X108159Y248937D01*
X108073Y248830D01*
X107991Y248720D01*
X107912Y248608D01*
X107837Y248494D01*
X107764Y248378D01*
X107695Y248259D01*
X107630Y248139D01*
X107567Y248017D01*
X107509Y247893D01*
X107453Y247768D01*
X107402Y247641D01*
X107354Y247512D01*
X107310Y247383D01*
X107269Y247252D01*
X107233Y247120D01*
X107200Y246987D01*
X107171Y246853D01*
X107145Y246718D01*
X107124Y246583D01*
X107106Y246447D01*
X107093Y246311D01*
X107083Y246174D01*
X107077Y246037D01*
X107075Y245900D01*
X107075Y238224D01*
X107077Y238087D01*
X107083Y237950D01*
X107093Y237813D01*
X107106Y237677D01*
X107124Y237541D01*
X107145Y237406D01*
X107171Y237271D01*
X107200Y237137D01*
X107233Y237004D01*
X107269Y236872D01*
X107310Y236741D01*
X107354Y236612D01*
X107402Y236483D01*
X107453Y236356D01*
X107509Y236231D01*
X107567Y236107D01*
X107629Y235985D01*
X107695Y235865D01*
X107764Y235746D01*
X107837Y235630D01*
X107912Y235516D01*
X107991Y235404D01*
X108073Y235294D01*
X108159Y235187D01*
X108247Y235082D01*
X108338Y234980D01*
X108432Y234880D01*
X108529Y234783D01*
X108629Y234689D01*
X108731Y234598D01*
X108836Y234510D01*
X108943Y234424D01*
X109053Y234342D01*
X109165Y234263D01*
X109279Y234188D01*
X109395Y234115D01*
X109514Y234046D01*
X109634Y233980D01*
X109756Y233918D01*
X109880Y233860D01*
X110005Y233804D01*
X110132Y233753D01*
X110261Y233705D01*
X110390Y233661D01*
X110521Y233620D01*
X110653Y233584D01*
X110786Y233551D01*
X110920Y233522D01*
X111055Y233496D01*
X111190Y233475D01*
X111326Y233457D01*
X111462Y233444D01*
X111599Y233434D01*
X111736Y233428D01*
X111873Y233426D01*
X116670Y233426D01*
D10*
X319278Y130302D02*
X319278Y112522D01*
X319278Y130302D02*
X314339Y130302D01*
X314199Y130300D01*
X314060Y130294D01*
X313920Y130284D01*
X313781Y130270D01*
X313642Y130253D01*
X313504Y130231D01*
X313367Y130205D01*
X313230Y130176D01*
X313094Y130143D01*
X312960Y130106D01*
X312826Y130065D01*
X312694Y130020D01*
X312562Y129971D01*
X312433Y129919D01*
X312305Y129864D01*
X312178Y129804D01*
X312053Y129741D01*
X311930Y129675D01*
X311809Y129605D01*
X311690Y129532D01*
X311573Y129455D01*
X311459Y129375D01*
X311346Y129292D01*
X311236Y129206D01*
X311129Y129116D01*
X311024Y129024D01*
X310922Y128929D01*
X310822Y128831D01*
X310725Y128730D01*
X310631Y128626D01*
X310541Y128520D01*
X310453Y128411D01*
X310368Y128300D01*
X310287Y128186D01*
X310208Y128071D01*
X310133Y127953D01*
X310062Y127832D01*
X309994Y127710D01*
X309929Y127587D01*
X309868Y127461D01*
X309810Y127333D01*
X309756Y127205D01*
X309706Y127074D01*
X309659Y126942D01*
X309616Y126809D01*
X309577Y126675D01*
X309542Y126540D01*
X309511Y126404D01*
X309483Y126266D01*
X309460Y126129D01*
X309440Y125990D01*
X309424Y125851D01*
X309412Y125712D01*
X309404Y125573D01*
X309400Y125433D01*
X309400Y125293D01*
X309404Y125153D01*
X309412Y125014D01*
X309424Y124875D01*
X309440Y124736D01*
X309460Y124597D01*
X309483Y124460D01*
X309511Y124322D01*
X309542Y124186D01*
X309577Y124051D01*
X309616Y123917D01*
X309659Y123784D01*
X309706Y123652D01*
X309756Y123521D01*
X309810Y123393D01*
X309868Y123265D01*
X309929Y123139D01*
X309994Y123016D01*
X310062Y122893D01*
X310133Y122773D01*
X310208Y122655D01*
X310287Y122540D01*
X310368Y122426D01*
X310453Y122315D01*
X310541Y122206D01*
X310631Y122100D01*
X310725Y121996D01*
X310822Y121895D01*
X310922Y121797D01*
X311024Y121702D01*
X311129Y121610D01*
X311236Y121520D01*
X311346Y121434D01*
X311459Y121351D01*
X311573Y121271D01*
X311690Y121194D01*
X311809Y121121D01*
X311930Y121051D01*
X312053Y120985D01*
X312178Y120922D01*
X312305Y120862D01*
X312433Y120807D01*
X312562Y120755D01*
X312694Y120706D01*
X312826Y120661D01*
X312960Y120620D01*
X313094Y120583D01*
X313230Y120550D01*
X313367Y120521D01*
X313504Y120495D01*
X313642Y120473D01*
X313781Y120456D01*
X313920Y120442D01*
X314060Y120432D01*
X314199Y120426D01*
X314339Y120424D01*
X319278Y120424D01*
X297850Y130302D02*
X297718Y130300D01*
X297587Y130294D01*
X297455Y130284D01*
X297324Y130271D01*
X297194Y130253D01*
X297064Y130232D01*
X296934Y130207D01*
X296806Y130178D01*
X296678Y130145D01*
X296552Y130108D01*
X296426Y130068D01*
X296302Y130024D01*
X296179Y129976D01*
X296058Y129925D01*
X295938Y129870D01*
X295820Y129812D01*
X295704Y129750D01*
X295590Y129684D01*
X295477Y129616D01*
X295367Y129544D01*
X295259Y129469D01*
X295153Y129390D01*
X295049Y129309D01*
X294948Y129224D01*
X294850Y129137D01*
X294754Y129046D01*
X294661Y128953D01*
X294570Y128857D01*
X294483Y128759D01*
X294398Y128658D01*
X294317Y128554D01*
X294238Y128448D01*
X294163Y128340D01*
X294091Y128230D01*
X294023Y128117D01*
X293957Y128003D01*
X293895Y127887D01*
X293837Y127769D01*
X293782Y127649D01*
X293731Y127528D01*
X293683Y127405D01*
X293639Y127281D01*
X293599Y127155D01*
X293562Y127029D01*
X293529Y126901D01*
X293500Y126773D01*
X293475Y126643D01*
X293454Y126513D01*
X293436Y126383D01*
X293423Y126252D01*
X293413Y126120D01*
X293407Y125989D01*
X293405Y125857D01*
X297850Y130302D02*
X298000Y130300D01*
X298149Y130294D01*
X298298Y130284D01*
X298447Y130271D01*
X298596Y130253D01*
X298744Y130232D01*
X298892Y130206D01*
X299038Y130177D01*
X299184Y130144D01*
X299329Y130107D01*
X299473Y130066D01*
X299616Y130022D01*
X299758Y129974D01*
X299898Y129922D01*
X300037Y129867D01*
X300175Y129808D01*
X300310Y129745D01*
X300445Y129679D01*
X300577Y129609D01*
X300707Y129536D01*
X300836Y129459D01*
X300963Y129379D01*
X301087Y129296D01*
X301209Y129210D01*
X301329Y129120D01*
X301446Y129027D01*
X301561Y128932D01*
X301674Y128833D01*
X301784Y128731D01*
X301891Y128627D01*
X301995Y128520D01*
X302097Y128410D01*
X302195Y128297D01*
X302291Y128182D01*
X302383Y128064D01*
X302473Y127944D01*
X302559Y127822D01*
X302642Y127698D01*
X302722Y127571D01*
X302798Y127443D01*
X302871Y127312D01*
X302941Y127179D01*
X303007Y127045D01*
X303069Y126909D01*
X303128Y126772D01*
X303184Y126633D01*
X303235Y126492D01*
X303283Y126351D01*
X294888Y122400D02*
X294792Y122493D01*
X294700Y122589D01*
X294610Y122688D01*
X294523Y122789D01*
X294439Y122892D01*
X294357Y122997D01*
X294279Y123105D01*
X294204Y123215D01*
X294131Y123327D01*
X294062Y123441D01*
X293996Y123557D01*
X293934Y123675D01*
X293875Y123794D01*
X293819Y123915D01*
X293766Y124038D01*
X293717Y124162D01*
X293672Y124287D01*
X293629Y124414D01*
X293591Y124541D01*
X293556Y124670D01*
X293525Y124799D01*
X293497Y124930D01*
X293473Y125061D01*
X293452Y125193D01*
X293436Y125325D01*
X293423Y125458D01*
X293413Y125591D01*
X293408Y125724D01*
X293406Y125857D01*
X294887Y122400D02*
X303283Y112522D01*
X293405Y112522D01*
X65278Y112522D02*
X65278Y130302D01*
X60339Y130302D01*
X60199Y130300D01*
X60060Y130294D01*
X59920Y130284D01*
X59781Y130270D01*
X59642Y130253D01*
X59504Y130231D01*
X59367Y130205D01*
X59230Y130176D01*
X59094Y130143D01*
X58960Y130106D01*
X58826Y130065D01*
X58694Y130020D01*
X58562Y129971D01*
X58433Y129919D01*
X58305Y129864D01*
X58178Y129804D01*
X58053Y129741D01*
X57930Y129675D01*
X57809Y129605D01*
X57690Y129532D01*
X57573Y129455D01*
X57459Y129375D01*
X57346Y129292D01*
X57236Y129206D01*
X57129Y129116D01*
X57024Y129024D01*
X56922Y128929D01*
X56822Y128831D01*
X56725Y128730D01*
X56631Y128626D01*
X56541Y128520D01*
X56453Y128411D01*
X56368Y128300D01*
X56287Y128186D01*
X56208Y128071D01*
X56133Y127953D01*
X56062Y127832D01*
X55994Y127710D01*
X55929Y127587D01*
X55868Y127461D01*
X55810Y127333D01*
X55756Y127205D01*
X55706Y127074D01*
X55659Y126942D01*
X55616Y126809D01*
X55577Y126675D01*
X55542Y126540D01*
X55511Y126404D01*
X55483Y126266D01*
X55460Y126129D01*
X55440Y125990D01*
X55424Y125851D01*
X55412Y125712D01*
X55404Y125573D01*
X55400Y125433D01*
X55400Y125293D01*
X55404Y125153D01*
X55412Y125014D01*
X55424Y124875D01*
X55440Y124736D01*
X55460Y124597D01*
X55483Y124460D01*
X55511Y124322D01*
X55542Y124186D01*
X55577Y124051D01*
X55616Y123917D01*
X55659Y123784D01*
X55706Y123652D01*
X55756Y123521D01*
X55810Y123393D01*
X55868Y123265D01*
X55929Y123139D01*
X55994Y123016D01*
X56062Y122893D01*
X56133Y122773D01*
X56208Y122655D01*
X56287Y122540D01*
X56368Y122426D01*
X56453Y122315D01*
X56541Y122206D01*
X56631Y122100D01*
X56725Y121996D01*
X56822Y121895D01*
X56922Y121797D01*
X57024Y121702D01*
X57129Y121610D01*
X57236Y121520D01*
X57346Y121434D01*
X57459Y121351D01*
X57573Y121271D01*
X57690Y121194D01*
X57809Y121121D01*
X57930Y121051D01*
X58053Y120985D01*
X58178Y120922D01*
X58305Y120862D01*
X58433Y120807D01*
X58562Y120755D01*
X58694Y120706D01*
X58826Y120661D01*
X58960Y120620D01*
X59094Y120583D01*
X59230Y120550D01*
X59367Y120521D01*
X59504Y120495D01*
X59642Y120473D01*
X59781Y120456D01*
X59920Y120442D01*
X60060Y120432D01*
X60199Y120426D01*
X60339Y120424D01*
X65278Y120424D01*
X49283Y116473D02*
X45332Y130302D01*
X49283Y116473D02*
X39405Y116473D01*
X42369Y120424D02*
X42369Y112522D01*
M02*
