M48
;GenerationSoftware,Autodesk,EAGLE,9.6.1*%
;CreationDate,2020-05-28T00:32:56Z*%
FMAT,2
ICI,OFF
METRIC,TZ,000.000
T2C0.350
T1C1.016
%
G90
M71
T1
X29591Y45085
X32131Y45085
X34671Y45085
X37211Y45085
X39751Y45085
T2
X28956Y23114
X46332Y36576
X48537Y36576
X40132Y23241
X25527Y31369
X38735Y41021
X26289Y38989
X26289Y29464
X25045Y27049
X26194Y30607
X42799Y30020
X27178Y41783
X25895Y43421
X44893Y34544
X48133Y30988
X44092Y28091
X37379Y21888
X46228Y39116
X22809Y35687
X24511Y32004
X36068Y26162
X34036Y26162
X28321Y33655
X28328Y35870
X29825Y34538
X28321Y34798
M30