G04 EAGLE Gerber RS-274X export*
G75*
%MOMM*%
%FSLAX34Y34*%
%LPD*%
%INBottom Copper*%
%IPPOS*%
%AMOC8*
5,1,8,0,0,1.08239X$1,22.5*%
G01*
%ADD10C,1.700000*%
%ADD11C,1.524000*%
%ADD12C,1.000000*%
%ADD13C,1.270000*%

G36*
X254062Y11802D02*
X254062Y11802D01*
X254130Y11803D01*
X254183Y11821D01*
X254238Y11830D01*
X254298Y11862D01*
X254362Y11885D01*
X254406Y11919D01*
X254456Y11946D01*
X254502Y11995D01*
X254555Y12036D01*
X254602Y12100D01*
X254625Y12124D01*
X254634Y12143D01*
X254655Y12171D01*
X278468Y53419D01*
X278480Y53449D01*
X278498Y53476D01*
X278523Y53564D01*
X278555Y53649D01*
X278557Y53682D01*
X278565Y53713D01*
X278561Y53804D01*
X278564Y53895D01*
X278555Y53926D01*
X278554Y53958D01*
X278501Y54118D01*
X278472Y54180D01*
X278468Y54187D01*
X278465Y54195D01*
X278376Y54337D01*
X276978Y56088D01*
X276972Y56093D01*
X276968Y56101D01*
X276847Y56217D01*
X276519Y56468D01*
X276138Y57127D01*
X276117Y57153D01*
X276074Y57221D01*
X275599Y57816D01*
X275485Y58213D01*
X275481Y58221D01*
X275480Y58229D01*
X275413Y58383D01*
X274292Y60322D01*
X274286Y60329D01*
X274283Y60337D01*
X274181Y60470D01*
X273894Y60768D01*
X273616Y61476D01*
X273599Y61504D01*
X273566Y61578D01*
X273186Y62237D01*
X273132Y62647D01*
X273129Y62655D01*
X273129Y62663D01*
X273086Y62825D01*
X272266Y64910D01*
X272262Y64918D01*
X272260Y64926D01*
X272179Y65073D01*
X271939Y65410D01*
X271770Y66151D01*
X271757Y66182D01*
X271736Y66260D01*
X271458Y66968D01*
X271466Y67382D01*
X271464Y67390D01*
X271466Y67398D01*
X271447Y67565D01*
X270947Y69749D01*
X270944Y69757D01*
X270943Y69765D01*
X270885Y69923D01*
X270698Y70291D01*
X270641Y71050D01*
X270634Y71082D01*
X270624Y71163D01*
X270455Y71904D01*
X270524Y72312D01*
X270524Y72320D01*
X270527Y72329D01*
X270532Y72496D01*
X270364Y74730D01*
X270362Y74738D01*
X270363Y74747D01*
X270328Y74911D01*
X270199Y75304D01*
X270256Y76062D01*
X270253Y76095D01*
X270255Y76176D01*
X270198Y76935D01*
X270327Y77327D01*
X270329Y77336D01*
X270333Y77344D01*
X270363Y77509D01*
X270530Y79742D01*
X270529Y79751D01*
X270531Y79759D01*
X270521Y79927D01*
X270452Y80334D01*
X270621Y81076D01*
X270623Y81109D01*
X270638Y81189D01*
X270695Y81947D01*
X270881Y82316D01*
X270883Y82324D01*
X270888Y82331D01*
X270943Y82490D01*
X271441Y84674D01*
X271442Y84683D01*
X271445Y84691D01*
X271460Y84858D01*
X271452Y85271D01*
X271730Y85979D01*
X271737Y86011D01*
X271763Y86088D01*
X271932Y86830D01*
X272172Y87167D01*
X272175Y87175D01*
X272181Y87181D01*
X272259Y87329D01*
X273077Y89415D01*
X273079Y89423D01*
X273083Y89431D01*
X273123Y89594D01*
X273177Y90004D01*
X273557Y90663D01*
X273569Y90693D01*
X273606Y90765D01*
X273884Y91473D01*
X273890Y91479D01*
X273941Y91554D01*
X273999Y91623D01*
X274011Y91654D01*
X274030Y91682D01*
X274055Y91769D01*
X274087Y91853D01*
X274088Y91886D01*
X274098Y91918D01*
X274094Y92008D01*
X274097Y92099D01*
X274088Y92131D01*
X274087Y92164D01*
X274054Y92248D01*
X274029Y92335D01*
X274010Y92362D01*
X273998Y92393D01*
X273940Y92463D01*
X273889Y92537D01*
X273862Y92557D01*
X273841Y92582D01*
X273764Y92630D01*
X273691Y92684D01*
X273660Y92694D01*
X273631Y92712D01*
X273543Y92732D01*
X273457Y92760D01*
X273424Y92760D01*
X273392Y92767D01*
X273302Y92758D01*
X273211Y92757D01*
X273171Y92746D01*
X273147Y92743D01*
X273118Y92730D01*
X273050Y92711D01*
X267397Y90369D01*
X258383Y90369D01*
X250054Y93819D01*
X243679Y100194D01*
X240229Y108523D01*
X240229Y117537D01*
X243679Y125866D01*
X250054Y132241D01*
X258383Y135691D01*
X267397Y135691D01*
X275726Y132241D01*
X282101Y125866D01*
X285551Y117537D01*
X285551Y108523D01*
X284041Y104879D01*
X284035Y104853D01*
X284023Y104829D01*
X284007Y104733D01*
X283985Y104639D01*
X283988Y104613D01*
X283983Y104586D01*
X283999Y104491D01*
X284008Y104394D01*
X284019Y104370D01*
X284024Y104344D01*
X284069Y104258D01*
X284108Y104170D01*
X284126Y104150D01*
X284139Y104126D01*
X284209Y104060D01*
X284275Y103988D01*
X284298Y103976D01*
X284318Y103957D01*
X284405Y103917D01*
X284490Y103870D01*
X284517Y103865D01*
X284541Y103854D01*
X284637Y103843D01*
X284732Y103826D01*
X284759Y103830D01*
X284785Y103827D01*
X284880Y103848D01*
X284976Y103862D01*
X284999Y103874D01*
X285026Y103880D01*
X285174Y103959D01*
X285915Y104464D01*
X285921Y104470D01*
X285929Y104474D01*
X286053Y104586D01*
X286329Y104894D01*
X287014Y105225D01*
X287041Y105243D01*
X287113Y105281D01*
X287741Y105710D01*
X288146Y105795D01*
X288154Y105798D01*
X288162Y105798D01*
X288321Y105854D01*
X290338Y106827D01*
X290345Y106832D01*
X290354Y106834D01*
X290494Y106926D01*
X290812Y107190D01*
X291539Y107415D01*
X291569Y107429D01*
X291645Y107456D01*
X292330Y107787D01*
X292743Y107810D01*
X292751Y107812D01*
X292760Y107811D01*
X292925Y107843D01*
X295065Y108504D01*
X295073Y108507D01*
X295081Y108509D01*
X295082Y108509D01*
X295085Y108510D01*
X295233Y108579D01*
X295587Y108793D01*
X296340Y108906D01*
X296371Y108916D01*
X296451Y108932D01*
X297177Y109156D01*
X297589Y109117D01*
X297598Y109118D01*
X297606Y109116D01*
X297774Y109123D01*
X299989Y109457D01*
X299997Y109460D01*
X300005Y109460D01*
X300166Y109507D01*
X300548Y109665D01*
X301309Y109665D01*
X301342Y109671D01*
X301422Y109674D01*
X302175Y109788D01*
X302576Y109688D01*
X302585Y109687D01*
X302592Y109684D01*
X302759Y109666D01*
X304999Y109667D01*
X305008Y109668D01*
X305016Y109667D01*
X305183Y109689D01*
X305584Y109789D01*
X306336Y109675D01*
X306369Y109676D01*
X306449Y109667D01*
X307210Y109667D01*
X307592Y109509D01*
X307601Y109507D01*
X307608Y109503D01*
X307770Y109460D01*
X309985Y109127D01*
X309994Y109127D01*
X310002Y109124D01*
X310170Y109122D01*
X310262Y109130D01*
X310293Y109138D01*
X310325Y109139D01*
X310412Y109169D01*
X310500Y109193D01*
X310527Y109210D01*
X310557Y109221D01*
X310629Y109277D01*
X310706Y109327D01*
X310726Y109353D01*
X310751Y109372D01*
X310850Y109507D01*
X336427Y153810D01*
X336468Y153917D01*
X336511Y154024D01*
X336512Y154034D01*
X336514Y154040D01*
X336515Y154062D01*
X336529Y154190D01*
X336529Y289708D01*
X336526Y289728D01*
X336528Y289747D01*
X336506Y289849D01*
X336490Y289951D01*
X336480Y289968D01*
X336476Y289988D01*
X336423Y290077D01*
X336374Y290168D01*
X336360Y290182D01*
X336350Y290199D01*
X336271Y290266D01*
X336196Y290338D01*
X336178Y290346D01*
X336163Y290359D01*
X336067Y290398D01*
X335973Y290441D01*
X335953Y290443D01*
X335935Y290451D01*
X335768Y290469D01*
X12212Y290469D01*
X12192Y290466D01*
X12173Y290468D01*
X12071Y290446D01*
X11969Y290430D01*
X11952Y290420D01*
X11932Y290416D01*
X11843Y290363D01*
X11752Y290314D01*
X11738Y290300D01*
X11721Y290290D01*
X11654Y290211D01*
X11582Y290136D01*
X11574Y290118D01*
X11561Y290103D01*
X11522Y290007D01*
X11479Y289913D01*
X11477Y289893D01*
X11469Y289875D01*
X11451Y289708D01*
X11451Y154190D01*
X11469Y154077D01*
X11485Y153963D01*
X11489Y153954D01*
X11490Y153948D01*
X11501Y153928D01*
X11553Y153810D01*
X37130Y109507D01*
X37150Y109483D01*
X37164Y109454D01*
X37228Y109388D01*
X37286Y109317D01*
X37313Y109300D01*
X37335Y109277D01*
X37416Y109235D01*
X37494Y109186D01*
X37525Y109179D01*
X37554Y109164D01*
X37718Y109130D01*
X37810Y109122D01*
X37819Y109122D01*
X37827Y109120D01*
X37995Y109127D01*
X40210Y109460D01*
X40218Y109462D01*
X40227Y109463D01*
X40388Y109509D01*
X40770Y109667D01*
X41531Y109667D01*
X41563Y109672D01*
X41644Y109675D01*
X42396Y109789D01*
X42797Y109689D01*
X42806Y109688D01*
X42814Y109685D01*
X42981Y109667D01*
X45221Y109666D01*
X45229Y109667D01*
X45238Y109666D01*
X45404Y109688D01*
X45805Y109788D01*
X46558Y109674D01*
X46591Y109674D01*
X46671Y109665D01*
X47432Y109665D01*
X47814Y109507D01*
X47822Y109505D01*
X47829Y109500D01*
X47991Y109457D01*
X50206Y109123D01*
X50215Y109123D01*
X50223Y109120D01*
X50391Y109117D01*
X50803Y109156D01*
X51529Y108932D01*
X51562Y108927D01*
X51640Y108906D01*
X52393Y108793D01*
X52747Y108579D01*
X52755Y108576D01*
X52761Y108570D01*
X52915Y108504D01*
X55055Y107843D01*
X55064Y107841D01*
X55072Y107838D01*
X55237Y107810D01*
X55650Y107787D01*
X56335Y107456D01*
X56367Y107447D01*
X56441Y107415D01*
X57168Y107190D01*
X57486Y106926D01*
X57494Y106922D01*
X57499Y106916D01*
X57642Y106827D01*
X59659Y105854D01*
X59668Y105852D01*
X59675Y105847D01*
X59834Y105795D01*
X60239Y105710D01*
X60867Y105281D01*
X60897Y105268D01*
X60966Y105225D01*
X61651Y104894D01*
X61927Y104586D01*
X61933Y104580D01*
X61938Y104573D01*
X62065Y104464D01*
X62806Y103959D01*
X62831Y103947D01*
X62851Y103930D01*
X62941Y103896D01*
X63029Y103855D01*
X63056Y103852D01*
X63081Y103842D01*
X63177Y103838D01*
X63274Y103827D01*
X63300Y103833D01*
X63326Y103832D01*
X63420Y103859D01*
X63514Y103879D01*
X63537Y103893D01*
X63563Y103900D01*
X63642Y103955D01*
X63725Y104005D01*
X63743Y104025D01*
X63765Y104040D01*
X63823Y104118D01*
X63886Y104192D01*
X63896Y104216D01*
X63912Y104238D01*
X63942Y104330D01*
X63978Y104420D01*
X63979Y104446D01*
X63988Y104472D01*
X63987Y104569D01*
X63993Y104665D01*
X63986Y104691D01*
X63985Y104718D01*
X63939Y104879D01*
X62429Y108523D01*
X62429Y117537D01*
X65879Y125866D01*
X72254Y132241D01*
X80583Y135691D01*
X89597Y135691D01*
X97926Y132241D01*
X104301Y125866D01*
X107751Y117537D01*
X107751Y108523D01*
X104301Y100194D01*
X97926Y93819D01*
X89597Y90369D01*
X80583Y90369D01*
X74930Y92711D01*
X74842Y92731D01*
X74756Y92760D01*
X74723Y92759D01*
X74690Y92767D01*
X74600Y92758D01*
X74510Y92758D01*
X74479Y92747D01*
X74445Y92744D01*
X74363Y92707D01*
X74278Y92678D01*
X74251Y92657D01*
X74221Y92644D01*
X74154Y92583D01*
X74083Y92528D01*
X74064Y92500D01*
X74039Y92477D01*
X73996Y92398D01*
X73946Y92323D01*
X73937Y92291D01*
X73921Y92262D01*
X73905Y92173D01*
X73881Y92086D01*
X73883Y92053D01*
X73877Y92020D01*
X73890Y91931D01*
X73896Y91841D01*
X73908Y91810D01*
X73913Y91777D01*
X73954Y91696D01*
X73988Y91612D01*
X74014Y91579D01*
X74024Y91557D01*
X74047Y91535D01*
X74090Y91480D01*
X74096Y91473D01*
X74374Y90765D01*
X74390Y90737D01*
X74423Y90663D01*
X74803Y90004D01*
X74857Y89594D01*
X74859Y89585D01*
X74859Y89577D01*
X74903Y89415D01*
X75721Y87329D01*
X75725Y87322D01*
X75727Y87314D01*
X75808Y87167D01*
X76048Y86830D01*
X76217Y86088D01*
X76229Y86057D01*
X76250Y85979D01*
X76528Y85271D01*
X76520Y84858D01*
X76521Y84849D01*
X76520Y84841D01*
X76539Y84674D01*
X77037Y82490D01*
X77040Y82482D01*
X77041Y82473D01*
X77099Y82316D01*
X77285Y81947D01*
X77342Y81189D01*
X77350Y81157D01*
X77359Y81076D01*
X77528Y80334D01*
X77459Y79927D01*
X77459Y79918D01*
X77456Y79910D01*
X77450Y79742D01*
X77617Y77509D01*
X77619Y77500D01*
X77618Y77492D01*
X77652Y77327D01*
X77782Y76935D01*
X77725Y76176D01*
X77727Y76143D01*
X77724Y76062D01*
X77781Y75304D01*
X77652Y74911D01*
X77650Y74903D01*
X77647Y74895D01*
X77616Y74730D01*
X77448Y72496D01*
X77448Y72488D01*
X77446Y72479D01*
X77456Y72312D01*
X77525Y71904D01*
X77356Y71163D01*
X77354Y71130D01*
X77339Y71050D01*
X77282Y70292D01*
X77095Y69923D01*
X77093Y69914D01*
X77088Y69907D01*
X77033Y69749D01*
X76533Y67565D01*
X76533Y67557D01*
X76530Y67549D01*
X76514Y67381D01*
X76522Y66968D01*
X76244Y66260D01*
X76237Y66228D01*
X76210Y66151D01*
X76041Y65410D01*
X75801Y65073D01*
X75798Y65065D01*
X75792Y65059D01*
X75714Y64910D01*
X74894Y62825D01*
X74893Y62817D01*
X74888Y62809D01*
X74848Y62647D01*
X74794Y62237D01*
X74414Y61578D01*
X74402Y61547D01*
X74364Y61476D01*
X74086Y60768D01*
X73799Y60470D01*
X73794Y60463D01*
X73788Y60458D01*
X73688Y60322D01*
X72568Y58383D01*
X72564Y58375D01*
X72559Y58368D01*
X72495Y58213D01*
X72381Y57816D01*
X71906Y57221D01*
X71890Y57192D01*
X71842Y57127D01*
X71461Y56468D01*
X71133Y56217D01*
X71127Y56211D01*
X71120Y56206D01*
X71002Y56088D01*
X69604Y54337D01*
X69600Y54329D01*
X69594Y54323D01*
X69508Y54180D01*
X69479Y54118D01*
X69471Y54086D01*
X69455Y54058D01*
X69438Y53968D01*
X69414Y53880D01*
X69416Y53848D01*
X69410Y53816D01*
X69423Y53726D01*
X69428Y53635D01*
X69440Y53605D01*
X69444Y53573D01*
X69512Y53419D01*
X93325Y12171D01*
X93368Y12119D01*
X93403Y12061D01*
X93445Y12025D01*
X93481Y11981D01*
X93538Y11945D01*
X93590Y11901D01*
X93642Y11880D01*
X93689Y11850D01*
X93755Y11834D01*
X93818Y11809D01*
X93897Y11800D01*
X93929Y11793D01*
X93949Y11795D01*
X93985Y11791D01*
X253995Y11791D01*
X254062Y11802D01*
G37*
%LPC*%
G36*
X120462Y75183D02*
X120462Y75183D01*
X115420Y77272D01*
X111562Y81130D01*
X109473Y86172D01*
X109473Y106868D01*
X110803Y110078D01*
X110817Y110138D01*
X110841Y110196D01*
X110851Y110285D01*
X110859Y110317D01*
X110857Y110334D01*
X110860Y110362D01*
X111965Y240279D01*
X111948Y240384D01*
X111937Y240490D01*
X111929Y240505D01*
X111927Y240522D01*
X111878Y240617D01*
X111833Y240713D01*
X111820Y240729D01*
X111814Y240740D01*
X111791Y240762D01*
X111724Y240841D01*
X101578Y250357D01*
X101512Y250401D01*
X101452Y250453D01*
X101411Y250470D01*
X101374Y250494D01*
X101298Y250515D01*
X101224Y250545D01*
X101165Y250551D01*
X101137Y250559D01*
X101109Y250558D01*
X101097Y250559D01*
X95722Y252786D01*
X91616Y256892D01*
X89393Y262257D01*
X89393Y268063D01*
X91616Y273428D01*
X95722Y277534D01*
X101087Y279757D01*
X106893Y279757D01*
X112258Y277534D01*
X116364Y273428D01*
X118205Y268984D01*
X118246Y268918D01*
X118279Y268848D01*
X118319Y268801D01*
X118335Y268775D01*
X118355Y268758D01*
X118388Y268721D01*
X123111Y264290D01*
X123161Y264257D01*
X123204Y264216D01*
X123262Y264189D01*
X123315Y264153D01*
X123373Y264137D01*
X123427Y264112D01*
X123491Y264105D01*
X123553Y264088D01*
X123612Y264092D01*
X123671Y264085D01*
X123734Y264099D01*
X123798Y264102D01*
X123854Y264125D01*
X123912Y264137D01*
X123967Y264170D01*
X124026Y264194D01*
X124072Y264233D01*
X124123Y264264D01*
X124165Y264312D01*
X124214Y264354D01*
X124244Y264405D01*
X124283Y264450D01*
X124307Y264510D01*
X124340Y264565D01*
X124352Y264623D01*
X124375Y264679D01*
X124385Y264774D01*
X124392Y264805D01*
X124391Y264821D01*
X124393Y264845D01*
X124393Y268063D01*
X126616Y273428D01*
X130722Y277534D01*
X136087Y279757D01*
X141893Y279757D01*
X147258Y277534D01*
X151364Y273428D01*
X152990Y269505D01*
X153036Y269430D01*
X153076Y269350D01*
X153106Y269317D01*
X153119Y269296D01*
X153143Y269276D01*
X153189Y269226D01*
X156488Y266313D01*
X156521Y266292D01*
X156548Y266264D01*
X156695Y266182D01*
X156995Y266055D01*
X158089Y264943D01*
X158150Y264899D01*
X158204Y264847D01*
X158248Y264826D01*
X158288Y264797D01*
X158359Y264775D01*
X158427Y264743D01*
X158476Y264738D01*
X158523Y264723D01*
X158597Y264725D01*
X158671Y264716D01*
X158719Y264727D01*
X158768Y264728D01*
X158839Y264753D01*
X158912Y264769D01*
X158954Y264794D01*
X159000Y264810D01*
X159059Y264856D01*
X159123Y264895D01*
X159155Y264932D01*
X159193Y264962D01*
X159234Y265025D01*
X159283Y265082D01*
X159301Y265127D01*
X159328Y265168D01*
X159347Y265241D01*
X159375Y265310D01*
X159382Y265376D01*
X159390Y265406D01*
X159388Y265431D01*
X159393Y265477D01*
X159393Y268063D01*
X161616Y273428D01*
X165722Y277534D01*
X171087Y279757D01*
X176893Y279757D01*
X182258Y277534D01*
X186364Y273428D01*
X188587Y268063D01*
X188587Y262718D01*
X188602Y262625D01*
X188610Y262531D01*
X188622Y262504D01*
X188626Y262475D01*
X188671Y262392D01*
X188708Y262305D01*
X188728Y262283D01*
X188742Y262258D01*
X188810Y262193D01*
X188873Y262123D01*
X188899Y262108D01*
X188920Y262088D01*
X189006Y262049D01*
X189088Y262002D01*
X189116Y261997D01*
X189143Y261985D01*
X189237Y261974D01*
X189330Y261957D01*
X189358Y261961D01*
X189387Y261958D01*
X189480Y261978D01*
X189573Y261991D01*
X189599Y262004D01*
X189628Y262010D01*
X189709Y262058D01*
X189793Y262100D01*
X189814Y262121D01*
X189839Y262136D01*
X189900Y262208D01*
X189967Y262275D01*
X189985Y262307D01*
X189999Y262323D01*
X190011Y262353D01*
X190049Y262421D01*
X190165Y262695D01*
X191559Y264066D01*
X191572Y264084D01*
X191600Y264110D01*
X194207Y267115D01*
X194224Y267142D01*
X194224Y267143D01*
X194241Y267170D01*
X194283Y267219D01*
X194305Y267274D01*
X194336Y267324D01*
X194351Y267387D01*
X194375Y267447D01*
X194384Y267532D01*
X194392Y267564D01*
X194390Y267583D01*
X194393Y267614D01*
X194393Y268063D01*
X196616Y273428D01*
X200722Y277534D01*
X206087Y279757D01*
X211893Y279757D01*
X217258Y277534D01*
X221364Y273428D01*
X223587Y268063D01*
X223587Y262257D01*
X221364Y256892D01*
X217258Y252786D01*
X213537Y251244D01*
X213440Y251184D01*
X213342Y251126D01*
X213336Y251119D01*
X213328Y251114D01*
X213255Y251027D01*
X213181Y250941D01*
X213177Y250932D01*
X213171Y250925D01*
X213130Y250819D01*
X213087Y250713D01*
X213086Y250702D01*
X213083Y250695D01*
X213082Y250672D01*
X213067Y250547D01*
X211943Y109834D01*
X211954Y109767D01*
X211955Y109698D01*
X211976Y109624D01*
X211981Y109591D01*
X211991Y109572D01*
X212001Y109537D01*
X213107Y106868D01*
X213107Y86172D01*
X211018Y81130D01*
X207160Y77272D01*
X202118Y75183D01*
X196662Y75183D01*
X191620Y77272D01*
X187762Y81130D01*
X187393Y82019D01*
X187356Y82080D01*
X187326Y82145D01*
X187291Y82184D01*
X187264Y82228D01*
X187209Y82274D01*
X187160Y82327D01*
X187114Y82352D01*
X187074Y82385D01*
X187007Y82411D01*
X186944Y82445D01*
X186893Y82454D01*
X186845Y82473D01*
X186773Y82476D01*
X186702Y82489D01*
X186651Y82481D01*
X186599Y82483D01*
X186530Y82464D01*
X186459Y82453D01*
X186413Y82429D01*
X186363Y82415D01*
X186304Y82374D01*
X186240Y82342D01*
X186203Y82304D01*
X186161Y82275D01*
X186118Y82217D01*
X186068Y82166D01*
X186033Y82103D01*
X186014Y82077D01*
X186007Y82055D01*
X185987Y82019D01*
X185618Y81130D01*
X181760Y77272D01*
X176718Y75183D01*
X171262Y75183D01*
X166220Y77272D01*
X162362Y81130D01*
X161993Y82019D01*
X161956Y82080D01*
X161926Y82145D01*
X161891Y82184D01*
X161864Y82228D01*
X161809Y82274D01*
X161760Y82327D01*
X161714Y82352D01*
X161674Y82385D01*
X161607Y82411D01*
X161544Y82445D01*
X161493Y82454D01*
X161445Y82473D01*
X161373Y82476D01*
X161302Y82489D01*
X161251Y82481D01*
X161199Y82483D01*
X161130Y82464D01*
X161059Y82453D01*
X161013Y82429D01*
X160963Y82415D01*
X160904Y82374D01*
X160840Y82342D01*
X160803Y82304D01*
X160761Y82275D01*
X160718Y82217D01*
X160668Y82166D01*
X160633Y82103D01*
X160614Y82077D01*
X160607Y82055D01*
X160587Y82019D01*
X160218Y81130D01*
X156360Y77272D01*
X151318Y75183D01*
X145862Y75183D01*
X140820Y77272D01*
X136962Y81130D01*
X136593Y82019D01*
X136556Y82080D01*
X136526Y82145D01*
X136491Y82184D01*
X136464Y82228D01*
X136409Y82274D01*
X136360Y82327D01*
X136314Y82352D01*
X136274Y82385D01*
X136207Y82411D01*
X136144Y82445D01*
X136093Y82454D01*
X136045Y82473D01*
X135973Y82476D01*
X135902Y82489D01*
X135851Y82481D01*
X135799Y82483D01*
X135730Y82464D01*
X135659Y82453D01*
X135613Y82429D01*
X135563Y82415D01*
X135504Y82374D01*
X135440Y82342D01*
X135403Y82304D01*
X135361Y82275D01*
X135318Y82217D01*
X135268Y82166D01*
X135233Y82103D01*
X135214Y82077D01*
X135207Y82055D01*
X135187Y82019D01*
X134818Y81130D01*
X130960Y77272D01*
X125918Y75183D01*
X120462Y75183D01*
G37*
%LPD*%
G36*
X290418Y52241D02*
X290418Y52241D01*
X290491Y52241D01*
X290516Y52252D01*
X290543Y52255D01*
X290607Y52291D01*
X290674Y52319D01*
X290693Y52339D01*
X290716Y52352D01*
X290784Y52433D01*
X290812Y52463D01*
X290815Y52472D01*
X290822Y52481D01*
X317822Y99281D01*
X317831Y99306D01*
X317847Y99329D01*
X317862Y99400D01*
X317886Y99469D01*
X317883Y99496D01*
X317889Y99523D01*
X317876Y99594D01*
X317870Y99667D01*
X317857Y99692D01*
X317852Y99718D01*
X317812Y99779D01*
X317778Y99844D01*
X317757Y99861D01*
X317742Y99884D01*
X317656Y99945D01*
X317625Y99970D01*
X317616Y99973D01*
X317606Y99980D01*
X313968Y101731D01*
X313937Y101738D01*
X313899Y101758D01*
X310040Y102947D01*
X310008Y102950D01*
X309967Y102963D01*
X305974Y103564D01*
X305943Y103562D01*
X305900Y103569D01*
X301862Y103568D01*
X301831Y103562D01*
X301788Y103562D01*
X297796Y102959D01*
X297766Y102948D01*
X297723Y102943D01*
X293865Y101751D01*
X293837Y101736D01*
X293796Y101724D01*
X290158Y99971D01*
X290133Y99952D01*
X290094Y99934D01*
X286758Y97658D01*
X286736Y97635D01*
X286700Y97612D01*
X283741Y94864D01*
X283722Y94839D01*
X283690Y94810D01*
X281174Y91652D01*
X281159Y91624D01*
X281132Y91590D01*
X279114Y88093D01*
X279104Y88063D01*
X279082Y88026D01*
X277608Y84267D01*
X277602Y84235D01*
X277586Y84195D01*
X276689Y80259D01*
X276688Y80227D01*
X276678Y80185D01*
X276377Y76159D01*
X276381Y76127D01*
X276377Y76084D01*
X276680Y72058D01*
X276689Y72027D01*
X276691Y71984D01*
X277591Y68048D01*
X277604Y68019D01*
X277613Y67976D01*
X279089Y64218D01*
X279107Y64191D01*
X279122Y64151D01*
X281142Y60655D01*
X281163Y60631D01*
X281184Y60593D01*
X283702Y57437D01*
X283727Y57417D01*
X283753Y57383D01*
X286714Y54637D01*
X286741Y54621D01*
X286772Y54591D01*
X290109Y52317D01*
X290134Y52307D01*
X290155Y52290D01*
X290225Y52269D01*
X290292Y52240D01*
X290320Y52241D01*
X290346Y52233D01*
X290418Y52241D01*
G37*
G36*
X57594Y52240D02*
X57594Y52240D01*
X57667Y52237D01*
X57693Y52246D01*
X57720Y52248D01*
X57816Y52292D01*
X57854Y52306D01*
X57861Y52313D01*
X57871Y52317D01*
X61208Y54591D01*
X61230Y54614D01*
X61266Y54637D01*
X64227Y57383D01*
X64246Y57409D01*
X64278Y57437D01*
X66796Y60593D01*
X66811Y60622D01*
X66838Y60655D01*
X68858Y64151D01*
X68868Y64181D01*
X68891Y64218D01*
X70367Y67976D01*
X70372Y68008D01*
X70389Y68048D01*
X71289Y71984D01*
X71289Y72016D01*
X71300Y72058D01*
X71603Y76084D01*
X71599Y76115D01*
X71603Y76159D01*
X71302Y80185D01*
X71294Y80216D01*
X71291Y80259D01*
X70394Y84195D01*
X70381Y84224D01*
X70372Y84267D01*
X68898Y88026D01*
X68881Y88053D01*
X68866Y88093D01*
X66848Y91590D01*
X66827Y91614D01*
X66806Y91652D01*
X64290Y94810D01*
X64265Y94830D01*
X64239Y94864D01*
X61280Y97612D01*
X61253Y97628D01*
X61222Y97658D01*
X57886Y99934D01*
X57857Y99946D01*
X57822Y99971D01*
X54185Y101724D01*
X54154Y101732D01*
X54115Y101751D01*
X50257Y102943D01*
X50225Y102946D01*
X50184Y102959D01*
X46192Y103562D01*
X46160Y103561D01*
X46118Y103568D01*
X42080Y103569D01*
X42049Y103563D01*
X42006Y103564D01*
X38013Y102963D01*
X37983Y102952D01*
X37940Y102947D01*
X34081Y101758D01*
X34053Y101743D01*
X34012Y101731D01*
X30374Y99980D01*
X30352Y99963D01*
X30326Y99954D01*
X30273Y99904D01*
X30215Y99860D01*
X30202Y99836D01*
X30182Y99817D01*
X30152Y99751D01*
X30116Y99687D01*
X30113Y99660D01*
X30102Y99635D01*
X30101Y99562D01*
X30092Y99490D01*
X30100Y99464D01*
X30100Y99436D01*
X30136Y99338D01*
X30148Y99299D01*
X30154Y99291D01*
X30158Y99281D01*
X57158Y52481D01*
X57176Y52460D01*
X57187Y52435D01*
X57241Y52386D01*
X57289Y52332D01*
X57314Y52320D01*
X57334Y52301D01*
X57403Y52277D01*
X57469Y52246D01*
X57496Y52245D01*
X57521Y52235D01*
X57594Y52240D01*
G37*
D10*
X243990Y265160D03*
X208990Y265160D03*
X173990Y265160D03*
X138990Y265160D03*
X103990Y265160D03*
D11*
X224790Y104140D02*
X224790Y88900D01*
X199390Y88900D02*
X199390Y104140D01*
X173990Y104140D02*
X173990Y88900D01*
X148590Y88900D02*
X148590Y104140D01*
X123190Y104140D02*
X123190Y88900D01*
D12*
X297890Y79630D03*
X50090Y79630D03*
D13*
X173990Y96520D02*
X173990Y265160D01*
X200660Y255560D02*
X208990Y265160D01*
X200660Y255560D02*
X199390Y96520D01*
X123190Y96520D02*
X124460Y245960D01*
X103990Y265160D01*
X149860Y255560D02*
X148590Y96520D01*
X149860Y255560D02*
X138990Y265160D01*
M02*
