G04 EAGLE Gerber RS-274X export*
G75*
%MOMM*%
%FSLAX34Y34*%
%LPD*%
%INSilkscreen Top*%
%IPPOS*%
%AMOC8*
5,1,8,0,0,1.08239X$1,22.5*%
G01*
%ADD10C,0.127000*%
%ADD11R,0.014731X0.014731*%
%ADD12R,0.147319X0.014731*%
%ADD13R,0.265175X0.014731*%
%ADD14R,0.383031X0.014731*%
%ADD15R,0.515619X0.014731*%
%ADD16R,0.633475X0.014731*%
%ADD17R,0.751331X0.014731*%
%ADD18R,0.883919X0.014731*%
%ADD19R,1.001775X0.014731*%
%ADD20R,1.119631X0.014731*%
%ADD21R,1.134363X0.014731*%
%ADD22R,1.149094X0.014731*%
%ADD23R,1.163825X0.014731*%
%ADD24R,1.178556X0.014731*%
%ADD25R,1.193288X0.014731*%
%ADD26R,1.222756X0.014731*%
%ADD27R,1.237488X0.014731*%
%ADD28R,1.266950X0.014731*%
%ADD29R,1.281681X0.014731*%
%ADD30R,1.311144X0.014731*%
%ADD31R,1.325881X0.014731*%
%ADD32R,1.355344X0.014731*%
%ADD33R,1.370075X0.014731*%
%ADD34R,1.384806X0.014731*%
%ADD35R,1.399538X0.014731*%
%ADD36R,1.414275X0.014731*%
%ADD37R,1.443738X0.014731*%
%ADD38R,1.458469X0.014731*%
%ADD39R,1.487931X0.014731*%
%ADD40R,1.502663X0.014731*%
%ADD41R,1.517394X0.014731*%
%ADD42R,1.532125X0.014731*%
%ADD43R,1.546856X0.014731*%
%ADD44R,1.576319X0.014731*%
%ADD45R,1.605788X0.014731*%
%ADD46R,1.620519X0.014731*%
%ADD47R,1.649981X0.014731*%
%ADD48R,1.664713X0.014731*%
%ADD49R,1.694175X0.014731*%
%ADD50R,1.708913X0.014731*%
%ADD51R,1.738375X0.014731*%
%ADD52R,1.753106X0.014731*%
%ADD53R,1.767838X0.014731*%
%ADD54R,1.782569X0.014731*%
%ADD55R,1.797306X0.014731*%
%ADD56R,0.117856X0.014731*%
%ADD57R,1.826769X0.014731*%
%ADD58R,0.235713X0.014731*%
%ADD59R,0.353569X0.014731*%
%ADD60R,1.856231X0.014731*%
%ADD61R,0.486156X0.014731*%
%ADD62R,1.870963X0.014731*%
%ADD63R,0.604013X0.014731*%
%ADD64R,0.721869X0.014731*%
%ADD65R,1.885694X0.014731*%
%ADD66R,0.839719X0.014731*%
%ADD67R,0.972306X0.014731*%
%ADD68R,1.090169X0.014731*%
%ADD69R,1.208025X0.014731*%
%ADD70R,1.252219X0.014731*%
%ADD71R,1.296412X0.014731*%
%ADD72R,1.340612X0.014731*%
%ADD73R,1.826763X0.014731*%
%ADD74R,1.414269X0.014731*%
%ADD75R,1.812031X0.014731*%
%ADD76R,1.429000X0.014731*%
%ADD77R,1.458462X0.014731*%
%ADD78R,1.473200X0.014731*%
%ADD79R,1.723644X0.014731*%
%ADD80R,1.694181X0.014731*%
%ADD81R,1.679450X0.014731*%
%ADD82R,1.561594X0.014731*%
%ADD83R,1.576325X0.014731*%
%ADD84R,1.591056X0.014731*%
%ADD85R,1.635250X0.014731*%
%ADD86R,1.561588X0.014731*%
%ADD87R,1.443731X0.014731*%
%ADD88R,1.797300X0.014731*%
%ADD89R,1.841500X0.014731*%
%ADD90R,1.311150X0.014731*%
%ADD91R,1.296419X0.014731*%
%ADD92R,1.193294X0.014731*%
%ADD93R,0.957575X0.014731*%
%ADD94R,0.589281X0.014731*%
%ADD95R,0.471425X0.014731*%
%ADD96R,0.220975X0.014731*%
%ADD97R,1.812038X0.014731*%
%ADD98R,0.103119X0.014731*%
%ADD99R,0.029463X0.014731*%
%ADD100R,0.162050X0.014731*%
%ADD101R,0.397763X0.014731*%
%ADD102R,0.648206X0.014731*%
%ADD103R,1.679444X0.014731*%
%ADD104R,1.016506X0.014731*%
%ADD105R,1.104900X0.014731*%
%ADD106R,1.222750X0.014731*%
%ADD107R,1.429006X0.014731*%
%ADD108R,1.208019X0.014731*%
%ADD109R,0.987044X0.014731*%
%ADD110R,0.854456X0.014731*%
%ADD111R,0.618744X0.014731*%
%ADD112R,0.500888X0.014731*%
%ADD113R,0.368300X0.014731*%
%ADD114R,0.132587X0.014731*%
%ADD115R,1.664719X0.014731*%
%ADD116R,1.075438X0.014731*%
%ADD117R,0.942844X0.014731*%
%ADD118R,0.707131X0.014731*%
%ADD119R,0.456694X0.014731*%
%ADD120R,0.088388X0.014731*%
%ADD121C,0.152400*%
%ADD122C,0.101600*%
%ADD123C,0.076200*%
%ADD124R,0.762000X1.016000*%

G36*
X261212Y285882D02*
X261212Y285882D01*
X261234Y285880D01*
X261309Y285902D01*
X261387Y285917D01*
X261405Y285930D01*
X261426Y285936D01*
X261487Y285986D01*
X261552Y286030D01*
X261564Y286049D01*
X261582Y286063D01*
X261619Y286132D01*
X261662Y286198D01*
X261665Y286220D01*
X261676Y286239D01*
X261683Y286318D01*
X261697Y286395D01*
X261692Y286417D01*
X261694Y286439D01*
X261665Y286538D01*
X261654Y286591D01*
X261647Y286600D01*
X261644Y286612D01*
X258469Y292962D01*
X258427Y293015D01*
X258393Y293073D01*
X258366Y293093D01*
X258345Y293120D01*
X258287Y293153D01*
X258233Y293193D01*
X258200Y293201D01*
X258171Y293218D01*
X258104Y293225D01*
X258038Y293242D01*
X258005Y293237D01*
X257971Y293240D01*
X257907Y293221D01*
X257840Y293211D01*
X257811Y293193D01*
X257779Y293184D01*
X257727Y293141D01*
X257669Y293106D01*
X257647Y293077D01*
X257623Y293058D01*
X257600Y293014D01*
X257561Y292962D01*
X254386Y286612D01*
X254381Y286590D01*
X254368Y286572D01*
X254354Y286494D01*
X254334Y286418D01*
X254337Y286396D01*
X254333Y286375D01*
X254350Y286298D01*
X254360Y286220D01*
X254372Y286201D01*
X254376Y286179D01*
X254422Y286115D01*
X254462Y286047D01*
X254480Y286034D01*
X254492Y286016D01*
X254559Y285974D01*
X254622Y285927D01*
X254644Y285921D01*
X254663Y285910D01*
X254764Y285891D01*
X254817Y285878D01*
X254828Y285880D01*
X254840Y285878D01*
X261190Y285878D01*
X261212Y285882D01*
G37*
D10*
X112649Y198766D02*
X97155Y198766D01*
X97155Y203069D02*
X97155Y194462D01*
X112649Y207476D02*
X97155Y217805D01*
X97155Y207476D02*
X112649Y217805D01*
X243741Y187361D02*
X243741Y184779D01*
X243741Y187361D02*
X252349Y187361D01*
X252349Y182197D01*
X252347Y182082D01*
X252341Y181967D01*
X252332Y181852D01*
X252318Y181738D01*
X252301Y181624D01*
X252280Y181511D01*
X252255Y181399D01*
X252227Y181287D01*
X252194Y181177D01*
X252158Y181068D01*
X252119Y180960D01*
X252076Y180853D01*
X252029Y180748D01*
X251979Y180644D01*
X251925Y180542D01*
X251868Y180442D01*
X251808Y180344D01*
X251745Y180248D01*
X251678Y180155D01*
X251608Y180063D01*
X251535Y179974D01*
X251460Y179887D01*
X251381Y179803D01*
X251300Y179722D01*
X251216Y179644D01*
X251129Y179568D01*
X251040Y179495D01*
X250948Y179425D01*
X250855Y179358D01*
X250759Y179295D01*
X250661Y179235D01*
X250561Y179178D01*
X250459Y179124D01*
X250355Y179074D01*
X250250Y179027D01*
X250143Y178984D01*
X250035Y178945D01*
X249926Y178909D01*
X249816Y178876D01*
X249704Y178848D01*
X249592Y178823D01*
X249479Y178802D01*
X249365Y178785D01*
X249251Y178771D01*
X249136Y178762D01*
X249021Y178756D01*
X248906Y178754D01*
X240298Y178754D01*
X240183Y178756D01*
X240068Y178762D01*
X239953Y178771D01*
X239839Y178785D01*
X239725Y178802D01*
X239612Y178823D01*
X239500Y178848D01*
X239388Y178876D01*
X239278Y178909D01*
X239169Y178945D01*
X239061Y178984D01*
X238954Y179027D01*
X238849Y179074D01*
X238745Y179124D01*
X238643Y179178D01*
X238543Y179235D01*
X238445Y179295D01*
X238349Y179358D01*
X238256Y179425D01*
X238164Y179495D01*
X238075Y179568D01*
X237988Y179643D01*
X237904Y179722D01*
X237823Y179803D01*
X237745Y179887D01*
X237669Y179974D01*
X237596Y180063D01*
X237526Y180155D01*
X237459Y180248D01*
X237396Y180344D01*
X237336Y180442D01*
X237279Y180542D01*
X237225Y180644D01*
X237175Y180748D01*
X237128Y180853D01*
X237085Y180960D01*
X237046Y181068D01*
X237010Y181177D01*
X236977Y181287D01*
X236949Y181399D01*
X236924Y181511D01*
X236903Y181624D01*
X236886Y181738D01*
X236872Y181852D01*
X236863Y181967D01*
X236857Y182082D01*
X236855Y182197D01*
X236855Y187361D01*
X236855Y194610D02*
X252349Y194610D01*
X252349Y203218D02*
X236855Y194610D01*
X236855Y203218D02*
X252349Y203218D01*
X252349Y210467D02*
X236855Y210467D01*
X236855Y214771D01*
X236857Y214901D01*
X236863Y215031D01*
X236873Y215161D01*
X236886Y215290D01*
X236904Y215419D01*
X236926Y215547D01*
X236951Y215674D01*
X236980Y215801D01*
X237013Y215927D01*
X237050Y216051D01*
X237090Y216175D01*
X237135Y216297D01*
X237183Y216418D01*
X237234Y216537D01*
X237289Y216655D01*
X237348Y216771D01*
X237410Y216885D01*
X237476Y216998D01*
X237545Y217108D01*
X237617Y217216D01*
X237692Y217322D01*
X237771Y217425D01*
X237853Y217526D01*
X237937Y217625D01*
X238025Y217721D01*
X238116Y217814D01*
X238209Y217905D01*
X238305Y217993D01*
X238404Y218077D01*
X238505Y218159D01*
X238608Y218238D01*
X238714Y218313D01*
X238822Y218385D01*
X238932Y218454D01*
X239045Y218520D01*
X239159Y218582D01*
X239275Y218641D01*
X239393Y218696D01*
X239512Y218747D01*
X239633Y218795D01*
X239755Y218840D01*
X239879Y218880D01*
X240003Y218917D01*
X240129Y218950D01*
X240256Y218979D01*
X240383Y219005D01*
X240511Y219026D01*
X240640Y219044D01*
X240770Y219057D01*
X240899Y219067D01*
X241029Y219073D01*
X241159Y219075D01*
X248045Y219075D01*
X248175Y219073D01*
X248305Y219067D01*
X248435Y219057D01*
X248564Y219044D01*
X248693Y219026D01*
X248821Y219005D01*
X248948Y218979D01*
X249075Y218950D01*
X249201Y218917D01*
X249325Y218880D01*
X249449Y218840D01*
X249571Y218795D01*
X249692Y218747D01*
X249811Y218696D01*
X249929Y218641D01*
X250045Y218582D01*
X250159Y218520D01*
X250272Y218454D01*
X250382Y218385D01*
X250490Y218313D01*
X250596Y218238D01*
X250699Y218159D01*
X250800Y218077D01*
X250899Y217993D01*
X250995Y217905D01*
X251088Y217814D01*
X251179Y217721D01*
X251267Y217625D01*
X251351Y217526D01*
X251433Y217425D01*
X251512Y217322D01*
X251587Y217216D01*
X251659Y217108D01*
X251728Y216998D01*
X251794Y216885D01*
X251856Y216771D01*
X251915Y216655D01*
X251970Y216537D01*
X252021Y216418D01*
X252069Y216297D01*
X252114Y216175D01*
X252154Y216051D01*
X252191Y215927D01*
X252224Y215801D01*
X252253Y215674D01*
X252279Y215547D01*
X252300Y215419D01*
X252318Y215290D01*
X252331Y215161D01*
X252341Y215031D01*
X252347Y214901D01*
X252349Y214771D01*
X252349Y210467D01*
X218059Y183299D02*
X202565Y183299D01*
X202565Y187603D01*
X202567Y187733D01*
X202573Y187863D01*
X202583Y187993D01*
X202596Y188122D01*
X202614Y188251D01*
X202635Y188379D01*
X202661Y188506D01*
X202690Y188633D01*
X202723Y188759D01*
X202760Y188883D01*
X202800Y189007D01*
X202845Y189129D01*
X202893Y189250D01*
X202944Y189369D01*
X202999Y189487D01*
X203058Y189603D01*
X203120Y189717D01*
X203186Y189830D01*
X203255Y189940D01*
X203327Y190048D01*
X203402Y190154D01*
X203481Y190257D01*
X203563Y190358D01*
X203647Y190457D01*
X203735Y190553D01*
X203826Y190646D01*
X203919Y190737D01*
X204015Y190825D01*
X204114Y190909D01*
X204215Y190991D01*
X204318Y191070D01*
X204424Y191145D01*
X204532Y191217D01*
X204642Y191286D01*
X204755Y191352D01*
X204869Y191414D01*
X204985Y191473D01*
X205103Y191528D01*
X205222Y191579D01*
X205343Y191627D01*
X205465Y191672D01*
X205589Y191712D01*
X205713Y191749D01*
X205839Y191782D01*
X205966Y191811D01*
X206093Y191837D01*
X206221Y191858D01*
X206350Y191876D01*
X206479Y191889D01*
X206609Y191899D01*
X206739Y191905D01*
X206869Y191907D01*
X206999Y191905D01*
X207129Y191899D01*
X207259Y191889D01*
X207388Y191876D01*
X207517Y191858D01*
X207645Y191837D01*
X207772Y191811D01*
X207899Y191782D01*
X208025Y191749D01*
X208149Y191712D01*
X208273Y191672D01*
X208395Y191627D01*
X208516Y191579D01*
X208635Y191528D01*
X208753Y191473D01*
X208869Y191414D01*
X208983Y191352D01*
X209096Y191286D01*
X209206Y191217D01*
X209314Y191145D01*
X209420Y191070D01*
X209523Y190991D01*
X209624Y190909D01*
X209723Y190825D01*
X209819Y190737D01*
X209912Y190646D01*
X210003Y190553D01*
X210091Y190457D01*
X210175Y190358D01*
X210257Y190257D01*
X210336Y190154D01*
X210411Y190048D01*
X210483Y189940D01*
X210552Y189830D01*
X210618Y189717D01*
X210680Y189603D01*
X210739Y189487D01*
X210794Y189369D01*
X210845Y189250D01*
X210893Y189129D01*
X210938Y189007D01*
X210978Y188883D01*
X211015Y188759D01*
X211048Y188633D01*
X211077Y188506D01*
X211103Y188379D01*
X211124Y188251D01*
X211142Y188122D01*
X211155Y187993D01*
X211165Y187863D01*
X211171Y187733D01*
X211173Y187603D01*
X211173Y183299D01*
X211173Y188463D02*
X218059Y191907D01*
X218059Y201392D02*
X202565Y201392D01*
X202565Y197088D02*
X202565Y205696D01*
X214616Y219075D02*
X214731Y219073D01*
X214846Y219067D01*
X214961Y219058D01*
X215075Y219044D01*
X215189Y219027D01*
X215302Y219006D01*
X215414Y218981D01*
X215526Y218953D01*
X215636Y218920D01*
X215745Y218884D01*
X215853Y218845D01*
X215960Y218802D01*
X216065Y218755D01*
X216169Y218705D01*
X216271Y218651D01*
X216371Y218594D01*
X216469Y218534D01*
X216565Y218471D01*
X216658Y218404D01*
X216750Y218334D01*
X216839Y218261D01*
X216926Y218186D01*
X217010Y218107D01*
X217091Y218026D01*
X217170Y217942D01*
X217245Y217855D01*
X217318Y217766D01*
X217388Y217674D01*
X217455Y217581D01*
X217518Y217485D01*
X217578Y217387D01*
X217635Y217287D01*
X217689Y217185D01*
X217739Y217081D01*
X217786Y216976D01*
X217829Y216869D01*
X217868Y216761D01*
X217904Y216652D01*
X217937Y216542D01*
X217965Y216430D01*
X217990Y216318D01*
X218011Y216205D01*
X218028Y216091D01*
X218042Y215977D01*
X218051Y215862D01*
X218057Y215747D01*
X218059Y215632D01*
X218057Y215458D01*
X218051Y215284D01*
X218040Y215110D01*
X218026Y214937D01*
X218007Y214764D01*
X217984Y214591D01*
X217957Y214419D01*
X217926Y214248D01*
X217891Y214078D01*
X217852Y213908D01*
X217809Y213740D01*
X217761Y213572D01*
X217710Y213406D01*
X217655Y213241D01*
X217596Y213077D01*
X217532Y212915D01*
X217466Y212754D01*
X217395Y212595D01*
X217320Y212438D01*
X217242Y212282D01*
X217160Y212129D01*
X217074Y211977D01*
X216985Y211828D01*
X216892Y211681D01*
X216796Y211536D01*
X216696Y211393D01*
X216593Y211253D01*
X216487Y211115D01*
X216377Y210980D01*
X216264Y210848D01*
X216148Y210718D01*
X216029Y210591D01*
X215907Y210467D01*
X206008Y210898D02*
X205893Y210900D01*
X205778Y210906D01*
X205663Y210915D01*
X205549Y210929D01*
X205435Y210946D01*
X205322Y210967D01*
X205210Y210992D01*
X205098Y211020D01*
X204988Y211053D01*
X204879Y211089D01*
X204771Y211128D01*
X204664Y211171D01*
X204559Y211218D01*
X204455Y211268D01*
X204353Y211322D01*
X204253Y211379D01*
X204155Y211439D01*
X204059Y211502D01*
X203966Y211569D01*
X203874Y211639D01*
X203785Y211712D01*
X203698Y211787D01*
X203614Y211866D01*
X203533Y211947D01*
X203454Y212031D01*
X203379Y212118D01*
X203306Y212207D01*
X203236Y212299D01*
X203169Y212392D01*
X203106Y212488D01*
X203046Y212586D01*
X202989Y212686D01*
X202935Y212788D01*
X202885Y212892D01*
X202838Y212997D01*
X202795Y213104D01*
X202756Y213212D01*
X202720Y213321D01*
X202687Y213431D01*
X202659Y213543D01*
X202634Y213655D01*
X202613Y213768D01*
X202596Y213882D01*
X202582Y213996D01*
X202573Y214111D01*
X202567Y214226D01*
X202565Y214341D01*
X202567Y214501D01*
X202573Y214660D01*
X202583Y214820D01*
X202597Y214979D01*
X202614Y215138D01*
X202636Y215296D01*
X202662Y215454D01*
X202691Y215611D01*
X202725Y215767D01*
X202762Y215923D01*
X202803Y216077D01*
X202848Y216230D01*
X202896Y216383D01*
X202949Y216534D01*
X203005Y216683D01*
X203065Y216831D01*
X203128Y216978D01*
X203195Y217123D01*
X203266Y217266D01*
X203340Y217408D01*
X203418Y217548D01*
X203499Y217685D01*
X203583Y217821D01*
X203671Y217954D01*
X203762Y218086D01*
X203856Y218215D01*
X209021Y212620D02*
X208960Y212520D01*
X208895Y212422D01*
X208828Y212326D01*
X208757Y212233D01*
X208683Y212142D01*
X208606Y212054D01*
X208526Y211968D01*
X208443Y211885D01*
X208358Y211805D01*
X208270Y211728D01*
X208179Y211654D01*
X208086Y211583D01*
X207991Y211515D01*
X207893Y211450D01*
X207794Y211388D01*
X207692Y211330D01*
X207588Y211275D01*
X207483Y211224D01*
X207376Y211177D01*
X207267Y211133D01*
X207157Y211092D01*
X207046Y211056D01*
X206934Y211023D01*
X206820Y210994D01*
X206706Y210968D01*
X206591Y210947D01*
X206475Y210929D01*
X206359Y210916D01*
X206242Y210906D01*
X206125Y210900D01*
X206008Y210898D01*
X211603Y217353D02*
X211664Y217453D01*
X211729Y217551D01*
X211797Y217647D01*
X211867Y217740D01*
X211941Y217831D01*
X212018Y217919D01*
X212098Y218005D01*
X212181Y218088D01*
X212266Y218168D01*
X212354Y218245D01*
X212445Y218319D01*
X212538Y218391D01*
X212633Y218459D01*
X212731Y218523D01*
X212830Y218585D01*
X212932Y218643D01*
X213036Y218698D01*
X213141Y218749D01*
X213248Y218796D01*
X213357Y218840D01*
X213467Y218881D01*
X213578Y218917D01*
X213690Y218950D01*
X213804Y218979D01*
X213918Y219005D01*
X214033Y219026D01*
X214149Y219044D01*
X214265Y219057D01*
X214382Y219067D01*
X214499Y219073D01*
X214616Y219075D01*
X211603Y217353D02*
X209021Y212619D01*
X183769Y193556D02*
X168275Y193556D01*
X168275Y197860D01*
X168277Y197990D01*
X168283Y198120D01*
X168293Y198250D01*
X168306Y198379D01*
X168324Y198508D01*
X168345Y198636D01*
X168371Y198763D01*
X168400Y198890D01*
X168433Y199016D01*
X168470Y199140D01*
X168510Y199264D01*
X168555Y199386D01*
X168603Y199507D01*
X168654Y199626D01*
X168709Y199744D01*
X168768Y199860D01*
X168830Y199974D01*
X168896Y200087D01*
X168965Y200197D01*
X169037Y200305D01*
X169112Y200411D01*
X169191Y200514D01*
X169273Y200615D01*
X169357Y200714D01*
X169445Y200810D01*
X169536Y200903D01*
X169629Y200994D01*
X169725Y201082D01*
X169824Y201166D01*
X169925Y201248D01*
X170028Y201327D01*
X170134Y201402D01*
X170242Y201474D01*
X170352Y201543D01*
X170465Y201609D01*
X170579Y201671D01*
X170695Y201730D01*
X170813Y201785D01*
X170932Y201836D01*
X171053Y201884D01*
X171175Y201929D01*
X171299Y201969D01*
X171423Y202006D01*
X171549Y202039D01*
X171676Y202068D01*
X171803Y202094D01*
X171931Y202115D01*
X172060Y202133D01*
X172189Y202146D01*
X172319Y202156D01*
X172449Y202162D01*
X172579Y202164D01*
X172709Y202162D01*
X172839Y202156D01*
X172969Y202146D01*
X173098Y202133D01*
X173227Y202115D01*
X173355Y202094D01*
X173482Y202068D01*
X173609Y202039D01*
X173735Y202006D01*
X173859Y201969D01*
X173983Y201929D01*
X174105Y201884D01*
X174226Y201836D01*
X174345Y201785D01*
X174463Y201730D01*
X174579Y201671D01*
X174693Y201609D01*
X174806Y201543D01*
X174916Y201474D01*
X175024Y201402D01*
X175130Y201327D01*
X175233Y201248D01*
X175334Y201166D01*
X175433Y201082D01*
X175529Y200994D01*
X175622Y200903D01*
X175713Y200810D01*
X175801Y200714D01*
X175885Y200615D01*
X175967Y200514D01*
X176046Y200411D01*
X176121Y200305D01*
X176193Y200197D01*
X176262Y200087D01*
X176328Y199974D01*
X176390Y199860D01*
X176449Y199744D01*
X176504Y199626D01*
X176555Y199507D01*
X176603Y199386D01*
X176648Y199264D01*
X176688Y199140D01*
X176725Y199016D01*
X176758Y198890D01*
X176787Y198763D01*
X176813Y198636D01*
X176834Y198508D01*
X176852Y198379D01*
X176865Y198250D01*
X176875Y198120D01*
X176881Y197990D01*
X176883Y197860D01*
X176883Y193556D01*
X176883Y198721D02*
X183769Y202164D01*
X183769Y207476D02*
X168275Y217805D01*
X168275Y207476D02*
X183769Y217805D01*
X149479Y191270D02*
X149479Y187827D01*
X149477Y187712D01*
X149471Y187597D01*
X149462Y187482D01*
X149448Y187368D01*
X149431Y187254D01*
X149410Y187141D01*
X149385Y187029D01*
X149357Y186917D01*
X149324Y186807D01*
X149288Y186698D01*
X149249Y186590D01*
X149206Y186483D01*
X149159Y186378D01*
X149109Y186274D01*
X149055Y186172D01*
X148998Y186072D01*
X148938Y185974D01*
X148875Y185878D01*
X148808Y185785D01*
X148738Y185693D01*
X148665Y185604D01*
X148590Y185517D01*
X148511Y185433D01*
X148430Y185352D01*
X148346Y185274D01*
X148259Y185198D01*
X148170Y185125D01*
X148078Y185055D01*
X147985Y184988D01*
X147889Y184925D01*
X147791Y184865D01*
X147691Y184808D01*
X147589Y184754D01*
X147485Y184704D01*
X147380Y184657D01*
X147273Y184614D01*
X147165Y184575D01*
X147056Y184539D01*
X146946Y184506D01*
X146834Y184478D01*
X146722Y184453D01*
X146609Y184432D01*
X146495Y184415D01*
X146381Y184401D01*
X146266Y184392D01*
X146151Y184386D01*
X146036Y184384D01*
X146036Y184383D02*
X137428Y184383D01*
X137428Y184384D02*
X137313Y184386D01*
X137198Y184392D01*
X137083Y184401D01*
X136969Y184415D01*
X136855Y184432D01*
X136742Y184453D01*
X136630Y184478D01*
X136518Y184506D01*
X136408Y184539D01*
X136299Y184575D01*
X136191Y184614D01*
X136084Y184657D01*
X135979Y184704D01*
X135875Y184754D01*
X135773Y184808D01*
X135673Y184865D01*
X135575Y184925D01*
X135479Y184988D01*
X135386Y185055D01*
X135294Y185125D01*
X135205Y185198D01*
X135118Y185273D01*
X135034Y185352D01*
X134953Y185433D01*
X134875Y185517D01*
X134799Y185604D01*
X134726Y185693D01*
X134656Y185785D01*
X134589Y185878D01*
X134526Y185974D01*
X134466Y186072D01*
X134409Y186172D01*
X134355Y186274D01*
X134305Y186378D01*
X134258Y186483D01*
X134215Y186590D01*
X134176Y186698D01*
X134140Y186807D01*
X134107Y186917D01*
X134079Y187029D01*
X134054Y187141D01*
X134033Y187254D01*
X134016Y187368D01*
X134002Y187482D01*
X133993Y187597D01*
X133987Y187712D01*
X133985Y187827D01*
X133985Y191270D01*
X133985Y200122D02*
X149479Y200122D01*
X133985Y195818D02*
X133985Y204426D01*
X146036Y217805D02*
X146151Y217803D01*
X146266Y217797D01*
X146381Y217788D01*
X146495Y217774D01*
X146609Y217757D01*
X146722Y217736D01*
X146834Y217711D01*
X146946Y217683D01*
X147056Y217650D01*
X147165Y217614D01*
X147273Y217575D01*
X147380Y217532D01*
X147485Y217485D01*
X147589Y217435D01*
X147691Y217381D01*
X147791Y217324D01*
X147889Y217264D01*
X147985Y217201D01*
X148078Y217134D01*
X148170Y217064D01*
X148259Y216991D01*
X148346Y216916D01*
X148430Y216837D01*
X148511Y216756D01*
X148590Y216672D01*
X148665Y216585D01*
X148738Y216496D01*
X148808Y216404D01*
X148875Y216311D01*
X148938Y216215D01*
X148998Y216117D01*
X149055Y216017D01*
X149109Y215915D01*
X149159Y215811D01*
X149206Y215706D01*
X149249Y215599D01*
X149288Y215491D01*
X149324Y215382D01*
X149357Y215272D01*
X149385Y215160D01*
X149410Y215048D01*
X149431Y214935D01*
X149448Y214821D01*
X149462Y214707D01*
X149471Y214592D01*
X149477Y214477D01*
X149479Y214362D01*
X149477Y214188D01*
X149471Y214014D01*
X149460Y213840D01*
X149446Y213667D01*
X149427Y213494D01*
X149404Y213321D01*
X149377Y213149D01*
X149346Y212978D01*
X149311Y212808D01*
X149272Y212638D01*
X149229Y212470D01*
X149181Y212302D01*
X149130Y212136D01*
X149075Y211971D01*
X149016Y211807D01*
X148952Y211645D01*
X148886Y211484D01*
X148815Y211325D01*
X148740Y211168D01*
X148662Y211012D01*
X148580Y210859D01*
X148494Y210707D01*
X148405Y210558D01*
X148312Y210411D01*
X148216Y210266D01*
X148116Y210123D01*
X148013Y209983D01*
X147907Y209845D01*
X147797Y209710D01*
X147684Y209578D01*
X147568Y209448D01*
X147449Y209321D01*
X147327Y209197D01*
X137428Y209628D02*
X137313Y209630D01*
X137198Y209636D01*
X137083Y209645D01*
X136969Y209659D01*
X136855Y209676D01*
X136742Y209697D01*
X136630Y209722D01*
X136518Y209750D01*
X136408Y209783D01*
X136299Y209819D01*
X136191Y209858D01*
X136084Y209901D01*
X135979Y209948D01*
X135875Y209998D01*
X135773Y210052D01*
X135673Y210109D01*
X135575Y210169D01*
X135479Y210232D01*
X135386Y210299D01*
X135294Y210369D01*
X135205Y210442D01*
X135118Y210517D01*
X135034Y210596D01*
X134953Y210677D01*
X134874Y210761D01*
X134799Y210848D01*
X134726Y210937D01*
X134656Y211029D01*
X134589Y211122D01*
X134526Y211218D01*
X134466Y211316D01*
X134409Y211416D01*
X134355Y211518D01*
X134305Y211622D01*
X134258Y211727D01*
X134215Y211834D01*
X134176Y211942D01*
X134140Y212051D01*
X134107Y212161D01*
X134079Y212273D01*
X134054Y212385D01*
X134033Y212498D01*
X134016Y212612D01*
X134002Y212726D01*
X133993Y212841D01*
X133987Y212956D01*
X133985Y213071D01*
X133987Y213231D01*
X133993Y213390D01*
X134003Y213550D01*
X134017Y213709D01*
X134034Y213868D01*
X134056Y214026D01*
X134082Y214184D01*
X134111Y214341D01*
X134145Y214497D01*
X134182Y214653D01*
X134223Y214807D01*
X134268Y214960D01*
X134316Y215113D01*
X134369Y215264D01*
X134425Y215413D01*
X134485Y215561D01*
X134548Y215708D01*
X134615Y215853D01*
X134686Y215996D01*
X134760Y216138D01*
X134838Y216278D01*
X134919Y216415D01*
X135003Y216551D01*
X135091Y216684D01*
X135182Y216816D01*
X135276Y216945D01*
X140441Y211350D02*
X140380Y211250D01*
X140315Y211152D01*
X140248Y211056D01*
X140177Y210963D01*
X140103Y210872D01*
X140026Y210784D01*
X139946Y210698D01*
X139863Y210615D01*
X139778Y210535D01*
X139690Y210458D01*
X139599Y210384D01*
X139506Y210313D01*
X139411Y210245D01*
X139313Y210180D01*
X139214Y210118D01*
X139112Y210060D01*
X139008Y210005D01*
X138903Y209954D01*
X138796Y209907D01*
X138687Y209863D01*
X138577Y209822D01*
X138466Y209786D01*
X138354Y209753D01*
X138240Y209724D01*
X138126Y209698D01*
X138011Y209677D01*
X137895Y209659D01*
X137779Y209646D01*
X137662Y209636D01*
X137545Y209630D01*
X137428Y209628D01*
X143023Y216083D02*
X143084Y216183D01*
X143149Y216281D01*
X143217Y216377D01*
X143287Y216470D01*
X143361Y216561D01*
X143438Y216649D01*
X143518Y216735D01*
X143601Y216818D01*
X143686Y216898D01*
X143774Y216975D01*
X143865Y217049D01*
X143958Y217121D01*
X144053Y217189D01*
X144151Y217253D01*
X144250Y217315D01*
X144352Y217373D01*
X144456Y217428D01*
X144561Y217479D01*
X144668Y217526D01*
X144777Y217570D01*
X144887Y217611D01*
X144998Y217647D01*
X145110Y217680D01*
X145224Y217709D01*
X145338Y217735D01*
X145453Y217756D01*
X145569Y217774D01*
X145685Y217787D01*
X145802Y217797D01*
X145919Y217803D01*
X146036Y217805D01*
X143023Y216083D02*
X140441Y211349D01*
X131699Y126376D02*
X116205Y126376D01*
X116205Y130679D02*
X116205Y122072D01*
X131699Y135086D02*
X116205Y145415D01*
X116205Y135086D02*
X131699Y145415D01*
X158369Y131580D02*
X158369Y128137D01*
X158367Y128022D01*
X158361Y127907D01*
X158352Y127792D01*
X158338Y127678D01*
X158321Y127564D01*
X158300Y127451D01*
X158275Y127339D01*
X158247Y127227D01*
X158214Y127117D01*
X158178Y127008D01*
X158139Y126900D01*
X158096Y126793D01*
X158049Y126688D01*
X157999Y126584D01*
X157945Y126482D01*
X157888Y126382D01*
X157828Y126284D01*
X157765Y126188D01*
X157698Y126095D01*
X157628Y126003D01*
X157555Y125914D01*
X157480Y125827D01*
X157401Y125743D01*
X157320Y125662D01*
X157236Y125584D01*
X157149Y125508D01*
X157060Y125435D01*
X156968Y125365D01*
X156875Y125298D01*
X156779Y125235D01*
X156681Y125175D01*
X156581Y125118D01*
X156479Y125064D01*
X156375Y125014D01*
X156270Y124967D01*
X156163Y124924D01*
X156055Y124885D01*
X155946Y124849D01*
X155836Y124816D01*
X155724Y124788D01*
X155612Y124763D01*
X155499Y124742D01*
X155385Y124725D01*
X155271Y124711D01*
X155156Y124702D01*
X155041Y124696D01*
X154926Y124694D01*
X154926Y124693D02*
X146318Y124693D01*
X146318Y124694D02*
X146203Y124696D01*
X146088Y124702D01*
X145973Y124711D01*
X145859Y124725D01*
X145745Y124742D01*
X145632Y124763D01*
X145520Y124788D01*
X145408Y124816D01*
X145298Y124849D01*
X145189Y124885D01*
X145081Y124924D01*
X144974Y124967D01*
X144869Y125014D01*
X144765Y125064D01*
X144663Y125118D01*
X144563Y125175D01*
X144465Y125235D01*
X144369Y125298D01*
X144276Y125365D01*
X144184Y125435D01*
X144095Y125508D01*
X144008Y125583D01*
X143924Y125662D01*
X143843Y125743D01*
X143765Y125827D01*
X143689Y125914D01*
X143616Y126003D01*
X143546Y126095D01*
X143479Y126188D01*
X143416Y126284D01*
X143356Y126382D01*
X143299Y126482D01*
X143245Y126584D01*
X143195Y126688D01*
X143148Y126793D01*
X143105Y126900D01*
X143066Y127008D01*
X143030Y127117D01*
X142997Y127227D01*
X142969Y127339D01*
X142944Y127451D01*
X142923Y127564D01*
X142906Y127678D01*
X142892Y127792D01*
X142883Y127907D01*
X142877Y128022D01*
X142875Y128137D01*
X142875Y131580D01*
X142875Y140432D02*
X158369Y140432D01*
X142875Y136128D02*
X142875Y144736D01*
X154926Y158115D02*
X155041Y158113D01*
X155156Y158107D01*
X155271Y158098D01*
X155385Y158084D01*
X155499Y158067D01*
X155612Y158046D01*
X155724Y158021D01*
X155836Y157993D01*
X155946Y157960D01*
X156055Y157924D01*
X156163Y157885D01*
X156270Y157842D01*
X156375Y157795D01*
X156479Y157745D01*
X156581Y157691D01*
X156681Y157634D01*
X156779Y157574D01*
X156875Y157511D01*
X156968Y157444D01*
X157060Y157374D01*
X157149Y157301D01*
X157236Y157226D01*
X157320Y157147D01*
X157401Y157066D01*
X157480Y156982D01*
X157555Y156895D01*
X157628Y156806D01*
X157698Y156714D01*
X157765Y156621D01*
X157828Y156525D01*
X157888Y156427D01*
X157945Y156327D01*
X157999Y156225D01*
X158049Y156121D01*
X158096Y156016D01*
X158139Y155909D01*
X158178Y155801D01*
X158214Y155692D01*
X158247Y155582D01*
X158275Y155470D01*
X158300Y155358D01*
X158321Y155245D01*
X158338Y155131D01*
X158352Y155017D01*
X158361Y154902D01*
X158367Y154787D01*
X158369Y154672D01*
X158367Y154498D01*
X158361Y154324D01*
X158350Y154150D01*
X158336Y153977D01*
X158317Y153804D01*
X158294Y153631D01*
X158267Y153459D01*
X158236Y153288D01*
X158201Y153118D01*
X158162Y152948D01*
X158119Y152780D01*
X158071Y152612D01*
X158020Y152446D01*
X157965Y152281D01*
X157906Y152117D01*
X157842Y151955D01*
X157776Y151794D01*
X157705Y151635D01*
X157630Y151478D01*
X157552Y151322D01*
X157470Y151169D01*
X157384Y151017D01*
X157295Y150868D01*
X157202Y150721D01*
X157106Y150576D01*
X157006Y150433D01*
X156903Y150293D01*
X156797Y150155D01*
X156687Y150020D01*
X156574Y149888D01*
X156458Y149758D01*
X156339Y149631D01*
X156217Y149507D01*
X146318Y149938D02*
X146203Y149940D01*
X146088Y149946D01*
X145973Y149955D01*
X145859Y149969D01*
X145745Y149986D01*
X145632Y150007D01*
X145520Y150032D01*
X145408Y150060D01*
X145298Y150093D01*
X145189Y150129D01*
X145081Y150168D01*
X144974Y150211D01*
X144869Y150258D01*
X144765Y150308D01*
X144663Y150362D01*
X144563Y150419D01*
X144465Y150479D01*
X144369Y150542D01*
X144276Y150609D01*
X144184Y150679D01*
X144095Y150752D01*
X144008Y150827D01*
X143924Y150906D01*
X143843Y150987D01*
X143764Y151071D01*
X143689Y151158D01*
X143616Y151247D01*
X143546Y151339D01*
X143479Y151432D01*
X143416Y151528D01*
X143356Y151626D01*
X143299Y151726D01*
X143245Y151828D01*
X143195Y151932D01*
X143148Y152037D01*
X143105Y152144D01*
X143066Y152252D01*
X143030Y152361D01*
X142997Y152471D01*
X142969Y152583D01*
X142944Y152695D01*
X142923Y152808D01*
X142906Y152922D01*
X142892Y153036D01*
X142883Y153151D01*
X142877Y153266D01*
X142875Y153381D01*
X142877Y153541D01*
X142883Y153700D01*
X142893Y153860D01*
X142907Y154019D01*
X142924Y154178D01*
X142946Y154336D01*
X142972Y154494D01*
X143001Y154651D01*
X143035Y154807D01*
X143072Y154963D01*
X143113Y155117D01*
X143158Y155270D01*
X143206Y155423D01*
X143259Y155574D01*
X143315Y155723D01*
X143375Y155871D01*
X143438Y156018D01*
X143505Y156163D01*
X143576Y156306D01*
X143650Y156448D01*
X143728Y156588D01*
X143809Y156725D01*
X143893Y156861D01*
X143981Y156994D01*
X144072Y157126D01*
X144166Y157255D01*
X149331Y151660D02*
X149270Y151560D01*
X149205Y151462D01*
X149138Y151366D01*
X149067Y151273D01*
X148993Y151182D01*
X148916Y151094D01*
X148836Y151008D01*
X148753Y150925D01*
X148668Y150845D01*
X148580Y150768D01*
X148489Y150694D01*
X148396Y150623D01*
X148301Y150555D01*
X148203Y150490D01*
X148104Y150428D01*
X148002Y150370D01*
X147898Y150315D01*
X147793Y150264D01*
X147686Y150217D01*
X147577Y150173D01*
X147467Y150132D01*
X147356Y150096D01*
X147244Y150063D01*
X147130Y150034D01*
X147016Y150008D01*
X146901Y149987D01*
X146785Y149969D01*
X146669Y149956D01*
X146552Y149946D01*
X146435Y149940D01*
X146318Y149938D01*
X151913Y156393D02*
X151974Y156493D01*
X152039Y156591D01*
X152107Y156687D01*
X152177Y156780D01*
X152251Y156871D01*
X152328Y156959D01*
X152408Y157045D01*
X152491Y157128D01*
X152576Y157208D01*
X152664Y157285D01*
X152755Y157359D01*
X152848Y157431D01*
X152943Y157499D01*
X153041Y157563D01*
X153140Y157625D01*
X153242Y157683D01*
X153346Y157738D01*
X153451Y157789D01*
X153558Y157836D01*
X153667Y157880D01*
X153777Y157921D01*
X153888Y157957D01*
X154000Y157990D01*
X154114Y158019D01*
X154228Y158045D01*
X154343Y158066D01*
X154459Y158084D01*
X154575Y158097D01*
X154692Y158107D01*
X154809Y158113D01*
X154926Y158115D01*
X151913Y156393D02*
X149331Y151659D01*
X168275Y122436D02*
X183769Y122436D01*
X168275Y122436D02*
X168275Y126740D01*
X168277Y126870D01*
X168283Y127000D01*
X168293Y127130D01*
X168306Y127259D01*
X168324Y127388D01*
X168345Y127516D01*
X168371Y127643D01*
X168400Y127770D01*
X168433Y127896D01*
X168470Y128020D01*
X168510Y128144D01*
X168555Y128266D01*
X168603Y128387D01*
X168654Y128506D01*
X168709Y128624D01*
X168768Y128740D01*
X168830Y128854D01*
X168896Y128967D01*
X168965Y129077D01*
X169037Y129185D01*
X169112Y129291D01*
X169191Y129394D01*
X169273Y129495D01*
X169357Y129594D01*
X169445Y129690D01*
X169536Y129783D01*
X169629Y129874D01*
X169725Y129962D01*
X169824Y130046D01*
X169925Y130128D01*
X170028Y130207D01*
X170134Y130282D01*
X170242Y130354D01*
X170352Y130423D01*
X170465Y130489D01*
X170579Y130551D01*
X170695Y130610D01*
X170813Y130665D01*
X170932Y130716D01*
X171053Y130764D01*
X171175Y130809D01*
X171299Y130849D01*
X171423Y130886D01*
X171549Y130919D01*
X171676Y130948D01*
X171803Y130974D01*
X171931Y130995D01*
X172060Y131013D01*
X172189Y131026D01*
X172319Y131036D01*
X172449Y131042D01*
X172579Y131044D01*
X172709Y131042D01*
X172839Y131036D01*
X172969Y131026D01*
X173098Y131013D01*
X173227Y130995D01*
X173355Y130974D01*
X173482Y130948D01*
X173609Y130919D01*
X173735Y130886D01*
X173859Y130849D01*
X173983Y130809D01*
X174105Y130764D01*
X174226Y130716D01*
X174345Y130665D01*
X174463Y130610D01*
X174579Y130551D01*
X174693Y130489D01*
X174806Y130423D01*
X174916Y130354D01*
X175024Y130282D01*
X175130Y130207D01*
X175233Y130128D01*
X175334Y130046D01*
X175433Y129962D01*
X175529Y129874D01*
X175622Y129783D01*
X175713Y129690D01*
X175801Y129594D01*
X175885Y129495D01*
X175967Y129394D01*
X176046Y129291D01*
X176121Y129185D01*
X176193Y129077D01*
X176262Y128967D01*
X176328Y128854D01*
X176390Y128740D01*
X176449Y128624D01*
X176504Y128506D01*
X176555Y128387D01*
X176603Y128266D01*
X176648Y128144D01*
X176688Y128020D01*
X176725Y127896D01*
X176758Y127770D01*
X176787Y127643D01*
X176813Y127516D01*
X176834Y127388D01*
X176852Y127259D01*
X176865Y127130D01*
X176875Y127000D01*
X176881Y126870D01*
X176883Y126740D01*
X176883Y122436D01*
X176883Y127601D02*
X183769Y131044D01*
X183769Y136356D02*
X168275Y146685D01*
X168275Y136356D02*
X183769Y146685D01*
X193675Y122339D02*
X209169Y122339D01*
X193675Y122339D02*
X193675Y126643D01*
X193677Y126773D01*
X193683Y126903D01*
X193693Y127033D01*
X193706Y127162D01*
X193724Y127291D01*
X193745Y127419D01*
X193771Y127546D01*
X193800Y127673D01*
X193833Y127799D01*
X193870Y127923D01*
X193910Y128047D01*
X193955Y128169D01*
X194003Y128290D01*
X194054Y128409D01*
X194109Y128527D01*
X194168Y128643D01*
X194230Y128757D01*
X194296Y128870D01*
X194365Y128980D01*
X194437Y129088D01*
X194512Y129194D01*
X194591Y129297D01*
X194673Y129398D01*
X194757Y129497D01*
X194845Y129593D01*
X194936Y129686D01*
X195029Y129777D01*
X195125Y129865D01*
X195224Y129949D01*
X195325Y130031D01*
X195428Y130110D01*
X195534Y130185D01*
X195642Y130257D01*
X195752Y130326D01*
X195865Y130392D01*
X195979Y130454D01*
X196095Y130513D01*
X196213Y130568D01*
X196332Y130619D01*
X196453Y130667D01*
X196575Y130712D01*
X196699Y130752D01*
X196823Y130789D01*
X196949Y130822D01*
X197076Y130851D01*
X197203Y130877D01*
X197331Y130898D01*
X197460Y130916D01*
X197589Y130929D01*
X197719Y130939D01*
X197849Y130945D01*
X197979Y130947D01*
X198109Y130945D01*
X198239Y130939D01*
X198369Y130929D01*
X198498Y130916D01*
X198627Y130898D01*
X198755Y130877D01*
X198882Y130851D01*
X199009Y130822D01*
X199135Y130789D01*
X199259Y130752D01*
X199383Y130712D01*
X199505Y130667D01*
X199626Y130619D01*
X199745Y130568D01*
X199863Y130513D01*
X199979Y130454D01*
X200093Y130392D01*
X200206Y130326D01*
X200316Y130257D01*
X200424Y130185D01*
X200530Y130110D01*
X200633Y130031D01*
X200734Y129949D01*
X200833Y129865D01*
X200929Y129777D01*
X201022Y129686D01*
X201113Y129593D01*
X201201Y129497D01*
X201285Y129398D01*
X201367Y129297D01*
X201446Y129194D01*
X201521Y129088D01*
X201593Y128980D01*
X201662Y128870D01*
X201728Y128757D01*
X201790Y128643D01*
X201849Y128527D01*
X201904Y128409D01*
X201955Y128290D01*
X202003Y128169D01*
X202048Y128047D01*
X202088Y127923D01*
X202125Y127799D01*
X202158Y127673D01*
X202187Y127546D01*
X202213Y127419D01*
X202234Y127291D01*
X202252Y127162D01*
X202265Y127033D01*
X202275Y126903D01*
X202281Y126773D01*
X202283Y126643D01*
X202283Y122339D01*
X202283Y127503D02*
X209169Y130947D01*
X209169Y140432D02*
X193675Y140432D01*
X193675Y136128D02*
X193675Y144736D01*
X205726Y158115D02*
X205841Y158113D01*
X205956Y158107D01*
X206071Y158098D01*
X206185Y158084D01*
X206299Y158067D01*
X206412Y158046D01*
X206524Y158021D01*
X206636Y157993D01*
X206746Y157960D01*
X206855Y157924D01*
X206963Y157885D01*
X207070Y157842D01*
X207175Y157795D01*
X207279Y157745D01*
X207381Y157691D01*
X207481Y157634D01*
X207579Y157574D01*
X207675Y157511D01*
X207768Y157444D01*
X207860Y157374D01*
X207949Y157301D01*
X208036Y157226D01*
X208120Y157147D01*
X208201Y157066D01*
X208280Y156982D01*
X208355Y156895D01*
X208428Y156806D01*
X208498Y156714D01*
X208565Y156621D01*
X208628Y156525D01*
X208688Y156427D01*
X208745Y156327D01*
X208799Y156225D01*
X208849Y156121D01*
X208896Y156016D01*
X208939Y155909D01*
X208978Y155801D01*
X209014Y155692D01*
X209047Y155582D01*
X209075Y155470D01*
X209100Y155358D01*
X209121Y155245D01*
X209138Y155131D01*
X209152Y155017D01*
X209161Y154902D01*
X209167Y154787D01*
X209169Y154672D01*
X209167Y154498D01*
X209161Y154324D01*
X209150Y154150D01*
X209136Y153977D01*
X209117Y153804D01*
X209094Y153631D01*
X209067Y153459D01*
X209036Y153288D01*
X209001Y153118D01*
X208962Y152948D01*
X208919Y152780D01*
X208871Y152612D01*
X208820Y152446D01*
X208765Y152281D01*
X208706Y152117D01*
X208642Y151955D01*
X208576Y151794D01*
X208505Y151635D01*
X208430Y151478D01*
X208352Y151322D01*
X208270Y151169D01*
X208184Y151017D01*
X208095Y150868D01*
X208002Y150721D01*
X207906Y150576D01*
X207806Y150433D01*
X207703Y150293D01*
X207597Y150155D01*
X207487Y150020D01*
X207374Y149888D01*
X207258Y149758D01*
X207139Y149631D01*
X207017Y149507D01*
X197118Y149938D02*
X197003Y149940D01*
X196888Y149946D01*
X196773Y149955D01*
X196659Y149969D01*
X196545Y149986D01*
X196432Y150007D01*
X196320Y150032D01*
X196208Y150060D01*
X196098Y150093D01*
X195989Y150129D01*
X195881Y150168D01*
X195774Y150211D01*
X195669Y150258D01*
X195565Y150308D01*
X195463Y150362D01*
X195363Y150419D01*
X195265Y150479D01*
X195169Y150542D01*
X195076Y150609D01*
X194984Y150679D01*
X194895Y150752D01*
X194808Y150827D01*
X194724Y150906D01*
X194643Y150987D01*
X194564Y151071D01*
X194489Y151158D01*
X194416Y151247D01*
X194346Y151339D01*
X194279Y151432D01*
X194216Y151528D01*
X194156Y151626D01*
X194099Y151726D01*
X194045Y151828D01*
X193995Y151932D01*
X193948Y152037D01*
X193905Y152144D01*
X193866Y152252D01*
X193830Y152361D01*
X193797Y152471D01*
X193769Y152583D01*
X193744Y152695D01*
X193723Y152808D01*
X193706Y152922D01*
X193692Y153036D01*
X193683Y153151D01*
X193677Y153266D01*
X193675Y153381D01*
X193677Y153541D01*
X193683Y153700D01*
X193693Y153860D01*
X193707Y154019D01*
X193724Y154178D01*
X193746Y154336D01*
X193772Y154494D01*
X193801Y154651D01*
X193835Y154807D01*
X193872Y154963D01*
X193913Y155117D01*
X193958Y155270D01*
X194006Y155423D01*
X194059Y155574D01*
X194115Y155723D01*
X194175Y155871D01*
X194238Y156018D01*
X194305Y156163D01*
X194376Y156306D01*
X194450Y156448D01*
X194528Y156588D01*
X194609Y156725D01*
X194693Y156861D01*
X194781Y156994D01*
X194872Y157126D01*
X194966Y157255D01*
X200131Y151660D02*
X200070Y151560D01*
X200005Y151462D01*
X199938Y151366D01*
X199867Y151273D01*
X199793Y151182D01*
X199716Y151094D01*
X199636Y151008D01*
X199553Y150925D01*
X199468Y150845D01*
X199380Y150768D01*
X199289Y150694D01*
X199196Y150623D01*
X199101Y150555D01*
X199003Y150490D01*
X198904Y150428D01*
X198802Y150370D01*
X198698Y150315D01*
X198593Y150264D01*
X198486Y150217D01*
X198377Y150173D01*
X198267Y150132D01*
X198156Y150096D01*
X198044Y150063D01*
X197930Y150034D01*
X197816Y150008D01*
X197701Y149987D01*
X197585Y149969D01*
X197469Y149956D01*
X197352Y149946D01*
X197235Y149940D01*
X197118Y149938D01*
X202713Y156393D02*
X202774Y156493D01*
X202839Y156591D01*
X202907Y156687D01*
X202977Y156780D01*
X203051Y156871D01*
X203128Y156959D01*
X203208Y157045D01*
X203291Y157128D01*
X203376Y157208D01*
X203464Y157285D01*
X203555Y157359D01*
X203648Y157431D01*
X203743Y157499D01*
X203841Y157563D01*
X203940Y157625D01*
X204042Y157683D01*
X204146Y157738D01*
X204251Y157789D01*
X204358Y157836D01*
X204467Y157880D01*
X204577Y157921D01*
X204688Y157957D01*
X204800Y157990D01*
X204914Y158019D01*
X205028Y158045D01*
X205143Y158066D01*
X205259Y158084D01*
X205375Y158097D01*
X205492Y158107D01*
X205609Y158113D01*
X205726Y158115D01*
X202713Y156393D02*
X200131Y151659D01*
X225961Y131481D02*
X225961Y128899D01*
X225961Y131481D02*
X234569Y131481D01*
X234569Y126317D01*
X234567Y126202D01*
X234561Y126087D01*
X234552Y125972D01*
X234538Y125858D01*
X234521Y125744D01*
X234500Y125631D01*
X234475Y125519D01*
X234447Y125407D01*
X234414Y125297D01*
X234378Y125188D01*
X234339Y125080D01*
X234296Y124973D01*
X234249Y124868D01*
X234199Y124764D01*
X234145Y124662D01*
X234088Y124562D01*
X234028Y124464D01*
X233965Y124368D01*
X233898Y124275D01*
X233828Y124183D01*
X233755Y124094D01*
X233680Y124007D01*
X233601Y123923D01*
X233520Y123842D01*
X233436Y123764D01*
X233349Y123688D01*
X233260Y123615D01*
X233168Y123545D01*
X233075Y123478D01*
X232979Y123415D01*
X232881Y123355D01*
X232781Y123298D01*
X232679Y123244D01*
X232575Y123194D01*
X232470Y123147D01*
X232363Y123104D01*
X232255Y123065D01*
X232146Y123029D01*
X232036Y122996D01*
X231924Y122968D01*
X231812Y122943D01*
X231699Y122922D01*
X231585Y122905D01*
X231471Y122891D01*
X231356Y122882D01*
X231241Y122876D01*
X231126Y122874D01*
X222518Y122874D01*
X222403Y122876D01*
X222288Y122882D01*
X222173Y122891D01*
X222059Y122905D01*
X221945Y122922D01*
X221832Y122943D01*
X221720Y122968D01*
X221608Y122996D01*
X221498Y123029D01*
X221389Y123065D01*
X221281Y123104D01*
X221174Y123147D01*
X221069Y123194D01*
X220965Y123244D01*
X220863Y123298D01*
X220763Y123355D01*
X220665Y123415D01*
X220569Y123478D01*
X220476Y123545D01*
X220384Y123615D01*
X220295Y123688D01*
X220208Y123763D01*
X220124Y123842D01*
X220043Y123923D01*
X219965Y124007D01*
X219889Y124094D01*
X219816Y124183D01*
X219746Y124275D01*
X219679Y124368D01*
X219616Y124464D01*
X219556Y124562D01*
X219499Y124662D01*
X219445Y124764D01*
X219395Y124868D01*
X219348Y124973D01*
X219305Y125080D01*
X219266Y125188D01*
X219230Y125297D01*
X219197Y125407D01*
X219169Y125519D01*
X219144Y125631D01*
X219123Y125744D01*
X219106Y125858D01*
X219092Y125972D01*
X219083Y126087D01*
X219077Y126202D01*
X219075Y126317D01*
X219075Y131481D01*
X219075Y138730D02*
X234569Y138730D01*
X234569Y147338D02*
X219075Y138730D01*
X219075Y147338D02*
X234569Y147338D01*
X234569Y154587D02*
X219075Y154587D01*
X219075Y158891D01*
X219077Y159021D01*
X219083Y159151D01*
X219093Y159281D01*
X219106Y159410D01*
X219124Y159539D01*
X219146Y159667D01*
X219171Y159794D01*
X219200Y159921D01*
X219233Y160047D01*
X219270Y160171D01*
X219310Y160295D01*
X219355Y160417D01*
X219403Y160538D01*
X219454Y160657D01*
X219509Y160775D01*
X219568Y160891D01*
X219630Y161005D01*
X219696Y161118D01*
X219765Y161228D01*
X219837Y161336D01*
X219912Y161442D01*
X219991Y161545D01*
X220073Y161646D01*
X220157Y161745D01*
X220245Y161841D01*
X220336Y161934D01*
X220429Y162025D01*
X220525Y162113D01*
X220624Y162197D01*
X220725Y162279D01*
X220828Y162358D01*
X220934Y162433D01*
X221042Y162505D01*
X221152Y162574D01*
X221265Y162640D01*
X221379Y162702D01*
X221495Y162761D01*
X221613Y162816D01*
X221732Y162867D01*
X221853Y162915D01*
X221975Y162960D01*
X222099Y163000D01*
X222223Y163037D01*
X222349Y163070D01*
X222476Y163099D01*
X222603Y163125D01*
X222731Y163146D01*
X222860Y163164D01*
X222990Y163177D01*
X223119Y163187D01*
X223249Y163193D01*
X223379Y163195D01*
X230265Y163195D01*
X230395Y163193D01*
X230525Y163187D01*
X230655Y163177D01*
X230784Y163164D01*
X230913Y163146D01*
X231041Y163125D01*
X231168Y163099D01*
X231295Y163070D01*
X231421Y163037D01*
X231545Y163000D01*
X231669Y162960D01*
X231791Y162915D01*
X231912Y162867D01*
X232031Y162816D01*
X232149Y162761D01*
X232265Y162702D01*
X232379Y162640D01*
X232492Y162574D01*
X232602Y162505D01*
X232710Y162433D01*
X232816Y162358D01*
X232919Y162279D01*
X233020Y162197D01*
X233119Y162113D01*
X233215Y162025D01*
X233308Y161934D01*
X233399Y161841D01*
X233487Y161745D01*
X233571Y161646D01*
X233653Y161545D01*
X233732Y161442D01*
X233807Y161336D01*
X233879Y161228D01*
X233948Y161118D01*
X234014Y161005D01*
X234076Y160891D01*
X234135Y160775D01*
X234190Y160657D01*
X234241Y160538D01*
X234289Y160417D01*
X234334Y160295D01*
X234374Y160171D01*
X234411Y160047D01*
X234444Y159921D01*
X234473Y159794D01*
X234499Y159667D01*
X234520Y159539D01*
X234538Y159410D01*
X234551Y159281D01*
X234561Y159151D01*
X234567Y159021D01*
X234569Y158891D01*
X234569Y154587D01*
D11*
X46822Y178669D03*
D12*
X46307Y178816D03*
D13*
X45717Y178963D03*
D14*
X45276Y179111D03*
D15*
X44760Y179258D03*
D16*
X44318Y179405D03*
D17*
X43729Y179553D03*
D18*
X43213Y179700D03*
D19*
X42771Y179847D03*
D20*
X42329Y179995D03*
D21*
X42255Y180142D03*
D22*
X42329Y180289D03*
D23*
X42403Y180437D03*
D24*
X42329Y180584D03*
D25*
X42403Y180731D03*
D26*
X42403Y180878D03*
D27*
X42476Y181026D03*
X42476Y181173D03*
D28*
X42476Y181320D03*
D29*
X42550Y181468D03*
D30*
X42550Y181615D03*
X42550Y181762D03*
D31*
X42624Y181910D03*
D32*
X42624Y182057D03*
D33*
X42697Y182204D03*
D34*
X42624Y182352D03*
D35*
X42697Y182499D03*
D36*
X42771Y182646D03*
D37*
X42771Y182794D03*
X42771Y182941D03*
D38*
X42845Y183088D03*
D39*
X42845Y183236D03*
D40*
X42918Y183383D03*
D41*
X42845Y183530D03*
D42*
X42918Y183678D03*
D43*
X42992Y183825D03*
D44*
X42992Y183972D03*
X42992Y184120D03*
D45*
X42992Y184267D03*
D46*
X43066Y184414D03*
X43066Y184561D03*
D47*
X43066Y184709D03*
D48*
X43139Y184856D03*
D49*
X43139Y185003D03*
X43139Y185151D03*
D50*
X43213Y185298D03*
D51*
X43213Y185445D03*
D52*
X43287Y185593D03*
D53*
X43213Y185740D03*
D54*
X43287Y185887D03*
D55*
X43360Y186035D03*
D56*
X63838Y186035D03*
D57*
X43360Y186182D03*
D58*
X63249Y186182D03*
D57*
X43360Y186329D03*
D59*
X62807Y186329D03*
D60*
X43360Y186477D03*
D61*
X62291Y186477D03*
D62*
X43434Y186624D03*
D63*
X61849Y186624D03*
D62*
X43434Y186771D03*
D64*
X61260Y186771D03*
D65*
X43360Y186919D03*
D66*
X60818Y186919D03*
D65*
X43360Y187066D03*
D67*
X60302Y187066D03*
D62*
X43287Y187213D03*
D68*
X59860Y187213D03*
D65*
X43213Y187361D03*
D20*
X59713Y187361D03*
D65*
X43213Y187508D03*
D22*
X59713Y187508D03*
D65*
X43066Y187655D03*
D23*
X59787Y187655D03*
D65*
X43066Y187803D03*
D24*
X59860Y187803D03*
D62*
X42992Y187950D03*
D25*
X59787Y187950D03*
D65*
X42918Y188097D03*
D69*
X59860Y188097D03*
D65*
X42918Y188244D03*
D27*
X59860Y188244D03*
D65*
X42771Y188392D03*
D70*
X59934Y188392D03*
D65*
X42771Y188539D03*
D70*
X59934Y188539D03*
D62*
X42697Y188686D03*
D29*
X59934Y188686D03*
D65*
X42624Y188834D03*
D71*
X60008Y188834D03*
D65*
X42624Y188981D03*
D31*
X60008Y188981D03*
D65*
X42476Y189128D03*
D31*
X60008Y189128D03*
D65*
X42476Y189276D03*
D72*
X60081Y189276D03*
D62*
X42403Y189423D03*
D33*
X60081Y189423D03*
D60*
X42476Y189570D03*
D34*
X60155Y189570D03*
D60*
X42476Y189718D03*
D35*
X60081Y189718D03*
D73*
X42476Y189865D03*
D74*
X60155Y189865D03*
D75*
X42550Y190012D03*
D76*
X60228Y190012D03*
D54*
X42550Y190160D03*
D77*
X60228Y190160D03*
D54*
X42550Y190307D03*
D77*
X60228Y190307D03*
D53*
X42624Y190454D03*
D78*
X60302Y190454D03*
D51*
X42624Y190602D03*
D40*
X60302Y190602D03*
D79*
X42697Y190749D03*
D40*
X60302Y190749D03*
D50*
X42624Y190896D03*
D42*
X60302Y190896D03*
D80*
X42697Y191044D03*
D43*
X60376Y191044D03*
D81*
X42771Y191191D03*
D82*
X60449Y191191D03*
D47*
X42771Y191338D03*
D83*
X60376Y191338D03*
D47*
X42771Y191486D03*
D84*
X60449Y191486D03*
D85*
X42845Y191633D03*
D46*
X60449Y191633D03*
D45*
X42845Y191780D03*
D85*
X60523Y191780D03*
D45*
X42845Y191927D03*
D85*
X60523Y191927D03*
D83*
X42845Y192075D03*
D48*
X60523Y192075D03*
D86*
X42918Y192222D03*
D81*
X60597Y192222D03*
D43*
X42992Y192369D03*
D50*
X60597Y192369D03*
D42*
X42918Y192517D03*
D50*
X60597Y192517D03*
D41*
X42992Y192664D03*
D79*
X60670Y192664D03*
D39*
X42992Y192811D03*
D52*
X60670Y192811D03*
D78*
X43066Y192959D03*
D53*
X60744Y192959D03*
D78*
X43066Y193106D03*
D54*
X60670Y193106D03*
D87*
X43066Y193253D03*
D88*
X60744Y193253D03*
D76*
X43139Y193401D03*
D75*
X60818Y193401D03*
D35*
X43139Y193548D03*
D89*
X60818Y193548D03*
D35*
X43139Y193695D03*
D89*
X60818Y193695D03*
D34*
X43213Y193843D03*
D62*
X60818Y193843D03*
D32*
X43213Y193990D03*
D65*
X60891Y193990D03*
D72*
X43287Y194137D03*
D62*
X60818Y194137D03*
D31*
X43213Y194285D03*
D65*
X60744Y194285D03*
D90*
X43287Y194432D03*
D65*
X60744Y194432D03*
D91*
X43360Y194579D03*
D62*
X60670Y194579D03*
D28*
X43360Y194727D03*
D65*
X60597Y194727D03*
D28*
X43360Y194874D03*
D65*
X60597Y194874D03*
D70*
X43434Y195021D03*
D65*
X60449Y195021D03*
D26*
X43434Y195169D03*
D65*
X60449Y195169D03*
D69*
X43508Y195316D03*
D62*
X60376Y195316D03*
D92*
X43434Y195463D03*
D65*
X60302Y195463D03*
D24*
X43508Y195610D03*
D65*
X60302Y195610D03*
D23*
X43581Y195758D03*
D65*
X60155Y195758D03*
D22*
X43508Y195905D03*
D65*
X60155Y195905D03*
D21*
X43581Y196052D03*
D62*
X60081Y196052D03*
D68*
X43508Y196200D03*
D65*
X60008Y196200D03*
D93*
X42992Y196347D03*
D65*
X60008Y196347D03*
D66*
X42403Y196494D03*
D65*
X59860Y196494D03*
D64*
X41961Y196642D03*
D65*
X59860Y196642D03*
D94*
X41445Y196789D03*
D60*
X59860Y196789D03*
D95*
X41003Y196936D03*
D89*
X59934Y196936D03*
D59*
X40414Y197084D03*
D89*
X59934Y197084D03*
D96*
X39898Y197231D03*
D97*
X59934Y197231D03*
D98*
X39456Y197378D03*
D55*
X60008Y197378D03*
D99*
X49253Y197526D03*
D54*
X59934Y197526D03*
D100*
X48738Y197673D03*
D53*
X60008Y197673D03*
D13*
X48222Y197820D03*
D52*
X60081Y197820D03*
D101*
X47706Y197968D03*
D79*
X60081Y197968D03*
D15*
X47264Y198115D03*
D79*
X60081Y198115D03*
D102*
X46749Y198262D03*
D80*
X60081Y198262D03*
D17*
X46233Y198410D03*
D103*
X60155Y198410D03*
D18*
X45717Y198557D03*
D48*
X60228Y198557D03*
D104*
X45202Y198704D03*
D47*
X60155Y198704D03*
D105*
X44760Y198852D03*
D85*
X60228Y198852D03*
D21*
X44760Y198999D03*
D46*
X60302Y198999D03*
D22*
X44834Y199146D03*
D84*
X60302Y199146D03*
D23*
X44907Y199293D03*
D84*
X60302Y199293D03*
D24*
X44834Y199441D03*
D86*
X60302Y199441D03*
D25*
X44907Y199588D03*
D43*
X60376Y199588D03*
D106*
X44907Y199735D03*
D42*
X60449Y199735D03*
D27*
X44981Y199883D03*
D41*
X60376Y199883D03*
D27*
X44981Y200030D03*
D40*
X60449Y200030D03*
D28*
X44981Y200177D03*
D78*
X60449Y200177D03*
D29*
X45055Y200325D03*
D38*
X60523Y200325D03*
D30*
X45055Y200472D03*
D38*
X60523Y200472D03*
D30*
X45055Y200619D03*
D107*
X60523Y200619D03*
D31*
X45128Y200767D03*
D74*
X60597Y200767D03*
D32*
X45128Y200914D03*
D34*
X60597Y200914D03*
D33*
X45202Y201061D03*
D34*
X60597Y201061D03*
X45128Y201209D03*
D33*
X60670Y201209D03*
D35*
X45202Y201356D03*
D72*
X60670Y201356D03*
D74*
X45276Y201503D03*
D72*
X60670Y201503D03*
D37*
X45276Y201651D03*
D90*
X60670Y201651D03*
D37*
X45276Y201798D03*
D71*
X60744Y201798D03*
D78*
X45276Y201945D03*
D29*
X60818Y201945D03*
D39*
X45349Y202093D03*
D28*
X60744Y202093D03*
D40*
X45423Y202240D03*
D70*
X60818Y202240D03*
D41*
X45349Y202387D03*
D26*
X60818Y202387D03*
D42*
X45423Y202535D03*
D108*
X60891Y202535D03*
D86*
X45423Y202682D03*
D108*
X60891Y202682D03*
D44*
X45496Y202829D03*
D24*
X60891Y202829D03*
D44*
X45496Y202976D03*
D23*
X60965Y202976D03*
D45*
X45496Y203124D03*
D22*
X61039Y203124D03*
D46*
X45570Y203271D03*
D21*
X60965Y203271D03*
D46*
X45570Y203418D03*
D105*
X60965Y203418D03*
D47*
X45570Y203566D03*
D109*
X60523Y203566D03*
D48*
X45644Y203713D03*
D110*
X60008Y203713D03*
D49*
X45644Y203860D03*
D17*
X59492Y203860D03*
D49*
X45644Y204008D03*
D111*
X58976Y204008D03*
D50*
X45717Y204155D03*
D112*
X58534Y204155D03*
D51*
X45717Y204302D03*
D113*
X58019Y204302D03*
D52*
X45791Y204450D03*
D13*
X57503Y204450D03*
D53*
X45717Y204597D03*
D114*
X56987Y204597D03*
D54*
X45791Y204744D03*
D11*
X56545Y204744D03*
D55*
X45865Y204892D03*
D57*
X45865Y205039D03*
X45865Y205186D03*
D60*
X45865Y205334D03*
D62*
X45938Y205481D03*
X45938Y205628D03*
D65*
X45865Y205776D03*
X45865Y205923D03*
X45717Y206070D03*
X45717Y206218D03*
D62*
X45644Y206365D03*
D65*
X45570Y206512D03*
X45570Y206659D03*
X45423Y206807D03*
X45423Y206954D03*
D62*
X45349Y207101D03*
D65*
X45276Y207249D03*
X45276Y207396D03*
D62*
X45202Y207543D03*
D65*
X45128Y207691D03*
X45128Y207838D03*
X44981Y207985D03*
X44981Y208133D03*
D62*
X44907Y208280D03*
D60*
X44981Y208427D03*
X44981Y208575D03*
D73*
X44981Y208722D03*
D75*
X45055Y208869D03*
D54*
X45055Y209017D03*
X45055Y209164D03*
D53*
X45128Y209311D03*
D51*
X45128Y209459D03*
D79*
X45202Y209606D03*
D50*
X45128Y209753D03*
D80*
X45202Y209901D03*
D81*
X45276Y210048D03*
D115*
X45202Y210195D03*
D47*
X45276Y210342D03*
D46*
X45276Y210490D03*
D45*
X45349Y210637D03*
X45349Y210784D03*
D83*
X45349Y210932D03*
D86*
X45423Y211079D03*
D42*
X45423Y211226D03*
X45423Y211374D03*
D41*
X45496Y211521D03*
D39*
X45496Y211668D03*
D78*
X45570Y211816D03*
X45570Y211963D03*
D87*
X45570Y212110D03*
D76*
X45644Y212258D03*
D35*
X45644Y212405D03*
X45644Y212552D03*
D34*
X45717Y212700D03*
D32*
X45717Y212847D03*
D72*
X45791Y212994D03*
D31*
X45717Y213142D03*
D90*
X45791Y213289D03*
D91*
X45865Y213436D03*
D28*
X45865Y213584D03*
X45865Y213731D03*
D27*
X45865Y213878D03*
D26*
X45938Y214025D03*
D69*
X46012Y214173D03*
D92*
X45938Y214320D03*
D24*
X46012Y214467D03*
D22*
X46012Y214615D03*
X46012Y214762D03*
D21*
X46086Y214909D03*
D116*
X45938Y215057D03*
D117*
X45423Y215204D03*
D66*
X44907Y215351D03*
D118*
X44392Y215499D03*
D94*
X43950Y215646D03*
D119*
X43434Y215793D03*
D59*
X42918Y215941D03*
D96*
X42403Y216088D03*
D120*
X41887Y216235D03*
D121*
X287782Y134112D02*
X287782Y116332D01*
X287782Y134112D02*
X292721Y134112D01*
X292861Y134110D01*
X293000Y134104D01*
X293140Y134094D01*
X293279Y134080D01*
X293418Y134063D01*
X293556Y134041D01*
X293693Y134015D01*
X293830Y133986D01*
X293966Y133953D01*
X294100Y133916D01*
X294234Y133875D01*
X294366Y133830D01*
X294498Y133781D01*
X294627Y133729D01*
X294755Y133674D01*
X294882Y133614D01*
X295007Y133551D01*
X295130Y133485D01*
X295251Y133415D01*
X295370Y133342D01*
X295487Y133265D01*
X295601Y133185D01*
X295714Y133102D01*
X295824Y133016D01*
X295931Y132926D01*
X296036Y132834D01*
X296138Y132739D01*
X296238Y132641D01*
X296335Y132540D01*
X296429Y132436D01*
X296519Y132330D01*
X296607Y132221D01*
X296692Y132110D01*
X296773Y131996D01*
X296852Y131881D01*
X296927Y131763D01*
X296998Y131643D01*
X297066Y131520D01*
X297131Y131397D01*
X297192Y131271D01*
X297250Y131143D01*
X297304Y131015D01*
X297354Y130884D01*
X297401Y130752D01*
X297444Y130619D01*
X297483Y130485D01*
X297518Y130350D01*
X297549Y130214D01*
X297577Y130076D01*
X297600Y129939D01*
X297620Y129800D01*
X297636Y129661D01*
X297648Y129522D01*
X297656Y129383D01*
X297660Y129243D01*
X297660Y129103D01*
X297656Y128963D01*
X297648Y128824D01*
X297636Y128685D01*
X297620Y128546D01*
X297600Y128407D01*
X297577Y128270D01*
X297549Y128132D01*
X297518Y127996D01*
X297483Y127861D01*
X297444Y127727D01*
X297401Y127594D01*
X297354Y127462D01*
X297304Y127331D01*
X297250Y127203D01*
X297192Y127075D01*
X297131Y126949D01*
X297066Y126826D01*
X296998Y126704D01*
X296927Y126583D01*
X296852Y126465D01*
X296773Y126350D01*
X296692Y126236D01*
X296607Y126125D01*
X296519Y126016D01*
X296429Y125910D01*
X296335Y125806D01*
X296238Y125705D01*
X296138Y125607D01*
X296036Y125512D01*
X295931Y125420D01*
X295824Y125330D01*
X295714Y125244D01*
X295601Y125161D01*
X295487Y125081D01*
X295370Y125004D01*
X295251Y124931D01*
X295130Y124861D01*
X295007Y124795D01*
X294882Y124732D01*
X294755Y124672D01*
X294627Y124617D01*
X294498Y124565D01*
X294366Y124516D01*
X294234Y124471D01*
X294100Y124430D01*
X293966Y124393D01*
X293830Y124360D01*
X293693Y124331D01*
X293556Y124305D01*
X293418Y124283D01*
X293279Y124266D01*
X293140Y124252D01*
X293000Y124242D01*
X292861Y124236D01*
X292721Y124234D01*
X287782Y124234D01*
X309210Y134112D02*
X309342Y134110D01*
X309473Y134104D01*
X309605Y134094D01*
X309736Y134081D01*
X309866Y134063D01*
X309996Y134042D01*
X310126Y134017D01*
X310254Y133988D01*
X310382Y133955D01*
X310508Y133918D01*
X310634Y133878D01*
X310758Y133834D01*
X310881Y133786D01*
X311002Y133735D01*
X311122Y133680D01*
X311240Y133622D01*
X311356Y133560D01*
X311470Y133494D01*
X311583Y133426D01*
X311693Y133354D01*
X311801Y133279D01*
X311907Y133200D01*
X312011Y133119D01*
X312112Y133034D01*
X312210Y132947D01*
X312306Y132856D01*
X312399Y132763D01*
X312490Y132667D01*
X312577Y132569D01*
X312662Y132468D01*
X312743Y132364D01*
X312822Y132258D01*
X312897Y132150D01*
X312969Y132040D01*
X313037Y131927D01*
X313103Y131813D01*
X313165Y131697D01*
X313223Y131579D01*
X313278Y131459D01*
X313329Y131338D01*
X313377Y131215D01*
X313421Y131091D01*
X313461Y130965D01*
X313498Y130839D01*
X313531Y130711D01*
X313560Y130583D01*
X313585Y130453D01*
X313606Y130323D01*
X313624Y130193D01*
X313637Y130062D01*
X313647Y129930D01*
X313653Y129799D01*
X313655Y129667D01*
X309210Y134112D02*
X309060Y134110D01*
X308911Y134104D01*
X308762Y134094D01*
X308613Y134081D01*
X308464Y134063D01*
X308316Y134042D01*
X308168Y134016D01*
X308022Y133987D01*
X307876Y133954D01*
X307731Y133917D01*
X307587Y133876D01*
X307444Y133832D01*
X307302Y133784D01*
X307162Y133732D01*
X307023Y133677D01*
X306885Y133618D01*
X306750Y133555D01*
X306615Y133489D01*
X306483Y133419D01*
X306353Y133346D01*
X306224Y133269D01*
X306097Y133189D01*
X305973Y133106D01*
X305851Y133020D01*
X305731Y132930D01*
X305614Y132837D01*
X305499Y132742D01*
X305386Y132643D01*
X305276Y132541D01*
X305169Y132437D01*
X305065Y132330D01*
X304963Y132220D01*
X304865Y132107D01*
X304769Y131992D01*
X304677Y131874D01*
X304587Y131754D01*
X304501Y131632D01*
X304418Y131508D01*
X304338Y131381D01*
X304262Y131253D01*
X304189Y131122D01*
X304119Y130989D01*
X304053Y130855D01*
X303991Y130719D01*
X303932Y130582D01*
X303876Y130443D01*
X303825Y130302D01*
X303777Y130161D01*
X312172Y126210D02*
X312268Y126303D01*
X312360Y126399D01*
X312450Y126498D01*
X312537Y126599D01*
X312622Y126702D01*
X312703Y126807D01*
X312781Y126915D01*
X312856Y127025D01*
X312929Y127137D01*
X312998Y127251D01*
X313064Y127367D01*
X313126Y127485D01*
X313185Y127604D01*
X313241Y127725D01*
X313294Y127848D01*
X313343Y127972D01*
X313388Y128097D01*
X313431Y128224D01*
X313469Y128351D01*
X313504Y128480D01*
X313535Y128609D01*
X313563Y128740D01*
X313587Y128871D01*
X313608Y129003D01*
X313624Y129135D01*
X313637Y129268D01*
X313647Y129401D01*
X313652Y129534D01*
X313654Y129667D01*
X312173Y126210D02*
X303777Y116332D01*
X313655Y116332D01*
X35052Y116332D02*
X35052Y134112D01*
X39991Y134112D01*
X40131Y134110D01*
X40270Y134104D01*
X40410Y134094D01*
X40549Y134080D01*
X40688Y134063D01*
X40826Y134041D01*
X40963Y134015D01*
X41100Y133986D01*
X41236Y133953D01*
X41370Y133916D01*
X41504Y133875D01*
X41636Y133830D01*
X41768Y133781D01*
X41897Y133729D01*
X42025Y133674D01*
X42152Y133614D01*
X42277Y133551D01*
X42400Y133485D01*
X42521Y133415D01*
X42640Y133342D01*
X42757Y133265D01*
X42871Y133185D01*
X42984Y133102D01*
X43094Y133016D01*
X43201Y132926D01*
X43306Y132834D01*
X43408Y132739D01*
X43508Y132641D01*
X43605Y132540D01*
X43699Y132436D01*
X43789Y132330D01*
X43877Y132221D01*
X43962Y132110D01*
X44043Y131996D01*
X44122Y131881D01*
X44197Y131763D01*
X44268Y131643D01*
X44336Y131520D01*
X44401Y131397D01*
X44462Y131271D01*
X44520Y131143D01*
X44574Y131015D01*
X44624Y130884D01*
X44671Y130752D01*
X44714Y130619D01*
X44753Y130485D01*
X44788Y130350D01*
X44819Y130214D01*
X44847Y130076D01*
X44870Y129939D01*
X44890Y129800D01*
X44906Y129661D01*
X44918Y129522D01*
X44926Y129383D01*
X44930Y129243D01*
X44930Y129103D01*
X44926Y128963D01*
X44918Y128824D01*
X44906Y128685D01*
X44890Y128546D01*
X44870Y128407D01*
X44847Y128270D01*
X44819Y128132D01*
X44788Y127996D01*
X44753Y127861D01*
X44714Y127727D01*
X44671Y127594D01*
X44624Y127462D01*
X44574Y127331D01*
X44520Y127203D01*
X44462Y127075D01*
X44401Y126949D01*
X44336Y126826D01*
X44268Y126704D01*
X44197Y126583D01*
X44122Y126465D01*
X44043Y126350D01*
X43962Y126236D01*
X43877Y126125D01*
X43789Y126016D01*
X43699Y125910D01*
X43605Y125806D01*
X43508Y125705D01*
X43408Y125607D01*
X43306Y125512D01*
X43201Y125420D01*
X43094Y125330D01*
X42984Y125244D01*
X42871Y125161D01*
X42757Y125081D01*
X42640Y125004D01*
X42521Y124931D01*
X42400Y124861D01*
X42277Y124795D01*
X42152Y124732D01*
X42025Y124672D01*
X41897Y124617D01*
X41768Y124565D01*
X41636Y124516D01*
X41504Y124471D01*
X41370Y124430D01*
X41236Y124393D01*
X41100Y124360D01*
X40963Y124331D01*
X40826Y124305D01*
X40688Y124283D01*
X40549Y124266D01*
X40410Y124252D01*
X40270Y124242D01*
X40131Y124236D01*
X39991Y124234D01*
X35052Y124234D01*
X51047Y120283D02*
X54998Y134112D01*
X51047Y120283D02*
X60925Y120283D01*
X57961Y124234D02*
X57961Y116332D01*
D122*
X229490Y265160D02*
X229494Y265516D01*
X229507Y265871D01*
X229529Y266227D01*
X229560Y266581D01*
X229599Y266935D01*
X229647Y267288D01*
X229703Y267639D01*
X229769Y267989D01*
X229842Y268337D01*
X229925Y268683D01*
X230015Y269027D01*
X230114Y269369D01*
X230222Y269708D01*
X230338Y270045D01*
X230462Y270378D01*
X230594Y270709D01*
X230734Y271036D01*
X230882Y271360D01*
X231038Y271679D01*
X231202Y271995D01*
X231374Y272307D01*
X231553Y272614D01*
X231740Y272917D01*
X231934Y273216D01*
X232135Y273509D01*
X232343Y273798D01*
X232559Y274081D01*
X232781Y274359D01*
X233010Y274631D01*
X233246Y274898D01*
X233488Y275158D01*
X233737Y275413D01*
X233992Y275662D01*
X234252Y275904D01*
X234519Y276140D01*
X234791Y276369D01*
X235069Y276591D01*
X235352Y276807D01*
X235641Y277015D01*
X235934Y277216D01*
X236233Y277410D01*
X236536Y277597D01*
X236843Y277776D01*
X237155Y277948D01*
X237471Y278112D01*
X237790Y278268D01*
X238114Y278416D01*
X238441Y278556D01*
X238772Y278688D01*
X239105Y278812D01*
X239442Y278928D01*
X239781Y279036D01*
X240123Y279135D01*
X240467Y279225D01*
X240813Y279308D01*
X241161Y279381D01*
X241511Y279447D01*
X241862Y279503D01*
X242215Y279551D01*
X242569Y279590D01*
X242923Y279621D01*
X243279Y279643D01*
X243634Y279656D01*
X243990Y279660D01*
X244346Y279656D01*
X244701Y279643D01*
X245057Y279621D01*
X245411Y279590D01*
X245765Y279551D01*
X246118Y279503D01*
X246469Y279447D01*
X246819Y279381D01*
X247167Y279308D01*
X247513Y279225D01*
X247857Y279135D01*
X248199Y279036D01*
X248538Y278928D01*
X248875Y278812D01*
X249208Y278688D01*
X249539Y278556D01*
X249866Y278416D01*
X250190Y278268D01*
X250509Y278112D01*
X250825Y277948D01*
X251137Y277776D01*
X251444Y277597D01*
X251747Y277410D01*
X252046Y277216D01*
X252339Y277015D01*
X252628Y276807D01*
X252911Y276591D01*
X253189Y276369D01*
X253461Y276140D01*
X253728Y275904D01*
X253988Y275662D01*
X254243Y275413D01*
X254492Y275158D01*
X254734Y274898D01*
X254970Y274631D01*
X255199Y274359D01*
X255421Y274081D01*
X255637Y273798D01*
X255845Y273509D01*
X256046Y273216D01*
X256240Y272917D01*
X256427Y272614D01*
X256606Y272307D01*
X256778Y271995D01*
X256942Y271679D01*
X257098Y271360D01*
X257246Y271036D01*
X257386Y270709D01*
X257518Y270378D01*
X257642Y270045D01*
X257758Y269708D01*
X257866Y269369D01*
X257965Y269027D01*
X258055Y268683D01*
X258138Y268337D01*
X258211Y267989D01*
X258277Y267639D01*
X258333Y267288D01*
X258381Y266935D01*
X258420Y266581D01*
X258451Y266227D01*
X258473Y265871D01*
X258486Y265516D01*
X258490Y265160D01*
X258486Y264804D01*
X258473Y264449D01*
X258451Y264093D01*
X258420Y263739D01*
X258381Y263385D01*
X258333Y263032D01*
X258277Y262681D01*
X258211Y262331D01*
X258138Y261983D01*
X258055Y261637D01*
X257965Y261293D01*
X257866Y260951D01*
X257758Y260612D01*
X257642Y260275D01*
X257518Y259942D01*
X257386Y259611D01*
X257246Y259284D01*
X257098Y258960D01*
X256942Y258641D01*
X256778Y258325D01*
X256606Y258013D01*
X256427Y257706D01*
X256240Y257403D01*
X256046Y257104D01*
X255845Y256811D01*
X255637Y256522D01*
X255421Y256239D01*
X255199Y255961D01*
X254970Y255689D01*
X254734Y255422D01*
X254492Y255162D01*
X254243Y254907D01*
X253988Y254658D01*
X253728Y254416D01*
X253461Y254180D01*
X253189Y253951D01*
X252911Y253729D01*
X252628Y253513D01*
X252339Y253305D01*
X252046Y253104D01*
X251747Y252910D01*
X251444Y252723D01*
X251137Y252544D01*
X250825Y252372D01*
X250509Y252208D01*
X250190Y252052D01*
X249866Y251904D01*
X249539Y251764D01*
X249208Y251632D01*
X248875Y251508D01*
X248538Y251392D01*
X248199Y251284D01*
X247857Y251185D01*
X247513Y251095D01*
X247167Y251012D01*
X246819Y250939D01*
X246469Y250873D01*
X246118Y250817D01*
X245765Y250769D01*
X245411Y250730D01*
X245057Y250699D01*
X244701Y250677D01*
X244346Y250664D01*
X243990Y250660D01*
X243634Y250664D01*
X243279Y250677D01*
X242923Y250699D01*
X242569Y250730D01*
X242215Y250769D01*
X241862Y250817D01*
X241511Y250873D01*
X241161Y250939D01*
X240813Y251012D01*
X240467Y251095D01*
X240123Y251185D01*
X239781Y251284D01*
X239442Y251392D01*
X239105Y251508D01*
X238772Y251632D01*
X238441Y251764D01*
X238114Y251904D01*
X237790Y252052D01*
X237471Y252208D01*
X237155Y252372D01*
X236843Y252544D01*
X236536Y252723D01*
X236233Y252910D01*
X235934Y253104D01*
X235641Y253305D01*
X235352Y253513D01*
X235069Y253729D01*
X234791Y253951D01*
X234519Y254180D01*
X234252Y254416D01*
X233992Y254658D01*
X233737Y254907D01*
X233488Y255162D01*
X233246Y255422D01*
X233010Y255689D01*
X232781Y255961D01*
X232559Y256239D01*
X232343Y256522D01*
X232135Y256811D01*
X231934Y257104D01*
X231740Y257403D01*
X231553Y257706D01*
X231374Y258013D01*
X231202Y258325D01*
X231038Y258641D01*
X230882Y258960D01*
X230734Y259284D01*
X230594Y259611D01*
X230462Y259942D01*
X230338Y260275D01*
X230222Y260612D01*
X230114Y260951D01*
X230015Y261293D01*
X229925Y261637D01*
X229842Y261983D01*
X229769Y262331D01*
X229703Y262681D01*
X229647Y263032D01*
X229599Y263385D01*
X229560Y263739D01*
X229529Y264093D01*
X229507Y264449D01*
X229494Y264804D01*
X229490Y265160D01*
X194490Y265160D02*
X194494Y265516D01*
X194507Y265871D01*
X194529Y266227D01*
X194560Y266581D01*
X194599Y266935D01*
X194647Y267288D01*
X194703Y267639D01*
X194769Y267989D01*
X194842Y268337D01*
X194925Y268683D01*
X195015Y269027D01*
X195114Y269369D01*
X195222Y269708D01*
X195338Y270045D01*
X195462Y270378D01*
X195594Y270709D01*
X195734Y271036D01*
X195882Y271360D01*
X196038Y271679D01*
X196202Y271995D01*
X196374Y272307D01*
X196553Y272614D01*
X196740Y272917D01*
X196934Y273216D01*
X197135Y273509D01*
X197343Y273798D01*
X197559Y274081D01*
X197781Y274359D01*
X198010Y274631D01*
X198246Y274898D01*
X198488Y275158D01*
X198737Y275413D01*
X198992Y275662D01*
X199252Y275904D01*
X199519Y276140D01*
X199791Y276369D01*
X200069Y276591D01*
X200352Y276807D01*
X200641Y277015D01*
X200934Y277216D01*
X201233Y277410D01*
X201536Y277597D01*
X201843Y277776D01*
X202155Y277948D01*
X202471Y278112D01*
X202790Y278268D01*
X203114Y278416D01*
X203441Y278556D01*
X203772Y278688D01*
X204105Y278812D01*
X204442Y278928D01*
X204781Y279036D01*
X205123Y279135D01*
X205467Y279225D01*
X205813Y279308D01*
X206161Y279381D01*
X206511Y279447D01*
X206862Y279503D01*
X207215Y279551D01*
X207569Y279590D01*
X207923Y279621D01*
X208279Y279643D01*
X208634Y279656D01*
X208990Y279660D01*
X209346Y279656D01*
X209701Y279643D01*
X210057Y279621D01*
X210411Y279590D01*
X210765Y279551D01*
X211118Y279503D01*
X211469Y279447D01*
X211819Y279381D01*
X212167Y279308D01*
X212513Y279225D01*
X212857Y279135D01*
X213199Y279036D01*
X213538Y278928D01*
X213875Y278812D01*
X214208Y278688D01*
X214539Y278556D01*
X214866Y278416D01*
X215190Y278268D01*
X215509Y278112D01*
X215825Y277948D01*
X216137Y277776D01*
X216444Y277597D01*
X216747Y277410D01*
X217046Y277216D01*
X217339Y277015D01*
X217628Y276807D01*
X217911Y276591D01*
X218189Y276369D01*
X218461Y276140D01*
X218728Y275904D01*
X218988Y275662D01*
X219243Y275413D01*
X219492Y275158D01*
X219734Y274898D01*
X219970Y274631D01*
X220199Y274359D01*
X220421Y274081D01*
X220637Y273798D01*
X220845Y273509D01*
X221046Y273216D01*
X221240Y272917D01*
X221427Y272614D01*
X221606Y272307D01*
X221778Y271995D01*
X221942Y271679D01*
X222098Y271360D01*
X222246Y271036D01*
X222386Y270709D01*
X222518Y270378D01*
X222642Y270045D01*
X222758Y269708D01*
X222866Y269369D01*
X222965Y269027D01*
X223055Y268683D01*
X223138Y268337D01*
X223211Y267989D01*
X223277Y267639D01*
X223333Y267288D01*
X223381Y266935D01*
X223420Y266581D01*
X223451Y266227D01*
X223473Y265871D01*
X223486Y265516D01*
X223490Y265160D01*
X223486Y264804D01*
X223473Y264449D01*
X223451Y264093D01*
X223420Y263739D01*
X223381Y263385D01*
X223333Y263032D01*
X223277Y262681D01*
X223211Y262331D01*
X223138Y261983D01*
X223055Y261637D01*
X222965Y261293D01*
X222866Y260951D01*
X222758Y260612D01*
X222642Y260275D01*
X222518Y259942D01*
X222386Y259611D01*
X222246Y259284D01*
X222098Y258960D01*
X221942Y258641D01*
X221778Y258325D01*
X221606Y258013D01*
X221427Y257706D01*
X221240Y257403D01*
X221046Y257104D01*
X220845Y256811D01*
X220637Y256522D01*
X220421Y256239D01*
X220199Y255961D01*
X219970Y255689D01*
X219734Y255422D01*
X219492Y255162D01*
X219243Y254907D01*
X218988Y254658D01*
X218728Y254416D01*
X218461Y254180D01*
X218189Y253951D01*
X217911Y253729D01*
X217628Y253513D01*
X217339Y253305D01*
X217046Y253104D01*
X216747Y252910D01*
X216444Y252723D01*
X216137Y252544D01*
X215825Y252372D01*
X215509Y252208D01*
X215190Y252052D01*
X214866Y251904D01*
X214539Y251764D01*
X214208Y251632D01*
X213875Y251508D01*
X213538Y251392D01*
X213199Y251284D01*
X212857Y251185D01*
X212513Y251095D01*
X212167Y251012D01*
X211819Y250939D01*
X211469Y250873D01*
X211118Y250817D01*
X210765Y250769D01*
X210411Y250730D01*
X210057Y250699D01*
X209701Y250677D01*
X209346Y250664D01*
X208990Y250660D01*
X208634Y250664D01*
X208279Y250677D01*
X207923Y250699D01*
X207569Y250730D01*
X207215Y250769D01*
X206862Y250817D01*
X206511Y250873D01*
X206161Y250939D01*
X205813Y251012D01*
X205467Y251095D01*
X205123Y251185D01*
X204781Y251284D01*
X204442Y251392D01*
X204105Y251508D01*
X203772Y251632D01*
X203441Y251764D01*
X203114Y251904D01*
X202790Y252052D01*
X202471Y252208D01*
X202155Y252372D01*
X201843Y252544D01*
X201536Y252723D01*
X201233Y252910D01*
X200934Y253104D01*
X200641Y253305D01*
X200352Y253513D01*
X200069Y253729D01*
X199791Y253951D01*
X199519Y254180D01*
X199252Y254416D01*
X198992Y254658D01*
X198737Y254907D01*
X198488Y255162D01*
X198246Y255422D01*
X198010Y255689D01*
X197781Y255961D01*
X197559Y256239D01*
X197343Y256522D01*
X197135Y256811D01*
X196934Y257104D01*
X196740Y257403D01*
X196553Y257706D01*
X196374Y258013D01*
X196202Y258325D01*
X196038Y258641D01*
X195882Y258960D01*
X195734Y259284D01*
X195594Y259611D01*
X195462Y259942D01*
X195338Y260275D01*
X195222Y260612D01*
X195114Y260951D01*
X195015Y261293D01*
X194925Y261637D01*
X194842Y261983D01*
X194769Y262331D01*
X194703Y262681D01*
X194647Y263032D01*
X194599Y263385D01*
X194560Y263739D01*
X194529Y264093D01*
X194507Y264449D01*
X194494Y264804D01*
X194490Y265160D01*
X159490Y265160D02*
X159494Y265516D01*
X159507Y265871D01*
X159529Y266227D01*
X159560Y266581D01*
X159599Y266935D01*
X159647Y267288D01*
X159703Y267639D01*
X159769Y267989D01*
X159842Y268337D01*
X159925Y268683D01*
X160015Y269027D01*
X160114Y269369D01*
X160222Y269708D01*
X160338Y270045D01*
X160462Y270378D01*
X160594Y270709D01*
X160734Y271036D01*
X160882Y271360D01*
X161038Y271679D01*
X161202Y271995D01*
X161374Y272307D01*
X161553Y272614D01*
X161740Y272917D01*
X161934Y273216D01*
X162135Y273509D01*
X162343Y273798D01*
X162559Y274081D01*
X162781Y274359D01*
X163010Y274631D01*
X163246Y274898D01*
X163488Y275158D01*
X163737Y275413D01*
X163992Y275662D01*
X164252Y275904D01*
X164519Y276140D01*
X164791Y276369D01*
X165069Y276591D01*
X165352Y276807D01*
X165641Y277015D01*
X165934Y277216D01*
X166233Y277410D01*
X166536Y277597D01*
X166843Y277776D01*
X167155Y277948D01*
X167471Y278112D01*
X167790Y278268D01*
X168114Y278416D01*
X168441Y278556D01*
X168772Y278688D01*
X169105Y278812D01*
X169442Y278928D01*
X169781Y279036D01*
X170123Y279135D01*
X170467Y279225D01*
X170813Y279308D01*
X171161Y279381D01*
X171511Y279447D01*
X171862Y279503D01*
X172215Y279551D01*
X172569Y279590D01*
X172923Y279621D01*
X173279Y279643D01*
X173634Y279656D01*
X173990Y279660D01*
X174346Y279656D01*
X174701Y279643D01*
X175057Y279621D01*
X175411Y279590D01*
X175765Y279551D01*
X176118Y279503D01*
X176469Y279447D01*
X176819Y279381D01*
X177167Y279308D01*
X177513Y279225D01*
X177857Y279135D01*
X178199Y279036D01*
X178538Y278928D01*
X178875Y278812D01*
X179208Y278688D01*
X179539Y278556D01*
X179866Y278416D01*
X180190Y278268D01*
X180509Y278112D01*
X180825Y277948D01*
X181137Y277776D01*
X181444Y277597D01*
X181747Y277410D01*
X182046Y277216D01*
X182339Y277015D01*
X182628Y276807D01*
X182911Y276591D01*
X183189Y276369D01*
X183461Y276140D01*
X183728Y275904D01*
X183988Y275662D01*
X184243Y275413D01*
X184492Y275158D01*
X184734Y274898D01*
X184970Y274631D01*
X185199Y274359D01*
X185421Y274081D01*
X185637Y273798D01*
X185845Y273509D01*
X186046Y273216D01*
X186240Y272917D01*
X186427Y272614D01*
X186606Y272307D01*
X186778Y271995D01*
X186942Y271679D01*
X187098Y271360D01*
X187246Y271036D01*
X187386Y270709D01*
X187518Y270378D01*
X187642Y270045D01*
X187758Y269708D01*
X187866Y269369D01*
X187965Y269027D01*
X188055Y268683D01*
X188138Y268337D01*
X188211Y267989D01*
X188277Y267639D01*
X188333Y267288D01*
X188381Y266935D01*
X188420Y266581D01*
X188451Y266227D01*
X188473Y265871D01*
X188486Y265516D01*
X188490Y265160D01*
X188486Y264804D01*
X188473Y264449D01*
X188451Y264093D01*
X188420Y263739D01*
X188381Y263385D01*
X188333Y263032D01*
X188277Y262681D01*
X188211Y262331D01*
X188138Y261983D01*
X188055Y261637D01*
X187965Y261293D01*
X187866Y260951D01*
X187758Y260612D01*
X187642Y260275D01*
X187518Y259942D01*
X187386Y259611D01*
X187246Y259284D01*
X187098Y258960D01*
X186942Y258641D01*
X186778Y258325D01*
X186606Y258013D01*
X186427Y257706D01*
X186240Y257403D01*
X186046Y257104D01*
X185845Y256811D01*
X185637Y256522D01*
X185421Y256239D01*
X185199Y255961D01*
X184970Y255689D01*
X184734Y255422D01*
X184492Y255162D01*
X184243Y254907D01*
X183988Y254658D01*
X183728Y254416D01*
X183461Y254180D01*
X183189Y253951D01*
X182911Y253729D01*
X182628Y253513D01*
X182339Y253305D01*
X182046Y253104D01*
X181747Y252910D01*
X181444Y252723D01*
X181137Y252544D01*
X180825Y252372D01*
X180509Y252208D01*
X180190Y252052D01*
X179866Y251904D01*
X179539Y251764D01*
X179208Y251632D01*
X178875Y251508D01*
X178538Y251392D01*
X178199Y251284D01*
X177857Y251185D01*
X177513Y251095D01*
X177167Y251012D01*
X176819Y250939D01*
X176469Y250873D01*
X176118Y250817D01*
X175765Y250769D01*
X175411Y250730D01*
X175057Y250699D01*
X174701Y250677D01*
X174346Y250664D01*
X173990Y250660D01*
X173634Y250664D01*
X173279Y250677D01*
X172923Y250699D01*
X172569Y250730D01*
X172215Y250769D01*
X171862Y250817D01*
X171511Y250873D01*
X171161Y250939D01*
X170813Y251012D01*
X170467Y251095D01*
X170123Y251185D01*
X169781Y251284D01*
X169442Y251392D01*
X169105Y251508D01*
X168772Y251632D01*
X168441Y251764D01*
X168114Y251904D01*
X167790Y252052D01*
X167471Y252208D01*
X167155Y252372D01*
X166843Y252544D01*
X166536Y252723D01*
X166233Y252910D01*
X165934Y253104D01*
X165641Y253305D01*
X165352Y253513D01*
X165069Y253729D01*
X164791Y253951D01*
X164519Y254180D01*
X164252Y254416D01*
X163992Y254658D01*
X163737Y254907D01*
X163488Y255162D01*
X163246Y255422D01*
X163010Y255689D01*
X162781Y255961D01*
X162559Y256239D01*
X162343Y256522D01*
X162135Y256811D01*
X161934Y257104D01*
X161740Y257403D01*
X161553Y257706D01*
X161374Y258013D01*
X161202Y258325D01*
X161038Y258641D01*
X160882Y258960D01*
X160734Y259284D01*
X160594Y259611D01*
X160462Y259942D01*
X160338Y260275D01*
X160222Y260612D01*
X160114Y260951D01*
X160015Y261293D01*
X159925Y261637D01*
X159842Y261983D01*
X159769Y262331D01*
X159703Y262681D01*
X159647Y263032D01*
X159599Y263385D01*
X159560Y263739D01*
X159529Y264093D01*
X159507Y264449D01*
X159494Y264804D01*
X159490Y265160D01*
X124490Y265160D02*
X124494Y265516D01*
X124507Y265871D01*
X124529Y266227D01*
X124560Y266581D01*
X124599Y266935D01*
X124647Y267288D01*
X124703Y267639D01*
X124769Y267989D01*
X124842Y268337D01*
X124925Y268683D01*
X125015Y269027D01*
X125114Y269369D01*
X125222Y269708D01*
X125338Y270045D01*
X125462Y270378D01*
X125594Y270709D01*
X125734Y271036D01*
X125882Y271360D01*
X126038Y271679D01*
X126202Y271995D01*
X126374Y272307D01*
X126553Y272614D01*
X126740Y272917D01*
X126934Y273216D01*
X127135Y273509D01*
X127343Y273798D01*
X127559Y274081D01*
X127781Y274359D01*
X128010Y274631D01*
X128246Y274898D01*
X128488Y275158D01*
X128737Y275413D01*
X128992Y275662D01*
X129252Y275904D01*
X129519Y276140D01*
X129791Y276369D01*
X130069Y276591D01*
X130352Y276807D01*
X130641Y277015D01*
X130934Y277216D01*
X131233Y277410D01*
X131536Y277597D01*
X131843Y277776D01*
X132155Y277948D01*
X132471Y278112D01*
X132790Y278268D01*
X133114Y278416D01*
X133441Y278556D01*
X133772Y278688D01*
X134105Y278812D01*
X134442Y278928D01*
X134781Y279036D01*
X135123Y279135D01*
X135467Y279225D01*
X135813Y279308D01*
X136161Y279381D01*
X136511Y279447D01*
X136862Y279503D01*
X137215Y279551D01*
X137569Y279590D01*
X137923Y279621D01*
X138279Y279643D01*
X138634Y279656D01*
X138990Y279660D01*
X139346Y279656D01*
X139701Y279643D01*
X140057Y279621D01*
X140411Y279590D01*
X140765Y279551D01*
X141118Y279503D01*
X141469Y279447D01*
X141819Y279381D01*
X142167Y279308D01*
X142513Y279225D01*
X142857Y279135D01*
X143199Y279036D01*
X143538Y278928D01*
X143875Y278812D01*
X144208Y278688D01*
X144539Y278556D01*
X144866Y278416D01*
X145190Y278268D01*
X145509Y278112D01*
X145825Y277948D01*
X146137Y277776D01*
X146444Y277597D01*
X146747Y277410D01*
X147046Y277216D01*
X147339Y277015D01*
X147628Y276807D01*
X147911Y276591D01*
X148189Y276369D01*
X148461Y276140D01*
X148728Y275904D01*
X148988Y275662D01*
X149243Y275413D01*
X149492Y275158D01*
X149734Y274898D01*
X149970Y274631D01*
X150199Y274359D01*
X150421Y274081D01*
X150637Y273798D01*
X150845Y273509D01*
X151046Y273216D01*
X151240Y272917D01*
X151427Y272614D01*
X151606Y272307D01*
X151778Y271995D01*
X151942Y271679D01*
X152098Y271360D01*
X152246Y271036D01*
X152386Y270709D01*
X152518Y270378D01*
X152642Y270045D01*
X152758Y269708D01*
X152866Y269369D01*
X152965Y269027D01*
X153055Y268683D01*
X153138Y268337D01*
X153211Y267989D01*
X153277Y267639D01*
X153333Y267288D01*
X153381Y266935D01*
X153420Y266581D01*
X153451Y266227D01*
X153473Y265871D01*
X153486Y265516D01*
X153490Y265160D01*
X153486Y264804D01*
X153473Y264449D01*
X153451Y264093D01*
X153420Y263739D01*
X153381Y263385D01*
X153333Y263032D01*
X153277Y262681D01*
X153211Y262331D01*
X153138Y261983D01*
X153055Y261637D01*
X152965Y261293D01*
X152866Y260951D01*
X152758Y260612D01*
X152642Y260275D01*
X152518Y259942D01*
X152386Y259611D01*
X152246Y259284D01*
X152098Y258960D01*
X151942Y258641D01*
X151778Y258325D01*
X151606Y258013D01*
X151427Y257706D01*
X151240Y257403D01*
X151046Y257104D01*
X150845Y256811D01*
X150637Y256522D01*
X150421Y256239D01*
X150199Y255961D01*
X149970Y255689D01*
X149734Y255422D01*
X149492Y255162D01*
X149243Y254907D01*
X148988Y254658D01*
X148728Y254416D01*
X148461Y254180D01*
X148189Y253951D01*
X147911Y253729D01*
X147628Y253513D01*
X147339Y253305D01*
X147046Y253104D01*
X146747Y252910D01*
X146444Y252723D01*
X146137Y252544D01*
X145825Y252372D01*
X145509Y252208D01*
X145190Y252052D01*
X144866Y251904D01*
X144539Y251764D01*
X144208Y251632D01*
X143875Y251508D01*
X143538Y251392D01*
X143199Y251284D01*
X142857Y251185D01*
X142513Y251095D01*
X142167Y251012D01*
X141819Y250939D01*
X141469Y250873D01*
X141118Y250817D01*
X140765Y250769D01*
X140411Y250730D01*
X140057Y250699D01*
X139701Y250677D01*
X139346Y250664D01*
X138990Y250660D01*
X138634Y250664D01*
X138279Y250677D01*
X137923Y250699D01*
X137569Y250730D01*
X137215Y250769D01*
X136862Y250817D01*
X136511Y250873D01*
X136161Y250939D01*
X135813Y251012D01*
X135467Y251095D01*
X135123Y251185D01*
X134781Y251284D01*
X134442Y251392D01*
X134105Y251508D01*
X133772Y251632D01*
X133441Y251764D01*
X133114Y251904D01*
X132790Y252052D01*
X132471Y252208D01*
X132155Y252372D01*
X131843Y252544D01*
X131536Y252723D01*
X131233Y252910D01*
X130934Y253104D01*
X130641Y253305D01*
X130352Y253513D01*
X130069Y253729D01*
X129791Y253951D01*
X129519Y254180D01*
X129252Y254416D01*
X128992Y254658D01*
X128737Y254907D01*
X128488Y255162D01*
X128246Y255422D01*
X128010Y255689D01*
X127781Y255961D01*
X127559Y256239D01*
X127343Y256522D01*
X127135Y256811D01*
X126934Y257104D01*
X126740Y257403D01*
X126553Y257706D01*
X126374Y258013D01*
X126202Y258325D01*
X126038Y258641D01*
X125882Y258960D01*
X125734Y259284D01*
X125594Y259611D01*
X125462Y259942D01*
X125338Y260275D01*
X125222Y260612D01*
X125114Y260951D01*
X125015Y261293D01*
X124925Y261637D01*
X124842Y261983D01*
X124769Y262331D01*
X124703Y262681D01*
X124647Y263032D01*
X124599Y263385D01*
X124560Y263739D01*
X124529Y264093D01*
X124507Y264449D01*
X124494Y264804D01*
X124490Y265160D01*
X89490Y265160D02*
X89494Y265516D01*
X89507Y265871D01*
X89529Y266227D01*
X89560Y266581D01*
X89599Y266935D01*
X89647Y267288D01*
X89703Y267639D01*
X89769Y267989D01*
X89842Y268337D01*
X89925Y268683D01*
X90015Y269027D01*
X90114Y269369D01*
X90222Y269708D01*
X90338Y270045D01*
X90462Y270378D01*
X90594Y270709D01*
X90734Y271036D01*
X90882Y271360D01*
X91038Y271679D01*
X91202Y271995D01*
X91374Y272307D01*
X91553Y272614D01*
X91740Y272917D01*
X91934Y273216D01*
X92135Y273509D01*
X92343Y273798D01*
X92559Y274081D01*
X92781Y274359D01*
X93010Y274631D01*
X93246Y274898D01*
X93488Y275158D01*
X93737Y275413D01*
X93992Y275662D01*
X94252Y275904D01*
X94519Y276140D01*
X94791Y276369D01*
X95069Y276591D01*
X95352Y276807D01*
X95641Y277015D01*
X95934Y277216D01*
X96233Y277410D01*
X96536Y277597D01*
X96843Y277776D01*
X97155Y277948D01*
X97471Y278112D01*
X97790Y278268D01*
X98114Y278416D01*
X98441Y278556D01*
X98772Y278688D01*
X99105Y278812D01*
X99442Y278928D01*
X99781Y279036D01*
X100123Y279135D01*
X100467Y279225D01*
X100813Y279308D01*
X101161Y279381D01*
X101511Y279447D01*
X101862Y279503D01*
X102215Y279551D01*
X102569Y279590D01*
X102923Y279621D01*
X103279Y279643D01*
X103634Y279656D01*
X103990Y279660D01*
X104346Y279656D01*
X104701Y279643D01*
X105057Y279621D01*
X105411Y279590D01*
X105765Y279551D01*
X106118Y279503D01*
X106469Y279447D01*
X106819Y279381D01*
X107167Y279308D01*
X107513Y279225D01*
X107857Y279135D01*
X108199Y279036D01*
X108538Y278928D01*
X108875Y278812D01*
X109208Y278688D01*
X109539Y278556D01*
X109866Y278416D01*
X110190Y278268D01*
X110509Y278112D01*
X110825Y277948D01*
X111137Y277776D01*
X111444Y277597D01*
X111747Y277410D01*
X112046Y277216D01*
X112339Y277015D01*
X112628Y276807D01*
X112911Y276591D01*
X113189Y276369D01*
X113461Y276140D01*
X113728Y275904D01*
X113988Y275662D01*
X114243Y275413D01*
X114492Y275158D01*
X114734Y274898D01*
X114970Y274631D01*
X115199Y274359D01*
X115421Y274081D01*
X115637Y273798D01*
X115845Y273509D01*
X116046Y273216D01*
X116240Y272917D01*
X116427Y272614D01*
X116606Y272307D01*
X116778Y271995D01*
X116942Y271679D01*
X117098Y271360D01*
X117246Y271036D01*
X117386Y270709D01*
X117518Y270378D01*
X117642Y270045D01*
X117758Y269708D01*
X117866Y269369D01*
X117965Y269027D01*
X118055Y268683D01*
X118138Y268337D01*
X118211Y267989D01*
X118277Y267639D01*
X118333Y267288D01*
X118381Y266935D01*
X118420Y266581D01*
X118451Y266227D01*
X118473Y265871D01*
X118486Y265516D01*
X118490Y265160D01*
X118486Y264804D01*
X118473Y264449D01*
X118451Y264093D01*
X118420Y263739D01*
X118381Y263385D01*
X118333Y263032D01*
X118277Y262681D01*
X118211Y262331D01*
X118138Y261983D01*
X118055Y261637D01*
X117965Y261293D01*
X117866Y260951D01*
X117758Y260612D01*
X117642Y260275D01*
X117518Y259942D01*
X117386Y259611D01*
X117246Y259284D01*
X117098Y258960D01*
X116942Y258641D01*
X116778Y258325D01*
X116606Y258013D01*
X116427Y257706D01*
X116240Y257403D01*
X116046Y257104D01*
X115845Y256811D01*
X115637Y256522D01*
X115421Y256239D01*
X115199Y255961D01*
X114970Y255689D01*
X114734Y255422D01*
X114492Y255162D01*
X114243Y254907D01*
X113988Y254658D01*
X113728Y254416D01*
X113461Y254180D01*
X113189Y253951D01*
X112911Y253729D01*
X112628Y253513D01*
X112339Y253305D01*
X112046Y253104D01*
X111747Y252910D01*
X111444Y252723D01*
X111137Y252544D01*
X110825Y252372D01*
X110509Y252208D01*
X110190Y252052D01*
X109866Y251904D01*
X109539Y251764D01*
X109208Y251632D01*
X108875Y251508D01*
X108538Y251392D01*
X108199Y251284D01*
X107857Y251185D01*
X107513Y251095D01*
X107167Y251012D01*
X106819Y250939D01*
X106469Y250873D01*
X106118Y250817D01*
X105765Y250769D01*
X105411Y250730D01*
X105057Y250699D01*
X104701Y250677D01*
X104346Y250664D01*
X103990Y250660D01*
X103634Y250664D01*
X103279Y250677D01*
X102923Y250699D01*
X102569Y250730D01*
X102215Y250769D01*
X101862Y250817D01*
X101511Y250873D01*
X101161Y250939D01*
X100813Y251012D01*
X100467Y251095D01*
X100123Y251185D01*
X99781Y251284D01*
X99442Y251392D01*
X99105Y251508D01*
X98772Y251632D01*
X98441Y251764D01*
X98114Y251904D01*
X97790Y252052D01*
X97471Y252208D01*
X97155Y252372D01*
X96843Y252544D01*
X96536Y252723D01*
X96233Y252910D01*
X95934Y253104D01*
X95641Y253305D01*
X95352Y253513D01*
X95069Y253729D01*
X94791Y253951D01*
X94519Y254180D01*
X94252Y254416D01*
X93992Y254658D01*
X93737Y254907D01*
X93488Y255162D01*
X93246Y255422D01*
X93010Y255689D01*
X92781Y255961D01*
X92559Y256239D01*
X92343Y256522D01*
X92135Y256811D01*
X91934Y257104D01*
X91740Y257403D01*
X91553Y257706D01*
X91374Y258013D01*
X91202Y258325D01*
X91038Y258641D01*
X90882Y258960D01*
X90734Y259284D01*
X90594Y259611D01*
X90462Y259942D01*
X90338Y260275D01*
X90222Y260612D01*
X90114Y260951D01*
X90015Y261293D01*
X89925Y261637D01*
X89842Y261983D01*
X89769Y262331D01*
X89703Y262681D01*
X89647Y263032D01*
X89599Y263385D01*
X89560Y263739D01*
X89529Y264093D01*
X89507Y264449D01*
X89494Y264804D01*
X89490Y265160D01*
X83990Y227660D02*
X263990Y227660D01*
X263990Y245037D01*
X263990Y285153D02*
X83990Y285153D01*
X83990Y280323D01*
X83990Y249793D01*
X83990Y245037D01*
X83990Y285153D02*
X83990Y293270D01*
X83990Y245037D02*
X263990Y245037D01*
X263990Y249793D02*
X263990Y280323D01*
X263990Y249793D02*
X263990Y245037D01*
X263990Y249793D02*
X83990Y249793D01*
X83990Y280323D02*
X263990Y280323D01*
X83990Y245037D02*
X83990Y227660D01*
X263990Y280323D02*
X263990Y285153D01*
X263990Y293270D01*
X83990Y293270D01*
X83990Y300660D02*
X263990Y300660D01*
X83990Y300660D02*
X83990Y297660D01*
X263990Y297660D01*
X263990Y300660D01*
X263990Y297660D02*
X263990Y293270D01*
X83990Y293270D02*
X83990Y297660D01*
X231930Y258050D02*
X231990Y258110D01*
X196990Y258110D02*
X196930Y258050D01*
X161990Y258110D02*
X161930Y258050D01*
X126990Y258110D02*
X126930Y258050D01*
X91990Y258110D02*
X91930Y258050D01*
X241491Y238831D02*
X244736Y241427D01*
X244736Y229743D01*
X241491Y229743D02*
X247982Y229743D01*
X213057Y238506D02*
X213055Y238613D01*
X213049Y238719D01*
X213039Y238825D01*
X213026Y238931D01*
X213008Y239037D01*
X212987Y239141D01*
X212962Y239245D01*
X212933Y239348D01*
X212901Y239449D01*
X212864Y239549D01*
X212824Y239648D01*
X212781Y239746D01*
X212734Y239842D01*
X212683Y239936D01*
X212629Y240028D01*
X212572Y240118D01*
X212512Y240206D01*
X212448Y240291D01*
X212381Y240374D01*
X212311Y240455D01*
X212239Y240533D01*
X212163Y240609D01*
X212085Y240681D01*
X212004Y240751D01*
X211921Y240818D01*
X211836Y240882D01*
X211748Y240942D01*
X211658Y240999D01*
X211566Y241053D01*
X211472Y241104D01*
X211376Y241151D01*
X211278Y241194D01*
X211179Y241234D01*
X211079Y241271D01*
X210978Y241303D01*
X210875Y241332D01*
X210771Y241357D01*
X210667Y241378D01*
X210561Y241396D01*
X210455Y241409D01*
X210349Y241419D01*
X210243Y241425D01*
X210136Y241427D01*
X210015Y241425D01*
X209894Y241419D01*
X209774Y241409D01*
X209653Y241396D01*
X209534Y241378D01*
X209414Y241357D01*
X209296Y241332D01*
X209179Y241303D01*
X209062Y241270D01*
X208947Y241234D01*
X208833Y241193D01*
X208720Y241150D01*
X208608Y241102D01*
X208499Y241051D01*
X208391Y240996D01*
X208284Y240938D01*
X208180Y240877D01*
X208078Y240812D01*
X207978Y240744D01*
X207880Y240673D01*
X207784Y240599D01*
X207691Y240522D01*
X207601Y240441D01*
X207513Y240358D01*
X207428Y240272D01*
X207345Y240183D01*
X207266Y240092D01*
X207189Y239998D01*
X207116Y239902D01*
X207046Y239804D01*
X206979Y239703D01*
X206915Y239600D01*
X206855Y239495D01*
X206798Y239388D01*
X206744Y239280D01*
X206694Y239170D01*
X206648Y239058D01*
X206605Y238945D01*
X206566Y238830D01*
X212084Y236234D02*
X212163Y236311D01*
X212239Y236392D01*
X212312Y236475D01*
X212382Y236560D01*
X212449Y236648D01*
X212513Y236738D01*
X212573Y236830D01*
X212630Y236925D01*
X212684Y237021D01*
X212735Y237119D01*
X212782Y237219D01*
X212826Y237321D01*
X212866Y237424D01*
X212902Y237528D01*
X212934Y237634D01*
X212963Y237740D01*
X212988Y237848D01*
X213010Y237956D01*
X213027Y238066D01*
X213041Y238175D01*
X213050Y238285D01*
X213056Y238396D01*
X213058Y238506D01*
X212083Y236234D02*
X206566Y229743D01*
X213057Y229743D01*
X174886Y229743D02*
X171641Y229743D01*
X174886Y229743D02*
X174999Y229745D01*
X175112Y229751D01*
X175225Y229761D01*
X175338Y229775D01*
X175450Y229792D01*
X175561Y229814D01*
X175671Y229839D01*
X175781Y229869D01*
X175889Y229902D01*
X175996Y229939D01*
X176102Y229979D01*
X176206Y230024D01*
X176309Y230072D01*
X176410Y230123D01*
X176509Y230178D01*
X176606Y230236D01*
X176701Y230298D01*
X176794Y230363D01*
X176884Y230431D01*
X176972Y230502D01*
X177058Y230577D01*
X177141Y230654D01*
X177221Y230734D01*
X177298Y230817D01*
X177373Y230903D01*
X177444Y230991D01*
X177512Y231081D01*
X177577Y231174D01*
X177639Y231269D01*
X177697Y231366D01*
X177752Y231465D01*
X177803Y231566D01*
X177851Y231669D01*
X177896Y231773D01*
X177936Y231879D01*
X177973Y231986D01*
X178006Y232094D01*
X178036Y232204D01*
X178061Y232314D01*
X178083Y232425D01*
X178100Y232537D01*
X178114Y232650D01*
X178124Y232763D01*
X178130Y232876D01*
X178132Y232989D01*
X178130Y233102D01*
X178124Y233215D01*
X178114Y233328D01*
X178100Y233441D01*
X178083Y233553D01*
X178061Y233664D01*
X178036Y233774D01*
X178006Y233884D01*
X177973Y233992D01*
X177936Y234099D01*
X177896Y234205D01*
X177851Y234309D01*
X177803Y234412D01*
X177752Y234513D01*
X177697Y234612D01*
X177639Y234709D01*
X177577Y234804D01*
X177512Y234897D01*
X177444Y234987D01*
X177373Y235075D01*
X177298Y235161D01*
X177221Y235244D01*
X177141Y235324D01*
X177058Y235401D01*
X176972Y235476D01*
X176884Y235547D01*
X176794Y235615D01*
X176701Y235680D01*
X176606Y235742D01*
X176509Y235800D01*
X176410Y235855D01*
X176309Y235906D01*
X176206Y235954D01*
X176102Y235999D01*
X175996Y236039D01*
X175889Y236076D01*
X175781Y236109D01*
X175671Y236139D01*
X175561Y236164D01*
X175450Y236186D01*
X175338Y236203D01*
X175225Y236217D01*
X175112Y236227D01*
X174999Y236233D01*
X174886Y236235D01*
X175536Y241427D02*
X171641Y241427D01*
X175536Y241427D02*
X175637Y241425D01*
X175737Y241419D01*
X175837Y241409D01*
X175937Y241396D01*
X176036Y241378D01*
X176135Y241357D01*
X176232Y241332D01*
X176329Y241303D01*
X176424Y241270D01*
X176518Y241234D01*
X176610Y241194D01*
X176701Y241151D01*
X176790Y241104D01*
X176877Y241054D01*
X176963Y241000D01*
X177046Y240943D01*
X177126Y240883D01*
X177205Y240820D01*
X177281Y240753D01*
X177354Y240684D01*
X177424Y240612D01*
X177492Y240538D01*
X177557Y240461D01*
X177618Y240381D01*
X177677Y240299D01*
X177732Y240215D01*
X177784Y240129D01*
X177833Y240041D01*
X177878Y239951D01*
X177920Y239859D01*
X177958Y239766D01*
X177992Y239671D01*
X178023Y239576D01*
X178050Y239479D01*
X178073Y239381D01*
X178093Y239282D01*
X178108Y239182D01*
X178120Y239082D01*
X178128Y238982D01*
X178132Y238881D01*
X178132Y238781D01*
X178128Y238680D01*
X178120Y238580D01*
X178108Y238480D01*
X178093Y238380D01*
X178073Y238281D01*
X178050Y238183D01*
X178023Y238086D01*
X177992Y237991D01*
X177958Y237896D01*
X177920Y237803D01*
X177878Y237711D01*
X177833Y237621D01*
X177784Y237533D01*
X177732Y237447D01*
X177677Y237363D01*
X177618Y237281D01*
X177557Y237201D01*
X177492Y237124D01*
X177424Y237050D01*
X177354Y236978D01*
X177281Y236909D01*
X177205Y236842D01*
X177126Y236779D01*
X177046Y236719D01*
X176963Y236662D01*
X176877Y236608D01*
X176790Y236558D01*
X176701Y236511D01*
X176610Y236468D01*
X176518Y236428D01*
X176424Y236392D01*
X176329Y236359D01*
X176232Y236330D01*
X176135Y236305D01*
X176036Y236284D01*
X175937Y236266D01*
X175837Y236253D01*
X175737Y236243D01*
X175637Y236237D01*
X175536Y236235D01*
X175536Y236234D02*
X172939Y236234D01*
X139312Y241427D02*
X136716Y232339D01*
X143207Y232339D01*
X141260Y234936D02*
X141260Y229743D01*
X105686Y229743D02*
X101791Y229743D01*
X105686Y229743D02*
X105785Y229745D01*
X105885Y229751D01*
X105984Y229760D01*
X106082Y229773D01*
X106180Y229790D01*
X106278Y229811D01*
X106374Y229836D01*
X106469Y229864D01*
X106563Y229896D01*
X106656Y229931D01*
X106748Y229970D01*
X106838Y230013D01*
X106926Y230058D01*
X107013Y230108D01*
X107097Y230160D01*
X107180Y230216D01*
X107260Y230274D01*
X107338Y230336D01*
X107413Y230401D01*
X107486Y230469D01*
X107556Y230539D01*
X107624Y230612D01*
X107689Y230687D01*
X107751Y230765D01*
X107809Y230845D01*
X107865Y230928D01*
X107917Y231012D01*
X107967Y231099D01*
X108012Y231187D01*
X108055Y231277D01*
X108094Y231369D01*
X108129Y231462D01*
X108161Y231556D01*
X108189Y231651D01*
X108214Y231747D01*
X108235Y231845D01*
X108252Y231943D01*
X108265Y232041D01*
X108274Y232140D01*
X108280Y232240D01*
X108282Y232339D01*
X108282Y233638D01*
X108280Y233737D01*
X108274Y233837D01*
X108265Y233936D01*
X108252Y234034D01*
X108235Y234132D01*
X108214Y234230D01*
X108189Y234326D01*
X108161Y234421D01*
X108129Y234515D01*
X108094Y234608D01*
X108055Y234700D01*
X108012Y234790D01*
X107967Y234878D01*
X107917Y234965D01*
X107865Y235049D01*
X107809Y235132D01*
X107751Y235212D01*
X107689Y235290D01*
X107624Y235365D01*
X107556Y235438D01*
X107486Y235508D01*
X107413Y235576D01*
X107338Y235641D01*
X107260Y235703D01*
X107180Y235761D01*
X107097Y235817D01*
X107013Y235869D01*
X106926Y235919D01*
X106838Y235964D01*
X106748Y236007D01*
X106656Y236046D01*
X106563Y236081D01*
X106469Y236113D01*
X106374Y236141D01*
X106278Y236166D01*
X106180Y236187D01*
X106082Y236204D01*
X105984Y236217D01*
X105885Y236226D01*
X105785Y236232D01*
X105686Y236234D01*
X101791Y236234D01*
X101791Y241427D01*
X108282Y241427D01*
D123*
X267921Y283732D02*
X277319Y277467D01*
X277319Y283732D02*
X267921Y277467D01*
X270009Y287133D02*
X267921Y289743D01*
X277319Y289743D01*
X277319Y287133D02*
X277319Y292354D01*
D121*
X237490Y80270D02*
X212090Y80270D01*
X212090Y-4730D01*
X237490Y-4730D01*
X237490Y80270D01*
X212090Y80270D02*
X186690Y80270D01*
X186690Y-4730D01*
X212090Y-4730D01*
X186690Y80270D02*
X161290Y80270D01*
X161290Y-4730D01*
X186690Y-4730D01*
X161290Y80270D02*
X135890Y80270D01*
X135890Y-4730D01*
X161290Y-4730D01*
X135890Y80270D02*
X110490Y80270D01*
X110490Y-4730D01*
X135890Y-4730D01*
D124*
X224790Y85350D03*
X199390Y85350D03*
X173990Y85350D03*
X148590Y85350D03*
X123190Y85350D03*
D10*
X244475Y72696D02*
X253365Y72696D01*
X253465Y72694D01*
X253564Y72688D01*
X253664Y72678D01*
X253762Y72665D01*
X253861Y72647D01*
X253958Y72626D01*
X254054Y72601D01*
X254150Y72572D01*
X254244Y72539D01*
X254337Y72503D01*
X254428Y72463D01*
X254518Y72419D01*
X254606Y72372D01*
X254692Y72322D01*
X254776Y72268D01*
X254858Y72211D01*
X254937Y72151D01*
X255015Y72087D01*
X255089Y72021D01*
X255161Y71952D01*
X255230Y71880D01*
X255296Y71806D01*
X255360Y71728D01*
X255420Y71649D01*
X255477Y71567D01*
X255531Y71483D01*
X255581Y71397D01*
X255628Y71309D01*
X255672Y71219D01*
X255712Y71128D01*
X255748Y71035D01*
X255781Y70941D01*
X255810Y70845D01*
X255835Y70749D01*
X255856Y70652D01*
X255874Y70553D01*
X255887Y70455D01*
X255897Y70355D01*
X255903Y70256D01*
X255905Y70156D01*
X255905Y68886D01*
X255905Y78677D02*
X244475Y78677D01*
X244475Y81852D01*
X244477Y81963D01*
X244483Y82073D01*
X244492Y82184D01*
X244506Y82294D01*
X244523Y82403D01*
X244544Y82512D01*
X244569Y82620D01*
X244598Y82727D01*
X244630Y82833D01*
X244666Y82938D01*
X244706Y83041D01*
X244749Y83143D01*
X244796Y83244D01*
X244847Y83343D01*
X244900Y83439D01*
X244957Y83534D01*
X245018Y83627D01*
X245081Y83718D01*
X245148Y83807D01*
X245218Y83893D01*
X245291Y83976D01*
X245366Y84058D01*
X245444Y84136D01*
X245526Y84211D01*
X245609Y84284D01*
X245695Y84354D01*
X245784Y84421D01*
X245875Y84484D01*
X245968Y84545D01*
X246063Y84602D01*
X246159Y84655D01*
X246258Y84706D01*
X246359Y84753D01*
X246461Y84796D01*
X246564Y84836D01*
X246669Y84872D01*
X246775Y84904D01*
X246882Y84933D01*
X246990Y84958D01*
X247099Y84979D01*
X247208Y84996D01*
X247318Y85010D01*
X247429Y85019D01*
X247539Y85025D01*
X247650Y85027D01*
X247761Y85025D01*
X247871Y85019D01*
X247982Y85010D01*
X248092Y84996D01*
X248201Y84979D01*
X248310Y84958D01*
X248418Y84933D01*
X248525Y84904D01*
X248631Y84872D01*
X248736Y84836D01*
X248839Y84796D01*
X248941Y84753D01*
X249042Y84706D01*
X249141Y84655D01*
X249238Y84602D01*
X249332Y84545D01*
X249425Y84484D01*
X249516Y84421D01*
X249605Y84354D01*
X249691Y84284D01*
X249774Y84211D01*
X249856Y84136D01*
X249934Y84058D01*
X250009Y83976D01*
X250082Y83893D01*
X250152Y83807D01*
X250219Y83718D01*
X250282Y83627D01*
X250343Y83534D01*
X250400Y83440D01*
X250453Y83343D01*
X250504Y83244D01*
X250551Y83143D01*
X250594Y83041D01*
X250634Y82938D01*
X250670Y82833D01*
X250702Y82727D01*
X250731Y82620D01*
X250756Y82512D01*
X250777Y82403D01*
X250794Y82294D01*
X250808Y82184D01*
X250817Y82073D01*
X250823Y81963D01*
X250825Y81852D01*
X250825Y78677D01*
X247015Y89535D02*
X244475Y92710D01*
X255905Y92710D01*
X255905Y89535D02*
X255905Y95885D01*
M02*
