G04 EAGLE Gerber RS-274X export*
G75*
%MOMM*%
%FSLAX34Y34*%
%LPD*%
%INTop Copper*%
%IPPOS*%
%AMOC8*
5,1,8,0,0,1.08239X$1,22.5*%
G01*
%ADD10P,1.649562X8X22.500000*%
%ADD11C,5.080000*%
%ADD12C,1.000000*%
%ADD13C,1.524000*%

G36*
X259142Y13072D02*
X259142Y13072D01*
X259210Y13073D01*
X259263Y13091D01*
X259318Y13100D01*
X259378Y13132D01*
X259442Y13155D01*
X259486Y13189D01*
X259536Y13216D01*
X259582Y13265D01*
X259635Y13306D01*
X259682Y13370D01*
X259705Y13394D01*
X259714Y13413D01*
X259735Y13441D01*
X283548Y54689D01*
X283560Y54719D01*
X283578Y54746D01*
X283603Y54834D01*
X283635Y54919D01*
X283637Y54952D01*
X283645Y54983D01*
X283641Y55074D01*
X283644Y55165D01*
X283635Y55196D01*
X283634Y55228D01*
X283581Y55388D01*
X283552Y55450D01*
X283548Y55457D01*
X283545Y55465D01*
X283456Y55607D01*
X282058Y57358D01*
X282052Y57363D01*
X282048Y57371D01*
X281927Y57487D01*
X281599Y57738D01*
X281218Y58397D01*
X281197Y58423D01*
X281154Y58491D01*
X280679Y59086D01*
X280565Y59483D01*
X280561Y59491D01*
X280560Y59499D01*
X280493Y59653D01*
X279372Y61592D01*
X279366Y61599D01*
X279363Y61607D01*
X279261Y61740D01*
X278974Y62038D01*
X278696Y62746D01*
X278679Y62774D01*
X278646Y62848D01*
X278266Y63507D01*
X278212Y63917D01*
X278209Y63925D01*
X278209Y63933D01*
X278166Y64095D01*
X277346Y66180D01*
X277342Y66188D01*
X277340Y66196D01*
X277259Y66343D01*
X277019Y66680D01*
X276850Y67421D01*
X276837Y67452D01*
X276816Y67530D01*
X276538Y68238D01*
X276546Y68652D01*
X276544Y68660D01*
X276546Y68668D01*
X276527Y68835D01*
X276027Y71019D01*
X276024Y71027D01*
X276023Y71035D01*
X275965Y71193D01*
X275778Y71561D01*
X275721Y72320D01*
X275714Y72352D01*
X275704Y72433D01*
X275535Y73174D01*
X275604Y73582D01*
X275604Y73590D01*
X275607Y73599D01*
X275612Y73766D01*
X275444Y76000D01*
X275442Y76008D01*
X275443Y76017D01*
X275408Y76181D01*
X275279Y76574D01*
X275336Y77332D01*
X275333Y77365D01*
X275335Y77446D01*
X275278Y78205D01*
X275407Y78597D01*
X275409Y78606D01*
X275413Y78614D01*
X275443Y78779D01*
X275610Y81012D01*
X275609Y81021D01*
X275611Y81029D01*
X275601Y81197D01*
X275532Y81604D01*
X275701Y82346D01*
X275703Y82379D01*
X275718Y82459D01*
X275775Y83217D01*
X275961Y83586D01*
X275963Y83594D01*
X275968Y83601D01*
X276023Y83760D01*
X276521Y85944D01*
X276522Y85953D01*
X276525Y85961D01*
X276540Y86128D01*
X276532Y86541D01*
X276810Y87249D01*
X276817Y87281D01*
X276843Y87358D01*
X277012Y88100D01*
X277252Y88437D01*
X277255Y88445D01*
X277261Y88451D01*
X277339Y88599D01*
X278157Y90685D01*
X278159Y90693D01*
X278163Y90701D01*
X278203Y90864D01*
X278257Y91274D01*
X278637Y91933D01*
X278649Y91963D01*
X278686Y92035D01*
X278964Y92743D01*
X278970Y92749D01*
X279021Y92824D01*
X279079Y92893D01*
X279091Y92924D01*
X279110Y92952D01*
X279135Y93039D01*
X279167Y93123D01*
X279168Y93156D01*
X279178Y93188D01*
X279174Y93278D01*
X279177Y93369D01*
X279168Y93401D01*
X279167Y93434D01*
X279134Y93518D01*
X279109Y93605D01*
X279090Y93632D01*
X279078Y93663D01*
X279020Y93733D01*
X278969Y93807D01*
X278942Y93827D01*
X278921Y93852D01*
X278844Y93900D01*
X278771Y93954D01*
X278740Y93964D01*
X278711Y93982D01*
X278623Y94002D01*
X278537Y94030D01*
X278504Y94030D01*
X278472Y94037D01*
X278382Y94028D01*
X278291Y94027D01*
X278251Y94016D01*
X278227Y94013D01*
X278198Y94000D01*
X278130Y93981D01*
X272477Y91639D01*
X263463Y91639D01*
X255134Y95089D01*
X248759Y101464D01*
X245309Y109793D01*
X245309Y118807D01*
X248759Y127136D01*
X255134Y133511D01*
X263463Y136961D01*
X272477Y136961D01*
X280806Y133511D01*
X287181Y127136D01*
X290631Y118807D01*
X290631Y109793D01*
X289121Y106149D01*
X289115Y106123D01*
X289103Y106099D01*
X289087Y106003D01*
X289065Y105909D01*
X289068Y105883D01*
X289063Y105856D01*
X289079Y105761D01*
X289088Y105664D01*
X289099Y105640D01*
X289104Y105614D01*
X289149Y105528D01*
X289188Y105440D01*
X289206Y105420D01*
X289219Y105396D01*
X289289Y105330D01*
X289355Y105258D01*
X289378Y105246D01*
X289398Y105227D01*
X289485Y105187D01*
X289570Y105140D01*
X289597Y105135D01*
X289621Y105124D01*
X289717Y105113D01*
X289812Y105096D01*
X289839Y105100D01*
X289865Y105097D01*
X289960Y105118D01*
X290056Y105132D01*
X290079Y105144D01*
X290106Y105150D01*
X290254Y105229D01*
X290995Y105734D01*
X291001Y105740D01*
X291009Y105744D01*
X291133Y105856D01*
X291409Y106164D01*
X292094Y106495D01*
X292121Y106513D01*
X292193Y106551D01*
X292821Y106980D01*
X293226Y107065D01*
X293234Y107068D01*
X293242Y107068D01*
X293401Y107124D01*
X295418Y108097D01*
X295425Y108102D01*
X295434Y108104D01*
X295574Y108196D01*
X295892Y108460D01*
X296619Y108685D01*
X296649Y108699D01*
X296725Y108726D01*
X297410Y109057D01*
X297823Y109080D01*
X297831Y109082D01*
X297840Y109081D01*
X298005Y109113D01*
X300145Y109774D01*
X300153Y109777D01*
X300161Y109779D01*
X300162Y109779D01*
X300165Y109780D01*
X300313Y109849D01*
X300667Y110063D01*
X301420Y110176D01*
X301451Y110186D01*
X301531Y110202D01*
X302257Y110426D01*
X302669Y110387D01*
X302678Y110388D01*
X302686Y110386D01*
X302854Y110393D01*
X305069Y110727D01*
X305077Y110730D01*
X305085Y110730D01*
X305246Y110777D01*
X305628Y110935D01*
X306389Y110935D01*
X306422Y110941D01*
X306502Y110944D01*
X307255Y111058D01*
X307656Y110958D01*
X307665Y110957D01*
X307672Y110954D01*
X307839Y110936D01*
X310079Y110937D01*
X310088Y110938D01*
X310096Y110937D01*
X310263Y110959D01*
X310664Y111059D01*
X311416Y110945D01*
X311449Y110946D01*
X311529Y110937D01*
X312290Y110937D01*
X312672Y110779D01*
X312681Y110777D01*
X312688Y110773D01*
X312850Y110730D01*
X315065Y110397D01*
X315074Y110397D01*
X315082Y110394D01*
X315250Y110392D01*
X315342Y110400D01*
X315373Y110408D01*
X315405Y110409D01*
X315492Y110439D01*
X315580Y110463D01*
X315607Y110480D01*
X315637Y110491D01*
X315709Y110547D01*
X315786Y110597D01*
X315806Y110623D01*
X315831Y110642D01*
X315930Y110777D01*
X341507Y155080D01*
X341548Y155187D01*
X341591Y155294D01*
X341592Y155304D01*
X341594Y155310D01*
X341595Y155332D01*
X341609Y155460D01*
X341609Y290978D01*
X341606Y290998D01*
X341608Y291017D01*
X341586Y291119D01*
X341570Y291221D01*
X341560Y291238D01*
X341556Y291258D01*
X341503Y291347D01*
X341454Y291438D01*
X341440Y291452D01*
X341430Y291469D01*
X341351Y291536D01*
X341276Y291608D01*
X341258Y291616D01*
X341243Y291629D01*
X341147Y291668D01*
X341053Y291711D01*
X341033Y291713D01*
X341015Y291721D01*
X340848Y291739D01*
X17292Y291739D01*
X17272Y291736D01*
X17253Y291738D01*
X17151Y291716D01*
X17049Y291700D01*
X17032Y291690D01*
X17012Y291686D01*
X16923Y291633D01*
X16832Y291584D01*
X16818Y291570D01*
X16801Y291560D01*
X16734Y291481D01*
X16662Y291406D01*
X16654Y291388D01*
X16641Y291373D01*
X16602Y291277D01*
X16559Y291183D01*
X16557Y291163D01*
X16549Y291145D01*
X16531Y290978D01*
X16531Y155460D01*
X16549Y155347D01*
X16565Y155233D01*
X16569Y155224D01*
X16570Y155218D01*
X16581Y155198D01*
X16633Y155080D01*
X42210Y110777D01*
X42230Y110753D01*
X42244Y110724D01*
X42308Y110658D01*
X42366Y110587D01*
X42393Y110570D01*
X42415Y110547D01*
X42496Y110505D01*
X42574Y110456D01*
X42605Y110449D01*
X42634Y110434D01*
X42798Y110400D01*
X42890Y110392D01*
X42899Y110392D01*
X42907Y110390D01*
X43075Y110397D01*
X45290Y110730D01*
X45298Y110732D01*
X45307Y110733D01*
X45468Y110779D01*
X45850Y110937D01*
X46611Y110937D01*
X46643Y110942D01*
X46724Y110945D01*
X47476Y111059D01*
X47877Y110959D01*
X47886Y110958D01*
X47894Y110955D01*
X48061Y110937D01*
X50301Y110936D01*
X50309Y110937D01*
X50318Y110936D01*
X50484Y110958D01*
X50885Y111058D01*
X51638Y110944D01*
X51671Y110944D01*
X51751Y110935D01*
X52512Y110935D01*
X52894Y110777D01*
X52902Y110775D01*
X52909Y110770D01*
X53071Y110727D01*
X55286Y110393D01*
X55295Y110393D01*
X55303Y110390D01*
X55471Y110387D01*
X55883Y110426D01*
X56609Y110202D01*
X56642Y110197D01*
X56720Y110176D01*
X57473Y110063D01*
X57827Y109849D01*
X57835Y109846D01*
X57841Y109840D01*
X57995Y109774D01*
X60135Y109113D01*
X60144Y109111D01*
X60152Y109108D01*
X60317Y109080D01*
X60730Y109057D01*
X61415Y108726D01*
X61447Y108717D01*
X61521Y108685D01*
X62248Y108460D01*
X62566Y108196D01*
X62574Y108192D01*
X62579Y108186D01*
X62722Y108097D01*
X64739Y107124D01*
X64748Y107122D01*
X64755Y107117D01*
X64914Y107065D01*
X65319Y106980D01*
X65947Y106551D01*
X65977Y106538D01*
X66046Y106495D01*
X66731Y106164D01*
X67007Y105856D01*
X67013Y105850D01*
X67018Y105843D01*
X67145Y105734D01*
X67886Y105229D01*
X67911Y105217D01*
X67931Y105200D01*
X68021Y105166D01*
X68109Y105125D01*
X68136Y105122D01*
X68161Y105112D01*
X68257Y105108D01*
X68354Y105097D01*
X68380Y105103D01*
X68406Y105102D01*
X68500Y105129D01*
X68594Y105149D01*
X68617Y105163D01*
X68643Y105170D01*
X68722Y105225D01*
X68805Y105275D01*
X68823Y105295D01*
X68845Y105310D01*
X68903Y105388D01*
X68966Y105462D01*
X68976Y105486D01*
X68992Y105508D01*
X69022Y105600D01*
X69058Y105690D01*
X69059Y105716D01*
X69068Y105742D01*
X69067Y105839D01*
X69073Y105935D01*
X69066Y105961D01*
X69065Y105988D01*
X69019Y106149D01*
X67509Y109793D01*
X67509Y118807D01*
X70959Y127136D01*
X77334Y133511D01*
X85663Y136961D01*
X94677Y136961D01*
X103006Y133511D01*
X109381Y127136D01*
X112831Y118807D01*
X112831Y109793D01*
X109381Y101464D01*
X103006Y95089D01*
X94677Y91639D01*
X85663Y91639D01*
X80010Y93981D01*
X79922Y94001D01*
X79836Y94030D01*
X79803Y94029D01*
X79770Y94037D01*
X79680Y94028D01*
X79590Y94028D01*
X79559Y94017D01*
X79525Y94014D01*
X79443Y93977D01*
X79358Y93948D01*
X79331Y93927D01*
X79301Y93914D01*
X79234Y93853D01*
X79163Y93798D01*
X79144Y93770D01*
X79119Y93747D01*
X79076Y93668D01*
X79026Y93593D01*
X79017Y93561D01*
X79001Y93532D01*
X78985Y93443D01*
X78961Y93356D01*
X78963Y93323D01*
X78957Y93290D01*
X78970Y93201D01*
X78976Y93111D01*
X78988Y93080D01*
X78993Y93047D01*
X79034Y92966D01*
X79068Y92882D01*
X79094Y92849D01*
X79104Y92827D01*
X79127Y92805D01*
X79170Y92750D01*
X79176Y92743D01*
X79454Y92035D01*
X79470Y92007D01*
X79503Y91933D01*
X79883Y91274D01*
X79937Y90864D01*
X79939Y90855D01*
X79939Y90847D01*
X79983Y90685D01*
X80801Y88599D01*
X80805Y88592D01*
X80807Y88584D01*
X80888Y88437D01*
X81128Y88100D01*
X81297Y87358D01*
X81309Y87327D01*
X81330Y87249D01*
X81608Y86541D01*
X81600Y86128D01*
X81601Y86119D01*
X81600Y86111D01*
X81619Y85944D01*
X82117Y83760D01*
X82120Y83752D01*
X82121Y83743D01*
X82179Y83586D01*
X82365Y83217D01*
X82422Y82459D01*
X82430Y82427D01*
X82439Y82346D01*
X82608Y81604D01*
X82539Y81197D01*
X82539Y81188D01*
X82536Y81180D01*
X82530Y81012D01*
X82697Y78779D01*
X82699Y78770D01*
X82698Y78762D01*
X82732Y78597D01*
X82862Y78205D01*
X82805Y77446D01*
X82807Y77413D01*
X82804Y77332D01*
X82861Y76574D01*
X82732Y76181D01*
X82730Y76173D01*
X82727Y76165D01*
X82696Y76000D01*
X82528Y73766D01*
X82528Y73758D01*
X82526Y73749D01*
X82536Y73582D01*
X82605Y73174D01*
X82436Y72433D01*
X82434Y72400D01*
X82419Y72320D01*
X82362Y71562D01*
X82175Y71193D01*
X82173Y71184D01*
X82168Y71177D01*
X82113Y71019D01*
X81613Y68835D01*
X81613Y68827D01*
X81610Y68819D01*
X81594Y68651D01*
X81602Y68238D01*
X81324Y67530D01*
X81317Y67498D01*
X81290Y67421D01*
X81121Y66680D01*
X80881Y66343D01*
X80878Y66335D01*
X80872Y66329D01*
X80794Y66180D01*
X79974Y64095D01*
X79973Y64087D01*
X79968Y64079D01*
X79928Y63917D01*
X79874Y63507D01*
X79494Y62848D01*
X79482Y62817D01*
X79444Y62746D01*
X79166Y62038D01*
X78879Y61740D01*
X78874Y61733D01*
X78868Y61728D01*
X78768Y61592D01*
X77648Y59653D01*
X77644Y59645D01*
X77639Y59638D01*
X77575Y59483D01*
X77461Y59086D01*
X76986Y58491D01*
X76970Y58462D01*
X76922Y58397D01*
X76541Y57738D01*
X76213Y57487D01*
X76207Y57481D01*
X76200Y57476D01*
X76082Y57358D01*
X74684Y55607D01*
X74680Y55599D01*
X74674Y55593D01*
X74588Y55450D01*
X74559Y55388D01*
X74551Y55356D01*
X74535Y55328D01*
X74518Y55238D01*
X74494Y55150D01*
X74496Y55118D01*
X74490Y55086D01*
X74503Y54996D01*
X74508Y54905D01*
X74520Y54875D01*
X74524Y54843D01*
X74592Y54689D01*
X98405Y13441D01*
X98448Y13389D01*
X98483Y13331D01*
X98525Y13295D01*
X98561Y13251D01*
X98618Y13215D01*
X98670Y13171D01*
X98722Y13150D01*
X98769Y13120D01*
X98835Y13104D01*
X98898Y13079D01*
X98977Y13070D01*
X99009Y13063D01*
X99029Y13065D01*
X99065Y13061D01*
X259075Y13061D01*
X259142Y13072D01*
G37*
%LPC*%
G36*
X118524Y159003D02*
X118524Y159003D01*
X110489Y167038D01*
X110489Y178402D01*
X118524Y186437D01*
X128369Y186437D01*
X128440Y186448D01*
X128512Y186450D01*
X128560Y186468D01*
X128612Y186476D01*
X128675Y186510D01*
X128743Y186535D01*
X128783Y186567D01*
X128829Y186592D01*
X128879Y186644D01*
X128935Y186688D01*
X128963Y186732D01*
X128999Y186770D01*
X129029Y186835D01*
X129068Y186895D01*
X129080Y186946D01*
X129102Y186993D01*
X129110Y187064D01*
X129128Y187134D01*
X129124Y187186D01*
X129129Y187237D01*
X129114Y187308D01*
X129108Y187379D01*
X129088Y187427D01*
X129077Y187478D01*
X129040Y187539D01*
X129012Y187605D01*
X128967Y187661D01*
X128951Y187689D01*
X128933Y187704D01*
X128907Y187736D01*
X124205Y192438D01*
X124205Y203802D01*
X132240Y211837D01*
X143604Y211837D01*
X151100Y204341D01*
X151116Y204329D01*
X151128Y204313D01*
X151200Y204267D01*
X151226Y204245D01*
X151241Y204239D01*
X151299Y204197D01*
X151318Y204191D01*
X151335Y204180D01*
X151436Y204155D01*
X151535Y204125D01*
X151554Y204125D01*
X151574Y204120D01*
X151677Y204128D01*
X151780Y204131D01*
X151799Y204138D01*
X151819Y204140D01*
X151914Y204180D01*
X152011Y204216D01*
X152027Y204228D01*
X152045Y204236D01*
X152107Y204285D01*
X152115Y204289D01*
X152124Y204299D01*
X152176Y204341D01*
X159672Y211837D01*
X171036Y211837D01*
X178532Y204341D01*
X178548Y204329D01*
X178560Y204313D01*
X178632Y204267D01*
X178658Y204245D01*
X178673Y204239D01*
X178731Y204197D01*
X178750Y204191D01*
X178767Y204180D01*
X178868Y204155D01*
X178967Y204125D01*
X178986Y204125D01*
X179006Y204120D01*
X179109Y204128D01*
X179212Y204131D01*
X179231Y204138D01*
X179251Y204140D01*
X179346Y204180D01*
X179443Y204216D01*
X179459Y204228D01*
X179477Y204236D01*
X179539Y204285D01*
X179547Y204289D01*
X179556Y204299D01*
X179608Y204341D01*
X187104Y211837D01*
X198468Y211837D01*
X205964Y204341D01*
X205980Y204329D01*
X205992Y204313D01*
X206064Y204267D01*
X206090Y204245D01*
X206105Y204239D01*
X206163Y204197D01*
X206182Y204191D01*
X206199Y204180D01*
X206300Y204155D01*
X206399Y204125D01*
X206418Y204125D01*
X206438Y204120D01*
X206541Y204128D01*
X206644Y204131D01*
X206663Y204138D01*
X206683Y204140D01*
X206778Y204180D01*
X206875Y204216D01*
X206891Y204228D01*
X206909Y204236D01*
X206971Y204285D01*
X206979Y204289D01*
X206988Y204299D01*
X207040Y204341D01*
X214536Y211837D01*
X225900Y211837D01*
X233935Y203802D01*
X233935Y192438D01*
X225900Y184403D01*
X216055Y184403D01*
X215984Y184392D01*
X215912Y184390D01*
X215864Y184372D01*
X215812Y184364D01*
X215749Y184330D01*
X215681Y184305D01*
X215641Y184273D01*
X215595Y184248D01*
X215545Y184196D01*
X215489Y184152D01*
X215461Y184108D01*
X215425Y184070D01*
X215395Y184005D01*
X215356Y183945D01*
X215344Y183894D01*
X215322Y183847D01*
X215314Y183776D01*
X215296Y183706D01*
X215300Y183654D01*
X215295Y183603D01*
X215310Y183532D01*
X215316Y183461D01*
X215336Y183413D01*
X215347Y183362D01*
X215384Y183301D01*
X215412Y183235D01*
X215457Y183179D01*
X215473Y183151D01*
X215491Y183136D01*
X215517Y183104D01*
X220219Y178402D01*
X220219Y167038D01*
X212184Y159003D01*
X200820Y159003D01*
X193324Y166499D01*
X193308Y166511D01*
X193296Y166527D01*
X193208Y166583D01*
X193125Y166643D01*
X193106Y166649D01*
X193089Y166660D01*
X192988Y166685D01*
X192889Y166715D01*
X192870Y166715D01*
X192850Y166720D01*
X192747Y166712D01*
X192644Y166709D01*
X192625Y166702D01*
X192605Y166700D01*
X192510Y166660D01*
X192413Y166624D01*
X192397Y166612D01*
X192379Y166604D01*
X192248Y166499D01*
X184752Y159003D01*
X173388Y159003D01*
X165892Y166499D01*
X165876Y166511D01*
X165864Y166527D01*
X165776Y166583D01*
X165693Y166643D01*
X165674Y166649D01*
X165657Y166660D01*
X165556Y166685D01*
X165457Y166715D01*
X165438Y166715D01*
X165418Y166720D01*
X165315Y166712D01*
X165212Y166709D01*
X165193Y166702D01*
X165173Y166700D01*
X165078Y166660D01*
X164981Y166624D01*
X164965Y166612D01*
X164947Y166604D01*
X164816Y166499D01*
X157320Y159003D01*
X145956Y159003D01*
X138460Y166499D01*
X138444Y166511D01*
X138432Y166527D01*
X138344Y166583D01*
X138261Y166643D01*
X138242Y166649D01*
X138225Y166660D01*
X138124Y166685D01*
X138025Y166715D01*
X138006Y166715D01*
X137986Y166720D01*
X137883Y166712D01*
X137780Y166709D01*
X137761Y166702D01*
X137741Y166700D01*
X137646Y166660D01*
X137549Y166624D01*
X137533Y166612D01*
X137515Y166604D01*
X137384Y166499D01*
X129888Y159003D01*
X118524Y159003D01*
G37*
%LPD*%
%LPC*%
G36*
X125542Y77723D02*
X125542Y77723D01*
X120500Y79812D01*
X116642Y83670D01*
X114553Y88712D01*
X114553Y109408D01*
X116642Y114450D01*
X120500Y118308D01*
X125542Y120397D01*
X130998Y120397D01*
X136040Y118308D01*
X139898Y114450D01*
X140267Y113561D01*
X140304Y113500D01*
X140334Y113435D01*
X140369Y113396D01*
X140396Y113352D01*
X140452Y113306D01*
X140500Y113253D01*
X140546Y113228D01*
X140586Y113195D01*
X140653Y113169D01*
X140716Y113135D01*
X140767Y113126D01*
X140815Y113107D01*
X140887Y113104D01*
X140958Y113091D01*
X141009Y113099D01*
X141061Y113097D01*
X141130Y113116D01*
X141201Y113127D01*
X141247Y113151D01*
X141297Y113165D01*
X141356Y113206D01*
X141420Y113238D01*
X141457Y113276D01*
X141499Y113305D01*
X141542Y113363D01*
X141592Y113414D01*
X141627Y113477D01*
X141646Y113503D01*
X141654Y113525D01*
X141673Y113561D01*
X142042Y114450D01*
X145900Y118308D01*
X150942Y120397D01*
X156398Y120397D01*
X161440Y118308D01*
X165298Y114450D01*
X165667Y113561D01*
X165704Y113500D01*
X165734Y113435D01*
X165769Y113396D01*
X165796Y113352D01*
X165852Y113306D01*
X165900Y113253D01*
X165946Y113228D01*
X165986Y113195D01*
X166053Y113169D01*
X166116Y113135D01*
X166167Y113126D01*
X166215Y113107D01*
X166287Y113104D01*
X166358Y113091D01*
X166409Y113099D01*
X166461Y113097D01*
X166530Y113116D01*
X166601Y113127D01*
X166647Y113151D01*
X166697Y113165D01*
X166756Y113206D01*
X166820Y113238D01*
X166857Y113276D01*
X166899Y113305D01*
X166942Y113363D01*
X166992Y113414D01*
X167027Y113477D01*
X167046Y113503D01*
X167054Y113525D01*
X167073Y113561D01*
X167442Y114450D01*
X171300Y118308D01*
X176342Y120397D01*
X181798Y120397D01*
X186840Y118308D01*
X190698Y114450D01*
X191067Y113561D01*
X191104Y113500D01*
X191134Y113435D01*
X191169Y113396D01*
X191196Y113352D01*
X191252Y113306D01*
X191300Y113253D01*
X191346Y113228D01*
X191386Y113195D01*
X191453Y113169D01*
X191516Y113135D01*
X191567Y113126D01*
X191615Y113107D01*
X191687Y113104D01*
X191758Y113091D01*
X191809Y113099D01*
X191861Y113097D01*
X191930Y113116D01*
X192001Y113127D01*
X192047Y113151D01*
X192097Y113165D01*
X192156Y113206D01*
X192220Y113238D01*
X192257Y113276D01*
X192299Y113305D01*
X192342Y113363D01*
X192392Y113414D01*
X192427Y113477D01*
X192446Y113503D01*
X192454Y113525D01*
X192473Y113561D01*
X192842Y114450D01*
X196700Y118308D01*
X201742Y120397D01*
X207198Y120397D01*
X212240Y118308D01*
X216098Y114450D01*
X218187Y109408D01*
X218187Y88712D01*
X216098Y83670D01*
X212240Y79812D01*
X207198Y77723D01*
X201742Y77723D01*
X196700Y79812D01*
X192842Y83670D01*
X192473Y84559D01*
X192436Y84620D01*
X192406Y84685D01*
X192371Y84724D01*
X192344Y84768D01*
X192289Y84814D01*
X192240Y84867D01*
X192194Y84892D01*
X192154Y84925D01*
X192087Y84951D01*
X192024Y84985D01*
X191973Y84994D01*
X191925Y85013D01*
X191853Y85016D01*
X191782Y85029D01*
X191731Y85021D01*
X191679Y85023D01*
X191610Y85004D01*
X191539Y84993D01*
X191493Y84969D01*
X191443Y84955D01*
X191384Y84914D01*
X191320Y84882D01*
X191283Y84844D01*
X191241Y84815D01*
X191198Y84757D01*
X191148Y84706D01*
X191113Y84643D01*
X191094Y84617D01*
X191087Y84595D01*
X191067Y84559D01*
X190698Y83670D01*
X186840Y79812D01*
X181798Y77723D01*
X176342Y77723D01*
X171300Y79812D01*
X167442Y83670D01*
X167073Y84559D01*
X167036Y84620D01*
X167006Y84685D01*
X166971Y84724D01*
X166944Y84768D01*
X166889Y84814D01*
X166840Y84867D01*
X166794Y84892D01*
X166754Y84925D01*
X166687Y84951D01*
X166624Y84985D01*
X166573Y84994D01*
X166525Y85013D01*
X166453Y85016D01*
X166382Y85029D01*
X166331Y85021D01*
X166279Y85023D01*
X166210Y85004D01*
X166139Y84993D01*
X166093Y84969D01*
X166043Y84955D01*
X165984Y84914D01*
X165920Y84882D01*
X165883Y84844D01*
X165841Y84815D01*
X165798Y84757D01*
X165748Y84706D01*
X165713Y84643D01*
X165694Y84617D01*
X165687Y84595D01*
X165667Y84559D01*
X165298Y83670D01*
X161440Y79812D01*
X156398Y77723D01*
X150942Y77723D01*
X145900Y79812D01*
X142042Y83670D01*
X141673Y84559D01*
X141636Y84620D01*
X141606Y84685D01*
X141571Y84724D01*
X141544Y84768D01*
X141489Y84814D01*
X141440Y84867D01*
X141394Y84892D01*
X141354Y84925D01*
X141287Y84951D01*
X141224Y84985D01*
X141173Y84994D01*
X141125Y85013D01*
X141053Y85016D01*
X140982Y85029D01*
X140931Y85021D01*
X140879Y85023D01*
X140810Y85004D01*
X140739Y84993D01*
X140693Y84969D01*
X140643Y84955D01*
X140584Y84914D01*
X140520Y84882D01*
X140483Y84844D01*
X140441Y84815D01*
X140398Y84757D01*
X140348Y84706D01*
X140313Y84643D01*
X140294Y84617D01*
X140287Y84595D01*
X140267Y84559D01*
X139898Y83670D01*
X136040Y79812D01*
X130998Y77723D01*
X125542Y77723D01*
G37*
%LPD*%
G36*
X295498Y53511D02*
X295498Y53511D01*
X295571Y53511D01*
X295596Y53522D01*
X295623Y53525D01*
X295687Y53561D01*
X295754Y53589D01*
X295773Y53609D01*
X295796Y53622D01*
X295864Y53703D01*
X295892Y53733D01*
X295895Y53742D01*
X295902Y53751D01*
X322902Y100551D01*
X322911Y100576D01*
X322927Y100599D01*
X322942Y100670D01*
X322966Y100739D01*
X322963Y100766D01*
X322969Y100793D01*
X322956Y100864D01*
X322950Y100937D01*
X322937Y100962D01*
X322932Y100988D01*
X322892Y101049D01*
X322858Y101114D01*
X322837Y101131D01*
X322822Y101154D01*
X322736Y101215D01*
X322705Y101240D01*
X322696Y101243D01*
X322686Y101250D01*
X319048Y103001D01*
X319017Y103008D01*
X318979Y103028D01*
X315120Y104217D01*
X315088Y104220D01*
X315047Y104233D01*
X311054Y104834D01*
X311023Y104832D01*
X310980Y104839D01*
X306942Y104838D01*
X306911Y104832D01*
X306868Y104832D01*
X302876Y104229D01*
X302846Y104218D01*
X302803Y104213D01*
X298945Y103021D01*
X298917Y103006D01*
X298876Y102994D01*
X295238Y101241D01*
X295213Y101222D01*
X295174Y101204D01*
X291838Y98928D01*
X291816Y98905D01*
X291780Y98882D01*
X288821Y96134D01*
X288802Y96109D01*
X288770Y96080D01*
X286254Y92922D01*
X286239Y92894D01*
X286212Y92860D01*
X284194Y89363D01*
X284184Y89333D01*
X284162Y89296D01*
X282688Y85537D01*
X282682Y85505D01*
X282666Y85465D01*
X281769Y81529D01*
X281768Y81497D01*
X281758Y81455D01*
X281457Y77429D01*
X281461Y77397D01*
X281457Y77354D01*
X281760Y73328D01*
X281769Y73297D01*
X281771Y73254D01*
X282671Y69318D01*
X282684Y69289D01*
X282693Y69246D01*
X284169Y65488D01*
X284187Y65461D01*
X284202Y65421D01*
X286222Y61925D01*
X286243Y61901D01*
X286264Y61863D01*
X288782Y58707D01*
X288807Y58687D01*
X288833Y58653D01*
X291794Y55907D01*
X291821Y55891D01*
X291852Y55861D01*
X295189Y53587D01*
X295214Y53577D01*
X295235Y53560D01*
X295305Y53539D01*
X295372Y53510D01*
X295400Y53511D01*
X295426Y53503D01*
X295498Y53511D01*
G37*
G36*
X62674Y53510D02*
X62674Y53510D01*
X62747Y53507D01*
X62773Y53516D01*
X62800Y53518D01*
X62896Y53562D01*
X62934Y53576D01*
X62941Y53583D01*
X62951Y53587D01*
X66288Y55861D01*
X66310Y55884D01*
X66346Y55907D01*
X69307Y58653D01*
X69326Y58679D01*
X69358Y58707D01*
X71876Y61863D01*
X71891Y61892D01*
X71918Y61925D01*
X73938Y65421D01*
X73948Y65451D01*
X73971Y65488D01*
X75447Y69246D01*
X75452Y69278D01*
X75469Y69318D01*
X76369Y73254D01*
X76369Y73286D01*
X76380Y73328D01*
X76683Y77354D01*
X76679Y77385D01*
X76683Y77429D01*
X76382Y81455D01*
X76374Y81486D01*
X76371Y81529D01*
X75474Y85465D01*
X75461Y85494D01*
X75452Y85537D01*
X73978Y89296D01*
X73961Y89323D01*
X73946Y89363D01*
X71928Y92860D01*
X71907Y92884D01*
X71886Y92922D01*
X69370Y96080D01*
X69345Y96100D01*
X69319Y96134D01*
X66360Y98882D01*
X66333Y98898D01*
X66302Y98928D01*
X62966Y101204D01*
X62937Y101216D01*
X62902Y101241D01*
X59265Y102994D01*
X59234Y103002D01*
X59195Y103021D01*
X55337Y104213D01*
X55305Y104216D01*
X55264Y104229D01*
X51272Y104832D01*
X51240Y104831D01*
X51198Y104838D01*
X47160Y104839D01*
X47129Y104833D01*
X47086Y104834D01*
X43093Y104233D01*
X43063Y104222D01*
X43020Y104217D01*
X39161Y103028D01*
X39133Y103013D01*
X39092Y103001D01*
X35454Y101250D01*
X35432Y101233D01*
X35406Y101224D01*
X35353Y101174D01*
X35295Y101130D01*
X35282Y101106D01*
X35262Y101087D01*
X35232Y101021D01*
X35196Y100957D01*
X35193Y100930D01*
X35182Y100905D01*
X35181Y100832D01*
X35172Y100760D01*
X35180Y100734D01*
X35180Y100706D01*
X35216Y100608D01*
X35228Y100569D01*
X35234Y100561D01*
X35238Y100551D01*
X62238Y53751D01*
X62256Y53730D01*
X62267Y53705D01*
X62321Y53656D01*
X62369Y53602D01*
X62394Y53590D01*
X62414Y53571D01*
X62483Y53547D01*
X62549Y53516D01*
X62576Y53515D01*
X62601Y53505D01*
X62674Y53510D01*
G37*
D10*
X124206Y172720D03*
X151638Y172720D03*
X179070Y172720D03*
X206502Y172720D03*
X233934Y172720D03*
X137922Y198120D03*
X165354Y198120D03*
X192786Y198120D03*
X220218Y198120D03*
D11*
X53848Y185420D03*
X304292Y185420D03*
D12*
X302970Y80900D03*
X55170Y80900D03*
D13*
X229870Y91440D02*
X229870Y106680D01*
X204470Y106680D02*
X204470Y91440D01*
X179070Y91440D02*
X179070Y106680D01*
X153670Y106680D02*
X153670Y91440D01*
X128270Y91440D02*
X128270Y106680D01*
M02*
