G04 EAGLE Gerber RS-274X export*
G75*
%MOMM*%
%FSLAX34Y34*%
%LPD*%
%INSilkscreen Top*%
%IPPOS*%
%AMOC8*
5,1,8,0,0,1.08239X$1,22.5*%
G01*
%ADD10C,0.127000*%
%ADD11C,0.152400*%
%ADD12R,0.014731X0.014731*%
%ADD13R,0.147319X0.014731*%
%ADD14R,0.265175X0.014731*%
%ADD15R,0.383031X0.014731*%
%ADD16R,0.515619X0.014731*%
%ADD17R,0.633475X0.014731*%
%ADD18R,0.751331X0.014731*%
%ADD19R,0.883919X0.014731*%
%ADD20R,1.001775X0.014731*%
%ADD21R,1.119631X0.014731*%
%ADD22R,1.134363X0.014731*%
%ADD23R,1.149094X0.014731*%
%ADD24R,1.163825X0.014731*%
%ADD25R,1.178556X0.014731*%
%ADD26R,1.193288X0.014731*%
%ADD27R,1.222756X0.014731*%
%ADD28R,1.237488X0.014731*%
%ADD29R,1.266950X0.014731*%
%ADD30R,1.281681X0.014731*%
%ADD31R,1.311144X0.014731*%
%ADD32R,1.325881X0.014731*%
%ADD33R,1.355344X0.014731*%
%ADD34R,1.370075X0.014731*%
%ADD35R,1.384806X0.014731*%
%ADD36R,1.399538X0.014731*%
%ADD37R,1.414275X0.014731*%
%ADD38R,1.443738X0.014731*%
%ADD39R,1.458469X0.014731*%
%ADD40R,1.487931X0.014731*%
%ADD41R,1.502663X0.014731*%
%ADD42R,1.517394X0.014731*%
%ADD43R,1.532125X0.014731*%
%ADD44R,1.546856X0.014731*%
%ADD45R,1.576319X0.014731*%
%ADD46R,1.605788X0.014731*%
%ADD47R,1.620519X0.014731*%
%ADD48R,1.649981X0.014731*%
%ADD49R,1.664713X0.014731*%
%ADD50R,1.694175X0.014731*%
%ADD51R,1.708913X0.014731*%
%ADD52R,1.738375X0.014731*%
%ADD53R,1.753106X0.014731*%
%ADD54R,1.767838X0.014731*%
%ADD55R,1.782569X0.014731*%
%ADD56R,1.797306X0.014731*%
%ADD57R,0.117856X0.014731*%
%ADD58R,1.826769X0.014731*%
%ADD59R,0.235713X0.014731*%
%ADD60R,0.353569X0.014731*%
%ADD61R,1.856231X0.014731*%
%ADD62R,0.486156X0.014731*%
%ADD63R,1.870963X0.014731*%
%ADD64R,0.604013X0.014731*%
%ADD65R,0.721869X0.014731*%
%ADD66R,1.885694X0.014731*%
%ADD67R,0.839719X0.014731*%
%ADD68R,0.972306X0.014731*%
%ADD69R,1.090169X0.014731*%
%ADD70R,1.208025X0.014731*%
%ADD71R,1.252219X0.014731*%
%ADD72R,1.296412X0.014731*%
%ADD73R,1.340612X0.014731*%
%ADD74R,1.826763X0.014731*%
%ADD75R,1.414269X0.014731*%
%ADD76R,1.812031X0.014731*%
%ADD77R,1.429000X0.014731*%
%ADD78R,1.458462X0.014731*%
%ADD79R,1.473200X0.014731*%
%ADD80R,1.723644X0.014731*%
%ADD81R,1.694181X0.014731*%
%ADD82R,1.679450X0.014731*%
%ADD83R,1.561594X0.014731*%
%ADD84R,1.576325X0.014731*%
%ADD85R,1.591056X0.014731*%
%ADD86R,1.635250X0.014731*%
%ADD87R,1.561588X0.014731*%
%ADD88R,1.443731X0.014731*%
%ADD89R,1.797300X0.014731*%
%ADD90R,1.841500X0.014731*%
%ADD91R,1.311150X0.014731*%
%ADD92R,1.296419X0.014731*%
%ADD93R,1.193294X0.014731*%
%ADD94R,0.957575X0.014731*%
%ADD95R,0.589281X0.014731*%
%ADD96R,0.471425X0.014731*%
%ADD97R,0.220975X0.014731*%
%ADD98R,1.812038X0.014731*%
%ADD99R,0.103119X0.014731*%
%ADD100R,0.029463X0.014731*%
%ADD101R,0.162050X0.014731*%
%ADD102R,0.397763X0.014731*%
%ADD103R,0.648206X0.014731*%
%ADD104R,1.679444X0.014731*%
%ADD105R,1.016506X0.014731*%
%ADD106R,1.104900X0.014731*%
%ADD107R,1.222750X0.014731*%
%ADD108R,1.429006X0.014731*%
%ADD109R,1.208019X0.014731*%
%ADD110R,0.987044X0.014731*%
%ADD111R,0.854456X0.014731*%
%ADD112R,0.618744X0.014731*%
%ADD113R,0.500888X0.014731*%
%ADD114R,0.368300X0.014731*%
%ADD115R,0.132587X0.014731*%
%ADD116R,1.664719X0.014731*%
%ADD117R,1.075438X0.014731*%
%ADD118R,0.942844X0.014731*%
%ADD119R,0.707131X0.014731*%
%ADD120R,0.456694X0.014731*%
%ADD121R,0.088388X0.014731*%
%ADD122R,18.542000X0.762000*%
%ADD123R,30.988000X0.508000*%
%ADD124R,0.812800X7.239000*%
%ADD125R,0.812800X4.699000*%
%ADD126C,0.101600*%
%ADD127R,0.762000X1.016000*%


D10*
X228501Y125089D02*
X228501Y127671D01*
X237109Y127671D01*
X237109Y122507D01*
X237107Y122392D01*
X237101Y122277D01*
X237092Y122162D01*
X237078Y122048D01*
X237061Y121934D01*
X237040Y121821D01*
X237015Y121709D01*
X236987Y121597D01*
X236954Y121487D01*
X236918Y121378D01*
X236879Y121270D01*
X236836Y121163D01*
X236789Y121058D01*
X236739Y120954D01*
X236685Y120852D01*
X236628Y120752D01*
X236568Y120654D01*
X236505Y120558D01*
X236438Y120465D01*
X236368Y120373D01*
X236295Y120284D01*
X236220Y120197D01*
X236141Y120113D01*
X236060Y120032D01*
X235976Y119954D01*
X235889Y119878D01*
X235800Y119805D01*
X235708Y119735D01*
X235615Y119668D01*
X235519Y119605D01*
X235421Y119545D01*
X235321Y119488D01*
X235219Y119434D01*
X235115Y119384D01*
X235010Y119337D01*
X234903Y119294D01*
X234795Y119255D01*
X234686Y119219D01*
X234576Y119186D01*
X234464Y119158D01*
X234352Y119133D01*
X234239Y119112D01*
X234125Y119095D01*
X234011Y119081D01*
X233896Y119072D01*
X233781Y119066D01*
X233666Y119064D01*
X225058Y119064D01*
X224943Y119066D01*
X224828Y119072D01*
X224713Y119081D01*
X224599Y119095D01*
X224485Y119112D01*
X224372Y119133D01*
X224260Y119158D01*
X224148Y119186D01*
X224038Y119219D01*
X223929Y119255D01*
X223821Y119294D01*
X223714Y119337D01*
X223609Y119384D01*
X223505Y119434D01*
X223403Y119488D01*
X223303Y119545D01*
X223205Y119605D01*
X223109Y119668D01*
X223016Y119735D01*
X222924Y119805D01*
X222835Y119878D01*
X222748Y119953D01*
X222664Y120032D01*
X222583Y120113D01*
X222505Y120197D01*
X222429Y120284D01*
X222356Y120373D01*
X222286Y120465D01*
X222219Y120558D01*
X222156Y120654D01*
X222096Y120752D01*
X222039Y120852D01*
X221985Y120954D01*
X221935Y121058D01*
X221888Y121163D01*
X221845Y121270D01*
X221806Y121378D01*
X221770Y121487D01*
X221737Y121597D01*
X221709Y121709D01*
X221684Y121821D01*
X221663Y121934D01*
X221646Y122048D01*
X221632Y122162D01*
X221623Y122277D01*
X221617Y122392D01*
X221615Y122507D01*
X221615Y127671D01*
X221615Y134920D02*
X237109Y134920D01*
X237109Y143528D02*
X221615Y134920D01*
X221615Y143528D02*
X237109Y143528D01*
X237109Y150777D02*
X221615Y150777D01*
X221615Y155081D01*
X221617Y155211D01*
X221623Y155341D01*
X221633Y155471D01*
X221646Y155600D01*
X221664Y155729D01*
X221686Y155857D01*
X221711Y155984D01*
X221740Y156111D01*
X221773Y156237D01*
X221810Y156361D01*
X221850Y156485D01*
X221895Y156607D01*
X221943Y156728D01*
X221994Y156847D01*
X222049Y156965D01*
X222108Y157081D01*
X222170Y157195D01*
X222236Y157308D01*
X222305Y157418D01*
X222377Y157526D01*
X222452Y157632D01*
X222531Y157735D01*
X222613Y157836D01*
X222697Y157935D01*
X222785Y158031D01*
X222876Y158124D01*
X222969Y158215D01*
X223065Y158303D01*
X223164Y158387D01*
X223265Y158469D01*
X223368Y158548D01*
X223474Y158623D01*
X223582Y158695D01*
X223692Y158764D01*
X223805Y158830D01*
X223919Y158892D01*
X224035Y158951D01*
X224153Y159006D01*
X224272Y159057D01*
X224393Y159105D01*
X224515Y159150D01*
X224639Y159190D01*
X224763Y159227D01*
X224889Y159260D01*
X225016Y159289D01*
X225143Y159315D01*
X225271Y159336D01*
X225400Y159354D01*
X225530Y159367D01*
X225659Y159377D01*
X225789Y159383D01*
X225919Y159385D01*
X232805Y159385D01*
X232935Y159383D01*
X233065Y159377D01*
X233195Y159367D01*
X233324Y159354D01*
X233453Y159336D01*
X233581Y159315D01*
X233708Y159289D01*
X233835Y159260D01*
X233961Y159227D01*
X234085Y159190D01*
X234209Y159150D01*
X234331Y159105D01*
X234452Y159057D01*
X234571Y159006D01*
X234689Y158951D01*
X234805Y158892D01*
X234919Y158830D01*
X235032Y158764D01*
X235142Y158695D01*
X235250Y158623D01*
X235356Y158548D01*
X235459Y158469D01*
X235560Y158387D01*
X235659Y158303D01*
X235755Y158215D01*
X235848Y158124D01*
X235939Y158031D01*
X236027Y157935D01*
X236111Y157836D01*
X236193Y157735D01*
X236272Y157632D01*
X236347Y157526D01*
X236419Y157418D01*
X236488Y157308D01*
X236554Y157195D01*
X236616Y157081D01*
X236675Y156965D01*
X236730Y156847D01*
X236781Y156728D01*
X236829Y156607D01*
X236874Y156485D01*
X236914Y156361D01*
X236951Y156237D01*
X236984Y156111D01*
X237013Y155984D01*
X237039Y155857D01*
X237060Y155729D01*
X237078Y155600D01*
X237091Y155471D01*
X237101Y155341D01*
X237107Y155211D01*
X237109Y155081D01*
X237109Y150777D01*
D11*
X212598Y121661D02*
X196342Y121661D01*
X196342Y126177D01*
X196344Y126310D01*
X196350Y126442D01*
X196360Y126574D01*
X196373Y126706D01*
X196391Y126838D01*
X196412Y126968D01*
X196437Y127099D01*
X196466Y127228D01*
X196499Y127356D01*
X196535Y127484D01*
X196575Y127610D01*
X196619Y127735D01*
X196667Y127859D01*
X196718Y127981D01*
X196773Y128102D01*
X196831Y128221D01*
X196893Y128339D01*
X196958Y128454D01*
X197027Y128568D01*
X197098Y128679D01*
X197174Y128788D01*
X197252Y128895D01*
X197333Y129000D01*
X197418Y129102D01*
X197505Y129202D01*
X197595Y129299D01*
X197688Y129394D01*
X197784Y129485D01*
X197882Y129574D01*
X197983Y129660D01*
X198087Y129743D01*
X198193Y129823D01*
X198301Y129899D01*
X198411Y129973D01*
X198524Y130043D01*
X198638Y130110D01*
X198755Y130173D01*
X198873Y130233D01*
X198993Y130290D01*
X199115Y130343D01*
X199238Y130392D01*
X199362Y130438D01*
X199488Y130480D01*
X199615Y130518D01*
X199743Y130553D01*
X199872Y130584D01*
X200001Y130611D01*
X200132Y130634D01*
X200263Y130654D01*
X200395Y130669D01*
X200527Y130681D01*
X200659Y130689D01*
X200792Y130693D01*
X200924Y130693D01*
X201057Y130689D01*
X201189Y130681D01*
X201321Y130669D01*
X201453Y130654D01*
X201584Y130634D01*
X201715Y130611D01*
X201844Y130584D01*
X201973Y130553D01*
X202101Y130518D01*
X202228Y130480D01*
X202354Y130438D01*
X202478Y130392D01*
X202601Y130343D01*
X202723Y130290D01*
X202843Y130233D01*
X202961Y130173D01*
X203078Y130110D01*
X203192Y130043D01*
X203305Y129973D01*
X203415Y129899D01*
X203523Y129823D01*
X203629Y129743D01*
X203733Y129660D01*
X203834Y129574D01*
X203932Y129485D01*
X204028Y129394D01*
X204121Y129299D01*
X204211Y129202D01*
X204298Y129102D01*
X204383Y129000D01*
X204464Y128895D01*
X204542Y128788D01*
X204618Y128679D01*
X204689Y128568D01*
X204758Y128454D01*
X204823Y128339D01*
X204885Y128221D01*
X204943Y128102D01*
X204998Y127981D01*
X205049Y127859D01*
X205097Y127735D01*
X205141Y127610D01*
X205181Y127484D01*
X205217Y127356D01*
X205250Y127228D01*
X205279Y127099D01*
X205304Y126968D01*
X205325Y126838D01*
X205343Y126706D01*
X205356Y126574D01*
X205366Y126442D01*
X205372Y126310D01*
X205374Y126177D01*
X205373Y126177D02*
X205373Y121661D01*
X205373Y127080D02*
X212598Y130692D01*
X212598Y140674D02*
X196342Y140674D01*
X196342Y136159D02*
X196342Y145190D01*
X208986Y159258D02*
X209104Y159256D01*
X209222Y159250D01*
X209340Y159241D01*
X209457Y159227D01*
X209574Y159210D01*
X209691Y159189D01*
X209806Y159164D01*
X209921Y159135D01*
X210035Y159102D01*
X210147Y159066D01*
X210258Y159026D01*
X210368Y158983D01*
X210477Y158936D01*
X210584Y158886D01*
X210689Y158831D01*
X210792Y158774D01*
X210893Y158713D01*
X210993Y158649D01*
X211090Y158582D01*
X211185Y158512D01*
X211277Y158438D01*
X211368Y158362D01*
X211455Y158282D01*
X211540Y158200D01*
X211622Y158115D01*
X211702Y158028D01*
X211778Y157937D01*
X211852Y157845D01*
X211922Y157750D01*
X211989Y157653D01*
X212053Y157553D01*
X212114Y157452D01*
X212171Y157349D01*
X212226Y157244D01*
X212276Y157137D01*
X212323Y157028D01*
X212366Y156918D01*
X212406Y156807D01*
X212442Y156695D01*
X212475Y156581D01*
X212504Y156466D01*
X212529Y156351D01*
X212550Y156234D01*
X212567Y156117D01*
X212581Y156000D01*
X212590Y155882D01*
X212596Y155764D01*
X212598Y155646D01*
X212596Y155463D01*
X212589Y155281D01*
X212578Y155099D01*
X212563Y154917D01*
X212543Y154735D01*
X212520Y154554D01*
X212491Y154374D01*
X212459Y154194D01*
X212422Y154015D01*
X212381Y153838D01*
X212335Y153661D01*
X212286Y153485D01*
X212232Y153311D01*
X212174Y153137D01*
X212112Y152966D01*
X212046Y152796D01*
X211975Y152627D01*
X211901Y152460D01*
X211823Y152295D01*
X211741Y152132D01*
X211655Y151971D01*
X211565Y151812D01*
X211471Y151655D01*
X211374Y151501D01*
X211273Y151349D01*
X211168Y151199D01*
X211060Y151052D01*
X210949Y150908D01*
X210834Y150766D01*
X210715Y150627D01*
X210593Y150491D01*
X210468Y150358D01*
X210340Y150228D01*
X199954Y150679D02*
X199836Y150681D01*
X199718Y150687D01*
X199600Y150696D01*
X199483Y150710D01*
X199366Y150727D01*
X199249Y150748D01*
X199134Y150773D01*
X199019Y150802D01*
X198905Y150835D01*
X198793Y150871D01*
X198682Y150911D01*
X198572Y150954D01*
X198463Y151001D01*
X198356Y151051D01*
X198251Y151106D01*
X198148Y151163D01*
X198047Y151224D01*
X197947Y151288D01*
X197850Y151355D01*
X197755Y151425D01*
X197663Y151499D01*
X197572Y151575D01*
X197485Y151655D01*
X197400Y151737D01*
X197318Y151822D01*
X197238Y151909D01*
X197162Y152000D01*
X197088Y152092D01*
X197018Y152187D01*
X196951Y152284D01*
X196887Y152384D01*
X196826Y152485D01*
X196769Y152588D01*
X196714Y152693D01*
X196664Y152800D01*
X196617Y152909D01*
X196574Y153019D01*
X196534Y153130D01*
X196498Y153242D01*
X196465Y153356D01*
X196436Y153471D01*
X196411Y153586D01*
X196390Y153703D01*
X196373Y153820D01*
X196359Y153937D01*
X196350Y154055D01*
X196344Y154173D01*
X196342Y154291D01*
X196344Y154452D01*
X196350Y154614D01*
X196359Y154775D01*
X196373Y154936D01*
X196390Y155096D01*
X196411Y155256D01*
X196436Y155416D01*
X196465Y155575D01*
X196497Y155733D01*
X196533Y155890D01*
X196573Y156046D01*
X196617Y156202D01*
X196665Y156356D01*
X196716Y156509D01*
X196770Y156661D01*
X196829Y156812D01*
X196890Y156961D01*
X196956Y157108D01*
X197025Y157254D01*
X197097Y157399D01*
X197173Y157541D01*
X197252Y157682D01*
X197334Y157821D01*
X197420Y157957D01*
X197509Y158092D01*
X197601Y158225D01*
X197697Y158355D01*
X203115Y152484D02*
X203053Y152383D01*
X202988Y152283D01*
X202919Y152186D01*
X202847Y152091D01*
X202773Y151998D01*
X202695Y151908D01*
X202614Y151820D01*
X202531Y151735D01*
X202445Y151653D01*
X202356Y151574D01*
X202265Y151497D01*
X202171Y151424D01*
X202075Y151353D01*
X201977Y151286D01*
X201877Y151222D01*
X201774Y151161D01*
X201670Y151104D01*
X201564Y151050D01*
X201456Y151000D01*
X201347Y150953D01*
X201236Y150909D01*
X201124Y150869D01*
X201010Y150833D01*
X200896Y150801D01*
X200780Y150772D01*
X200664Y150747D01*
X200547Y150726D01*
X200429Y150709D01*
X200311Y150695D01*
X200192Y150686D01*
X200073Y150680D01*
X199954Y150678D01*
X205825Y157452D02*
X205887Y157553D01*
X205952Y157653D01*
X206021Y157750D01*
X206093Y157845D01*
X206167Y157938D01*
X206245Y158028D01*
X206326Y158116D01*
X206409Y158201D01*
X206495Y158283D01*
X206584Y158362D01*
X206675Y158439D01*
X206769Y158512D01*
X206865Y158583D01*
X206963Y158650D01*
X207063Y158714D01*
X207166Y158775D01*
X207270Y158832D01*
X207376Y158886D01*
X207484Y158936D01*
X207593Y158983D01*
X207704Y159027D01*
X207816Y159067D01*
X207930Y159103D01*
X208044Y159135D01*
X208160Y159164D01*
X208276Y159189D01*
X208393Y159210D01*
X208511Y159227D01*
X208629Y159241D01*
X208748Y159250D01*
X208867Y159256D01*
X208986Y159258D01*
X205825Y157452D02*
X203115Y152485D01*
X187198Y122354D02*
X170942Y122354D01*
X170942Y126870D01*
X170944Y127003D01*
X170950Y127135D01*
X170960Y127267D01*
X170973Y127399D01*
X170991Y127531D01*
X171012Y127661D01*
X171037Y127792D01*
X171066Y127921D01*
X171099Y128049D01*
X171135Y128177D01*
X171175Y128303D01*
X171219Y128428D01*
X171267Y128552D01*
X171318Y128674D01*
X171373Y128795D01*
X171431Y128914D01*
X171493Y129032D01*
X171558Y129147D01*
X171627Y129261D01*
X171698Y129372D01*
X171774Y129481D01*
X171852Y129588D01*
X171933Y129693D01*
X172018Y129795D01*
X172105Y129895D01*
X172195Y129992D01*
X172288Y130087D01*
X172384Y130178D01*
X172482Y130267D01*
X172583Y130353D01*
X172687Y130436D01*
X172793Y130516D01*
X172901Y130592D01*
X173011Y130666D01*
X173124Y130736D01*
X173238Y130803D01*
X173355Y130866D01*
X173473Y130926D01*
X173593Y130983D01*
X173715Y131036D01*
X173838Y131085D01*
X173962Y131131D01*
X174088Y131173D01*
X174215Y131211D01*
X174343Y131246D01*
X174472Y131277D01*
X174601Y131304D01*
X174732Y131327D01*
X174863Y131347D01*
X174995Y131362D01*
X175127Y131374D01*
X175259Y131382D01*
X175392Y131386D01*
X175524Y131386D01*
X175657Y131382D01*
X175789Y131374D01*
X175921Y131362D01*
X176053Y131347D01*
X176184Y131327D01*
X176315Y131304D01*
X176444Y131277D01*
X176573Y131246D01*
X176701Y131211D01*
X176828Y131173D01*
X176954Y131131D01*
X177078Y131085D01*
X177201Y131036D01*
X177323Y130983D01*
X177443Y130926D01*
X177561Y130866D01*
X177678Y130803D01*
X177792Y130736D01*
X177905Y130666D01*
X178015Y130592D01*
X178123Y130516D01*
X178229Y130436D01*
X178333Y130353D01*
X178434Y130267D01*
X178532Y130178D01*
X178628Y130087D01*
X178721Y129992D01*
X178811Y129895D01*
X178898Y129795D01*
X178983Y129693D01*
X179064Y129588D01*
X179142Y129481D01*
X179218Y129372D01*
X179289Y129261D01*
X179358Y129147D01*
X179423Y129032D01*
X179485Y128914D01*
X179543Y128795D01*
X179598Y128674D01*
X179649Y128552D01*
X179697Y128428D01*
X179741Y128303D01*
X179781Y128177D01*
X179817Y128049D01*
X179850Y127921D01*
X179879Y127792D01*
X179904Y127661D01*
X179925Y127531D01*
X179943Y127399D01*
X179956Y127267D01*
X179966Y127135D01*
X179972Y127003D01*
X179974Y126870D01*
X179973Y126870D02*
X179973Y122354D01*
X179973Y127773D02*
X187198Y131385D01*
X187198Y136991D02*
X170942Y147828D01*
X170942Y136991D02*
X187198Y147828D01*
X161798Y130090D02*
X161798Y126478D01*
X161796Y126360D01*
X161790Y126242D01*
X161781Y126124D01*
X161767Y126007D01*
X161750Y125890D01*
X161729Y125773D01*
X161704Y125658D01*
X161675Y125543D01*
X161642Y125429D01*
X161606Y125317D01*
X161566Y125206D01*
X161523Y125096D01*
X161476Y124987D01*
X161426Y124880D01*
X161371Y124775D01*
X161314Y124672D01*
X161253Y124571D01*
X161189Y124471D01*
X161122Y124374D01*
X161052Y124279D01*
X160978Y124187D01*
X160902Y124096D01*
X160822Y124009D01*
X160740Y123924D01*
X160655Y123842D01*
X160568Y123762D01*
X160477Y123686D01*
X160385Y123612D01*
X160290Y123542D01*
X160193Y123475D01*
X160093Y123411D01*
X159992Y123350D01*
X159889Y123293D01*
X159784Y123238D01*
X159677Y123188D01*
X159568Y123141D01*
X159458Y123098D01*
X159347Y123058D01*
X159235Y123022D01*
X159121Y122989D01*
X159006Y122960D01*
X158891Y122935D01*
X158774Y122914D01*
X158657Y122897D01*
X158540Y122883D01*
X158422Y122874D01*
X158304Y122868D01*
X158186Y122866D01*
X158186Y122865D02*
X149154Y122865D01*
X149036Y122867D01*
X148918Y122873D01*
X148800Y122882D01*
X148682Y122896D01*
X148565Y122913D01*
X148449Y122934D01*
X148334Y122959D01*
X148219Y122988D01*
X148105Y123021D01*
X147993Y123057D01*
X147881Y123097D01*
X147771Y123140D01*
X147663Y123187D01*
X147556Y123238D01*
X147451Y123292D01*
X147348Y123349D01*
X147246Y123410D01*
X147147Y123474D01*
X147050Y123541D01*
X146955Y123612D01*
X146862Y123685D01*
X146772Y123762D01*
X146684Y123841D01*
X146599Y123923D01*
X146517Y124008D01*
X146438Y124096D01*
X146361Y124186D01*
X146288Y124279D01*
X146217Y124373D01*
X146150Y124471D01*
X146086Y124570D01*
X146025Y124671D01*
X145968Y124775D01*
X145914Y124880D01*
X145863Y124987D01*
X145816Y125095D01*
X145773Y125205D01*
X145733Y125317D01*
X145697Y125429D01*
X145664Y125543D01*
X145635Y125658D01*
X145610Y125773D01*
X145589Y125889D01*
X145572Y126006D01*
X145558Y126124D01*
X145549Y126242D01*
X145543Y126360D01*
X145541Y126478D01*
X145542Y126478D02*
X145542Y130090D01*
X145542Y139404D02*
X161798Y139404D01*
X145542Y134889D02*
X145542Y143920D01*
X158186Y157988D02*
X158304Y157986D01*
X158422Y157980D01*
X158540Y157971D01*
X158657Y157957D01*
X158774Y157940D01*
X158891Y157919D01*
X159006Y157894D01*
X159121Y157865D01*
X159235Y157832D01*
X159347Y157796D01*
X159458Y157756D01*
X159568Y157713D01*
X159677Y157666D01*
X159784Y157616D01*
X159889Y157561D01*
X159992Y157504D01*
X160093Y157443D01*
X160193Y157379D01*
X160290Y157312D01*
X160385Y157242D01*
X160477Y157168D01*
X160568Y157092D01*
X160655Y157012D01*
X160740Y156930D01*
X160822Y156845D01*
X160902Y156758D01*
X160978Y156667D01*
X161052Y156575D01*
X161122Y156480D01*
X161189Y156383D01*
X161253Y156283D01*
X161314Y156182D01*
X161371Y156079D01*
X161426Y155974D01*
X161476Y155867D01*
X161523Y155758D01*
X161566Y155648D01*
X161606Y155537D01*
X161642Y155425D01*
X161675Y155311D01*
X161704Y155196D01*
X161729Y155081D01*
X161750Y154964D01*
X161767Y154847D01*
X161781Y154730D01*
X161790Y154612D01*
X161796Y154494D01*
X161798Y154376D01*
X161796Y154193D01*
X161789Y154011D01*
X161778Y153829D01*
X161763Y153647D01*
X161743Y153465D01*
X161720Y153284D01*
X161691Y153104D01*
X161659Y152924D01*
X161622Y152745D01*
X161581Y152568D01*
X161535Y152391D01*
X161486Y152215D01*
X161432Y152041D01*
X161374Y151867D01*
X161312Y151696D01*
X161246Y151526D01*
X161175Y151357D01*
X161101Y151190D01*
X161023Y151025D01*
X160941Y150862D01*
X160855Y150701D01*
X160765Y150542D01*
X160671Y150385D01*
X160574Y150231D01*
X160473Y150079D01*
X160368Y149929D01*
X160260Y149782D01*
X160149Y149638D01*
X160034Y149496D01*
X159915Y149357D01*
X159793Y149221D01*
X159668Y149088D01*
X159540Y148958D01*
X149154Y149409D02*
X149036Y149411D01*
X148918Y149417D01*
X148800Y149426D01*
X148683Y149440D01*
X148566Y149457D01*
X148449Y149478D01*
X148334Y149503D01*
X148219Y149532D01*
X148105Y149565D01*
X147993Y149601D01*
X147882Y149641D01*
X147772Y149684D01*
X147663Y149731D01*
X147556Y149781D01*
X147451Y149836D01*
X147348Y149893D01*
X147247Y149954D01*
X147147Y150018D01*
X147050Y150085D01*
X146955Y150155D01*
X146863Y150229D01*
X146772Y150305D01*
X146685Y150385D01*
X146600Y150467D01*
X146518Y150552D01*
X146438Y150639D01*
X146362Y150730D01*
X146288Y150822D01*
X146218Y150917D01*
X146151Y151014D01*
X146087Y151114D01*
X146026Y151215D01*
X145969Y151318D01*
X145914Y151423D01*
X145864Y151530D01*
X145817Y151639D01*
X145774Y151749D01*
X145734Y151860D01*
X145698Y151972D01*
X145665Y152086D01*
X145636Y152201D01*
X145611Y152316D01*
X145590Y152433D01*
X145573Y152550D01*
X145559Y152667D01*
X145550Y152785D01*
X145544Y152903D01*
X145542Y153021D01*
X145544Y153182D01*
X145550Y153344D01*
X145559Y153505D01*
X145573Y153666D01*
X145590Y153826D01*
X145611Y153986D01*
X145636Y154146D01*
X145665Y154305D01*
X145697Y154463D01*
X145733Y154620D01*
X145773Y154776D01*
X145817Y154932D01*
X145865Y155086D01*
X145916Y155239D01*
X145970Y155391D01*
X146029Y155542D01*
X146090Y155691D01*
X146156Y155838D01*
X146225Y155984D01*
X146297Y156129D01*
X146373Y156271D01*
X146452Y156412D01*
X146534Y156551D01*
X146620Y156687D01*
X146709Y156822D01*
X146801Y156955D01*
X146897Y157085D01*
X152315Y151214D02*
X152253Y151113D01*
X152188Y151013D01*
X152119Y150916D01*
X152047Y150821D01*
X151973Y150728D01*
X151895Y150638D01*
X151814Y150550D01*
X151731Y150465D01*
X151645Y150383D01*
X151556Y150304D01*
X151465Y150227D01*
X151371Y150154D01*
X151275Y150083D01*
X151177Y150016D01*
X151077Y149952D01*
X150974Y149891D01*
X150870Y149834D01*
X150764Y149780D01*
X150656Y149730D01*
X150547Y149683D01*
X150436Y149639D01*
X150324Y149599D01*
X150210Y149563D01*
X150096Y149531D01*
X149980Y149502D01*
X149864Y149477D01*
X149747Y149456D01*
X149629Y149439D01*
X149511Y149425D01*
X149392Y149416D01*
X149273Y149410D01*
X149154Y149408D01*
X155025Y156182D02*
X155087Y156283D01*
X155152Y156383D01*
X155221Y156480D01*
X155293Y156575D01*
X155367Y156668D01*
X155445Y156758D01*
X155526Y156846D01*
X155609Y156931D01*
X155695Y157013D01*
X155784Y157092D01*
X155875Y157169D01*
X155969Y157242D01*
X156065Y157313D01*
X156163Y157380D01*
X156263Y157444D01*
X156366Y157505D01*
X156470Y157562D01*
X156576Y157616D01*
X156684Y157666D01*
X156793Y157713D01*
X156904Y157757D01*
X157016Y157797D01*
X157130Y157833D01*
X157244Y157865D01*
X157360Y157894D01*
X157476Y157919D01*
X157593Y157940D01*
X157711Y157957D01*
X157829Y157971D01*
X157948Y157980D01*
X158067Y157986D01*
X158186Y157988D01*
X155025Y156182D02*
X152315Y151215D01*
X136398Y127820D02*
X120142Y127820D01*
X120142Y123305D02*
X120142Y132336D01*
X120142Y147828D02*
X136398Y136991D01*
X136398Y147828D02*
X120142Y136991D01*
D12*
X86192Y54209D03*
D13*
X85677Y54356D03*
D14*
X85087Y54503D03*
D15*
X84646Y54651D03*
D16*
X84130Y54798D03*
D17*
X83688Y54945D03*
D18*
X83099Y55093D03*
D19*
X82583Y55240D03*
D20*
X82141Y55387D03*
D21*
X81699Y55535D03*
D22*
X81625Y55682D03*
D23*
X81699Y55829D03*
D24*
X81773Y55977D03*
D25*
X81699Y56124D03*
D26*
X81773Y56271D03*
D27*
X81773Y56418D03*
D28*
X81846Y56566D03*
X81846Y56713D03*
D29*
X81846Y56860D03*
D30*
X81920Y57008D03*
D31*
X81920Y57155D03*
X81920Y57302D03*
D32*
X81994Y57450D03*
D33*
X81994Y57597D03*
D34*
X82067Y57744D03*
D35*
X81994Y57892D03*
D36*
X82067Y58039D03*
D37*
X82141Y58186D03*
D38*
X82141Y58334D03*
X82141Y58481D03*
D39*
X82215Y58628D03*
D40*
X82215Y58776D03*
D41*
X82288Y58923D03*
D42*
X82215Y59070D03*
D43*
X82288Y59218D03*
D44*
X82362Y59365D03*
D45*
X82362Y59512D03*
X82362Y59660D03*
D46*
X82362Y59807D03*
D47*
X82436Y59954D03*
X82436Y60101D03*
D48*
X82436Y60249D03*
D49*
X82509Y60396D03*
D50*
X82509Y60543D03*
X82509Y60691D03*
D51*
X82583Y60838D03*
D52*
X82583Y60985D03*
D53*
X82657Y61133D03*
D54*
X82583Y61280D03*
D55*
X82657Y61427D03*
D56*
X82730Y61575D03*
D57*
X103208Y61575D03*
D58*
X82730Y61722D03*
D59*
X102619Y61722D03*
D58*
X82730Y61869D03*
D60*
X102177Y61869D03*
D61*
X82730Y62017D03*
D62*
X101661Y62017D03*
D63*
X82804Y62164D03*
D64*
X101219Y62164D03*
D63*
X82804Y62311D03*
D65*
X100630Y62311D03*
D66*
X82730Y62459D03*
D67*
X100188Y62459D03*
D66*
X82730Y62606D03*
D68*
X99672Y62606D03*
D63*
X82657Y62753D03*
D69*
X99230Y62753D03*
D66*
X82583Y62901D03*
D21*
X99083Y62901D03*
D66*
X82583Y63048D03*
D23*
X99083Y63048D03*
D66*
X82436Y63195D03*
D24*
X99157Y63195D03*
D66*
X82436Y63343D03*
D25*
X99230Y63343D03*
D63*
X82362Y63490D03*
D26*
X99157Y63490D03*
D66*
X82288Y63637D03*
D70*
X99230Y63637D03*
D66*
X82288Y63784D03*
D28*
X99230Y63784D03*
D66*
X82141Y63932D03*
D71*
X99304Y63932D03*
D66*
X82141Y64079D03*
D71*
X99304Y64079D03*
D63*
X82067Y64226D03*
D30*
X99304Y64226D03*
D66*
X81994Y64374D03*
D72*
X99378Y64374D03*
D66*
X81994Y64521D03*
D32*
X99378Y64521D03*
D66*
X81846Y64668D03*
D32*
X99378Y64668D03*
D66*
X81846Y64816D03*
D73*
X99451Y64816D03*
D63*
X81773Y64963D03*
D34*
X99451Y64963D03*
D61*
X81846Y65110D03*
D35*
X99525Y65110D03*
D61*
X81846Y65258D03*
D36*
X99451Y65258D03*
D74*
X81846Y65405D03*
D75*
X99525Y65405D03*
D76*
X81920Y65552D03*
D77*
X99598Y65552D03*
D55*
X81920Y65700D03*
D78*
X99598Y65700D03*
D55*
X81920Y65847D03*
D78*
X99598Y65847D03*
D54*
X81994Y65994D03*
D79*
X99672Y65994D03*
D52*
X81994Y66142D03*
D41*
X99672Y66142D03*
D80*
X82067Y66289D03*
D41*
X99672Y66289D03*
D51*
X81994Y66436D03*
D43*
X99672Y66436D03*
D81*
X82067Y66584D03*
D44*
X99746Y66584D03*
D82*
X82141Y66731D03*
D83*
X99819Y66731D03*
D48*
X82141Y66878D03*
D84*
X99746Y66878D03*
D48*
X82141Y67026D03*
D85*
X99819Y67026D03*
D86*
X82215Y67173D03*
D47*
X99819Y67173D03*
D46*
X82215Y67320D03*
D86*
X99893Y67320D03*
D46*
X82215Y67467D03*
D86*
X99893Y67467D03*
D84*
X82215Y67615D03*
D49*
X99893Y67615D03*
D87*
X82288Y67762D03*
D82*
X99967Y67762D03*
D44*
X82362Y67909D03*
D51*
X99967Y67909D03*
D43*
X82288Y68057D03*
D51*
X99967Y68057D03*
D42*
X82362Y68204D03*
D80*
X100040Y68204D03*
D40*
X82362Y68351D03*
D53*
X100040Y68351D03*
D79*
X82436Y68499D03*
D54*
X100114Y68499D03*
D79*
X82436Y68646D03*
D55*
X100040Y68646D03*
D88*
X82436Y68793D03*
D89*
X100114Y68793D03*
D77*
X82509Y68941D03*
D76*
X100188Y68941D03*
D36*
X82509Y69088D03*
D90*
X100188Y69088D03*
D36*
X82509Y69235D03*
D90*
X100188Y69235D03*
D35*
X82583Y69383D03*
D63*
X100188Y69383D03*
D33*
X82583Y69530D03*
D66*
X100261Y69530D03*
D73*
X82657Y69677D03*
D63*
X100188Y69677D03*
D32*
X82583Y69825D03*
D66*
X100114Y69825D03*
D91*
X82657Y69972D03*
D66*
X100114Y69972D03*
D92*
X82730Y70119D03*
D63*
X100040Y70119D03*
D29*
X82730Y70267D03*
D66*
X99967Y70267D03*
D29*
X82730Y70414D03*
D66*
X99967Y70414D03*
D71*
X82804Y70561D03*
D66*
X99819Y70561D03*
D27*
X82804Y70709D03*
D66*
X99819Y70709D03*
D70*
X82878Y70856D03*
D63*
X99746Y70856D03*
D93*
X82804Y71003D03*
D66*
X99672Y71003D03*
D25*
X82878Y71150D03*
D66*
X99672Y71150D03*
D24*
X82951Y71298D03*
D66*
X99525Y71298D03*
D23*
X82878Y71445D03*
D66*
X99525Y71445D03*
D22*
X82951Y71592D03*
D63*
X99451Y71592D03*
D69*
X82878Y71740D03*
D66*
X99378Y71740D03*
D94*
X82362Y71887D03*
D66*
X99378Y71887D03*
D67*
X81773Y72034D03*
D66*
X99230Y72034D03*
D65*
X81331Y72182D03*
D66*
X99230Y72182D03*
D95*
X80815Y72329D03*
D61*
X99230Y72329D03*
D96*
X80373Y72476D03*
D90*
X99304Y72476D03*
D60*
X79784Y72624D03*
D90*
X99304Y72624D03*
D97*
X79268Y72771D03*
D98*
X99304Y72771D03*
D99*
X78826Y72918D03*
D56*
X99378Y72918D03*
D100*
X88623Y73066D03*
D55*
X99304Y73066D03*
D101*
X88108Y73213D03*
D54*
X99378Y73213D03*
D14*
X87592Y73360D03*
D53*
X99451Y73360D03*
D102*
X87076Y73508D03*
D80*
X99451Y73508D03*
D16*
X86634Y73655D03*
D80*
X99451Y73655D03*
D103*
X86119Y73802D03*
D81*
X99451Y73802D03*
D18*
X85603Y73950D03*
D104*
X99525Y73950D03*
D19*
X85087Y74097D03*
D49*
X99598Y74097D03*
D105*
X84572Y74244D03*
D48*
X99525Y74244D03*
D106*
X84130Y74392D03*
D86*
X99598Y74392D03*
D22*
X84130Y74539D03*
D47*
X99672Y74539D03*
D23*
X84204Y74686D03*
D85*
X99672Y74686D03*
D24*
X84277Y74833D03*
D85*
X99672Y74833D03*
D25*
X84204Y74981D03*
D87*
X99672Y74981D03*
D26*
X84277Y75128D03*
D44*
X99746Y75128D03*
D107*
X84277Y75275D03*
D43*
X99819Y75275D03*
D28*
X84351Y75423D03*
D42*
X99746Y75423D03*
D28*
X84351Y75570D03*
D41*
X99819Y75570D03*
D29*
X84351Y75717D03*
D79*
X99819Y75717D03*
D30*
X84425Y75865D03*
D39*
X99893Y75865D03*
D31*
X84425Y76012D03*
D39*
X99893Y76012D03*
D31*
X84425Y76159D03*
D108*
X99893Y76159D03*
D32*
X84498Y76307D03*
D75*
X99967Y76307D03*
D33*
X84498Y76454D03*
D35*
X99967Y76454D03*
D34*
X84572Y76601D03*
D35*
X99967Y76601D03*
X84498Y76749D03*
D34*
X100040Y76749D03*
D36*
X84572Y76896D03*
D73*
X100040Y76896D03*
D75*
X84646Y77043D03*
D73*
X100040Y77043D03*
D38*
X84646Y77191D03*
D91*
X100040Y77191D03*
D38*
X84646Y77338D03*
D72*
X100114Y77338D03*
D79*
X84646Y77485D03*
D30*
X100188Y77485D03*
D40*
X84719Y77633D03*
D29*
X100114Y77633D03*
D41*
X84793Y77780D03*
D71*
X100188Y77780D03*
D42*
X84719Y77927D03*
D27*
X100188Y77927D03*
D43*
X84793Y78075D03*
D109*
X100261Y78075D03*
D87*
X84793Y78222D03*
D109*
X100261Y78222D03*
D45*
X84866Y78369D03*
D25*
X100261Y78369D03*
D45*
X84866Y78516D03*
D24*
X100335Y78516D03*
D46*
X84866Y78664D03*
D23*
X100409Y78664D03*
D47*
X84940Y78811D03*
D22*
X100335Y78811D03*
D47*
X84940Y78958D03*
D106*
X100335Y78958D03*
D48*
X84940Y79106D03*
D110*
X99893Y79106D03*
D49*
X85014Y79253D03*
D111*
X99378Y79253D03*
D50*
X85014Y79400D03*
D18*
X98862Y79400D03*
D50*
X85014Y79548D03*
D112*
X98346Y79548D03*
D51*
X85087Y79695D03*
D113*
X97904Y79695D03*
D52*
X85087Y79842D03*
D114*
X97389Y79842D03*
D53*
X85161Y79990D03*
D14*
X96873Y79990D03*
D54*
X85087Y80137D03*
D115*
X96357Y80137D03*
D55*
X85161Y80284D03*
D12*
X95915Y80284D03*
D56*
X85235Y80432D03*
D58*
X85235Y80579D03*
X85235Y80726D03*
D61*
X85235Y80874D03*
D63*
X85308Y81021D03*
X85308Y81168D03*
D66*
X85235Y81316D03*
X85235Y81463D03*
X85087Y81610D03*
X85087Y81758D03*
D63*
X85014Y81905D03*
D66*
X84940Y82052D03*
X84940Y82199D03*
X84793Y82347D03*
X84793Y82494D03*
D63*
X84719Y82641D03*
D66*
X84646Y82789D03*
X84646Y82936D03*
D63*
X84572Y83083D03*
D66*
X84498Y83231D03*
X84498Y83378D03*
X84351Y83525D03*
X84351Y83673D03*
D63*
X84277Y83820D03*
D61*
X84351Y83967D03*
X84351Y84115D03*
D74*
X84351Y84262D03*
D76*
X84425Y84409D03*
D55*
X84425Y84557D03*
X84425Y84704D03*
D54*
X84498Y84851D03*
D52*
X84498Y84999D03*
D80*
X84572Y85146D03*
D51*
X84498Y85293D03*
D81*
X84572Y85441D03*
D82*
X84646Y85588D03*
D116*
X84572Y85735D03*
D48*
X84646Y85882D03*
D47*
X84646Y86030D03*
D46*
X84719Y86177D03*
X84719Y86324D03*
D84*
X84719Y86472D03*
D87*
X84793Y86619D03*
D43*
X84793Y86766D03*
X84793Y86914D03*
D42*
X84866Y87061D03*
D40*
X84866Y87208D03*
D79*
X84940Y87356D03*
X84940Y87503D03*
D88*
X84940Y87650D03*
D77*
X85014Y87798D03*
D36*
X85014Y87945D03*
X85014Y88092D03*
D35*
X85087Y88240D03*
D33*
X85087Y88387D03*
D73*
X85161Y88534D03*
D32*
X85087Y88682D03*
D91*
X85161Y88829D03*
D92*
X85235Y88976D03*
D29*
X85235Y89124D03*
X85235Y89271D03*
D28*
X85235Y89418D03*
D27*
X85308Y89565D03*
D70*
X85382Y89713D03*
D93*
X85308Y89860D03*
D25*
X85382Y90007D03*
D23*
X85382Y90155D03*
X85382Y90302D03*
D22*
X85456Y90449D03*
D117*
X85308Y90597D03*
D118*
X84793Y90744D03*
D67*
X84277Y90891D03*
D119*
X83762Y91039D03*
D95*
X83320Y91186D03*
D120*
X82804Y91333D03*
D60*
X82288Y91481D03*
D97*
X81773Y91628D03*
D121*
X81257Y91775D03*
D11*
X296672Y112522D02*
X296672Y130302D01*
X301611Y130302D01*
X301751Y130300D01*
X301890Y130294D01*
X302030Y130284D01*
X302169Y130270D01*
X302308Y130253D01*
X302446Y130231D01*
X302583Y130205D01*
X302720Y130176D01*
X302856Y130143D01*
X302990Y130106D01*
X303124Y130065D01*
X303256Y130020D01*
X303388Y129971D01*
X303517Y129919D01*
X303645Y129864D01*
X303772Y129804D01*
X303897Y129741D01*
X304020Y129675D01*
X304141Y129605D01*
X304260Y129532D01*
X304377Y129455D01*
X304491Y129375D01*
X304604Y129292D01*
X304714Y129206D01*
X304821Y129116D01*
X304926Y129024D01*
X305028Y128929D01*
X305128Y128831D01*
X305225Y128730D01*
X305319Y128626D01*
X305409Y128520D01*
X305497Y128411D01*
X305582Y128300D01*
X305663Y128186D01*
X305742Y128071D01*
X305817Y127953D01*
X305888Y127833D01*
X305956Y127710D01*
X306021Y127587D01*
X306082Y127461D01*
X306140Y127333D01*
X306194Y127205D01*
X306244Y127074D01*
X306291Y126942D01*
X306334Y126809D01*
X306373Y126675D01*
X306408Y126540D01*
X306439Y126404D01*
X306467Y126266D01*
X306490Y126129D01*
X306510Y125990D01*
X306526Y125851D01*
X306538Y125712D01*
X306546Y125573D01*
X306550Y125433D01*
X306550Y125293D01*
X306546Y125153D01*
X306538Y125014D01*
X306526Y124875D01*
X306510Y124736D01*
X306490Y124597D01*
X306467Y124460D01*
X306439Y124322D01*
X306408Y124186D01*
X306373Y124051D01*
X306334Y123917D01*
X306291Y123784D01*
X306244Y123652D01*
X306194Y123521D01*
X306140Y123393D01*
X306082Y123265D01*
X306021Y123139D01*
X305956Y123016D01*
X305888Y122894D01*
X305817Y122773D01*
X305742Y122655D01*
X305663Y122540D01*
X305582Y122426D01*
X305497Y122315D01*
X305409Y122206D01*
X305319Y122100D01*
X305225Y121996D01*
X305128Y121895D01*
X305028Y121797D01*
X304926Y121702D01*
X304821Y121610D01*
X304714Y121520D01*
X304604Y121434D01*
X304491Y121351D01*
X304377Y121271D01*
X304260Y121194D01*
X304141Y121121D01*
X304020Y121051D01*
X303897Y120985D01*
X303772Y120922D01*
X303645Y120862D01*
X303517Y120807D01*
X303388Y120755D01*
X303256Y120706D01*
X303124Y120661D01*
X302990Y120620D01*
X302856Y120583D01*
X302720Y120550D01*
X302583Y120521D01*
X302446Y120495D01*
X302308Y120473D01*
X302169Y120456D01*
X302030Y120442D01*
X301890Y120432D01*
X301751Y120426D01*
X301611Y120424D01*
X296672Y120424D01*
X318100Y130302D02*
X318232Y130300D01*
X318363Y130294D01*
X318495Y130284D01*
X318626Y130271D01*
X318756Y130253D01*
X318886Y130232D01*
X319016Y130207D01*
X319144Y130178D01*
X319272Y130145D01*
X319398Y130108D01*
X319524Y130068D01*
X319648Y130024D01*
X319771Y129976D01*
X319892Y129925D01*
X320012Y129870D01*
X320130Y129812D01*
X320246Y129750D01*
X320360Y129684D01*
X320473Y129616D01*
X320583Y129544D01*
X320691Y129469D01*
X320797Y129390D01*
X320901Y129309D01*
X321002Y129224D01*
X321100Y129137D01*
X321196Y129046D01*
X321289Y128953D01*
X321380Y128857D01*
X321467Y128759D01*
X321552Y128658D01*
X321633Y128554D01*
X321712Y128448D01*
X321787Y128340D01*
X321859Y128230D01*
X321927Y128117D01*
X321993Y128003D01*
X322055Y127887D01*
X322113Y127769D01*
X322168Y127649D01*
X322219Y127528D01*
X322267Y127405D01*
X322311Y127281D01*
X322351Y127155D01*
X322388Y127029D01*
X322421Y126901D01*
X322450Y126773D01*
X322475Y126643D01*
X322496Y126513D01*
X322514Y126383D01*
X322527Y126252D01*
X322537Y126120D01*
X322543Y125989D01*
X322545Y125857D01*
X318100Y130302D02*
X317950Y130300D01*
X317801Y130294D01*
X317652Y130284D01*
X317503Y130271D01*
X317354Y130253D01*
X317206Y130232D01*
X317058Y130206D01*
X316912Y130177D01*
X316766Y130144D01*
X316621Y130107D01*
X316477Y130066D01*
X316334Y130022D01*
X316192Y129974D01*
X316052Y129922D01*
X315913Y129867D01*
X315775Y129808D01*
X315640Y129745D01*
X315505Y129679D01*
X315373Y129609D01*
X315243Y129536D01*
X315114Y129459D01*
X314987Y129379D01*
X314863Y129296D01*
X314741Y129210D01*
X314621Y129120D01*
X314504Y129027D01*
X314389Y128932D01*
X314276Y128833D01*
X314166Y128731D01*
X314059Y128627D01*
X313955Y128520D01*
X313853Y128410D01*
X313755Y128297D01*
X313659Y128182D01*
X313567Y128064D01*
X313477Y127944D01*
X313391Y127822D01*
X313308Y127698D01*
X313228Y127571D01*
X313152Y127443D01*
X313079Y127312D01*
X313009Y127179D01*
X312943Y127045D01*
X312881Y126909D01*
X312822Y126772D01*
X312766Y126633D01*
X312715Y126492D01*
X312667Y126351D01*
X321062Y122400D02*
X321158Y122493D01*
X321250Y122589D01*
X321340Y122688D01*
X321427Y122789D01*
X321512Y122892D01*
X321593Y122997D01*
X321671Y123105D01*
X321746Y123215D01*
X321819Y123327D01*
X321888Y123441D01*
X321954Y123557D01*
X322016Y123675D01*
X322075Y123794D01*
X322131Y123915D01*
X322184Y124038D01*
X322233Y124162D01*
X322278Y124287D01*
X322321Y124414D01*
X322359Y124541D01*
X322394Y124670D01*
X322425Y124799D01*
X322453Y124930D01*
X322477Y125061D01*
X322498Y125193D01*
X322514Y125325D01*
X322527Y125458D01*
X322537Y125591D01*
X322542Y125724D01*
X322544Y125857D01*
X321063Y122400D02*
X312667Y112522D01*
X322545Y112522D01*
X41402Y112522D02*
X41402Y130302D01*
X46341Y130302D01*
X46481Y130300D01*
X46620Y130294D01*
X46760Y130284D01*
X46899Y130270D01*
X47038Y130253D01*
X47176Y130231D01*
X47313Y130205D01*
X47450Y130176D01*
X47586Y130143D01*
X47720Y130106D01*
X47854Y130065D01*
X47986Y130020D01*
X48118Y129971D01*
X48247Y129919D01*
X48375Y129864D01*
X48502Y129804D01*
X48627Y129741D01*
X48750Y129675D01*
X48871Y129605D01*
X48990Y129532D01*
X49107Y129455D01*
X49221Y129375D01*
X49334Y129292D01*
X49444Y129206D01*
X49551Y129116D01*
X49656Y129024D01*
X49758Y128929D01*
X49858Y128831D01*
X49955Y128730D01*
X50049Y128626D01*
X50139Y128520D01*
X50227Y128411D01*
X50312Y128300D01*
X50393Y128186D01*
X50472Y128071D01*
X50547Y127953D01*
X50618Y127833D01*
X50686Y127710D01*
X50751Y127587D01*
X50812Y127461D01*
X50870Y127333D01*
X50924Y127205D01*
X50974Y127074D01*
X51021Y126942D01*
X51064Y126809D01*
X51103Y126675D01*
X51138Y126540D01*
X51169Y126404D01*
X51197Y126266D01*
X51220Y126129D01*
X51240Y125990D01*
X51256Y125851D01*
X51268Y125712D01*
X51276Y125573D01*
X51280Y125433D01*
X51280Y125293D01*
X51276Y125153D01*
X51268Y125014D01*
X51256Y124875D01*
X51240Y124736D01*
X51220Y124597D01*
X51197Y124460D01*
X51169Y124322D01*
X51138Y124186D01*
X51103Y124051D01*
X51064Y123917D01*
X51021Y123784D01*
X50974Y123652D01*
X50924Y123521D01*
X50870Y123393D01*
X50812Y123265D01*
X50751Y123139D01*
X50686Y123016D01*
X50618Y122894D01*
X50547Y122773D01*
X50472Y122655D01*
X50393Y122540D01*
X50312Y122426D01*
X50227Y122315D01*
X50139Y122206D01*
X50049Y122100D01*
X49955Y121996D01*
X49858Y121895D01*
X49758Y121797D01*
X49656Y121702D01*
X49551Y121610D01*
X49444Y121520D01*
X49334Y121434D01*
X49221Y121351D01*
X49107Y121271D01*
X48990Y121194D01*
X48871Y121121D01*
X48750Y121051D01*
X48627Y120985D01*
X48502Y120922D01*
X48375Y120862D01*
X48247Y120807D01*
X48118Y120755D01*
X47986Y120706D01*
X47854Y120661D01*
X47720Y120620D01*
X47586Y120583D01*
X47450Y120550D01*
X47313Y120521D01*
X47176Y120495D01*
X47038Y120473D01*
X46899Y120456D01*
X46760Y120442D01*
X46620Y120432D01*
X46481Y120426D01*
X46341Y120424D01*
X41402Y120424D01*
X57397Y116473D02*
X61348Y130302D01*
X57397Y116473D02*
X67275Y116473D01*
X64311Y120424D02*
X64311Y112522D01*
X102870Y364490D02*
X105410Y364490D01*
X102870Y364490D02*
X102730Y364488D01*
X102590Y364482D01*
X102450Y364473D01*
X102311Y364459D01*
X102172Y364442D01*
X102034Y364421D01*
X101896Y364396D01*
X101759Y364367D01*
X101623Y364335D01*
X101488Y364298D01*
X101354Y364258D01*
X101221Y364215D01*
X101089Y364167D01*
X100958Y364117D01*
X100829Y364062D01*
X100702Y364004D01*
X100576Y363943D01*
X100452Y363878D01*
X100330Y363809D01*
X100210Y363738D01*
X100092Y363663D01*
X99975Y363585D01*
X99861Y363503D01*
X99750Y363419D01*
X99641Y363331D01*
X99534Y363241D01*
X99429Y363147D01*
X99328Y363051D01*
X99229Y362952D01*
X99133Y362851D01*
X99039Y362746D01*
X98949Y362639D01*
X98861Y362530D01*
X98777Y362419D01*
X98695Y362305D01*
X98617Y362188D01*
X98542Y362070D01*
X98471Y361950D01*
X98402Y361828D01*
X98337Y361704D01*
X98276Y361578D01*
X98218Y361451D01*
X98163Y361322D01*
X98113Y361191D01*
X98065Y361059D01*
X98022Y360926D01*
X97982Y360792D01*
X97945Y360657D01*
X97913Y360521D01*
X97884Y360384D01*
X97859Y360246D01*
X97838Y360108D01*
X97821Y359969D01*
X97807Y359830D01*
X97798Y359690D01*
X97792Y359550D01*
X97790Y359410D01*
X255270Y364490D02*
X255410Y364488D01*
X255550Y364482D01*
X255690Y364473D01*
X255829Y364459D01*
X255968Y364442D01*
X256106Y364421D01*
X256244Y364396D01*
X256381Y364367D01*
X256517Y364335D01*
X256652Y364298D01*
X256786Y364258D01*
X256919Y364215D01*
X257051Y364167D01*
X257182Y364117D01*
X257311Y364062D01*
X257438Y364004D01*
X257564Y363943D01*
X257688Y363878D01*
X257810Y363809D01*
X257930Y363738D01*
X258048Y363663D01*
X258165Y363585D01*
X258279Y363503D01*
X258390Y363419D01*
X258499Y363331D01*
X258606Y363241D01*
X258711Y363147D01*
X258812Y363051D01*
X258911Y362952D01*
X259007Y362851D01*
X259101Y362746D01*
X259191Y362639D01*
X259279Y362530D01*
X259363Y362419D01*
X259445Y362305D01*
X259523Y362188D01*
X259598Y362070D01*
X259669Y361950D01*
X259738Y361828D01*
X259803Y361704D01*
X259864Y361578D01*
X259922Y361451D01*
X259977Y361322D01*
X260027Y361191D01*
X260075Y361059D01*
X260118Y360926D01*
X260158Y360792D01*
X260195Y360657D01*
X260227Y360521D01*
X260256Y360384D01*
X260281Y360246D01*
X260302Y360108D01*
X260319Y359969D01*
X260333Y359830D01*
X260342Y359690D01*
X260348Y359550D01*
X260350Y359410D01*
X256540Y302260D02*
X101600Y302260D01*
X74930Y261620D02*
X24130Y261620D01*
X24130Y292100D01*
X24130Y261620D02*
X24130Y260350D01*
X24130Y292100D02*
X24130Y297180D01*
X24130Y302260D01*
X334010Y302260D02*
X334010Y297180D01*
X334010Y292100D01*
X334010Y261620D01*
X334010Y260350D01*
X49530Y297180D02*
X24130Y297180D01*
X49530Y297180D02*
X74930Y297180D01*
X74930Y292100D01*
X76200Y292100D01*
X76200Y267970D02*
X76202Y267812D01*
X76208Y267653D01*
X76218Y267495D01*
X76232Y267338D01*
X76249Y267180D01*
X76271Y267024D01*
X76296Y266867D01*
X76326Y266712D01*
X76359Y266557D01*
X76396Y266403D01*
X76437Y266250D01*
X76482Y266098D01*
X76531Y265948D01*
X76583Y265798D01*
X76639Y265650D01*
X76699Y265503D01*
X76762Y265358D01*
X76829Y265215D01*
X76899Y265073D01*
X76973Y264933D01*
X77051Y264795D01*
X77132Y264659D01*
X77216Y264525D01*
X77303Y264393D01*
X77394Y264263D01*
X77488Y264136D01*
X77585Y264011D01*
X77686Y263888D01*
X77789Y263768D01*
X77895Y263651D01*
X78004Y263536D01*
X78116Y263424D01*
X78231Y263315D01*
X78348Y263209D01*
X78468Y263106D01*
X78591Y263005D01*
X78716Y262908D01*
X78843Y262814D01*
X78973Y262723D01*
X79105Y262636D01*
X79239Y262552D01*
X79375Y262471D01*
X79513Y262393D01*
X79653Y262319D01*
X79795Y262249D01*
X79938Y262182D01*
X80083Y262119D01*
X80230Y262059D01*
X80378Y262003D01*
X80528Y261951D01*
X80678Y261902D01*
X80830Y261857D01*
X80983Y261816D01*
X81137Y261779D01*
X81292Y261746D01*
X81447Y261716D01*
X81604Y261691D01*
X81760Y261669D01*
X81918Y261652D01*
X82075Y261638D01*
X82233Y261628D01*
X82392Y261622D01*
X82550Y261620D01*
X83820Y261620D02*
X74930Y261620D01*
X83820Y261620D02*
X86360Y261620D01*
X76200Y267970D02*
X76200Y292100D01*
X86360Y261620D02*
X86360Y254000D01*
X86360Y261620D02*
X271780Y261620D01*
X271780Y254000D02*
X86360Y254000D01*
X271780Y254000D02*
X271780Y261620D01*
X274320Y261620D01*
X283210Y261620D01*
X308610Y297180D02*
X334010Y297180D01*
X283210Y297180D02*
X74930Y297180D01*
X283210Y297180D02*
X308610Y297180D01*
X283210Y297180D02*
X283210Y292100D01*
X281940Y292100D02*
X281940Y267970D01*
X281940Y292100D02*
X283210Y292100D01*
X281940Y267970D02*
X281938Y267812D01*
X281932Y267653D01*
X281922Y267495D01*
X281908Y267338D01*
X281891Y267180D01*
X281869Y267024D01*
X281844Y266867D01*
X281814Y266712D01*
X281781Y266557D01*
X281744Y266403D01*
X281703Y266250D01*
X281658Y266098D01*
X281609Y265948D01*
X281557Y265798D01*
X281501Y265650D01*
X281441Y265503D01*
X281378Y265358D01*
X281311Y265215D01*
X281241Y265073D01*
X281167Y264933D01*
X281089Y264795D01*
X281008Y264659D01*
X280924Y264525D01*
X280837Y264393D01*
X280746Y264263D01*
X280652Y264136D01*
X280555Y264011D01*
X280454Y263888D01*
X280351Y263768D01*
X280245Y263651D01*
X280136Y263536D01*
X280024Y263424D01*
X279909Y263315D01*
X279792Y263209D01*
X279672Y263106D01*
X279549Y263005D01*
X279424Y262908D01*
X279297Y262814D01*
X279167Y262723D01*
X279035Y262636D01*
X278901Y262552D01*
X278765Y262471D01*
X278627Y262393D01*
X278487Y262319D01*
X278345Y262249D01*
X278202Y262182D01*
X278057Y262119D01*
X277910Y262059D01*
X277762Y262003D01*
X277612Y261951D01*
X277462Y261902D01*
X277310Y261857D01*
X277157Y261816D01*
X277003Y261779D01*
X276848Y261746D01*
X276693Y261716D01*
X276536Y261691D01*
X276380Y261669D01*
X276222Y261652D01*
X276065Y261638D01*
X275907Y261628D01*
X275748Y261622D01*
X275590Y261620D01*
X30480Y153670D02*
X24130Y160020D01*
X24130Y260350D01*
X30480Y153670D02*
X78740Y153670D01*
X83820Y158750D01*
X83820Y261620D01*
X274320Y261620D02*
X274320Y158750D01*
X279400Y153670D01*
X328930Y153670D01*
X334010Y158750D01*
X334010Y260350D01*
X334010Y261620D02*
X283210Y261620D01*
X101600Y302260D02*
X24130Y302260D01*
X97790Y308610D02*
X97790Y359410D01*
X97790Y308610D02*
X97788Y308452D01*
X97782Y308293D01*
X97772Y308135D01*
X97758Y307978D01*
X97741Y307820D01*
X97719Y307664D01*
X97694Y307507D01*
X97664Y307352D01*
X97631Y307197D01*
X97594Y307043D01*
X97553Y306890D01*
X97508Y306738D01*
X97459Y306588D01*
X97407Y306438D01*
X97351Y306290D01*
X97291Y306143D01*
X97228Y305998D01*
X97161Y305855D01*
X97091Y305713D01*
X97017Y305573D01*
X96939Y305435D01*
X96858Y305299D01*
X96774Y305165D01*
X96687Y305033D01*
X96596Y304903D01*
X96502Y304776D01*
X96405Y304651D01*
X96304Y304528D01*
X96201Y304408D01*
X96095Y304291D01*
X95986Y304176D01*
X95874Y304064D01*
X95759Y303955D01*
X95642Y303849D01*
X95522Y303746D01*
X95399Y303645D01*
X95274Y303548D01*
X95147Y303454D01*
X95017Y303363D01*
X94885Y303276D01*
X94751Y303192D01*
X94615Y303111D01*
X94477Y303033D01*
X94337Y302959D01*
X94195Y302889D01*
X94052Y302822D01*
X93907Y302759D01*
X93760Y302699D01*
X93612Y302643D01*
X93462Y302591D01*
X93312Y302542D01*
X93160Y302497D01*
X93007Y302456D01*
X92853Y302419D01*
X92698Y302386D01*
X92543Y302356D01*
X92386Y302331D01*
X92230Y302309D01*
X92072Y302292D01*
X91915Y302278D01*
X91757Y302268D01*
X91598Y302262D01*
X91440Y302260D01*
X256540Y302260D02*
X334010Y302260D01*
X260350Y308610D02*
X260350Y359410D01*
X260350Y308610D02*
X260352Y308452D01*
X260358Y308293D01*
X260368Y308135D01*
X260382Y307978D01*
X260399Y307820D01*
X260421Y307664D01*
X260446Y307507D01*
X260476Y307352D01*
X260509Y307197D01*
X260546Y307043D01*
X260587Y306890D01*
X260632Y306738D01*
X260681Y306588D01*
X260733Y306438D01*
X260789Y306290D01*
X260849Y306143D01*
X260912Y305998D01*
X260979Y305855D01*
X261049Y305713D01*
X261123Y305573D01*
X261201Y305435D01*
X261282Y305299D01*
X261366Y305165D01*
X261453Y305033D01*
X261544Y304903D01*
X261638Y304776D01*
X261735Y304651D01*
X261836Y304528D01*
X261939Y304408D01*
X262045Y304291D01*
X262154Y304176D01*
X262266Y304064D01*
X262381Y303955D01*
X262498Y303849D01*
X262618Y303746D01*
X262741Y303645D01*
X262866Y303548D01*
X262993Y303454D01*
X263123Y303363D01*
X263255Y303276D01*
X263389Y303192D01*
X263525Y303111D01*
X263663Y303033D01*
X263803Y302959D01*
X263945Y302889D01*
X264088Y302822D01*
X264233Y302759D01*
X264380Y302699D01*
X264528Y302643D01*
X264678Y302591D01*
X264828Y302542D01*
X264980Y302497D01*
X265133Y302456D01*
X265287Y302419D01*
X265442Y302386D01*
X265597Y302356D01*
X265754Y302331D01*
X265910Y302309D01*
X266068Y302292D01*
X266225Y302278D01*
X266383Y302268D01*
X266542Y302262D01*
X266700Y302260D01*
X252730Y364490D02*
X105410Y364490D01*
X252730Y364490D02*
X255270Y364490D01*
X37338Y185420D02*
X37343Y185825D01*
X37358Y186230D01*
X37383Y186635D01*
X37418Y187038D01*
X37462Y187441D01*
X37517Y187843D01*
X37581Y188243D01*
X37655Y188641D01*
X37739Y189037D01*
X37833Y189432D01*
X37936Y189823D01*
X38049Y190213D01*
X38171Y190599D01*
X38303Y190982D01*
X38444Y191362D01*
X38595Y191738D01*
X38754Y192111D01*
X38923Y192479D01*
X39101Y192843D01*
X39287Y193203D01*
X39483Y193558D01*
X39687Y193908D01*
X39899Y194253D01*
X40120Y194592D01*
X40350Y194927D01*
X40587Y195255D01*
X40832Y195577D01*
X41086Y195894D01*
X41346Y196204D01*
X41615Y196507D01*
X41891Y196804D01*
X42174Y197094D01*
X42464Y197377D01*
X42761Y197653D01*
X43064Y197922D01*
X43374Y198182D01*
X43691Y198436D01*
X44013Y198681D01*
X44341Y198918D01*
X44676Y199148D01*
X45015Y199369D01*
X45360Y199581D01*
X45710Y199785D01*
X46065Y199981D01*
X46425Y200167D01*
X46789Y200345D01*
X47157Y200514D01*
X47530Y200673D01*
X47906Y200824D01*
X48286Y200965D01*
X48669Y201097D01*
X49055Y201219D01*
X49445Y201332D01*
X49836Y201435D01*
X50231Y201529D01*
X50627Y201613D01*
X51025Y201687D01*
X51425Y201751D01*
X51827Y201806D01*
X52230Y201850D01*
X52633Y201885D01*
X53038Y201910D01*
X53443Y201925D01*
X53848Y201930D01*
X54253Y201925D01*
X54658Y201910D01*
X55063Y201885D01*
X55466Y201850D01*
X55869Y201806D01*
X56271Y201751D01*
X56671Y201687D01*
X57069Y201613D01*
X57465Y201529D01*
X57860Y201435D01*
X58251Y201332D01*
X58641Y201219D01*
X59027Y201097D01*
X59410Y200965D01*
X59790Y200824D01*
X60166Y200673D01*
X60539Y200514D01*
X60907Y200345D01*
X61271Y200167D01*
X61631Y199981D01*
X61986Y199785D01*
X62336Y199581D01*
X62681Y199369D01*
X63020Y199148D01*
X63355Y198918D01*
X63683Y198681D01*
X64005Y198436D01*
X64322Y198182D01*
X64632Y197922D01*
X64935Y197653D01*
X65232Y197377D01*
X65522Y197094D01*
X65805Y196804D01*
X66081Y196507D01*
X66350Y196204D01*
X66610Y195894D01*
X66864Y195577D01*
X67109Y195255D01*
X67346Y194927D01*
X67576Y194592D01*
X67797Y194253D01*
X68009Y193908D01*
X68213Y193558D01*
X68409Y193203D01*
X68595Y192843D01*
X68773Y192479D01*
X68942Y192111D01*
X69101Y191738D01*
X69252Y191362D01*
X69393Y190982D01*
X69525Y190599D01*
X69647Y190213D01*
X69760Y189823D01*
X69863Y189432D01*
X69957Y189037D01*
X70041Y188641D01*
X70115Y188243D01*
X70179Y187843D01*
X70234Y187441D01*
X70278Y187038D01*
X70313Y186635D01*
X70338Y186230D01*
X70353Y185825D01*
X70358Y185420D01*
X70353Y185015D01*
X70338Y184610D01*
X70313Y184205D01*
X70278Y183802D01*
X70234Y183399D01*
X70179Y182997D01*
X70115Y182597D01*
X70041Y182199D01*
X69957Y181803D01*
X69863Y181408D01*
X69760Y181017D01*
X69647Y180627D01*
X69525Y180241D01*
X69393Y179858D01*
X69252Y179478D01*
X69101Y179102D01*
X68942Y178729D01*
X68773Y178361D01*
X68595Y177997D01*
X68409Y177637D01*
X68213Y177282D01*
X68009Y176932D01*
X67797Y176587D01*
X67576Y176248D01*
X67346Y175913D01*
X67109Y175585D01*
X66864Y175263D01*
X66610Y174946D01*
X66350Y174636D01*
X66081Y174333D01*
X65805Y174036D01*
X65522Y173746D01*
X65232Y173463D01*
X64935Y173187D01*
X64632Y172918D01*
X64322Y172658D01*
X64005Y172404D01*
X63683Y172159D01*
X63355Y171922D01*
X63020Y171692D01*
X62681Y171471D01*
X62336Y171259D01*
X61986Y171055D01*
X61631Y170859D01*
X61271Y170673D01*
X60907Y170495D01*
X60539Y170326D01*
X60166Y170167D01*
X59790Y170016D01*
X59410Y169875D01*
X59027Y169743D01*
X58641Y169621D01*
X58251Y169508D01*
X57860Y169405D01*
X57465Y169311D01*
X57069Y169227D01*
X56671Y169153D01*
X56271Y169089D01*
X55869Y169034D01*
X55466Y168990D01*
X55063Y168955D01*
X54658Y168930D01*
X54253Y168915D01*
X53848Y168910D01*
X53443Y168915D01*
X53038Y168930D01*
X52633Y168955D01*
X52230Y168990D01*
X51827Y169034D01*
X51425Y169089D01*
X51025Y169153D01*
X50627Y169227D01*
X50231Y169311D01*
X49836Y169405D01*
X49445Y169508D01*
X49055Y169621D01*
X48669Y169743D01*
X48286Y169875D01*
X47906Y170016D01*
X47530Y170167D01*
X47157Y170326D01*
X46789Y170495D01*
X46425Y170673D01*
X46065Y170859D01*
X45710Y171055D01*
X45360Y171259D01*
X45015Y171471D01*
X44676Y171692D01*
X44341Y171922D01*
X44013Y172159D01*
X43691Y172404D01*
X43374Y172658D01*
X43064Y172918D01*
X42761Y173187D01*
X42464Y173463D01*
X42174Y173746D01*
X41891Y174036D01*
X41615Y174333D01*
X41346Y174636D01*
X41086Y174946D01*
X40832Y175263D01*
X40587Y175585D01*
X40350Y175913D01*
X40120Y176248D01*
X39899Y176587D01*
X39687Y176932D01*
X39483Y177282D01*
X39287Y177637D01*
X39101Y177997D01*
X38923Y178361D01*
X38754Y178729D01*
X38595Y179102D01*
X38444Y179478D01*
X38303Y179858D01*
X38171Y180241D01*
X38049Y180627D01*
X37936Y181017D01*
X37833Y181408D01*
X37739Y181803D01*
X37655Y182199D01*
X37581Y182597D01*
X37517Y182997D01*
X37462Y183399D01*
X37418Y183802D01*
X37383Y184205D01*
X37358Y184610D01*
X37343Y185015D01*
X37338Y185420D01*
X287782Y185420D02*
X287787Y185825D01*
X287802Y186230D01*
X287827Y186635D01*
X287862Y187038D01*
X287906Y187441D01*
X287961Y187843D01*
X288025Y188243D01*
X288099Y188641D01*
X288183Y189037D01*
X288277Y189432D01*
X288380Y189823D01*
X288493Y190213D01*
X288615Y190599D01*
X288747Y190982D01*
X288888Y191362D01*
X289039Y191738D01*
X289198Y192111D01*
X289367Y192479D01*
X289545Y192843D01*
X289731Y193203D01*
X289927Y193558D01*
X290131Y193908D01*
X290343Y194253D01*
X290564Y194592D01*
X290794Y194927D01*
X291031Y195255D01*
X291276Y195577D01*
X291530Y195894D01*
X291790Y196204D01*
X292059Y196507D01*
X292335Y196804D01*
X292618Y197094D01*
X292908Y197377D01*
X293205Y197653D01*
X293508Y197922D01*
X293818Y198182D01*
X294135Y198436D01*
X294457Y198681D01*
X294785Y198918D01*
X295120Y199148D01*
X295459Y199369D01*
X295804Y199581D01*
X296154Y199785D01*
X296509Y199981D01*
X296869Y200167D01*
X297233Y200345D01*
X297601Y200514D01*
X297974Y200673D01*
X298350Y200824D01*
X298730Y200965D01*
X299113Y201097D01*
X299499Y201219D01*
X299889Y201332D01*
X300280Y201435D01*
X300675Y201529D01*
X301071Y201613D01*
X301469Y201687D01*
X301869Y201751D01*
X302271Y201806D01*
X302674Y201850D01*
X303077Y201885D01*
X303482Y201910D01*
X303887Y201925D01*
X304292Y201930D01*
X304697Y201925D01*
X305102Y201910D01*
X305507Y201885D01*
X305910Y201850D01*
X306313Y201806D01*
X306715Y201751D01*
X307115Y201687D01*
X307513Y201613D01*
X307909Y201529D01*
X308304Y201435D01*
X308695Y201332D01*
X309085Y201219D01*
X309471Y201097D01*
X309854Y200965D01*
X310234Y200824D01*
X310610Y200673D01*
X310983Y200514D01*
X311351Y200345D01*
X311715Y200167D01*
X312075Y199981D01*
X312430Y199785D01*
X312780Y199581D01*
X313125Y199369D01*
X313464Y199148D01*
X313799Y198918D01*
X314127Y198681D01*
X314449Y198436D01*
X314766Y198182D01*
X315076Y197922D01*
X315379Y197653D01*
X315676Y197377D01*
X315966Y197094D01*
X316249Y196804D01*
X316525Y196507D01*
X316794Y196204D01*
X317054Y195894D01*
X317308Y195577D01*
X317553Y195255D01*
X317790Y194927D01*
X318020Y194592D01*
X318241Y194253D01*
X318453Y193908D01*
X318657Y193558D01*
X318853Y193203D01*
X319039Y192843D01*
X319217Y192479D01*
X319386Y192111D01*
X319545Y191738D01*
X319696Y191362D01*
X319837Y190982D01*
X319969Y190599D01*
X320091Y190213D01*
X320204Y189823D01*
X320307Y189432D01*
X320401Y189037D01*
X320485Y188641D01*
X320559Y188243D01*
X320623Y187843D01*
X320678Y187441D01*
X320722Y187038D01*
X320757Y186635D01*
X320782Y186230D01*
X320797Y185825D01*
X320802Y185420D01*
X320797Y185015D01*
X320782Y184610D01*
X320757Y184205D01*
X320722Y183802D01*
X320678Y183399D01*
X320623Y182997D01*
X320559Y182597D01*
X320485Y182199D01*
X320401Y181803D01*
X320307Y181408D01*
X320204Y181017D01*
X320091Y180627D01*
X319969Y180241D01*
X319837Y179858D01*
X319696Y179478D01*
X319545Y179102D01*
X319386Y178729D01*
X319217Y178361D01*
X319039Y177997D01*
X318853Y177637D01*
X318657Y177282D01*
X318453Y176932D01*
X318241Y176587D01*
X318020Y176248D01*
X317790Y175913D01*
X317553Y175585D01*
X317308Y175263D01*
X317054Y174946D01*
X316794Y174636D01*
X316525Y174333D01*
X316249Y174036D01*
X315966Y173746D01*
X315676Y173463D01*
X315379Y173187D01*
X315076Y172918D01*
X314766Y172658D01*
X314449Y172404D01*
X314127Y172159D01*
X313799Y171922D01*
X313464Y171692D01*
X313125Y171471D01*
X312780Y171259D01*
X312430Y171055D01*
X312075Y170859D01*
X311715Y170673D01*
X311351Y170495D01*
X310983Y170326D01*
X310610Y170167D01*
X310234Y170016D01*
X309854Y169875D01*
X309471Y169743D01*
X309085Y169621D01*
X308695Y169508D01*
X308304Y169405D01*
X307909Y169311D01*
X307513Y169227D01*
X307115Y169153D01*
X306715Y169089D01*
X306313Y169034D01*
X305910Y168990D01*
X305507Y168955D01*
X305102Y168930D01*
X304697Y168915D01*
X304292Y168910D01*
X303887Y168915D01*
X303482Y168930D01*
X303077Y168955D01*
X302674Y168990D01*
X302271Y169034D01*
X301869Y169089D01*
X301469Y169153D01*
X301071Y169227D01*
X300675Y169311D01*
X300280Y169405D01*
X299889Y169508D01*
X299499Y169621D01*
X299113Y169743D01*
X298730Y169875D01*
X298350Y170016D01*
X297974Y170167D01*
X297601Y170326D01*
X297233Y170495D01*
X296869Y170673D01*
X296509Y170859D01*
X296154Y171055D01*
X295804Y171259D01*
X295459Y171471D01*
X295120Y171692D01*
X294785Y171922D01*
X294457Y172159D01*
X294135Y172404D01*
X293818Y172658D01*
X293508Y172918D01*
X293205Y173187D01*
X292908Y173463D01*
X292618Y173746D01*
X292335Y174036D01*
X292059Y174333D01*
X291790Y174636D01*
X291530Y174946D01*
X291276Y175263D01*
X291031Y175585D01*
X290794Y175913D01*
X290564Y176248D01*
X290343Y176587D01*
X290131Y176932D01*
X289927Y177282D01*
X289731Y177637D01*
X289545Y177997D01*
X289367Y178361D01*
X289198Y178729D01*
X289039Y179102D01*
X288888Y179478D01*
X288747Y179858D01*
X288615Y180241D01*
X288493Y180627D01*
X288380Y181017D01*
X288277Y181408D01*
X288183Y181803D01*
X288099Y182199D01*
X288025Y182597D01*
X287961Y182997D01*
X287906Y183399D01*
X287862Y183802D01*
X287827Y184205D01*
X287802Y184610D01*
X287787Y185015D01*
X287782Y185420D01*
D10*
X106680Y178435D02*
X103505Y175895D01*
X106680Y178435D02*
X106680Y167005D01*
X103505Y167005D02*
X109855Y167005D01*
X249555Y167005D02*
X253365Y167005D01*
X253465Y167007D01*
X253564Y167013D01*
X253664Y167023D01*
X253762Y167036D01*
X253861Y167054D01*
X253958Y167075D01*
X254054Y167100D01*
X254150Y167129D01*
X254244Y167162D01*
X254337Y167198D01*
X254428Y167238D01*
X254518Y167282D01*
X254606Y167329D01*
X254692Y167379D01*
X254776Y167433D01*
X254858Y167490D01*
X254937Y167550D01*
X255015Y167614D01*
X255089Y167680D01*
X255161Y167749D01*
X255230Y167821D01*
X255296Y167895D01*
X255360Y167973D01*
X255420Y168052D01*
X255477Y168134D01*
X255531Y168218D01*
X255581Y168304D01*
X255628Y168392D01*
X255672Y168482D01*
X255712Y168573D01*
X255748Y168666D01*
X255781Y168760D01*
X255810Y168856D01*
X255835Y168952D01*
X255856Y169049D01*
X255874Y169148D01*
X255887Y169246D01*
X255897Y169346D01*
X255903Y169445D01*
X255905Y169545D01*
X255905Y170815D01*
X255903Y170915D01*
X255897Y171014D01*
X255887Y171114D01*
X255874Y171212D01*
X255856Y171311D01*
X255835Y171408D01*
X255810Y171504D01*
X255781Y171600D01*
X255748Y171694D01*
X255712Y171787D01*
X255672Y171878D01*
X255628Y171968D01*
X255581Y172056D01*
X255531Y172142D01*
X255477Y172226D01*
X255420Y172308D01*
X255360Y172387D01*
X255296Y172465D01*
X255230Y172539D01*
X255161Y172611D01*
X255089Y172680D01*
X255015Y172746D01*
X254937Y172810D01*
X254858Y172870D01*
X254776Y172927D01*
X254692Y172981D01*
X254606Y173031D01*
X254518Y173078D01*
X254428Y173122D01*
X254337Y173162D01*
X254244Y173198D01*
X254150Y173231D01*
X254054Y173260D01*
X253958Y173285D01*
X253861Y173306D01*
X253762Y173324D01*
X253664Y173337D01*
X253564Y173347D01*
X253465Y173353D01*
X253365Y173355D01*
X249555Y173355D01*
X249555Y178435D01*
X255905Y178435D01*
X255905Y197485D02*
X252095Y197485D01*
X251995Y197487D01*
X251896Y197493D01*
X251796Y197503D01*
X251698Y197516D01*
X251599Y197534D01*
X251502Y197555D01*
X251406Y197580D01*
X251310Y197609D01*
X251216Y197642D01*
X251123Y197678D01*
X251032Y197718D01*
X250942Y197762D01*
X250854Y197809D01*
X250768Y197859D01*
X250684Y197913D01*
X250602Y197970D01*
X250523Y198030D01*
X250445Y198094D01*
X250371Y198160D01*
X250299Y198229D01*
X250230Y198301D01*
X250164Y198375D01*
X250100Y198453D01*
X250040Y198532D01*
X249983Y198614D01*
X249929Y198698D01*
X249879Y198784D01*
X249832Y198872D01*
X249788Y198962D01*
X249748Y199053D01*
X249712Y199146D01*
X249679Y199240D01*
X249650Y199336D01*
X249625Y199432D01*
X249604Y199529D01*
X249586Y199628D01*
X249573Y199726D01*
X249563Y199826D01*
X249557Y199925D01*
X249555Y200025D01*
X249555Y200660D01*
X249557Y200771D01*
X249563Y200881D01*
X249572Y200992D01*
X249586Y201102D01*
X249603Y201211D01*
X249624Y201320D01*
X249649Y201428D01*
X249678Y201535D01*
X249710Y201641D01*
X249746Y201746D01*
X249786Y201849D01*
X249829Y201951D01*
X249876Y202052D01*
X249927Y202151D01*
X249980Y202248D01*
X250037Y202342D01*
X250098Y202435D01*
X250161Y202526D01*
X250228Y202615D01*
X250298Y202701D01*
X250371Y202784D01*
X250446Y202866D01*
X250524Y202944D01*
X250606Y203019D01*
X250689Y203092D01*
X250775Y203162D01*
X250864Y203229D01*
X250955Y203292D01*
X251048Y203353D01*
X251143Y203410D01*
X251239Y203463D01*
X251338Y203514D01*
X251439Y203561D01*
X251541Y203604D01*
X251644Y203644D01*
X251749Y203680D01*
X251855Y203712D01*
X251962Y203741D01*
X252070Y203766D01*
X252179Y203787D01*
X252288Y203804D01*
X252398Y203818D01*
X252509Y203827D01*
X252619Y203833D01*
X252730Y203835D01*
X252841Y203833D01*
X252951Y203827D01*
X253062Y203818D01*
X253172Y203804D01*
X253281Y203787D01*
X253390Y203766D01*
X253498Y203741D01*
X253605Y203712D01*
X253711Y203680D01*
X253816Y203644D01*
X253919Y203604D01*
X254021Y203561D01*
X254122Y203514D01*
X254221Y203463D01*
X254318Y203410D01*
X254412Y203353D01*
X254505Y203292D01*
X254596Y203229D01*
X254685Y203162D01*
X254771Y203092D01*
X254854Y203019D01*
X254936Y202944D01*
X255014Y202866D01*
X255089Y202784D01*
X255162Y202701D01*
X255232Y202615D01*
X255299Y202526D01*
X255362Y202435D01*
X255423Y202342D01*
X255480Y202248D01*
X255533Y202151D01*
X255584Y202052D01*
X255631Y201951D01*
X255674Y201849D01*
X255714Y201746D01*
X255750Y201641D01*
X255782Y201535D01*
X255811Y201428D01*
X255836Y201320D01*
X255857Y201211D01*
X255874Y201102D01*
X255888Y200992D01*
X255897Y200881D01*
X255903Y200771D01*
X255905Y200660D01*
X255905Y197485D01*
X255903Y197345D01*
X255897Y197205D01*
X255888Y197065D01*
X255874Y196926D01*
X255857Y196787D01*
X255836Y196649D01*
X255811Y196511D01*
X255782Y196374D01*
X255750Y196238D01*
X255713Y196103D01*
X255673Y195969D01*
X255630Y195836D01*
X255582Y195704D01*
X255532Y195573D01*
X255477Y195444D01*
X255419Y195317D01*
X255358Y195191D01*
X255293Y195067D01*
X255224Y194945D01*
X255153Y194825D01*
X255078Y194707D01*
X255000Y194590D01*
X254918Y194476D01*
X254834Y194365D01*
X254746Y194256D01*
X254656Y194149D01*
X254562Y194044D01*
X254466Y193943D01*
X254367Y193844D01*
X254266Y193748D01*
X254161Y193654D01*
X254054Y193564D01*
X253945Y193476D01*
X253834Y193392D01*
X253720Y193310D01*
X253603Y193232D01*
X253485Y193157D01*
X253365Y193086D01*
X253243Y193017D01*
X253119Y192952D01*
X252993Y192891D01*
X252866Y192833D01*
X252737Y192778D01*
X252606Y192728D01*
X252474Y192680D01*
X252341Y192637D01*
X252207Y192597D01*
X252072Y192560D01*
X251936Y192528D01*
X251799Y192499D01*
X251661Y192474D01*
X251523Y192453D01*
X251384Y192436D01*
X251245Y192422D01*
X251105Y192413D01*
X250965Y192407D01*
X250825Y192405D01*
X107315Y198755D02*
X103505Y198755D01*
X107315Y198755D02*
X107415Y198753D01*
X107514Y198747D01*
X107614Y198737D01*
X107712Y198724D01*
X107811Y198706D01*
X107908Y198685D01*
X108004Y198660D01*
X108100Y198631D01*
X108194Y198598D01*
X108287Y198562D01*
X108378Y198522D01*
X108468Y198478D01*
X108556Y198431D01*
X108642Y198381D01*
X108726Y198327D01*
X108808Y198270D01*
X108887Y198210D01*
X108965Y198146D01*
X109039Y198080D01*
X109111Y198011D01*
X109180Y197939D01*
X109246Y197865D01*
X109310Y197787D01*
X109370Y197708D01*
X109427Y197626D01*
X109481Y197542D01*
X109531Y197456D01*
X109578Y197368D01*
X109622Y197278D01*
X109662Y197187D01*
X109698Y197094D01*
X109731Y197000D01*
X109760Y196904D01*
X109785Y196808D01*
X109806Y196711D01*
X109824Y196612D01*
X109837Y196514D01*
X109847Y196414D01*
X109853Y196315D01*
X109855Y196215D01*
X109855Y195580D01*
X109853Y195469D01*
X109847Y195359D01*
X109838Y195248D01*
X109824Y195138D01*
X109807Y195029D01*
X109786Y194920D01*
X109761Y194812D01*
X109732Y194705D01*
X109700Y194599D01*
X109664Y194494D01*
X109624Y194391D01*
X109581Y194289D01*
X109534Y194188D01*
X109483Y194089D01*
X109430Y193992D01*
X109373Y193898D01*
X109312Y193805D01*
X109249Y193714D01*
X109182Y193625D01*
X109112Y193539D01*
X109039Y193456D01*
X108964Y193374D01*
X108886Y193296D01*
X108804Y193221D01*
X108721Y193148D01*
X108635Y193078D01*
X108546Y193011D01*
X108455Y192948D01*
X108362Y192887D01*
X108267Y192830D01*
X108171Y192777D01*
X108072Y192726D01*
X107971Y192679D01*
X107869Y192636D01*
X107766Y192596D01*
X107661Y192560D01*
X107555Y192528D01*
X107448Y192499D01*
X107340Y192474D01*
X107231Y192453D01*
X107122Y192436D01*
X107012Y192422D01*
X106901Y192413D01*
X106791Y192407D01*
X106680Y192405D01*
X106569Y192407D01*
X106459Y192413D01*
X106348Y192422D01*
X106238Y192436D01*
X106129Y192453D01*
X106020Y192474D01*
X105912Y192499D01*
X105805Y192528D01*
X105699Y192560D01*
X105594Y192596D01*
X105491Y192636D01*
X105389Y192679D01*
X105288Y192726D01*
X105189Y192777D01*
X105093Y192830D01*
X104998Y192887D01*
X104905Y192948D01*
X104814Y193011D01*
X104725Y193078D01*
X104639Y193148D01*
X104556Y193221D01*
X104474Y193296D01*
X104396Y193374D01*
X104321Y193456D01*
X104248Y193539D01*
X104178Y193625D01*
X104111Y193714D01*
X104048Y193805D01*
X103987Y193898D01*
X103930Y193993D01*
X103877Y194089D01*
X103826Y194188D01*
X103779Y194289D01*
X103736Y194391D01*
X103696Y194494D01*
X103660Y194599D01*
X103628Y194705D01*
X103599Y194812D01*
X103574Y194920D01*
X103553Y195029D01*
X103536Y195138D01*
X103522Y195248D01*
X103513Y195359D01*
X103507Y195469D01*
X103505Y195580D01*
X103505Y198755D01*
X103507Y198895D01*
X103513Y199035D01*
X103522Y199175D01*
X103536Y199314D01*
X103553Y199453D01*
X103574Y199591D01*
X103599Y199729D01*
X103628Y199866D01*
X103660Y200002D01*
X103697Y200137D01*
X103737Y200271D01*
X103780Y200404D01*
X103828Y200536D01*
X103878Y200667D01*
X103933Y200796D01*
X103991Y200923D01*
X104052Y201049D01*
X104117Y201173D01*
X104186Y201295D01*
X104257Y201415D01*
X104332Y201533D01*
X104410Y201650D01*
X104492Y201764D01*
X104576Y201875D01*
X104664Y201984D01*
X104754Y202091D01*
X104848Y202196D01*
X104944Y202297D01*
X105043Y202396D01*
X105144Y202492D01*
X105249Y202586D01*
X105356Y202676D01*
X105465Y202764D01*
X105576Y202848D01*
X105690Y202930D01*
X105807Y203008D01*
X105925Y203083D01*
X106045Y203154D01*
X106167Y203223D01*
X106291Y203288D01*
X106417Y203349D01*
X106544Y203407D01*
X106673Y203462D01*
X106804Y203512D01*
X106936Y203560D01*
X107069Y203603D01*
X107203Y203643D01*
X107338Y203680D01*
X107474Y203712D01*
X107611Y203741D01*
X107749Y203766D01*
X107887Y203787D01*
X108026Y203804D01*
X108165Y203818D01*
X108305Y203827D01*
X108445Y203833D01*
X108585Y203835D01*
X316865Y214948D02*
X316867Y215052D01*
X316873Y215157D01*
X316882Y215261D01*
X316895Y215364D01*
X316913Y215467D01*
X316933Y215569D01*
X316958Y215671D01*
X316986Y215771D01*
X317018Y215871D01*
X317054Y215969D01*
X317093Y216066D01*
X317135Y216161D01*
X317181Y216255D01*
X317231Y216347D01*
X317283Y216437D01*
X317339Y216525D01*
X317399Y216611D01*
X317461Y216695D01*
X317526Y216776D01*
X317594Y216855D01*
X317666Y216932D01*
X317739Y217005D01*
X317816Y217077D01*
X317895Y217145D01*
X317976Y217210D01*
X318060Y217272D01*
X318146Y217332D01*
X318234Y217388D01*
X318324Y217440D01*
X318416Y217490D01*
X318510Y217536D01*
X318605Y217578D01*
X318702Y217617D01*
X318800Y217653D01*
X318900Y217685D01*
X319000Y217713D01*
X319102Y217738D01*
X319204Y217758D01*
X319307Y217776D01*
X319410Y217789D01*
X319514Y217798D01*
X319619Y217804D01*
X319723Y217806D01*
X316865Y214948D02*
X316867Y214830D01*
X316873Y214711D01*
X316882Y214593D01*
X316895Y214476D01*
X316913Y214359D01*
X316933Y214242D01*
X316958Y214126D01*
X316986Y214011D01*
X317019Y213898D01*
X317054Y213785D01*
X317094Y213673D01*
X317136Y213563D01*
X317183Y213454D01*
X317233Y213346D01*
X317286Y213241D01*
X317343Y213137D01*
X317403Y213035D01*
X317466Y212935D01*
X317533Y212837D01*
X317602Y212741D01*
X317675Y212648D01*
X317751Y212557D01*
X317829Y212468D01*
X317911Y212382D01*
X317995Y212299D01*
X318081Y212218D01*
X318171Y212141D01*
X318262Y212066D01*
X318356Y211994D01*
X318453Y211925D01*
X318551Y211860D01*
X318652Y211797D01*
X318755Y211738D01*
X318859Y211682D01*
X318965Y211630D01*
X319073Y211581D01*
X319182Y211536D01*
X319293Y211494D01*
X319405Y211456D01*
X321945Y216853D02*
X321870Y216929D01*
X321791Y217004D01*
X321710Y217075D01*
X321626Y217144D01*
X321540Y217209D01*
X321452Y217271D01*
X321362Y217331D01*
X321270Y217387D01*
X321175Y217440D01*
X321079Y217489D01*
X320981Y217535D01*
X320882Y217578D01*
X320781Y217617D01*
X320679Y217652D01*
X320576Y217684D01*
X320472Y217712D01*
X320367Y217737D01*
X320260Y217758D01*
X320154Y217775D01*
X320047Y217788D01*
X319939Y217797D01*
X319831Y217803D01*
X319723Y217805D01*
X321945Y216853D02*
X328295Y211455D01*
X328295Y217805D01*
X328295Y222265D02*
X328295Y222900D01*
X328295Y222265D02*
X327660Y222265D01*
X327660Y222900D01*
X328295Y222900D01*
X330835Y221947D01*
X328295Y227457D02*
X328295Y231267D01*
X328293Y231367D01*
X328287Y231466D01*
X328277Y231566D01*
X328264Y231664D01*
X328246Y231763D01*
X328225Y231860D01*
X328200Y231956D01*
X328171Y232052D01*
X328138Y232146D01*
X328102Y232239D01*
X328062Y232330D01*
X328018Y232420D01*
X327971Y232508D01*
X327921Y232594D01*
X327867Y232678D01*
X327810Y232760D01*
X327750Y232839D01*
X327686Y232917D01*
X327620Y232991D01*
X327551Y233063D01*
X327479Y233132D01*
X327405Y233198D01*
X327327Y233262D01*
X327248Y233322D01*
X327166Y233379D01*
X327082Y233433D01*
X326996Y233483D01*
X326908Y233530D01*
X326818Y233574D01*
X326727Y233614D01*
X326634Y233650D01*
X326540Y233683D01*
X326444Y233712D01*
X326348Y233737D01*
X326251Y233758D01*
X326152Y233776D01*
X326054Y233789D01*
X325954Y233799D01*
X325855Y233805D01*
X325755Y233807D01*
X324485Y233807D01*
X324385Y233805D01*
X324286Y233799D01*
X324186Y233789D01*
X324088Y233776D01*
X323989Y233758D01*
X323892Y233737D01*
X323796Y233712D01*
X323700Y233683D01*
X323606Y233650D01*
X323513Y233614D01*
X323422Y233574D01*
X323332Y233530D01*
X323244Y233483D01*
X323158Y233433D01*
X323074Y233379D01*
X322992Y233322D01*
X322913Y233262D01*
X322835Y233198D01*
X322761Y233132D01*
X322689Y233063D01*
X322620Y232991D01*
X322554Y232917D01*
X322490Y232839D01*
X322430Y232760D01*
X322373Y232678D01*
X322319Y232594D01*
X322269Y232508D01*
X322222Y232420D01*
X322178Y232330D01*
X322138Y232239D01*
X322102Y232146D01*
X322069Y232052D01*
X322040Y231956D01*
X322015Y231860D01*
X321994Y231763D01*
X321976Y231664D01*
X321963Y231566D01*
X321953Y231466D01*
X321947Y231367D01*
X321945Y231267D01*
X321945Y227457D01*
X316865Y227457D01*
X316865Y233807D01*
X316865Y241427D02*
X325755Y238887D01*
X325755Y245237D01*
X323215Y243332D02*
X328295Y243332D01*
X103505Y271145D02*
X103505Y282575D01*
X108585Y282575D01*
X108585Y277495D02*
X103505Y277495D01*
X113005Y276860D02*
X113008Y277085D01*
X113016Y277310D01*
X113029Y277534D01*
X113048Y277758D01*
X113072Y277982D01*
X113101Y278205D01*
X113136Y278427D01*
X113176Y278648D01*
X113222Y278868D01*
X113272Y279087D01*
X113328Y279305D01*
X113389Y279522D01*
X113455Y279737D01*
X113526Y279950D01*
X113603Y280161D01*
X113684Y280371D01*
X113770Y280579D01*
X113861Y280784D01*
X113957Y280987D01*
X113957Y280988D02*
X113989Y281076D01*
X114025Y281163D01*
X114064Y281249D01*
X114107Y281333D01*
X114153Y281415D01*
X114202Y281495D01*
X114254Y281573D01*
X114310Y281649D01*
X114368Y281723D01*
X114430Y281794D01*
X114494Y281863D01*
X114561Y281929D01*
X114630Y281992D01*
X114702Y282053D01*
X114776Y282111D01*
X114853Y282165D01*
X114931Y282217D01*
X115012Y282265D01*
X115094Y282310D01*
X115179Y282352D01*
X115265Y282390D01*
X115352Y282425D01*
X115440Y282457D01*
X115530Y282484D01*
X115621Y282509D01*
X115713Y282529D01*
X115805Y282546D01*
X115899Y282559D01*
X115992Y282568D01*
X116086Y282574D01*
X116180Y282576D01*
X116274Y282574D01*
X116368Y282568D01*
X116461Y282559D01*
X116555Y282546D01*
X116647Y282529D01*
X116739Y282509D01*
X116830Y282484D01*
X116920Y282457D01*
X117008Y282425D01*
X117095Y282390D01*
X117181Y282352D01*
X117266Y282310D01*
X117348Y282265D01*
X117429Y282217D01*
X117507Y282165D01*
X117584Y282111D01*
X117658Y282053D01*
X117730Y281992D01*
X117799Y281929D01*
X117866Y281863D01*
X117930Y281794D01*
X117992Y281723D01*
X118050Y281649D01*
X118106Y281573D01*
X118158Y281495D01*
X118207Y281415D01*
X118253Y281333D01*
X118296Y281249D01*
X118335Y281163D01*
X118371Y281076D01*
X118403Y280988D01*
X118402Y280987D02*
X118498Y280784D01*
X118589Y280579D01*
X118675Y280371D01*
X118756Y280161D01*
X118833Y279950D01*
X118904Y279737D01*
X118970Y279522D01*
X119031Y279305D01*
X119087Y279087D01*
X119137Y278868D01*
X119183Y278648D01*
X119223Y278427D01*
X119258Y278205D01*
X119287Y277982D01*
X119311Y277758D01*
X119330Y277534D01*
X119343Y277310D01*
X119351Y277085D01*
X119354Y276860D01*
X113005Y276860D02*
X113008Y276635D01*
X113016Y276410D01*
X113029Y276186D01*
X113048Y275962D01*
X113072Y275738D01*
X113101Y275515D01*
X113136Y275293D01*
X113176Y275072D01*
X113222Y274852D01*
X113272Y274633D01*
X113328Y274415D01*
X113389Y274198D01*
X113455Y273983D01*
X113526Y273770D01*
X113603Y273559D01*
X113684Y273349D01*
X113770Y273141D01*
X113861Y272936D01*
X113957Y272733D01*
X113989Y272645D01*
X114025Y272558D01*
X114064Y272472D01*
X114107Y272388D01*
X114153Y272306D01*
X114202Y272226D01*
X114254Y272148D01*
X114310Y272072D01*
X114368Y271998D01*
X114430Y271927D01*
X114494Y271858D01*
X114561Y271792D01*
X114630Y271729D01*
X114702Y271668D01*
X114776Y271610D01*
X114853Y271556D01*
X114931Y271504D01*
X115012Y271456D01*
X115094Y271411D01*
X115179Y271369D01*
X115265Y271331D01*
X115352Y271296D01*
X115440Y271264D01*
X115530Y271237D01*
X115621Y271212D01*
X115713Y271192D01*
X115805Y271175D01*
X115899Y271162D01*
X115992Y271153D01*
X116086Y271147D01*
X116180Y271145D01*
X118402Y272733D02*
X118498Y272936D01*
X118589Y273141D01*
X118675Y273349D01*
X118756Y273559D01*
X118833Y273770D01*
X118904Y273983D01*
X118970Y274198D01*
X119031Y274415D01*
X119087Y274633D01*
X119137Y274852D01*
X119183Y275072D01*
X119223Y275293D01*
X119258Y275515D01*
X119287Y275738D01*
X119311Y275962D01*
X119330Y276186D01*
X119343Y276410D01*
X119351Y276635D01*
X119354Y276860D01*
X118403Y272733D02*
X118371Y272645D01*
X118335Y272558D01*
X118296Y272472D01*
X118253Y272388D01*
X118207Y272306D01*
X118158Y272226D01*
X118106Y272148D01*
X118050Y272072D01*
X117992Y271998D01*
X117930Y271927D01*
X117866Y271858D01*
X117799Y271792D01*
X117730Y271729D01*
X117658Y271668D01*
X117584Y271610D01*
X117507Y271556D01*
X117429Y271504D01*
X117348Y271456D01*
X117266Y271411D01*
X117181Y271369D01*
X117095Y271331D01*
X117008Y271296D01*
X116920Y271264D01*
X116830Y271237D01*
X116739Y271212D01*
X116647Y271192D01*
X116555Y271175D01*
X116461Y271162D01*
X116368Y271153D01*
X116274Y271147D01*
X116180Y271145D01*
X113640Y273685D02*
X118720Y280035D01*
X126975Y276225D02*
X130785Y276225D01*
X126975Y276225D02*
X126875Y276227D01*
X126776Y276233D01*
X126676Y276243D01*
X126578Y276256D01*
X126479Y276274D01*
X126382Y276295D01*
X126286Y276320D01*
X126190Y276349D01*
X126096Y276382D01*
X126003Y276418D01*
X125912Y276458D01*
X125822Y276502D01*
X125734Y276549D01*
X125648Y276599D01*
X125564Y276653D01*
X125482Y276710D01*
X125403Y276770D01*
X125325Y276834D01*
X125251Y276900D01*
X125179Y276969D01*
X125110Y277041D01*
X125044Y277115D01*
X124980Y277193D01*
X124920Y277272D01*
X124863Y277354D01*
X124809Y277438D01*
X124759Y277524D01*
X124712Y277612D01*
X124668Y277702D01*
X124628Y277793D01*
X124592Y277886D01*
X124559Y277980D01*
X124530Y278076D01*
X124505Y278172D01*
X124484Y278269D01*
X124466Y278368D01*
X124453Y278466D01*
X124443Y278566D01*
X124437Y278665D01*
X124435Y278765D01*
X124435Y279400D01*
X124437Y279511D01*
X124443Y279621D01*
X124452Y279732D01*
X124466Y279842D01*
X124483Y279951D01*
X124504Y280060D01*
X124529Y280168D01*
X124558Y280275D01*
X124590Y280381D01*
X124626Y280486D01*
X124666Y280589D01*
X124709Y280691D01*
X124756Y280792D01*
X124807Y280891D01*
X124860Y280988D01*
X124917Y281082D01*
X124978Y281175D01*
X125041Y281266D01*
X125108Y281355D01*
X125178Y281441D01*
X125251Y281524D01*
X125326Y281606D01*
X125404Y281684D01*
X125486Y281759D01*
X125569Y281832D01*
X125655Y281902D01*
X125744Y281969D01*
X125835Y282032D01*
X125928Y282093D01*
X126023Y282150D01*
X126119Y282203D01*
X126218Y282254D01*
X126319Y282301D01*
X126421Y282344D01*
X126524Y282384D01*
X126629Y282420D01*
X126735Y282452D01*
X126842Y282481D01*
X126950Y282506D01*
X127059Y282527D01*
X127168Y282544D01*
X127278Y282558D01*
X127389Y282567D01*
X127499Y282573D01*
X127610Y282575D01*
X127721Y282573D01*
X127831Y282567D01*
X127942Y282558D01*
X128052Y282544D01*
X128161Y282527D01*
X128270Y282506D01*
X128378Y282481D01*
X128485Y282452D01*
X128591Y282420D01*
X128696Y282384D01*
X128799Y282344D01*
X128901Y282301D01*
X129002Y282254D01*
X129101Y282203D01*
X129198Y282150D01*
X129292Y282093D01*
X129385Y282032D01*
X129476Y281969D01*
X129565Y281902D01*
X129651Y281832D01*
X129734Y281759D01*
X129816Y281684D01*
X129894Y281606D01*
X129969Y281524D01*
X130042Y281441D01*
X130112Y281355D01*
X130179Y281266D01*
X130242Y281175D01*
X130303Y281082D01*
X130360Y280988D01*
X130413Y280891D01*
X130464Y280792D01*
X130511Y280691D01*
X130554Y280589D01*
X130594Y280486D01*
X130630Y280381D01*
X130662Y280275D01*
X130691Y280168D01*
X130716Y280060D01*
X130737Y279951D01*
X130754Y279842D01*
X130768Y279732D01*
X130777Y279621D01*
X130783Y279511D01*
X130785Y279400D01*
X130785Y276225D01*
X130783Y276085D01*
X130777Y275945D01*
X130768Y275805D01*
X130754Y275666D01*
X130737Y275527D01*
X130716Y275389D01*
X130691Y275251D01*
X130662Y275114D01*
X130630Y274978D01*
X130593Y274843D01*
X130553Y274709D01*
X130510Y274576D01*
X130462Y274444D01*
X130412Y274313D01*
X130357Y274184D01*
X130299Y274057D01*
X130238Y273931D01*
X130173Y273807D01*
X130104Y273685D01*
X130033Y273565D01*
X129958Y273447D01*
X129880Y273330D01*
X129798Y273216D01*
X129714Y273105D01*
X129626Y272996D01*
X129536Y272889D01*
X129442Y272784D01*
X129346Y272683D01*
X129247Y272584D01*
X129146Y272488D01*
X129041Y272394D01*
X128934Y272304D01*
X128825Y272216D01*
X128714Y272132D01*
X128600Y272050D01*
X128483Y271972D01*
X128365Y271897D01*
X128245Y271826D01*
X128123Y271757D01*
X127999Y271692D01*
X127873Y271631D01*
X127746Y271573D01*
X127617Y271518D01*
X127486Y271468D01*
X127354Y271420D01*
X127221Y271377D01*
X127087Y271337D01*
X126952Y271300D01*
X126816Y271268D01*
X126679Y271239D01*
X126541Y271214D01*
X126403Y271193D01*
X126264Y271176D01*
X126125Y271162D01*
X125985Y271153D01*
X125845Y271147D01*
X125705Y271145D01*
D122*
X179070Y257810D03*
D123*
X179070Y299720D03*
D124*
X124206Y217805D03*
D125*
X137922Y230505D03*
D124*
X151638Y217805D03*
D125*
X165354Y230505D03*
D124*
X178816Y217805D03*
D125*
X192532Y230505D03*
D124*
X206502Y217805D03*
D125*
X220218Y230505D03*
D124*
X233934Y217805D03*
D126*
X28194Y151892D02*
X22098Y142748D01*
X28194Y142748D02*
X22098Y151892D01*
X31750Y149860D02*
X34290Y151892D01*
X34290Y142748D01*
X31750Y142748D02*
X36830Y142748D01*
D11*
X217170Y82810D02*
X242570Y82810D01*
X217170Y82810D02*
X217170Y-2190D01*
X242570Y-2190D01*
X242570Y82810D01*
X217170Y82810D02*
X191770Y82810D01*
X191770Y-2190D01*
X217170Y-2190D01*
X191770Y82810D02*
X166370Y82810D01*
X166370Y-2190D01*
X191770Y-2190D01*
X166370Y82810D02*
X140970Y82810D01*
X140970Y-2190D01*
X166370Y-2190D01*
X140970Y82810D02*
X115570Y82810D01*
X115570Y-2190D01*
X140970Y-2190D01*
D127*
X229870Y87890D03*
X204470Y87890D03*
X179070Y87890D03*
X153670Y87890D03*
X128270Y87890D03*
D126*
X248158Y77461D02*
X255270Y77461D01*
X255359Y77459D01*
X255447Y77453D01*
X255535Y77444D01*
X255623Y77430D01*
X255710Y77413D01*
X255796Y77392D01*
X255881Y77367D01*
X255965Y77338D01*
X256048Y77306D01*
X256129Y77271D01*
X256208Y77231D01*
X256286Y77189D01*
X256362Y77143D01*
X256436Y77094D01*
X256507Y77041D01*
X256576Y76986D01*
X256643Y76927D01*
X256707Y76866D01*
X256768Y76802D01*
X256827Y76735D01*
X256882Y76666D01*
X256935Y76595D01*
X256984Y76521D01*
X257030Y76445D01*
X257072Y76367D01*
X257112Y76288D01*
X257147Y76207D01*
X257179Y76124D01*
X257208Y76040D01*
X257233Y75955D01*
X257254Y75869D01*
X257271Y75782D01*
X257285Y75694D01*
X257294Y75606D01*
X257300Y75518D01*
X257302Y75429D01*
X257302Y74413D01*
X257302Y82245D02*
X248158Y82245D01*
X248158Y84785D01*
X248160Y84885D01*
X248166Y84984D01*
X248176Y85084D01*
X248189Y85182D01*
X248207Y85281D01*
X248228Y85378D01*
X248253Y85474D01*
X248282Y85570D01*
X248315Y85664D01*
X248351Y85757D01*
X248391Y85848D01*
X248435Y85938D01*
X248482Y86026D01*
X248532Y86112D01*
X248586Y86196D01*
X248643Y86278D01*
X248703Y86357D01*
X248767Y86435D01*
X248833Y86509D01*
X248902Y86581D01*
X248974Y86650D01*
X249048Y86716D01*
X249126Y86780D01*
X249205Y86840D01*
X249287Y86897D01*
X249371Y86951D01*
X249457Y87001D01*
X249545Y87048D01*
X249635Y87092D01*
X249726Y87132D01*
X249819Y87168D01*
X249913Y87201D01*
X250009Y87230D01*
X250105Y87255D01*
X250202Y87276D01*
X250301Y87294D01*
X250399Y87307D01*
X250499Y87317D01*
X250598Y87323D01*
X250698Y87325D01*
X250798Y87323D01*
X250897Y87317D01*
X250997Y87307D01*
X251095Y87294D01*
X251194Y87276D01*
X251291Y87255D01*
X251387Y87230D01*
X251483Y87201D01*
X251577Y87168D01*
X251670Y87132D01*
X251761Y87092D01*
X251851Y87048D01*
X251939Y87001D01*
X252025Y86951D01*
X252109Y86897D01*
X252191Y86840D01*
X252270Y86780D01*
X252348Y86716D01*
X252422Y86650D01*
X252494Y86581D01*
X252563Y86509D01*
X252629Y86435D01*
X252693Y86357D01*
X252753Y86278D01*
X252810Y86196D01*
X252864Y86112D01*
X252914Y86026D01*
X252961Y85938D01*
X253005Y85848D01*
X253045Y85757D01*
X253081Y85664D01*
X253114Y85570D01*
X253143Y85474D01*
X253168Y85378D01*
X253189Y85281D01*
X253207Y85182D01*
X253220Y85084D01*
X253230Y84984D01*
X253236Y84885D01*
X253238Y84785D01*
X253238Y82245D01*
X250190Y90932D02*
X248158Y93472D01*
X257302Y93472D01*
X257302Y90932D02*
X257302Y96012D01*
M02*
