G04 EAGLE Gerber RS-274X export*
G75*
%MOMM*%
%FSLAX34Y34*%
%LPD*%
%INSoldermask Bottom*%
%IPPOS*%
%AMOC8*
5,1,8,0,0,1.08239X$1,22.5*%
G01*
%ADD10P,1.869504X8X22.500000*%
%ADD11C,5.283200*%
%ADD12C,1.203200*%
%ADD13C,2.703200*%
%ADD14C,1.727200*%

G36*
X57677Y62210D02*
X57677Y62210D01*
X57748Y62207D01*
X57775Y62217D01*
X57804Y62219D01*
X57894Y62261D01*
X57934Y62276D01*
X57942Y62284D01*
X57955Y62290D01*
X60258Y63889D01*
X60282Y63915D01*
X60322Y63942D01*
X62331Y65899D01*
X62350Y65928D01*
X62385Y65961D01*
X64044Y68222D01*
X64059Y68253D01*
X64088Y68292D01*
X65352Y70795D01*
X65361Y70829D01*
X65383Y70872D01*
X66219Y73549D01*
X66222Y73583D01*
X66237Y73629D01*
X66620Y76408D01*
X66618Y76442D01*
X66624Y76490D01*
X66545Y79293D01*
X66537Y79327D01*
X66536Y79375D01*
X65997Y82127D01*
X65983Y82159D01*
X65974Y82207D01*
X64989Y84832D01*
X64974Y84857D01*
X64969Y84877D01*
X64961Y84888D01*
X64954Y84907D01*
X63550Y87335D01*
X63527Y87361D01*
X63503Y87403D01*
X61719Y89566D01*
X61692Y89588D01*
X61661Y89625D01*
X59545Y91466D01*
X59515Y91483D01*
X59479Y91515D01*
X57088Y92982D01*
X57056Y92993D01*
X57015Y93019D01*
X54416Y94072D01*
X54382Y94079D01*
X54337Y94097D01*
X51600Y94708D01*
X51565Y94709D01*
X51518Y94720D01*
X48718Y94872D01*
X48684Y94867D01*
X48636Y94870D01*
X45848Y94560D01*
X45815Y94549D01*
X45767Y94544D01*
X43069Y93779D01*
X43039Y93763D01*
X42992Y93750D01*
X40457Y92551D01*
X40433Y92534D01*
X40406Y92524D01*
X40354Y92475D01*
X40297Y92432D01*
X40283Y92407D01*
X40262Y92387D01*
X40233Y92322D01*
X40197Y92261D01*
X40194Y92232D01*
X40182Y92205D01*
X40181Y92134D01*
X40172Y92063D01*
X40180Y92035D01*
X40180Y92006D01*
X40214Y91913D01*
X40226Y91872D01*
X40233Y91863D01*
X40238Y91850D01*
X57238Y62450D01*
X57257Y62428D01*
X57270Y62402D01*
X57323Y62354D01*
X57370Y62301D01*
X57396Y62289D01*
X57418Y62269D01*
X57485Y62246D01*
X57549Y62216D01*
X57578Y62214D01*
X57606Y62205D01*
X57677Y62210D01*
G37*
G36*
X300496Y62211D02*
X300496Y62211D01*
X300567Y62210D01*
X300594Y62221D01*
X300623Y62225D01*
X300685Y62259D01*
X300750Y62287D01*
X300771Y62308D01*
X300796Y62322D01*
X300859Y62398D01*
X300889Y62429D01*
X300893Y62439D01*
X300902Y62450D01*
X317902Y91850D01*
X317911Y91878D01*
X317928Y91902D01*
X317943Y91971D01*
X317965Y92039D01*
X317963Y92068D01*
X317969Y92096D01*
X317956Y92166D01*
X317950Y92237D01*
X317937Y92263D01*
X317931Y92291D01*
X317891Y92350D01*
X317859Y92413D01*
X317836Y92432D01*
X317820Y92456D01*
X317738Y92513D01*
X317705Y92540D01*
X317695Y92543D01*
X317683Y92551D01*
X315148Y93750D01*
X315114Y93758D01*
X315071Y93779D01*
X312373Y94544D01*
X312338Y94546D01*
X312292Y94560D01*
X309504Y94870D01*
X309470Y94867D01*
X309422Y94872D01*
X306622Y94720D01*
X306588Y94711D01*
X306540Y94708D01*
X303803Y94097D01*
X303771Y94083D01*
X303724Y94072D01*
X301125Y93019D01*
X301096Y93000D01*
X301052Y92982D01*
X298661Y91515D01*
X298636Y91491D01*
X298595Y91466D01*
X296479Y89625D01*
X296458Y89598D01*
X296421Y89566D01*
X294637Y87403D01*
X294621Y87372D01*
X294590Y87335D01*
X293186Y84907D01*
X293175Y84874D01*
X293168Y84861D01*
X293158Y84847D01*
X293158Y84844D01*
X293151Y84832D01*
X292166Y82207D01*
X292160Y82172D01*
X292143Y82127D01*
X291604Y79375D01*
X291604Y79341D01*
X291595Y79293D01*
X291516Y76490D01*
X291522Y76456D01*
X291520Y76408D01*
X291903Y73629D01*
X291915Y73597D01*
X291921Y73549D01*
X292757Y70872D01*
X292774Y70841D01*
X292788Y70795D01*
X294052Y68292D01*
X294074Y68265D01*
X294096Y68222D01*
X295755Y65961D01*
X295781Y65938D01*
X295809Y65899D01*
X297818Y63942D01*
X297847Y63923D01*
X297882Y63889D01*
X300185Y62290D01*
X300212Y62278D01*
X300235Y62260D01*
X300303Y62239D01*
X300368Y62211D01*
X300397Y62211D01*
X300425Y62203D01*
X300496Y62211D01*
G37*
D10*
X124206Y172720D03*
X151638Y172720D03*
X179070Y172720D03*
X206502Y172720D03*
X233934Y172720D03*
X137922Y198120D03*
X165354Y198120D03*
X192786Y198120D03*
X220218Y198120D03*
D11*
X53848Y185420D03*
X304292Y185420D03*
D12*
X302970Y80900D03*
X55170Y80900D03*
D13*
X90170Y114300D03*
X267970Y114300D03*
D14*
X229870Y106680D02*
X229870Y91440D01*
X204470Y91440D02*
X204470Y106680D01*
X179070Y106680D02*
X179070Y91440D01*
X153670Y91440D02*
X153670Y106680D01*
X128270Y106680D02*
X128270Y91440D01*
M02*
